M48
;Layer_Color=9474304
;FILE_FORMAT=2:5
INCH,LZ
;TYPE=PLATED
T2F00S00C0.01378
T4F00S00C0.02756
T5F00S00C0.03150
T6F00S00C0.03543
T7F00S00C0.03622
T8F00S00C0.05118
T9F00S00C0.06890
%
T02
X0108019Y0031496
X01444Y00556
X01596Y0051
X01716Y0052
X02162
X0222Y0051
X0227533
X0233067
X02386
X02312Y01866
X02186Y0204
X02592Y02004
Y01904
Y02104
X02Y0199
X01856Y01888
X01692Y02112
X02104Y01602
X02102Y01468
X01936Y01326
X0186416Y0125984
X01912Y012
X0185Y0114
Y01086
X01794
Y01032
Y00976
X01692Y00924
X01638
X0164Y00774
X01714Y00772
X01722Y00698
X02054Y00896
X01866Y02512
X01718Y0253
X017Y02448
X0166Y02404
X01606Y02358
X01566Y02484
X01492
X01529Y0257345
X01396Y02562
X01156Y02516
X01154Y02198
X01682Y02714
X01826Y0279
X01879
X02294Y02662
X0238Y0243
X02406Y02166
X02532Y02276
X0316939Y0235394
X0324Y0236
X03196Y02416
X03184Y02592
X0307Y02784
X03424Y02704
X0367Y02168
X03722
X0390494Y0228362
T04
X0062992Y0020669
Y0042323
X0122047
Y0020669
X0326403Y0257613
X0340545
Y0243471
T05
X0173425Y0177953
X019311
X02792Y02354
Y0241305
Y0247211
Y0253116
Y0259022
Y0264928
X0303Y02648
Y0270706
Y0258894
Y0252989
Y0247083
Y0241178
T06
X0062992Y0086614
Y0165354
X0141732Y0145669
Y0106299
X0023228Y0062992
X0023622Y0173228
T07
X0250657Y0276712
X0262468
T08
X0065472Y0200748
X0105472
X0035472
X0045472Y0230748
X0035433Y0246457
X0045433Y0276457
X0065433Y0246457
X0105433
X0105472Y0230748
X0105433Y0276457
T09
X0023622Y0021063
Y0041142
X0019094Y0193701
Y0213779
Y0245669
Y0265748
M30
