G04*
G04 #@! TF.GenerationSoftware,Altium Limited,Altium Designer,21.7.1 (17)*
G04*
G04 Layer_Color=255*
%FSLAX25Y25*%
%MOIN*%
G70*
G04*
G04 #@! TF.SameCoordinates,E541626C-5F42-4904-A579-91A45D143E40*
G04*
G04*
G04 #@! TF.FilePolarity,Positive*
G04*
G01*
G75*
%ADD112C,0.05906*%
%ADD116R,0.04134X0.02165*%
%ADD117R,0.15354X0.24410*%
%ADD118R,0.07874X0.17323*%
%ADD119R,0.03543X0.03543*%
%ADD120R,0.03543X0.05906*%
%ADD121R,0.05906X0.03543*%
%ADD122R,0.07520X0.05512*%
%ADD123R,0.04724X0.11811*%
%ADD124R,0.04488X0.04724*%
%ADD125R,0.01575X0.05512*%
%ADD126R,0.07087X0.07480*%
%ADD127R,0.09055X0.07480*%
%ADD128R,0.07874X0.04331*%
%ADD129R,0.10799X0.08500*%
%ADD130R,0.02362X0.04724*%
%ADD131R,0.07087X0.05984*%
%ADD132R,0.03543X0.03799*%
%ADD133R,0.03799X0.03543*%
%ADD134R,0.05118X0.13386*%
%ADD135R,0.03937X0.03150*%
%ADD136R,0.02756X0.05906*%
%ADD137R,0.05906X0.04724*%
%ADD138R,0.05984X0.07480*%
%ADD139R,0.05118X0.04488*%
%ADD140R,0.04488X0.05118*%
%ADD141R,0.03799X0.03937*%
%ADD142R,0.03937X0.03799*%
%ADD143R,0.04724X0.02362*%
%ADD144R,0.03150X0.02362*%
%ADD145R,0.02362X0.03150*%
%ADD146R,0.02165X0.04134*%
%ADD147R,0.06299X0.04921*%
%ADD148R,0.06299X0.04724*%
%ADD149R,0.06299X0.12992*%
%ADD150R,0.02284X0.04646*%
%ADD151R,0.01181X0.04724*%
%ADD152R,0.04724X0.01181*%
%ADD153R,0.01968X0.05906*%
%ADD154R,0.05906X0.01968*%
%ADD155R,0.03937X0.01968*%
%ADD167R,0.06299X0.15748*%
%ADD168R,0.15748X0.06299*%
%ADD169R,0.07087X0.06299*%
%ADD170C,0.06693*%
%ADD171C,0.11811*%
%ADD172C,0.07874*%
%ADD173R,0.03937X0.03937*%
%ADD174C,0.05512*%
%ADD175C,0.09843*%
%ADD176R,0.09843X0.09843*%
D112*
X326403Y257613D02*
D03*
X340545Y243471D02*
D03*
Y257613D02*
D03*
D116*
X160630Y41732D02*
D03*
X149606D02*
D03*
X175400Y263400D02*
D03*
X164376D02*
D03*
D117*
X159618Y20894D02*
D03*
X210405D02*
D03*
X277335D02*
D03*
X226547D02*
D03*
D118*
X187374Y57902D02*
D03*
X254303D02*
D03*
D119*
X236250Y105127D02*
D03*
X241761D02*
D03*
X247273D02*
D03*
Y116150D02*
D03*
X241761D02*
D03*
X236250D02*
D03*
Y110638D02*
D03*
X247273D02*
D03*
X241761D02*
D03*
D120*
X270158Y71122D02*
D03*
X265158D02*
D03*
X260158D02*
D03*
X255158D02*
D03*
X250158D02*
D03*
X245158D02*
D03*
X240158D02*
D03*
X235158D02*
D03*
X230158D02*
D03*
X225158D02*
D03*
D121*
X213189Y76024D02*
D03*
Y81024D02*
D03*
Y86024D02*
D03*
Y91024D02*
D03*
Y96024D02*
D03*
Y101024D02*
D03*
Y106024D02*
D03*
Y111024D02*
D03*
Y116024D02*
D03*
Y121024D02*
D03*
Y126024D02*
D03*
Y131024D02*
D03*
Y136024D02*
D03*
Y141024D02*
D03*
X282087Y76024D02*
D03*
Y81024D02*
D03*
Y86024D02*
D03*
Y91024D02*
D03*
Y96024D02*
D03*
Y101024D02*
D03*
Y106024D02*
D03*
Y111024D02*
D03*
Y116024D02*
D03*
Y121024D02*
D03*
Y126024D02*
D03*
Y131024D02*
D03*
Y136024D02*
D03*
Y141024D02*
D03*
D122*
X250000Y180400D02*
D03*
Y190400D02*
D03*
Y200400D02*
D03*
Y210400D02*
D03*
Y220400D02*
D03*
D123*
X219882Y59449D02*
D03*
Y40945D02*
D03*
D124*
X356260Y223400D02*
D03*
X363740D02*
D03*
X334540Y278800D02*
D03*
X327060D02*
D03*
D125*
X156739Y268710D02*
D03*
X154180D02*
D03*
X151620D02*
D03*
X149061D02*
D03*
X146502D02*
D03*
D126*
X147093Y279537D02*
D03*
X156148D02*
D03*
D127*
X136857D02*
D03*
X166384D02*
D03*
D128*
X151181Y55610D02*
D03*
Y47539D02*
D03*
D129*
X202000Y80101D02*
D03*
Y62699D02*
D03*
D130*
X149160Y244045D02*
D03*
X152900D02*
D03*
X156640D02*
D03*
X149160Y253100D02*
D03*
X152900D02*
D03*
X156640D02*
D03*
D131*
X313970Y278322D02*
D03*
Y264857D02*
D03*
D132*
X126841Y263149D02*
D03*
Y256948D02*
D03*
X123600Y200100D02*
D03*
Y206300D02*
D03*
X206693Y193356D02*
D03*
Y199557D02*
D03*
X203800Y253700D02*
D03*
Y259900D02*
D03*
X197200Y270100D02*
D03*
Y276300D02*
D03*
X211000Y244100D02*
D03*
Y250300D02*
D03*
X203800Y265300D02*
D03*
Y271500D02*
D03*
X187900Y268800D02*
D03*
Y275000D02*
D03*
X182600Y268800D02*
D03*
Y275000D02*
D03*
X218600Y197300D02*
D03*
Y191100D02*
D03*
X229000Y196700D02*
D03*
Y202900D02*
D03*
X355703Y264158D02*
D03*
Y270359D02*
D03*
X312200Y252700D02*
D03*
Y258900D02*
D03*
X369000Y266800D02*
D03*
Y260599D02*
D03*
X333268Y218489D02*
D03*
Y224690D02*
D03*
X328118Y218489D02*
D03*
Y224690D02*
D03*
X370200Y221300D02*
D03*
Y227500D02*
D03*
X387200Y224900D02*
D03*
Y218700D02*
D03*
X376800Y218700D02*
D03*
Y224900D02*
D03*
X321451Y273213D02*
D03*
Y279414D02*
D03*
X395600Y247700D02*
D03*
Y253900D02*
D03*
D133*
X132648Y268317D02*
D03*
X126447D02*
D03*
X128500Y209200D02*
D03*
X134700D02*
D03*
X128500Y214200D02*
D03*
X134700D02*
D03*
X162100Y226700D02*
D03*
X155900D02*
D03*
X153000Y218400D02*
D03*
X146799D02*
D03*
X246914Y263937D02*
D03*
X253115D02*
D03*
X225700Y217800D02*
D03*
X219500D02*
D03*
X227500Y224600D02*
D03*
X233700D02*
D03*
X211467Y174016D02*
D03*
X217667D02*
D03*
X265000Y264000D02*
D03*
X271200D02*
D03*
X374148Y260772D02*
D03*
X380349D02*
D03*
X391972Y270408D02*
D03*
X385771D02*
D03*
X385821Y265290D02*
D03*
X392021D02*
D03*
X315400Y218400D02*
D03*
X321600D02*
D03*
X356292Y217839D02*
D03*
X362493D02*
D03*
X329964Y272573D02*
D03*
X336165D02*
D03*
D134*
X182874Y75000D02*
D03*
X191142D02*
D03*
D135*
X242193Y272381D02*
D03*
Y281042D02*
D03*
X270933D02*
D03*
Y272381D02*
D03*
D136*
X265420Y269822D02*
D03*
X247703D02*
D03*
X253609D02*
D03*
D137*
X162402Y146457D02*
D03*
Y125984D02*
D03*
X197441Y146457D02*
D03*
Y125984D02*
D03*
D138*
X369732Y277298D02*
D03*
X356268D02*
D03*
X377317D02*
D03*
X390781D02*
D03*
D139*
X199409Y101575D02*
D03*
Y94095D02*
D03*
Y107087D02*
D03*
Y114567D02*
D03*
X205906Y107087D02*
D03*
Y114567D02*
D03*
X175000Y281140D02*
D03*
Y273660D02*
D03*
X264369Y238961D02*
D03*
Y231480D02*
D03*
X258069Y238961D02*
D03*
Y231480D02*
D03*
X270400Y238961D02*
D03*
Y231480D02*
D03*
X213000Y198940D02*
D03*
Y191460D02*
D03*
X224981Y248210D02*
D03*
Y240730D02*
D03*
X218482Y248210D02*
D03*
Y240730D02*
D03*
X231477Y248210D02*
D03*
Y240730D02*
D03*
X176400Y206660D02*
D03*
Y214140D02*
D03*
X179600Y253080D02*
D03*
Y245600D02*
D03*
X205906Y123228D02*
D03*
Y130709D02*
D03*
X199409Y139764D02*
D03*
Y132283D02*
D03*
X205906Y143701D02*
D03*
Y136221D02*
D03*
X395200Y219460D02*
D03*
Y226940D02*
D03*
X312000Y245140D02*
D03*
Y237660D02*
D03*
D140*
X159260Y56800D02*
D03*
X166740D02*
D03*
X236580Y271203D02*
D03*
X229100D02*
D03*
X125219Y245276D02*
D03*
X117739D02*
D03*
X236580Y277699D02*
D03*
X229100D02*
D03*
X208640Y205700D02*
D03*
X201160D02*
D03*
X346648Y218833D02*
D03*
X339167D02*
D03*
X346648Y225615D02*
D03*
X339167D02*
D03*
X299042Y231306D02*
D03*
X306522D02*
D03*
X299000Y224936D02*
D03*
X306481D02*
D03*
D141*
X177900Y57367D02*
D03*
X171700D02*
D03*
X182726Y88386D02*
D03*
X188927D02*
D03*
X125500Y251000D02*
D03*
X119300D02*
D03*
X374148Y265890D02*
D03*
X380349D02*
D03*
X300500Y219200D02*
D03*
X306700D02*
D03*
X385821Y260172D02*
D03*
X392021D02*
D03*
D142*
X205315Y100541D02*
D03*
Y94340D02*
D03*
X128600Y201500D02*
D03*
Y195300D02*
D03*
X155800Y196700D02*
D03*
Y202900D02*
D03*
X354718Y254857D02*
D03*
Y248656D02*
D03*
X363800Y266800D02*
D03*
Y260599D02*
D03*
X395800Y239100D02*
D03*
Y232900D02*
D03*
X382000Y218700D02*
D03*
Y224900D02*
D03*
X205600Y154100D02*
D03*
Y160300D02*
D03*
D143*
X321355Y231800D02*
D03*
X312300Y224320D02*
D03*
Y231800D02*
D03*
X321355Y228060D02*
D03*
Y224320D02*
D03*
D144*
X128022Y273632D02*
D03*
X120148Y277372D02*
D03*
X128022Y281112D02*
D03*
X123622Y211614D02*
D03*
X115748Y215354D02*
D03*
X123622Y219094D02*
D03*
X349600Y271392D02*
D03*
X341726Y275132D02*
D03*
X349600Y278873D02*
D03*
D145*
X218110Y186811D02*
D03*
X214370Y178937D02*
D03*
X210630Y186811D02*
D03*
X231102Y181496D02*
D03*
X227362Y173622D02*
D03*
X223622Y181496D02*
D03*
D146*
X116500Y259688D02*
D03*
Y270712D02*
D03*
X116535Y195276D02*
D03*
Y206299D02*
D03*
D147*
X134916Y194869D02*
D03*
Y203531D02*
D03*
X149484Y194869D02*
D03*
Y203531D02*
D03*
D148*
X192323Y95276D02*
D03*
Y104331D02*
D03*
Y113386D02*
D03*
D149*
X167126Y104331D02*
D03*
D150*
X390191Y233558D02*
D03*
X385191D02*
D03*
X380191D02*
D03*
X375191D02*
D03*
X370191D02*
D03*
X365191D02*
D03*
X360191D02*
D03*
Y254503D02*
D03*
X365191D02*
D03*
X370191D02*
D03*
X375191D02*
D03*
X380191D02*
D03*
X385191D02*
D03*
X390191D02*
D03*
D151*
X183759Y211998D02*
D03*
X185728D02*
D03*
X187696D02*
D03*
X189665D02*
D03*
X191633D02*
D03*
X193602D02*
D03*
X195570D02*
D03*
X197539D02*
D03*
X199507D02*
D03*
X201476D02*
D03*
X205413D02*
D03*
Y245463D02*
D03*
X203444D02*
D03*
X201476D02*
D03*
X199507D02*
D03*
X197539D02*
D03*
X195570D02*
D03*
X193602D02*
D03*
X191633D02*
D03*
X189665D02*
D03*
X187696D02*
D03*
X185728D02*
D03*
X183759D02*
D03*
X203444Y211998D02*
D03*
D152*
X211318Y217904D02*
D03*
Y219872D02*
D03*
Y221841D02*
D03*
Y223810D02*
D03*
Y225778D02*
D03*
Y227747D02*
D03*
Y229715D02*
D03*
Y231683D02*
D03*
Y233652D02*
D03*
Y235620D02*
D03*
Y237589D02*
D03*
Y239558D02*
D03*
X177854D02*
D03*
Y237589D02*
D03*
Y235620D02*
D03*
Y233652D02*
D03*
Y231683D02*
D03*
Y229715D02*
D03*
Y227747D02*
D03*
Y225778D02*
D03*
Y223810D02*
D03*
Y221841D02*
D03*
Y219872D02*
D03*
Y217904D02*
D03*
D153*
X177185Y84842D02*
D03*
X172185D02*
D03*
X167185D02*
D03*
X162185D02*
D03*
X177185Y63583D02*
D03*
X172185D02*
D03*
X167185D02*
D03*
X162185D02*
D03*
X208900Y256370D02*
D03*
X213900D02*
D03*
X218900D02*
D03*
X223900D02*
D03*
X208900Y277630D02*
D03*
X213900D02*
D03*
X218900D02*
D03*
X223900D02*
D03*
D154*
X138189Y224390D02*
D03*
Y229390D02*
D03*
Y234390D02*
D03*
Y239390D02*
D03*
X116929Y224390D02*
D03*
Y229390D02*
D03*
Y234390D02*
D03*
Y239390D02*
D03*
D155*
X144200Y224735D02*
D03*
Y229065D02*
D03*
D167*
X203862Y36244D02*
D03*
X270791D02*
D03*
D168*
X185039Y23622D02*
D03*
X251969D02*
D03*
D169*
X180693Y48465D02*
D03*
X247622D02*
D03*
D170*
X122047Y42323D02*
D03*
Y20669D02*
D03*
X62992D02*
D03*
Y42323D02*
D03*
D171*
X23622Y41142D02*
D03*
Y21063D02*
D03*
X19094Y265748D02*
D03*
Y245669D02*
D03*
Y213779D02*
D03*
Y193701D02*
D03*
D172*
X23228Y62992D02*
D03*
X23622Y173228D02*
D03*
X173425Y177953D02*
D03*
X193110D02*
D03*
D173*
X279200Y235400D02*
D03*
Y241305D02*
D03*
Y247211D02*
D03*
Y253116D02*
D03*
Y259022D02*
D03*
Y264928D02*
D03*
X303000Y270706D02*
D03*
Y264800D02*
D03*
Y258894D02*
D03*
Y252989D02*
D03*
Y247083D02*
D03*
Y241178D02*
D03*
D174*
X262468Y276712D02*
D03*
X250657D02*
D03*
D175*
X35433Y246457D02*
D03*
X65433D02*
D03*
X105433D02*
D03*
Y276457D02*
D03*
X45433D02*
D03*
X35472Y200748D02*
D03*
X65472D02*
D03*
X105472D02*
D03*
Y230748D02*
D03*
X45472D02*
D03*
D176*
X141732Y106299D02*
D03*
Y145669D02*
D03*
X62992Y86614D02*
D03*
Y165354D02*
D03*
M02*
