G04*
G04 #@! TF.GenerationSoftware,Altium Limited,Altium Designer,21.7.1 (17)*
G04*
G04 Layer_Color=128*
%FSLAX25Y25*%
%MOIN*%
G70*
G04*
G04 #@! TF.SameCoordinates,E541626C-5F42-4904-A579-91A45D143E40*
G04*
G04*
G04 #@! TF.FilePolarity,Positive*
G04*
G01*
G75*
%ADD17C,0.01000*%
%ADD22C,0.00800*%
%ADD201C,0.00200*%
D17*
X290600Y206000D02*
Y210800D01*
Y171600D02*
Y206000D01*
D22*
Y285400D02*
X401200D01*
Y210800D02*
Y285400D01*
X290600Y210800D02*
X401200D01*
X1200Y285400D02*
X290600D01*
Y200D02*
Y171600D01*
X1400Y200D02*
X290600D01*
X1200Y0D02*
X1400Y200D01*
X1200Y0D02*
Y285400D01*
D201*
X202681Y36244D02*
X205043D01*
X203862Y35063D02*
Y37425D01*
X184449Y23622D02*
X185630D01*
X185039Y23031D02*
Y24213D01*
X179512Y48465D02*
X181874D01*
X180693Y47284D02*
Y49646D01*
X120669Y42323D02*
X123425D01*
X122047Y40945D02*
Y43701D01*
X120669Y20669D02*
X123425D01*
X122047Y19291D02*
Y22047D01*
X325025Y257613D02*
X327781D01*
X326403Y256235D02*
Y258991D01*
X339167Y243471D02*
X341923D01*
X340545Y242093D02*
Y244849D01*
X339167Y257613D02*
X341923D01*
X340545Y256235D02*
Y258991D01*
X246441Y48465D02*
X248803D01*
X247622Y47284D02*
Y49646D01*
X251378Y23622D02*
X252559D01*
X251969Y23031D02*
Y24213D01*
X269610Y36244D02*
X271972D01*
X270791Y35063D02*
Y37425D01*
X61614Y20669D02*
X64370D01*
X62992Y19291D02*
Y22047D01*
X61614Y42323D02*
X64370D01*
X62992Y40945D02*
Y43701D01*
X20177Y41142D02*
X27067D01*
X23622Y37697D02*
Y44587D01*
X20177Y21063D02*
X27067D01*
X23622Y17618D02*
Y24508D01*
X15650Y265748D02*
X22539D01*
X19094Y262303D02*
Y269193D01*
X15650Y245669D02*
X22539D01*
X19094Y242224D02*
Y249114D01*
X15650Y213779D02*
X22539D01*
X19094Y210335D02*
Y217224D01*
X15650Y193701D02*
X22539D01*
X19094Y190256D02*
Y197146D01*
X21457Y62992D02*
X25000D01*
X23228Y61221D02*
Y64764D01*
X21850Y173228D02*
X25394D01*
X23622Y171457D02*
Y175000D01*
X277625Y235400D02*
X280775D01*
X279200Y233825D02*
Y236975D01*
X277625Y241305D02*
X280775D01*
X279200Y239731D02*
Y242880D01*
X277625Y247211D02*
X280775D01*
X279200Y245636D02*
Y248786D01*
X277625Y253116D02*
X280775D01*
X279200Y251542D02*
Y254691D01*
X277625Y259022D02*
X280775D01*
X279200Y257447D02*
Y260597D01*
X277625Y264928D02*
X280775D01*
X279200Y263353D02*
Y266502D01*
X301425Y270706D02*
X304575D01*
X303000Y269131D02*
Y272280D01*
X301425Y264800D02*
X304575D01*
X303000Y263225D02*
Y266375D01*
X301425Y258894D02*
X304575D01*
X303000Y257320D02*
Y260469D01*
X301425Y252989D02*
X304575D01*
X303000Y251414D02*
Y254564D01*
X301425Y247083D02*
X304575D01*
X303000Y245509D02*
Y248658D01*
X301425Y241178D02*
X304575D01*
X303000Y239603D02*
Y242753D01*
X171850Y177953D02*
X175000D01*
X173425Y176378D02*
Y179527D01*
X191535Y177953D02*
X194685D01*
X193110Y176378D02*
Y179527D01*
X260657Y276712D02*
X264279D01*
X262468Y274901D02*
Y278523D01*
X248846Y276712D02*
X252468D01*
X250657Y274901D02*
Y278523D01*
X32874Y246457D02*
X37992D01*
X35433Y243898D02*
Y249016D01*
X62874Y246457D02*
X67992D01*
X65433Y243898D02*
Y249016D01*
X102874Y246457D02*
X107992D01*
X105433Y243898D02*
Y249016D01*
X102874Y276457D02*
X107992D01*
X105433Y273898D02*
Y279016D01*
X42874Y276457D02*
X47992D01*
X45433Y273898D02*
Y279016D01*
X32913Y200748D02*
X38032D01*
X35472Y198189D02*
Y203307D01*
X62913Y200748D02*
X68032D01*
X65472Y198189D02*
Y203307D01*
X102913Y200748D02*
X108031D01*
X105472Y198189D02*
Y203307D01*
X102913Y230748D02*
X108031D01*
X105472Y228189D02*
Y233307D01*
X42913Y230748D02*
X48031D01*
X45472Y228189D02*
Y233307D01*
X139961Y106299D02*
X143504D01*
X141732Y104528D02*
Y108071D01*
X139961Y145669D02*
X143504D01*
X141732Y143898D02*
Y147441D01*
X61221Y86614D02*
X64764D01*
X62992Y84842D02*
Y88386D01*
X61221Y165354D02*
X64764D01*
X62992Y163583D02*
Y167126D01*
X107330Y31496D02*
X108707D01*
X108019Y30807D02*
Y32185D01*
X171511Y69800D02*
X172889D01*
X172200Y69111D02*
Y70489D01*
X237311Y243000D02*
X238689D01*
X238000Y242311D02*
Y243689D01*
X209711Y160200D02*
X211089D01*
X210400Y159511D02*
Y160889D01*
X184311Y114000D02*
X185689D01*
X185000Y113311D02*
Y114689D01*
X389805Y228362D02*
X391183D01*
X390494Y227673D02*
Y229050D01*
X143711Y55600D02*
X145089D01*
X144400Y54911D02*
Y56289D01*
X185727Y125984D02*
X187105D01*
X186416Y125295D02*
Y126673D01*
X341711Y270400D02*
X343089D01*
X342400Y269711D02*
Y271089D01*
X184911Y188800D02*
X186289D01*
X185600Y188111D02*
Y189489D01*
X306311Y278400D02*
X307689D01*
X307000Y277711D02*
Y279089D01*
X316250Y235394D02*
X317628D01*
X316939Y234705D02*
Y236083D01*
X323311Y236000D02*
X324689D01*
X324000Y235311D02*
Y236689D01*
X138911Y256200D02*
X140289D01*
X139600Y255511D02*
Y256889D01*
X317711Y259200D02*
X319089D01*
X318400Y258511D02*
Y259889D01*
X366311Y216800D02*
X367689D01*
X367000Y216111D02*
Y217489D01*
X168511Y92400D02*
X169889D01*
X169200Y91711D02*
Y93089D01*
X163111Y92400D02*
X164489D01*
X163800Y91711D02*
Y93089D01*
X170711Y77200D02*
X172089D01*
X171400Y76511D02*
Y77889D01*
X163311Y77400D02*
X164689D01*
X164000Y76711D02*
Y78089D01*
X371511Y216800D02*
X372889D01*
X372200Y216111D02*
Y217489D01*
X318911Y241600D02*
X320289D01*
X319600Y240911D02*
Y242289D01*
X114711Y219800D02*
X116089D01*
X115400Y219111D02*
Y220489D01*
X178711Y97600D02*
X180089D01*
X179400Y96911D02*
Y98289D01*
X178711Y103200D02*
X180089D01*
X179400Y102511D02*
Y103889D01*
X178711Y108600D02*
X180089D01*
X179400Y107911D02*
Y109289D01*
X184311Y108600D02*
X185689D01*
X185000Y107911D02*
Y109289D01*
X237911Y51000D02*
X239289D01*
X238600Y50311D02*
Y51689D01*
X232378Y51000D02*
X233756D01*
X233067Y50311D02*
Y51689D01*
X228711Y266200D02*
X230089D01*
X229400Y265511D02*
Y266889D01*
X252511Y227600D02*
X253889D01*
X253200Y226911D02*
Y228289D01*
X169311Y244800D02*
X170689D01*
X170000Y244111D02*
Y245489D01*
X199311Y199000D02*
X200689D01*
X200000Y198311D02*
Y199689D01*
X171111Y253000D02*
X172489D01*
X171800Y252311D02*
Y253689D01*
X168511Y211200D02*
X169889D01*
X169200Y210511D02*
Y211889D01*
X221311Y51000D02*
X222689D01*
X222000Y50311D02*
Y51689D01*
X226844Y51000D02*
X228222D01*
X227533Y50311D02*
Y51689D01*
X215511Y52000D02*
X216889D01*
X216200Y51311D02*
Y52689D01*
X148511Y248400D02*
X149889D01*
X149200Y247711D02*
Y249089D01*
X181911Y279000D02*
X183289D01*
X182600Y278311D02*
Y279689D01*
X155911Y248400D02*
X157289D01*
X156600Y247711D02*
Y249089D01*
X187211Y279000D02*
X188589D01*
X187900Y278311D02*
Y279689D01*
X258511Y190400D02*
X259889D01*
X259200Y189711D02*
Y191089D01*
X165311Y240400D02*
X166689D01*
X166000Y239711D02*
Y241089D01*
X258511Y200400D02*
X259889D01*
X259200Y199711D02*
Y201089D01*
X258511Y210400D02*
X259889D01*
X259200Y209711D02*
Y211089D01*
X185911Y251200D02*
X187289D01*
X186600Y250511D02*
Y251889D01*
X239911Y216600D02*
X241289D01*
X240600Y215911D02*
Y217289D01*
X230511Y186600D02*
X231889D01*
X231200Y185911D02*
Y187289D01*
X158911Y51000D02*
X160289D01*
X159600Y50311D02*
Y51689D01*
X170911Y52000D02*
X172289D01*
X171600Y51311D02*
Y52689D01*
X190511Y120000D02*
X191889D01*
X191200Y119311D02*
Y120689D01*
X209511Y146800D02*
X210889D01*
X210200Y146111D02*
Y147489D01*
X159911Y235800D02*
X161289D01*
X160600Y235111D02*
Y236489D01*
X217911Y204000D02*
X219289D01*
X218600Y203311D02*
Y204689D01*
X167511Y271400D02*
X168889D01*
X168200Y270711D02*
Y272089D01*
X204711Y89600D02*
X206089D01*
X205400Y88911D02*
Y90289D01*
X192911Y132600D02*
X194289D01*
X193600Y131911D02*
Y133289D01*
X114911Y251600D02*
X116289D01*
X115600Y250911D02*
Y252289D01*
X152211Y257345D02*
X153589D01*
X152900Y256656D02*
Y258034D01*
M02*
