G04*
G04 #@! TF.GenerationSoftware,Altium Limited,Altium Designer,21.7.1 (17)*
G04*
G04 Layer_Color=32896*
%FSLAX25Y25*%
%MOIN*%
G70*
G04*
G04 #@! TF.SameCoordinates,E541626C-5F42-4904-A579-91A45D143E40*
G04*
G04*
G04 #@! TF.FilePolarity,Positive*
G04*
G01*
G75*
%ADD199C,0.00057*%
%ADD200C,0.00079*%
D199*
X361197Y248066D02*
Y248465D01*
X361254Y247554D02*
Y248921D01*
X361311Y247326D02*
Y249149D01*
X361368Y247155D02*
Y249319D01*
X361425Y246984D02*
Y249433D01*
X361482Y246870D02*
Y249604D01*
X361539Y246757D02*
Y249661D01*
X361596Y246700D02*
Y249775D01*
X361653Y246586D02*
Y249832D01*
X361710Y248579D02*
Y249946D01*
Y246529D02*
Y247839D01*
X361767Y248921D02*
Y250003D01*
Y246472D02*
Y247554D01*
X361824Y249092D02*
Y250060D01*
Y246358D02*
Y247383D01*
X361881Y249262D02*
Y250117D01*
Y246358D02*
Y247155D01*
X361937Y249376D02*
Y250174D01*
Y246301D02*
Y247098D01*
X361995Y249490D02*
Y250174D01*
Y246244D02*
Y246984D01*
X362051Y249547D02*
Y250231D01*
Y246187D02*
Y246870D01*
X362108Y249604D02*
Y250288D01*
Y246187D02*
Y246814D01*
X362165Y249661D02*
Y250288D01*
Y246130D02*
Y246757D01*
X362222Y249718D02*
Y250344D01*
Y246130D02*
Y246700D01*
X362279Y249775D02*
Y251540D01*
Y244365D02*
Y246700D01*
X362336Y249832D02*
Y251654D01*
Y244251D02*
Y246643D01*
X362393Y249832D02*
Y251711D01*
Y244194D02*
Y246586D01*
X362450Y249832D02*
Y251711D01*
Y244194D02*
Y246586D01*
X362507Y249832D02*
Y251711D01*
Y244194D02*
Y246586D01*
X362564Y249889D02*
Y251711D01*
Y244194D02*
Y246586D01*
X362621Y249889D02*
Y251711D01*
Y244194D02*
Y246586D01*
X362678Y249946D02*
Y251711D01*
Y244194D02*
Y246529D01*
X362735Y250003D02*
Y251768D01*
Y244137D02*
Y246472D01*
X362792Y251256D02*
Y251768D01*
Y244137D02*
Y244650D01*
X362849Y251256D02*
Y251768D01*
Y244137D02*
Y244650D01*
X362906Y251256D02*
Y251768D01*
Y244137D02*
Y244650D01*
X362963Y251256D02*
Y251825D01*
Y244080D02*
Y244650D01*
X363020Y251313D02*
Y251825D01*
Y244080D02*
Y244592D01*
X363076Y251313D02*
Y251825D01*
Y244080D02*
Y244592D01*
X363134Y251313D02*
Y251882D01*
Y244023D02*
Y244592D01*
X363190Y251370D02*
Y251939D01*
Y244023D02*
Y244536D01*
X363247Y251370D02*
Y251939D01*
Y243966D02*
Y244536D01*
X363304Y251370D02*
Y251996D01*
Y243909D02*
Y244536D01*
X363361Y251426D02*
Y251996D01*
Y243852D02*
Y244479D01*
X363418Y251426D02*
Y252053D01*
Y243852D02*
Y244479D01*
X363475Y251483D02*
Y252110D01*
Y243795D02*
Y244422D01*
X363532Y251540D02*
Y252167D01*
Y243738D02*
Y244365D01*
X363589Y251540D02*
Y252281D01*
Y243624D02*
Y244365D01*
X363646Y251597D02*
Y252338D01*
Y243567D02*
Y244308D01*
X363703Y251654D02*
Y252395D01*
Y243454D02*
Y244251D01*
X363760Y251711D02*
Y252508D01*
Y243397D02*
Y244194D01*
X363817Y251768D02*
Y252736D01*
Y243226D02*
Y244137D01*
X363874Y251825D02*
Y253078D01*
Y242884D02*
Y244080D01*
X363931Y251882D02*
Y253249D01*
Y242656D02*
Y244023D01*
X363988Y251939D02*
Y253306D01*
Y242599D02*
Y243966D01*
X364045Y251996D02*
Y253306D01*
Y242599D02*
Y243909D01*
X364102Y252110D02*
Y253363D01*
Y242542D02*
Y243795D01*
X364159Y252224D02*
Y253363D01*
Y242542D02*
Y243681D01*
X364215Y252338D02*
Y253363D01*
Y242542D02*
Y243511D01*
X364272Y252451D02*
Y253363D01*
Y242542D02*
Y243454D01*
X364329Y252679D02*
Y253363D01*
Y242542D02*
Y243226D01*
X364386Y252850D02*
Y253363D01*
Y242542D02*
Y243055D01*
X364443Y252850D02*
Y253363D01*
Y242542D02*
Y243055D01*
X364500Y252850D02*
Y253363D01*
Y242542D02*
Y243055D01*
X364557Y252850D02*
Y253363D01*
Y242542D02*
Y243055D01*
X364614Y252850D02*
Y253363D01*
Y242542D02*
Y243055D01*
X364671Y252850D02*
Y253363D01*
Y242542D02*
Y243055D01*
X364728Y252850D02*
Y253363D01*
Y242542D02*
Y243055D01*
X364785Y252850D02*
Y253363D01*
Y242542D02*
Y243055D01*
X364842Y252850D02*
Y253363D01*
Y242542D02*
Y243055D01*
X364899Y252850D02*
Y253363D01*
Y242542D02*
Y243055D01*
X364956Y252850D02*
Y253363D01*
Y242542D02*
Y243055D01*
X365013Y252850D02*
Y253363D01*
Y242542D02*
Y243055D01*
X365070Y252850D02*
Y253363D01*
Y242542D02*
Y243055D01*
X365127Y252850D02*
Y253363D01*
Y242542D02*
Y243055D01*
X365184Y252850D02*
Y253363D01*
Y242542D02*
Y243055D01*
X365241Y252850D02*
Y253363D01*
Y242542D02*
Y243055D01*
X365298Y252850D02*
Y253363D01*
Y242542D02*
Y243055D01*
X365354Y252850D02*
Y253363D01*
Y246984D02*
Y247155D01*
Y242542D02*
Y243055D01*
X365411Y252850D02*
Y253363D01*
Y246870D02*
Y247326D01*
Y242542D02*
Y243055D01*
X365468Y252850D02*
Y253363D01*
Y246870D02*
Y247440D01*
Y242542D02*
Y243055D01*
X365525Y252850D02*
Y253363D01*
Y247269D02*
Y247497D01*
Y246870D02*
Y247098D01*
Y242542D02*
Y243055D01*
X365582Y252850D02*
Y253477D01*
Y247383D02*
Y247554D01*
Y246870D02*
Y247041D01*
Y242428D02*
Y243055D01*
X365639Y252850D02*
Y253590D01*
Y247440D02*
Y247611D01*
Y246927D02*
Y246984D01*
Y242315D02*
Y243055D01*
X365696Y252850D02*
Y253647D01*
Y247440D02*
Y247668D01*
Y242258D02*
Y243055D01*
X365753Y252850D02*
Y253704D01*
Y247497D02*
Y247725D01*
Y242201D02*
Y243055D01*
X365810Y252850D02*
Y253818D01*
Y247554D02*
Y247782D01*
Y242087D02*
Y243055D01*
X365867Y252850D02*
Y253818D01*
Y247554D02*
Y247782D01*
Y242030D02*
Y243055D01*
X365924Y252907D02*
Y253875D01*
Y247554D02*
Y247839D01*
Y242030D02*
Y242941D01*
X365981Y253021D02*
Y253932D01*
Y247554D02*
Y247896D01*
Y241973D02*
Y242827D01*
X366038Y253249D02*
Y253989D01*
Y247611D02*
Y247896D01*
Y241916D02*
Y242656D01*
X366095Y253363D02*
Y253989D01*
Y249604D02*
Y250288D01*
Y247611D02*
Y247953D01*
Y245276D02*
Y245959D01*
Y241859D02*
Y242542D01*
X366152Y253420D02*
Y254046D01*
Y249490D02*
Y250458D01*
Y247611D02*
Y247953D01*
Y245105D02*
Y246073D01*
Y241859D02*
Y242485D01*
X366209Y253477D02*
Y254103D01*
Y250288D02*
Y250515D01*
Y249376D02*
Y250060D01*
Y247611D02*
Y248009D01*
Y245674D02*
Y246187D01*
Y244991D02*
Y245390D01*
Y241802D02*
Y242428D01*
X366266Y253534D02*
Y254103D01*
Y250458D02*
Y250629D01*
Y249319D02*
Y250003D01*
Y247611D02*
Y248066D01*
Y245789D02*
Y246301D01*
Y244934D02*
Y245333D01*
Y241802D02*
Y242372D01*
X366323Y253590D02*
Y254160D01*
Y250515D02*
Y250686D01*
Y249319D02*
Y249946D01*
Y247554D02*
Y248066D01*
Y245845D02*
Y246358D01*
Y244934D02*
Y245333D01*
Y241745D02*
Y242372D01*
X366380Y253590D02*
Y254160D01*
Y250629D02*
Y250743D01*
Y249262D02*
Y249946D01*
Y247554D02*
Y248123D01*
Y245902D02*
Y246415D01*
Y244877D02*
Y245276D01*
Y241745D02*
Y242315D01*
X366437Y253647D02*
Y254217D01*
Y250686D02*
Y250800D01*
Y249262D02*
Y249889D01*
Y247554D02*
Y248123D01*
Y245902D02*
Y246472D01*
Y244877D02*
Y245276D01*
Y241688D02*
Y242258D01*
X366494Y253647D02*
Y254217D01*
Y250686D02*
Y250857D01*
Y249205D02*
Y249889D01*
Y247554D02*
Y248180D01*
Y245959D02*
Y246529D01*
Y244877D02*
Y245276D01*
Y241688D02*
Y242258D01*
X366550Y253704D02*
Y254217D01*
Y250743D02*
Y250857D01*
Y249205D02*
Y249889D01*
Y247554D02*
Y248237D01*
Y246016D02*
Y246529D01*
Y244877D02*
Y245276D01*
Y241631D02*
Y242201D01*
X366607Y253704D02*
Y254274D01*
Y250743D02*
Y250914D01*
Y249149D02*
Y249889D01*
Y247554D02*
Y248237D01*
Y246016D02*
Y246586D01*
Y244877D02*
Y245276D01*
Y241631D02*
Y242201D01*
X366664Y253761D02*
Y254274D01*
Y250743D02*
Y250914D01*
Y249149D02*
Y249889D01*
Y247554D02*
Y248294D01*
Y246016D02*
Y246643D01*
Y244877D02*
Y245276D01*
Y241631D02*
Y242144D01*
X366721Y253761D02*
Y254274D01*
Y250743D02*
Y250914D01*
Y249092D02*
Y249889D01*
Y247554D02*
Y248294D01*
Y246073D02*
Y246643D01*
Y244934D02*
Y245276D01*
Y241631D02*
Y242144D01*
X366778Y253818D02*
Y254331D01*
Y250743D02*
Y250914D01*
Y250344D02*
Y250401D01*
Y249092D02*
Y249946D01*
Y247554D02*
Y248351D01*
Y246073D02*
Y246700D01*
Y244991D02*
Y245219D01*
Y241574D02*
Y242144D01*
X366835Y253818D02*
Y254331D01*
Y250686D02*
Y250914D01*
Y250231D02*
Y250515D01*
Y249035D02*
Y249946D01*
Y247554D02*
Y248351D01*
Y246073D02*
Y246700D01*
Y241574D02*
Y242087D01*
X366892Y253818D02*
Y254331D01*
Y250231D02*
Y250914D01*
Y249718D02*
Y249946D01*
Y249035D02*
Y249661D01*
Y247554D02*
Y248408D01*
Y246130D02*
Y246700D01*
Y241574D02*
Y242087D01*
X366949Y253818D02*
Y254331D01*
Y250231D02*
Y250914D01*
Y249718D02*
Y249946D01*
Y248978D02*
Y249661D01*
Y248180D02*
Y248408D01*
Y247554D02*
Y248123D01*
Y246130D02*
Y246757D01*
Y241574D02*
Y242030D01*
X367006Y253875D02*
Y254388D01*
Y250231D02*
Y250914D01*
Y249718D02*
Y249946D01*
Y248978D02*
Y249604D01*
Y248237D02*
Y248465D01*
Y247497D02*
Y248123D01*
Y246130D02*
Y246757D01*
Y241517D02*
Y242030D01*
X367063Y253875D02*
Y254388D01*
Y250231D02*
Y250857D01*
Y249718D02*
Y249946D01*
Y248921D02*
Y249604D01*
Y248294D02*
Y248465D01*
Y247497D02*
Y248123D01*
Y246130D02*
Y246757D01*
Y241517D02*
Y242030D01*
X367120Y253875D02*
Y254388D01*
Y250288D02*
Y250800D01*
Y249718D02*
Y249946D01*
Y248921D02*
Y249547D01*
Y248294D02*
Y248522D01*
Y247497D02*
Y248123D01*
Y246130D02*
Y246757D01*
Y241517D02*
Y242030D01*
X367177Y253875D02*
Y254388D01*
Y250344D02*
Y250743D01*
Y249775D02*
Y249946D01*
Y248864D02*
Y249547D01*
Y248351D02*
Y248522D01*
Y247497D02*
Y248123D01*
Y246130D02*
Y246814D01*
Y241517D02*
Y242030D01*
X367234Y253875D02*
Y254388D01*
Y249775D02*
Y249946D01*
Y248864D02*
Y249490D01*
Y248351D02*
Y248579D01*
Y247497D02*
Y248123D01*
Y246187D02*
Y246814D01*
Y241517D02*
Y242030D01*
X367291Y253875D02*
Y254388D01*
Y249775D02*
Y249946D01*
Y248807D02*
Y249490D01*
Y248408D02*
Y248579D01*
Y247497D02*
Y248123D01*
Y246187D02*
Y246814D01*
Y241517D02*
Y242030D01*
X367348Y253932D02*
Y254388D01*
Y249775D02*
Y249946D01*
Y248807D02*
Y249433D01*
Y248408D02*
Y248636D01*
Y247497D02*
Y248123D01*
Y246187D02*
Y246814D01*
Y241517D02*
Y241973D01*
X367405Y253932D02*
Y254388D01*
Y249775D02*
Y249946D01*
Y248750D02*
Y249433D01*
Y248465D02*
Y248636D01*
Y247497D02*
Y248123D01*
Y246187D02*
Y246814D01*
Y241517D02*
Y241973D01*
X367462Y253932D02*
Y254388D01*
Y249775D02*
Y249946D01*
Y248750D02*
Y249376D01*
Y248465D02*
Y248693D01*
Y247497D02*
Y248066D01*
Y246187D02*
Y246814D01*
Y241517D02*
Y241973D01*
X367519Y253932D02*
Y254445D01*
Y249775D02*
Y249946D01*
Y248522D02*
Y249376D01*
Y247497D02*
Y248066D01*
Y246187D02*
Y246814D01*
Y241460D02*
Y241973D01*
X367576Y253932D02*
Y254445D01*
Y249775D02*
Y249946D01*
Y248522D02*
Y249319D01*
Y247440D02*
Y248066D01*
Y246187D02*
Y246814D01*
Y241460D02*
Y241973D01*
X367633Y253932D02*
Y254445D01*
Y249775D02*
Y249946D01*
Y248579D02*
Y249319D01*
Y247440D02*
Y248066D01*
Y246187D02*
Y246814D01*
Y241460D02*
Y241973D01*
X367689Y253932D02*
Y254445D01*
Y249775D02*
Y250003D01*
Y248579D02*
Y249262D01*
Y247440D02*
Y248066D01*
Y246187D02*
Y246814D01*
Y241460D02*
Y241973D01*
X367746Y253932D02*
Y254445D01*
Y249775D02*
Y250003D01*
Y248579D02*
Y249262D01*
Y247440D02*
Y248066D01*
Y246187D02*
Y246814D01*
Y241460D02*
Y241973D01*
X367803Y253932D02*
Y254445D01*
Y249775D02*
Y250003D01*
Y248636D02*
Y249205D01*
Y247440D02*
Y248066D01*
Y246187D02*
Y246814D01*
Y241517D02*
Y241973D01*
X367860Y253932D02*
Y254388D01*
Y249775D02*
Y250003D01*
Y248636D02*
Y249205D01*
Y247440D02*
Y248066D01*
Y246187D02*
Y246814D01*
Y241517D02*
Y241973D01*
X367917Y253932D02*
Y254388D01*
Y249775D02*
Y250003D01*
Y248693D02*
Y249149D01*
Y247440D02*
Y248066D01*
Y246187D02*
Y246814D01*
Y241517D02*
Y241973D01*
X367974Y253875D02*
Y254388D01*
Y249775D02*
Y250003D01*
Y248693D02*
Y249092D01*
Y247440D02*
Y248066D01*
Y246187D02*
Y246814D01*
Y241517D02*
Y242030D01*
X368031Y253875D02*
Y254388D01*
Y249775D02*
Y250003D01*
Y248750D02*
Y249092D01*
Y247440D02*
Y248009D01*
Y246130D02*
Y246814D01*
Y241517D02*
Y242030D01*
X368088Y253875D02*
Y254388D01*
Y249832D02*
Y250003D01*
Y248750D02*
Y249092D01*
Y247440D02*
Y248009D01*
Y246130D02*
Y246757D01*
Y241517D02*
Y242030D01*
X368145Y253875D02*
Y254388D01*
Y249832D02*
Y250003D01*
Y248807D02*
Y249035D01*
Y247383D02*
Y248009D01*
Y246130D02*
Y246757D01*
Y241517D02*
Y242030D01*
X368202Y253875D02*
Y254388D01*
Y249832D02*
Y250060D01*
Y248807D02*
Y249035D01*
Y247383D02*
Y248009D01*
Y246130D02*
Y246757D01*
Y241517D02*
Y242030D01*
X368259Y253875D02*
Y254388D01*
Y249832D02*
Y250060D01*
Y247383D02*
Y248009D01*
Y246130D02*
Y246757D01*
Y241517D02*
Y242030D01*
X368316Y253818D02*
Y254331D01*
Y249832D02*
Y250060D01*
Y247383D02*
Y248009D01*
Y246130D02*
Y246757D01*
Y241517D02*
Y242087D01*
X368373Y253818D02*
Y254331D01*
Y249889D02*
Y250060D01*
Y247383D02*
Y248009D01*
Y246073D02*
Y246700D01*
Y241574D02*
Y242087D01*
X368430Y253818D02*
Y254331D01*
Y249889D02*
Y250060D01*
Y247383D02*
Y248009D01*
Y246073D02*
Y246643D01*
Y241574D02*
Y242087D01*
X368487Y253818D02*
Y254331D01*
Y249889D02*
Y250117D01*
Y247383D02*
Y247953D01*
Y246073D02*
Y246643D01*
Y241574D02*
Y242144D01*
X368544Y253761D02*
Y254274D01*
Y249889D02*
Y250117D01*
Y247383D02*
Y247953D01*
Y246016D02*
Y246643D01*
Y241574D02*
Y242144D01*
X368601Y253761D02*
Y254274D01*
Y250914D02*
Y251085D01*
Y249946D02*
Y250174D01*
Y247383D02*
Y247953D01*
Y246016D02*
Y246586D01*
Y241631D02*
Y242144D01*
X368658Y253704D02*
Y254274D01*
Y250914D02*
Y251085D01*
Y250003D02*
Y250174D01*
Y247326D02*
Y247953D01*
Y245959D02*
Y246586D01*
Y241631D02*
Y242201D01*
X368714Y253704D02*
Y254274D01*
Y250857D02*
Y251142D01*
Y250060D02*
Y250231D01*
Y247326D02*
Y247953D01*
Y245902D02*
Y246529D01*
Y244820D02*
Y244877D01*
Y241631D02*
Y242201D01*
X368772Y253704D02*
Y254217D01*
Y250800D02*
Y251085D01*
Y250117D02*
Y250288D01*
Y247269D02*
Y247896D01*
Y247041D02*
Y247155D01*
Y245845D02*
Y246472D01*
Y244820D02*
Y244934D01*
Y241688D02*
Y242258D01*
X368828Y253647D02*
Y254217D01*
Y250686D02*
Y251085D01*
Y250174D02*
Y250515D01*
Y247098D02*
Y247896D01*
Y245789D02*
Y246415D01*
Y244877D02*
Y245048D01*
Y241688D02*
Y242258D01*
X368885Y253590D02*
Y254160D01*
Y250288D02*
Y250971D01*
Y247212D02*
Y247839D01*
Y245731D02*
Y246358D01*
Y244934D02*
Y245162D01*
Y241745D02*
Y242315D01*
X368942Y253590D02*
Y254160D01*
Y247440D02*
Y247668D01*
Y245561D02*
Y246301D01*
Y244991D02*
Y245276D01*
Y241745D02*
Y242315D01*
X368999Y253534D02*
Y254103D01*
Y245105D02*
Y246244D01*
Y241745D02*
Y242372D01*
X369056Y253477D02*
Y254103D01*
Y245219D02*
Y246073D01*
Y241802D02*
Y242428D01*
X369113Y253420D02*
Y254046D01*
Y245390D02*
Y245902D01*
Y241859D02*
Y242485D01*
X369170Y253363D02*
Y254046D01*
Y245731D02*
Y245845D01*
Y241859D02*
Y242542D01*
X369227Y253249D02*
Y253989D01*
Y245731D02*
Y245845D01*
Y241916D02*
Y242656D01*
X369284Y253021D02*
Y253932D01*
Y245618D02*
Y245845D01*
Y241973D02*
Y242884D01*
X369341Y252907D02*
Y253875D01*
Y245447D02*
Y245731D01*
Y242030D02*
Y242998D01*
X369398Y252850D02*
Y253875D01*
Y245333D02*
Y245618D01*
Y242030D02*
Y243055D01*
X369455Y252850D02*
Y253818D01*
Y245276D02*
Y245561D01*
Y242087D02*
Y243055D01*
X369512Y252850D02*
Y253761D01*
Y245276D02*
Y245561D01*
Y242201D02*
Y243055D01*
X369569Y252850D02*
Y253647D01*
Y245276D02*
Y245561D01*
Y242258D02*
Y243055D01*
X369626Y252850D02*
Y253590D01*
Y245276D02*
Y245561D01*
Y242315D02*
Y243055D01*
X369683Y252850D02*
Y253477D01*
Y245276D02*
Y245561D01*
Y242428D02*
Y243055D01*
X369740Y252850D02*
Y253363D01*
Y245276D02*
Y245618D01*
Y242542D02*
Y243055D01*
X369797Y252850D02*
Y253363D01*
Y246073D02*
Y246130D01*
Y245333D02*
Y245674D01*
Y242542D02*
Y243055D01*
X369853Y252850D02*
Y253363D01*
Y245447D02*
Y246073D01*
Y242542D02*
Y243055D01*
X369911Y252850D02*
Y253363D01*
Y245618D02*
Y245845D01*
Y242542D02*
Y243055D01*
X369967Y252850D02*
Y253363D01*
Y242542D02*
Y243055D01*
X370024Y252850D02*
Y253363D01*
Y242542D02*
Y243055D01*
X370081Y252850D02*
Y253363D01*
Y242542D02*
Y243055D01*
X370138Y252850D02*
Y253363D01*
Y242542D02*
Y243055D01*
X370195Y252850D02*
Y253363D01*
Y242542D02*
Y243055D01*
X370252Y252850D02*
Y253363D01*
Y242542D02*
Y243055D01*
X370309Y252850D02*
Y253363D01*
Y242542D02*
Y243055D01*
X370366Y252850D02*
Y253363D01*
Y242542D02*
Y243055D01*
X370423Y252850D02*
Y253363D01*
Y242542D02*
Y243055D01*
X370480Y252850D02*
Y253363D01*
Y242542D02*
Y243055D01*
X370537Y252850D02*
Y253363D01*
Y242542D02*
Y243055D01*
X370594Y252850D02*
Y253363D01*
Y242542D02*
Y243055D01*
X370651Y252850D02*
Y253363D01*
Y242542D02*
Y243055D01*
X370708Y252850D02*
Y253363D01*
Y242542D02*
Y243055D01*
X370765Y252850D02*
Y253363D01*
Y242542D02*
Y243055D01*
X370822Y252850D02*
Y253363D01*
Y242542D02*
Y243055D01*
X370879Y252850D02*
Y253363D01*
Y242542D02*
Y243055D01*
X370936Y252679D02*
Y253363D01*
Y242542D02*
Y243226D01*
X370992Y252508D02*
Y253363D01*
Y242542D02*
Y243454D01*
X371049Y252338D02*
Y253363D01*
Y242542D02*
Y243567D01*
X371106Y252224D02*
Y253363D01*
Y242542D02*
Y243681D01*
X371163Y252110D02*
Y253363D01*
Y242542D02*
Y243795D01*
X371220Y251996D02*
Y253306D01*
Y242599D02*
Y243909D01*
X371277Y251939D02*
Y253306D01*
Y242599D02*
Y243966D01*
X371334Y251882D02*
Y253249D01*
Y242656D02*
Y244023D01*
X371391Y251825D02*
Y253021D01*
Y242884D02*
Y244080D01*
X371448Y251768D02*
Y252736D01*
Y243226D02*
Y244137D01*
X371505Y251711D02*
Y252565D01*
Y243340D02*
Y244194D01*
X371562Y251654D02*
Y252451D01*
Y243454D02*
Y244251D01*
X371619Y251597D02*
Y252338D01*
Y243567D02*
Y244308D01*
X371676Y251540D02*
Y252281D01*
Y243624D02*
Y244365D01*
X371733Y251540D02*
Y252224D01*
Y243738D02*
Y244365D01*
X371790Y251483D02*
Y252110D01*
Y243795D02*
Y244422D01*
X371847Y251483D02*
Y252110D01*
Y243852D02*
Y244422D01*
X371904Y251426D02*
Y252053D01*
Y243852D02*
Y244479D01*
X371961Y251370D02*
Y251996D01*
Y243909D02*
Y244536D01*
X372018Y251370D02*
Y251939D01*
Y243966D02*
Y244536D01*
X372075Y251370D02*
Y251939D01*
Y243966D02*
Y244536D01*
X372131Y251313D02*
Y251882D01*
Y244023D02*
Y244592D01*
X372188Y251313D02*
Y251882D01*
Y244080D02*
Y244592D01*
X372245Y251313D02*
Y251825D01*
Y244080D02*
Y244592D01*
X372302Y251256D02*
Y251825D01*
Y244080D02*
Y244650D01*
X372359Y251256D02*
Y251768D01*
Y244137D02*
Y244650D01*
X372416Y251256D02*
Y251768D01*
Y244137D02*
Y244650D01*
X372473Y251256D02*
Y251768D01*
Y244137D02*
Y244650D01*
X372530Y249718D02*
Y251768D01*
Y244137D02*
Y246187D01*
X372587Y249661D02*
Y251711D01*
Y244137D02*
Y246244D01*
Y234626D02*
Y234740D01*
X372644Y249604D02*
Y251711D01*
Y244194D02*
Y246301D01*
Y234399D02*
Y234968D01*
X372701Y249604D02*
Y251711D01*
Y244194D02*
Y246301D01*
Y234342D02*
Y235025D01*
X372758Y249604D02*
Y251711D01*
Y244194D02*
Y246301D01*
Y234285D02*
Y235082D01*
X372815Y249604D02*
Y251711D01*
Y244194D02*
Y246301D01*
Y234228D02*
Y235139D01*
X372872Y249547D02*
Y251711D01*
Y244194D02*
Y246358D01*
Y234171D02*
Y235196D01*
X372929Y249547D02*
Y251654D01*
Y244251D02*
Y246358D01*
Y234171D02*
Y235196D01*
X372986Y249490D02*
Y251540D01*
Y244365D02*
Y246415D01*
Y234114D02*
Y235253D01*
X373043Y249490D02*
Y250003D01*
Y245845D02*
Y246415D01*
Y234114D02*
Y235253D01*
X373100Y249433D02*
Y250003D01*
Y245902D02*
Y246472D01*
Y234114D02*
Y235253D01*
X373157Y249376D02*
Y250003D01*
Y245902D02*
Y246529D01*
Y234114D02*
Y235253D01*
X373214Y249262D02*
Y249946D01*
Y245959D02*
Y246643D01*
Y234114D02*
Y235253D01*
X373271Y249205D02*
Y249946D01*
Y245959D02*
Y246700D01*
Y234114D02*
Y235253D01*
X373327Y249092D02*
Y249889D01*
Y246016D02*
Y246814D01*
Y234114D02*
Y235253D01*
X373384Y248978D02*
Y249832D01*
Y246073D02*
Y246927D01*
Y234114D02*
Y235253D01*
X373441Y248807D02*
Y249832D01*
Y246130D02*
Y247098D01*
Y234171D02*
Y235196D01*
X373498Y248636D02*
Y249718D01*
Y246187D02*
Y247269D01*
Y234228D02*
Y235139D01*
X373555Y248294D02*
Y249661D01*
Y246244D02*
Y247611D01*
Y234228D02*
Y235139D01*
X373612Y246301D02*
Y249604D01*
Y234285D02*
Y235082D01*
X373669Y246415D02*
Y249490D01*
Y234399D02*
Y234968D01*
X373726Y246472D02*
Y249376D01*
Y234569D02*
Y234797D01*
X373783Y246586D02*
Y249319D01*
X373840Y246757D02*
Y249205D01*
X373897Y246870D02*
Y249035D01*
X373954Y247041D02*
Y248864D01*
X374011Y247269D02*
Y248636D01*
X374068Y247782D02*
Y248180D01*
X374353Y263671D02*
Y264240D01*
Y244422D02*
Y245048D01*
Y240777D02*
Y241460D01*
Y234399D02*
Y235025D01*
Y231551D02*
Y232177D01*
X374410Y263443D02*
Y264525D01*
Y244194D02*
Y245333D01*
Y240606D02*
Y241631D01*
Y237417D02*
Y237702D01*
Y234399D02*
Y235367D01*
Y231551D02*
Y232519D01*
Y229558D02*
Y230298D01*
X374466Y263386D02*
Y264639D01*
Y260766D02*
Y261848D01*
Y244023D02*
Y245504D01*
Y240492D02*
Y241802D01*
Y237303D02*
Y238157D01*
Y234455D02*
Y235538D01*
Y231608D02*
Y232690D01*
Y229615D02*
Y230355D01*
X374523Y263386D02*
Y264810D01*
Y260766D02*
Y261848D01*
Y243909D02*
Y245618D01*
Y240378D02*
Y241916D01*
Y237303D02*
Y238385D01*
Y234455D02*
Y235708D01*
Y231608D02*
Y232861D01*
Y229672D02*
Y230412D01*
X374580Y263386D02*
Y264924D01*
Y260766D02*
Y261905D01*
Y243852D02*
Y245731D01*
Y240321D02*
Y241973D01*
Y237303D02*
Y238556D01*
Y234455D02*
Y235879D01*
Y231608D02*
Y233032D01*
Y229729D02*
Y230469D01*
X374637Y263386D02*
Y265037D01*
Y260823D02*
Y261905D01*
Y253590D02*
Y253989D01*
Y243738D02*
Y245845D01*
Y240264D02*
Y242087D01*
Y237303D02*
Y238670D01*
Y234455D02*
Y235993D01*
Y231608D02*
Y233146D01*
Y229786D02*
Y230526D01*
X374694Y263386D02*
Y265151D01*
Y260823D02*
Y261962D01*
Y253477D02*
Y254103D01*
Y244763D02*
Y245902D01*
Y243681D02*
Y244308D01*
Y240207D02*
Y242144D01*
Y237360D02*
Y238841D01*
Y234455D02*
Y236107D01*
Y231608D02*
Y233260D01*
Y229843D02*
Y230526D01*
X374751Y263386D02*
Y265265D01*
Y260823D02*
Y261962D01*
Y253420D02*
Y254160D01*
Y251142D02*
Y251426D01*
Y244877D02*
Y246016D01*
Y243681D02*
Y244251D01*
Y241176D02*
Y242201D01*
Y240150D02*
Y240834D01*
Y237360D02*
Y238954D01*
Y234512D02*
Y236221D01*
Y231665D02*
Y233373D01*
Y229900D02*
Y230583D01*
X374808Y264525D02*
Y265322D01*
Y263386D02*
Y264411D01*
Y260823D02*
Y261962D01*
Y253363D02*
Y254217D01*
Y251142D02*
Y251825D01*
Y244991D02*
Y246073D01*
Y243624D02*
Y244194D01*
Y241346D02*
Y242258D01*
Y240150D02*
Y240720D01*
Y237360D02*
Y239068D01*
Y234512D02*
Y236278D01*
Y231665D02*
Y233430D01*
Y229957D02*
Y230640D01*
X374865Y264639D02*
Y265379D01*
Y263386D02*
Y264411D01*
Y260823D02*
Y262019D01*
Y253306D02*
Y254274D01*
Y251142D02*
Y252224D01*
Y245048D02*
Y246130D01*
Y243567D02*
Y244137D01*
Y241403D02*
Y242315D01*
Y240093D02*
Y240663D01*
Y237360D02*
Y239125D01*
Y235651D02*
Y236392D01*
Y234512D02*
Y235595D01*
Y232804D02*
Y233544D01*
Y231665D02*
Y232747D01*
Y229957D02*
Y230697D01*
X374922Y264753D02*
Y265493D01*
Y263386D02*
Y264468D01*
Y260823D02*
Y262019D01*
Y253249D02*
Y254274D01*
Y251142D02*
Y252224D01*
Y245105D02*
Y246187D01*
Y243567D02*
Y244137D01*
Y241460D02*
Y242372D01*
Y240093D02*
Y240663D01*
Y237417D02*
Y239239D01*
Y235765D02*
Y236449D01*
Y234512D02*
Y235595D01*
Y232918D02*
Y233601D01*
Y231665D02*
Y232747D01*
Y230013D02*
Y230697D01*
X374979Y264866D02*
Y265550D01*
Y263386D02*
Y264468D01*
Y260823D02*
Y262076D01*
Y253249D02*
Y254331D01*
Y251142D02*
Y252224D01*
Y245162D02*
Y246244D01*
Y243567D02*
Y244080D01*
Y241517D02*
Y242428D01*
Y240093D02*
Y240606D01*
Y238613D02*
Y239296D01*
Y237417D02*
Y238442D01*
Y235879D02*
Y236563D01*
Y234512D02*
Y235595D01*
Y233032D02*
Y233715D01*
Y231665D02*
Y232747D01*
Y230070D02*
Y230754D01*
X375036Y264980D02*
Y265607D01*
Y263386D02*
Y264468D01*
Y260823D02*
Y262076D01*
Y253249D02*
Y254331D01*
Y251199D02*
Y252224D01*
Y245219D02*
Y246301D01*
Y243511D02*
Y244080D01*
Y241574D02*
Y242428D01*
Y240037D02*
Y240606D01*
Y238727D02*
Y239410D01*
Y237417D02*
Y238442D01*
Y235936D02*
Y236620D01*
Y234569D02*
Y235595D01*
Y233146D02*
Y233772D01*
Y231722D02*
Y232747D01*
Y230127D02*
Y230811D01*
X375093Y265037D02*
Y265664D01*
Y263386D02*
Y264525D01*
Y260880D02*
Y262076D01*
Y253192D02*
Y254331D01*
Y251199D02*
Y252224D01*
Y245276D02*
Y246358D01*
Y243511D02*
Y244080D01*
Y241631D02*
Y242485D01*
Y240037D02*
Y240606D01*
Y238784D02*
Y239467D01*
Y237417D02*
Y238499D01*
Y236050D02*
Y236677D01*
Y234569D02*
Y235595D01*
Y233203D02*
Y233829D01*
Y231722D02*
Y232747D01*
Y230184D02*
Y230868D01*
X375150Y265094D02*
Y265721D01*
Y263386D02*
Y264525D01*
Y260880D02*
Y262133D01*
Y253192D02*
Y254388D01*
Y251199D02*
Y252281D01*
Y245276D02*
Y246415D01*
Y243511D02*
Y244080D01*
Y241631D02*
Y242542D01*
Y240037D02*
Y240606D01*
Y238898D02*
Y239524D01*
Y237417D02*
Y238499D01*
Y236107D02*
Y236734D01*
Y234569D02*
Y235651D01*
Y233260D02*
Y233886D01*
Y231722D02*
Y232804D01*
Y230241D02*
Y230868D01*
X375207Y265151D02*
Y265778D01*
Y263386D02*
Y264582D01*
Y260880D02*
Y262133D01*
Y253192D02*
Y254388D01*
Y251199D02*
Y252281D01*
Y245333D02*
Y246472D01*
Y243511D02*
Y244080D01*
Y241688D02*
Y242542D01*
Y240037D02*
Y240606D01*
Y238954D02*
Y239581D01*
Y237474D02*
Y238499D01*
Y236164D02*
Y236790D01*
Y234569D02*
Y235651D01*
Y233316D02*
Y233943D01*
Y231722D02*
Y232804D01*
Y230298D02*
Y230925D01*
X375264Y265208D02*
Y265835D01*
Y263386D02*
Y264582D01*
Y260880D02*
Y262190D01*
Y253192D02*
Y254388D01*
Y251256D02*
Y252281D01*
Y245390D02*
Y246472D01*
Y243511D02*
Y244080D01*
Y241688D02*
Y242599D01*
Y240037D02*
Y240606D01*
Y239012D02*
Y239638D01*
Y237474D02*
Y238499D01*
Y236221D02*
Y236847D01*
Y234626D02*
Y235651D01*
Y233373D02*
Y234000D01*
Y231779D02*
Y232804D01*
Y230298D02*
Y230982D01*
X375321Y265265D02*
Y265892D01*
Y263386D02*
Y264582D01*
Y260880D02*
Y262190D01*
Y253192D02*
Y254331D01*
Y251256D02*
Y252281D01*
Y245390D02*
Y246529D01*
Y243511D02*
Y244080D01*
Y241745D02*
Y242599D01*
Y240037D02*
Y240606D01*
Y239068D02*
Y239695D01*
Y237474D02*
Y238556D01*
Y236278D02*
Y236904D01*
Y234626D02*
Y235651D01*
Y233430D02*
Y234057D01*
Y231779D02*
Y232804D01*
Y230355D02*
Y231038D01*
X375378Y265322D02*
Y265949D01*
Y263386D02*
Y264639D01*
Y260880D02*
Y262247D01*
Y253249D02*
Y254331D01*
Y251256D02*
Y252281D01*
Y245447D02*
Y246586D01*
Y243511D02*
Y244137D01*
Y241745D02*
Y242656D01*
Y240037D02*
Y240606D01*
Y239125D02*
Y239752D01*
Y237474D02*
Y238556D01*
Y236335D02*
Y236961D01*
Y234626D02*
Y235651D01*
Y233487D02*
Y234114D01*
Y231779D02*
Y232804D01*
Y230412D02*
Y231038D01*
X375435Y265322D02*
Y266005D01*
Y263386D02*
Y264639D01*
Y260880D02*
Y262247D01*
Y253249D02*
Y254331D01*
Y251256D02*
Y252338D01*
Y245504D02*
Y246586D01*
Y243511D02*
Y244137D01*
Y241745D02*
Y242656D01*
Y240037D02*
Y240606D01*
Y239182D02*
Y239809D01*
Y237474D02*
Y238556D01*
Y236335D02*
Y237018D01*
Y234626D02*
Y235708D01*
Y233487D02*
Y234171D01*
Y231779D02*
Y232861D01*
Y230469D02*
Y231096D01*
X375491Y265379D02*
Y266005D01*
Y263386D02*
Y264639D01*
Y260937D02*
Y262247D01*
Y253249D02*
Y254274D01*
Y251256D02*
Y252338D01*
Y245504D02*
Y246643D01*
Y243511D02*
Y244137D01*
Y241802D02*
Y242656D01*
Y240037D02*
Y240663D01*
Y239239D02*
Y239866D01*
Y237531D02*
Y238556D01*
Y236392D02*
Y237075D01*
Y234626D02*
Y235708D01*
Y233544D02*
Y234228D01*
Y231779D02*
Y232861D01*
Y230526D02*
Y231152D01*
X375549Y265436D02*
Y266062D01*
Y263386D02*
Y264696D01*
Y260937D02*
Y262304D01*
Y253306D02*
Y254274D01*
Y251313D02*
Y252338D01*
Y245561D02*
Y246700D01*
Y243511D02*
Y244194D01*
Y241802D02*
Y242713D01*
Y240093D02*
Y240663D01*
Y239239D02*
Y239923D01*
Y237531D02*
Y238556D01*
Y236449D02*
Y237075D01*
Y234683D02*
Y235708D01*
Y233601D02*
Y234228D01*
Y231836D02*
Y232861D01*
Y230583D02*
Y231152D01*
X375605Y265436D02*
Y266119D01*
Y263386D02*
Y264696D01*
Y260937D02*
Y262304D01*
Y253363D02*
Y254217D01*
Y251313D02*
Y252338D01*
Y245561D02*
Y246700D01*
Y243511D02*
Y244194D01*
Y241802D02*
Y242713D01*
Y240093D02*
Y240720D01*
Y239296D02*
Y239980D01*
Y237531D02*
Y238613D01*
Y236449D02*
Y237132D01*
Y234683D02*
Y235708D01*
Y233601D02*
Y234285D01*
Y231836D02*
Y232861D01*
Y230640D02*
Y231209D01*
X375662Y265493D02*
Y266119D01*
Y263386D02*
Y264696D01*
Y260937D02*
Y262361D01*
Y253420D02*
Y254160D01*
Y251313D02*
Y252395D01*
Y245618D02*
Y246757D01*
Y243567D02*
Y244251D01*
Y241802D02*
Y242713D01*
Y240093D02*
Y240720D01*
Y239353D02*
Y239980D01*
Y237531D02*
Y238613D01*
Y236506D02*
Y237189D01*
Y234683D02*
Y235708D01*
Y233658D02*
Y234342D01*
Y231836D02*
Y232861D01*
Y230697D02*
Y231266D01*
X375719Y265493D02*
Y266176D01*
Y263443D02*
Y264753D01*
Y260937D02*
Y262361D01*
Y253534D02*
Y254046D01*
Y251313D02*
Y252395D01*
Y245618D02*
Y246757D01*
Y243567D02*
Y244308D01*
Y241802D02*
Y242713D01*
Y240150D02*
Y240777D01*
Y239353D02*
Y240037D01*
Y237588D02*
Y238613D01*
Y236506D02*
Y237189D01*
Y234683D02*
Y235765D01*
Y233658D02*
Y234342D01*
Y231836D02*
Y232918D01*
Y230697D02*
Y231323D01*
X375776Y265493D02*
Y266176D01*
Y263443D02*
Y264753D01*
Y260937D02*
Y262418D01*
Y251370D02*
Y252395D01*
Y245618D02*
Y246814D01*
Y243567D02*
Y244365D01*
Y241802D02*
Y242713D01*
Y240207D02*
Y240834D01*
Y239410D02*
Y240093D01*
Y237588D02*
Y238613D01*
Y236563D02*
Y237246D01*
Y234683D02*
Y235765D01*
Y233658D02*
Y234399D01*
Y231836D02*
Y232918D01*
Y230754D02*
Y231323D01*
X375833Y265550D02*
Y266233D01*
Y263443D02*
Y264810D01*
Y260994D02*
Y262418D01*
Y251370D02*
Y252395D01*
Y245674D02*
Y246814D01*
Y243624D02*
Y244422D01*
Y241802D02*
Y242770D01*
Y240207D02*
Y240891D01*
Y239410D02*
Y240093D01*
Y237588D02*
Y238613D01*
Y236563D02*
Y237246D01*
Y234740D02*
Y235765D01*
Y233715D02*
Y234399D01*
Y231893D02*
Y232918D01*
Y230811D02*
Y231380D01*
X375890Y265550D02*
Y266233D01*
Y263443D02*
Y264810D01*
Y260994D02*
Y262418D01*
Y251370D02*
Y252395D01*
Y245674D02*
Y246870D01*
Y243681D02*
Y244365D01*
Y241802D02*
Y242770D01*
Y240264D02*
Y240834D01*
Y239410D02*
Y240093D01*
Y237588D02*
Y238670D01*
Y236563D02*
Y237246D01*
Y234740D02*
Y235765D01*
Y233715D02*
Y234399D01*
Y231893D02*
Y232918D01*
Y230868D02*
Y231437D01*
X375947Y265550D02*
Y266233D01*
Y263443D02*
Y264810D01*
Y260994D02*
Y262475D01*
Y251370D02*
Y252451D01*
Y245731D02*
Y246870D01*
Y243738D02*
Y244251D01*
Y241802D02*
Y242770D01*
Y240378D02*
Y240777D01*
Y239467D02*
Y240150D01*
Y237588D02*
Y238670D01*
Y236620D02*
Y237303D01*
Y234740D02*
Y235822D01*
Y233772D02*
Y234455D01*
Y231893D02*
Y232975D01*
Y230925D02*
Y231494D01*
X376004Y265607D02*
Y266290D01*
Y263443D02*
Y264866D01*
Y260994D02*
Y262475D01*
Y255755D02*
Y255812D01*
Y251370D02*
Y252451D01*
Y245731D02*
Y246927D01*
Y241802D02*
Y242770D01*
Y240549D02*
Y240606D01*
Y239467D02*
Y240150D01*
Y237645D02*
Y238670D01*
Y236620D02*
Y237303D01*
Y234740D02*
Y235822D01*
Y233772D02*
Y234455D01*
Y231893D02*
Y232975D01*
Y230982D02*
Y231494D01*
X376061Y265607D02*
Y266290D01*
Y263443D02*
Y264866D01*
Y260994D02*
Y262532D01*
Y255755D02*
Y256267D01*
Y251426D02*
Y252451D01*
Y245731D02*
Y246927D01*
Y241802D02*
Y242770D01*
Y239467D02*
Y240150D01*
Y237645D02*
Y238670D01*
Y236620D02*
Y237303D01*
Y234797D02*
Y235822D01*
Y233772D02*
Y234455D01*
Y231893D02*
Y232975D01*
Y231038D02*
Y231551D01*
X376118Y265607D02*
Y266290D01*
Y263443D02*
Y264866D01*
Y260994D02*
Y262532D01*
Y255755D02*
Y256666D01*
Y251426D02*
Y252451D01*
Y245789D02*
Y246984D01*
Y241802D02*
Y242713D01*
Y239467D02*
Y240207D01*
Y237645D02*
Y238727D01*
Y236620D02*
Y237303D01*
Y234797D02*
Y235822D01*
Y233772D02*
Y234455D01*
Y231950D02*
Y232975D01*
Y231038D02*
Y231608D01*
X376175Y265607D02*
Y266290D01*
Y263443D02*
Y264924D01*
Y260994D02*
Y262532D01*
Y258716D02*
Y259172D01*
Y255755D02*
Y256837D01*
Y251426D02*
Y252451D01*
Y245789D02*
Y246984D01*
Y241745D02*
Y242713D01*
Y239524D02*
Y240207D01*
Y237645D02*
Y238727D01*
Y236620D02*
Y237303D01*
Y234797D02*
Y235822D01*
Y233772D02*
Y234455D01*
Y231950D02*
Y232975D01*
Y231096D02*
Y231665D01*
X376232Y265607D02*
Y266290D01*
Y263443D02*
Y264924D01*
Y260994D02*
Y262589D01*
Y258488D02*
Y259456D01*
Y255755D02*
Y256894D01*
Y253477D02*
Y254502D01*
Y251426D02*
Y252508D01*
Y250344D02*
Y250914D01*
Y245845D02*
Y246984D01*
Y241745D02*
Y242713D01*
Y239524D02*
Y240207D01*
Y237645D02*
Y238727D01*
Y236677D02*
Y237303D01*
Y234797D02*
Y235879D01*
Y233772D02*
Y234455D01*
Y231950D02*
Y233032D01*
Y231152D02*
Y231665D01*
X376289Y265607D02*
Y266290D01*
Y263443D02*
Y264980D01*
Y261051D02*
Y262589D01*
Y258374D02*
Y259627D01*
Y255755D02*
Y256894D01*
Y253477D02*
Y254559D01*
Y251426D02*
Y252508D01*
Y250174D02*
Y251085D01*
Y245845D02*
Y247041D01*
Y241745D02*
Y242713D01*
Y239524D02*
Y240207D01*
Y237702D02*
Y238727D01*
Y236677D02*
Y237303D01*
Y234797D02*
Y235879D01*
Y233829D02*
Y234455D01*
Y231950D02*
Y233032D01*
Y231209D02*
Y231722D01*
X376346Y265607D02*
Y266290D01*
Y263443D02*
Y264980D01*
Y261051D02*
Y262646D01*
Y258317D02*
Y259684D01*
Y255755D02*
Y256894D01*
Y253477D02*
Y254559D01*
Y251483D02*
Y252508D01*
Y250060D02*
Y251199D01*
Y245845D02*
Y247041D01*
Y241688D02*
Y242656D01*
Y239524D02*
Y240207D01*
Y237702D02*
Y238727D01*
Y236677D02*
Y237303D01*
Y234854D02*
Y235879D01*
Y233829D02*
Y234455D01*
Y232007D02*
Y233032D01*
Y231266D02*
Y231779D01*
X376403Y265664D02*
Y266290D01*
Y263443D02*
Y264980D01*
Y261051D02*
Y262646D01*
Y258260D02*
Y259798D01*
Y255755D02*
Y256950D01*
Y253477D02*
Y254559D01*
Y251483D02*
Y252508D01*
Y250003D02*
Y251256D01*
Y245845D02*
Y247041D01*
Y241688D02*
Y242656D01*
Y239524D02*
Y240207D01*
Y237702D02*
Y238784D01*
Y236677D02*
Y237303D01*
Y234854D02*
Y235879D01*
Y233829D02*
Y234455D01*
Y232007D02*
Y233032D01*
Y231323D02*
Y231836D01*
X376460Y265664D02*
Y266290D01*
Y263443D02*
Y265037D01*
Y261051D02*
Y262702D01*
Y258203D02*
Y259912D01*
Y255755D02*
Y256950D01*
Y253534D02*
Y254559D01*
Y251483D02*
Y252565D01*
Y249946D02*
Y251313D01*
Y245902D02*
Y247098D01*
Y241631D02*
Y242599D01*
Y239524D02*
Y240207D01*
Y237702D02*
Y238784D01*
Y236677D02*
Y237303D01*
Y234854D02*
Y235879D01*
Y233829D02*
Y234455D01*
Y232007D02*
Y233032D01*
Y231380D02*
Y231836D01*
X376517Y265664D02*
Y266290D01*
Y263443D02*
Y265037D01*
Y261051D02*
Y262702D01*
Y258147D02*
Y259969D01*
Y255755D02*
Y256950D01*
Y253534D02*
Y254559D01*
Y251483D02*
Y252565D01*
Y249889D02*
Y251370D01*
Y245902D02*
Y247098D01*
Y241574D02*
Y242599D01*
Y239524D02*
Y240207D01*
Y237759D02*
Y238784D01*
Y236677D02*
Y237303D01*
Y234854D02*
Y235936D01*
Y233829D02*
Y234455D01*
Y232007D02*
Y233089D01*
Y231437D02*
Y231893D01*
X376573Y265664D02*
Y266290D01*
Y263443D02*
Y265037D01*
Y261051D02*
Y262702D01*
Y259001D02*
Y260026D01*
Y258147D02*
Y258773D01*
Y255755D02*
Y257008D01*
Y253534D02*
Y254616D01*
Y249889D02*
Y252565D01*
Y245902D02*
Y247098D01*
Y241517D02*
Y242542D01*
Y239524D02*
Y240207D01*
Y237759D02*
Y238784D01*
Y236677D02*
Y237303D01*
Y234854D02*
Y235936D01*
Y233829D02*
Y234455D01*
Y232007D02*
Y233089D01*
Y231437D02*
Y231950D01*
X376630Y265664D02*
Y266233D01*
Y263443D02*
Y265094D01*
Y261051D02*
Y262759D01*
Y259115D02*
Y260083D01*
Y258147D02*
Y258716D01*
Y255755D02*
Y257008D01*
Y253534D02*
Y254616D01*
Y249832D02*
Y252565D01*
Y245959D02*
Y247155D01*
Y241460D02*
Y242485D01*
Y239524D02*
Y240150D01*
Y237759D02*
Y238784D01*
Y236677D02*
Y237303D01*
Y234911D02*
Y235936D01*
Y233829D02*
Y234455D01*
Y231494D02*
Y233089D01*
X376687Y265607D02*
Y266233D01*
Y264525D02*
Y265094D01*
Y263443D02*
Y264468D01*
Y261108D02*
Y262759D01*
Y259172D02*
Y260140D01*
Y258147D02*
Y258659D01*
Y255698D02*
Y257008D01*
Y253590D02*
Y254616D01*
Y249832D02*
Y252565D01*
Y245959D02*
Y247155D01*
Y241403D02*
Y242428D01*
Y239524D02*
Y240150D01*
Y237759D02*
Y238841D01*
Y236677D02*
Y237246D01*
Y234911D02*
Y235936D01*
Y233829D02*
Y234399D01*
Y231551D02*
Y233089D01*
X376744Y265607D02*
Y266176D01*
Y264525D02*
Y265151D01*
Y263443D02*
Y264468D01*
Y261108D02*
Y262816D01*
Y259228D02*
Y260197D01*
Y258089D02*
Y258659D01*
Y255698D02*
Y257064D01*
Y253590D02*
Y254616D01*
Y249832D02*
Y252622D01*
Y245959D02*
Y247155D01*
Y241289D02*
Y242372D01*
Y239524D02*
Y240150D01*
Y237759D02*
Y238841D01*
Y236620D02*
Y237189D01*
Y234911D02*
Y235993D01*
Y233772D02*
Y234342D01*
Y231608D02*
Y233146D01*
X376801Y265607D02*
Y266119D01*
Y264582D02*
Y265151D01*
Y263443D02*
Y264468D01*
Y262247D02*
Y262816D01*
Y261108D02*
Y262190D01*
Y259228D02*
Y260254D01*
Y258089D02*
Y258659D01*
Y255698D02*
Y257064D01*
Y253590D02*
Y254673D01*
Y249832D02*
Y252622D01*
Y245959D02*
Y247155D01*
Y241176D02*
Y242315D01*
Y239524D02*
Y240093D01*
Y237815D02*
Y238841D01*
Y236620D02*
Y237189D01*
Y234911D02*
Y235993D01*
Y233772D02*
Y234285D01*
Y231152D02*
Y233146D01*
X376858Y265607D02*
Y266062D01*
Y264582D02*
Y265151D01*
Y263443D02*
Y264468D01*
Y262247D02*
Y262816D01*
Y261108D02*
Y262190D01*
Y259285D02*
Y260311D01*
Y258089D02*
Y258659D01*
Y255698D02*
Y257121D01*
Y253590D02*
Y254673D01*
Y251199D02*
Y252622D01*
Y249775D02*
Y251028D01*
Y246016D02*
Y247212D01*
Y241176D02*
Y242315D01*
Y239524D02*
Y240037D01*
Y237815D02*
Y238841D01*
Y236620D02*
Y237075D01*
Y234968D02*
Y235993D01*
Y233772D02*
Y234228D01*
Y230868D02*
Y233146D01*
X376915Y265550D02*
Y266005D01*
Y264639D02*
Y265208D01*
Y263443D02*
Y264468D01*
Y262304D02*
Y262873D01*
Y261108D02*
Y262190D01*
Y259342D02*
Y260367D01*
Y258089D02*
Y258659D01*
Y255698D02*
Y257121D01*
Y253590D02*
Y254673D01*
Y251313D02*
Y252622D01*
Y249775D02*
Y250914D01*
Y246016D02*
Y247212D01*
Y241346D02*
Y242485D01*
Y239524D02*
Y239980D01*
Y237815D02*
Y238898D01*
Y236620D02*
Y237018D01*
Y234968D02*
Y235993D01*
Y233772D02*
Y234171D01*
Y230754D02*
Y233146D01*
X376972Y265550D02*
Y265778D01*
Y264639D02*
Y265208D01*
Y263443D02*
Y264468D01*
Y262304D02*
Y262873D01*
Y261108D02*
Y262190D01*
Y259342D02*
Y260367D01*
Y258089D02*
Y258659D01*
Y255698D02*
Y257121D01*
Y253647D02*
Y254673D01*
Y251426D02*
Y252622D01*
Y249775D02*
Y250857D01*
Y246016D02*
Y247212D01*
Y241460D02*
Y242599D01*
Y239467D02*
Y239923D01*
Y237815D02*
Y238898D01*
Y236563D02*
Y236790D01*
Y234968D02*
Y235993D01*
Y233715D02*
Y233943D01*
Y230640D02*
Y233146D01*
X377029Y264639D02*
Y265208D01*
Y263500D02*
Y264468D01*
Y262361D02*
Y262930D01*
Y261108D02*
Y262190D01*
Y259399D02*
Y260424D01*
Y258089D02*
Y258659D01*
Y256837D02*
Y257178D01*
Y255698D02*
Y256780D01*
Y253647D02*
Y254673D01*
Y251483D02*
Y252679D01*
Y249775D02*
Y250857D01*
Y246016D02*
Y247212D01*
Y241517D02*
Y242713D01*
Y239467D02*
Y239809D01*
Y237815D02*
Y238898D01*
Y234968D02*
Y236050D01*
Y230583D02*
Y233203D01*
X377086Y264696D02*
Y265265D01*
Y263500D02*
Y264468D01*
Y262361D02*
Y262930D01*
Y261165D02*
Y262190D01*
Y259456D02*
Y260481D01*
Y258147D02*
Y258716D01*
Y256894D02*
Y257178D01*
Y255698D02*
Y256780D01*
Y253647D02*
Y254730D01*
Y251483D02*
Y252679D01*
Y249775D02*
Y250857D01*
Y246016D02*
Y247269D01*
Y241631D02*
Y242827D01*
Y237873D02*
Y238898D01*
Y234968D02*
Y236050D01*
Y230583D02*
Y233203D01*
X377143Y264696D02*
Y265265D01*
Y263500D02*
Y264468D01*
Y262418D02*
Y262987D01*
Y261165D02*
Y262190D01*
Y259456D02*
Y260481D01*
Y258147D02*
Y258716D01*
Y256894D02*
Y257178D01*
Y255698D02*
Y256780D01*
Y253647D02*
Y254730D01*
Y251540D02*
Y252679D01*
Y249775D02*
Y250800D01*
Y246073D02*
Y247269D01*
Y241688D02*
Y242884D01*
Y237873D02*
Y238898D01*
Y235025D02*
Y236050D01*
Y232121D02*
Y233203D01*
Y230526D02*
Y231665D01*
X377200Y264696D02*
Y265265D01*
Y263500D02*
Y264468D01*
Y262418D02*
Y262987D01*
Y261165D02*
Y262190D01*
Y259513D02*
Y260538D01*
Y258147D02*
Y258716D01*
Y256894D02*
Y257235D01*
Y255698D02*
Y256780D01*
Y253647D02*
Y254730D01*
Y251597D02*
Y252679D01*
Y249775D02*
Y250800D01*
Y246073D02*
Y247269D01*
Y241745D02*
Y242941D01*
Y237873D02*
Y238954D01*
Y235025D02*
Y236050D01*
Y232177D02*
Y233203D01*
Y230469D02*
Y231551D01*
X377257Y264753D02*
Y265322D01*
Y263500D02*
Y264468D01*
Y262475D02*
Y262987D01*
Y261165D02*
Y262247D01*
Y259513D02*
Y260538D01*
Y258147D02*
Y258716D01*
Y256950D02*
Y257235D01*
Y255698D02*
Y256780D01*
Y253704D02*
Y254730D01*
Y251597D02*
Y252736D01*
Y249775D02*
Y250800D01*
Y246073D02*
Y247269D01*
Y241802D02*
Y242998D01*
Y237873D02*
Y238954D01*
Y235025D02*
Y236050D01*
Y232177D02*
Y233203D01*
Y230469D02*
Y231494D01*
X377314Y264753D02*
Y265322D01*
Y263500D02*
Y264468D01*
Y262475D02*
Y263044D01*
Y261165D02*
Y262247D01*
Y259513D02*
Y260595D01*
Y258203D02*
Y258773D01*
Y256950D02*
Y257292D01*
Y255698D02*
Y256780D01*
Y253704D02*
Y254730D01*
Y251654D02*
Y252736D01*
Y249832D02*
Y250800D01*
Y246073D02*
Y247269D01*
Y241859D02*
Y243055D01*
Y237929D02*
Y238954D01*
Y235025D02*
Y236107D01*
Y232177D02*
Y233260D01*
Y230469D02*
Y231494D01*
X377371Y264810D02*
Y265379D01*
Y263500D02*
Y264468D01*
Y262475D02*
Y263044D01*
Y261165D02*
Y262247D01*
Y259570D02*
Y260595D01*
Y258203D02*
Y258773D01*
Y256950D02*
Y257292D01*
Y255698D02*
Y256780D01*
Y253704D02*
Y254786D01*
Y251654D02*
Y252736D01*
Y249832D02*
Y250800D01*
Y246073D02*
Y247326D01*
Y241916D02*
Y243112D01*
Y237929D02*
Y238954D01*
Y235025D02*
Y236107D01*
Y232177D02*
Y233260D01*
Y230469D02*
Y231437D01*
X377428Y264810D02*
Y265379D01*
Y263500D02*
Y264468D01*
Y262532D02*
Y263101D01*
Y261165D02*
Y262247D01*
Y259570D02*
Y260652D01*
Y258203D02*
Y258830D01*
Y257008D02*
Y257292D01*
Y255698D02*
Y256780D01*
Y253704D02*
Y254786D01*
Y251654D02*
Y252736D01*
Y249832D02*
Y250800D01*
Y246073D02*
Y247326D01*
Y241973D02*
Y243169D01*
Y237929D02*
Y238954D01*
Y235082D02*
Y236107D01*
Y232235D02*
Y233260D01*
Y230412D02*
Y231437D01*
X377485Y264810D02*
Y265379D01*
Y263500D02*
Y264468D01*
Y262532D02*
Y263101D01*
Y261222D02*
Y262247D01*
Y259627D02*
Y260652D01*
Y258260D02*
Y258830D01*
Y257008D02*
Y257349D01*
Y255698D02*
Y256780D01*
Y253761D02*
Y254786D01*
Y251711D02*
Y252736D01*
Y249832D02*
Y250857D01*
Y246130D02*
Y247326D01*
Y241973D02*
Y243226D01*
Y237929D02*
Y239012D01*
Y235082D02*
Y236107D01*
Y232235D02*
Y233260D01*
Y230412D02*
Y231437D01*
X377542Y264866D02*
Y265436D01*
Y263500D02*
Y264468D01*
Y262589D02*
Y263101D01*
Y261222D02*
Y262247D01*
Y259627D02*
Y260709D01*
Y258260D02*
Y258887D01*
Y257064D02*
Y257349D01*
Y255698D02*
Y256780D01*
Y253761D02*
Y254786D01*
Y251711D02*
Y252793D01*
Y249832D02*
Y250857D01*
Y246130D02*
Y247326D01*
Y242030D02*
Y243283D01*
Y237929D02*
Y239012D01*
Y235082D02*
Y236164D01*
Y232235D02*
Y233260D01*
Y230412D02*
Y231380D01*
X377599Y264866D02*
Y265436D01*
Y263500D02*
Y264468D01*
Y262589D02*
Y263158D01*
Y261222D02*
Y262247D01*
Y259627D02*
Y260709D01*
Y258317D02*
Y258944D01*
Y257064D02*
Y257406D01*
Y255641D02*
Y256780D01*
Y253761D02*
Y254843D01*
Y251711D02*
Y252793D01*
Y249832D02*
Y250857D01*
Y246130D02*
Y247326D01*
Y242087D02*
Y243340D01*
Y237986D02*
Y239012D01*
Y235082D02*
Y236164D01*
Y232235D02*
Y233316D01*
Y230412D02*
Y231380D01*
X377656Y264866D02*
Y265436D01*
Y263500D02*
Y264525D01*
Y262589D02*
Y263158D01*
Y261222D02*
Y262304D01*
Y259684D02*
Y260709D01*
Y258374D02*
Y258944D01*
Y257064D02*
Y257406D01*
Y255641D02*
Y256780D01*
Y253761D02*
Y254843D01*
Y251768D02*
Y252793D01*
Y249889D02*
Y250857D01*
Y246130D02*
Y247326D01*
Y242087D02*
Y243340D01*
Y237986D02*
Y239012D01*
Y235139D02*
Y236164D01*
Y232235D02*
Y233316D01*
Y230412D02*
Y231380D01*
X377712Y264924D02*
Y265493D01*
Y263500D02*
Y264525D01*
Y262646D02*
Y263215D01*
Y261222D02*
Y262304D01*
Y259684D02*
Y260766D01*
Y258374D02*
Y259001D01*
Y257121D02*
Y257463D01*
Y255641D02*
Y256723D01*
Y253761D02*
Y254843D01*
Y251768D02*
Y252793D01*
Y249889D02*
Y250857D01*
Y246130D02*
Y247326D01*
Y242144D02*
Y243397D01*
Y237986D02*
Y239068D01*
Y235139D02*
Y236164D01*
Y232291D02*
Y233316D01*
Y230412D02*
Y231380D01*
X377769Y264924D02*
Y265493D01*
Y263500D02*
Y264525D01*
Y262646D02*
Y263215D01*
Y261222D02*
Y262304D01*
Y259684D02*
Y260766D01*
Y258431D02*
Y259058D01*
Y257121D02*
Y257463D01*
Y255641D02*
Y256723D01*
Y253818D02*
Y254843D01*
Y251768D02*
Y252793D01*
Y249889D02*
Y250914D01*
Y246130D02*
Y247326D01*
Y242144D02*
Y243397D01*
Y237986D02*
Y239068D01*
Y235139D02*
Y236164D01*
Y232291D02*
Y233316D01*
Y230412D02*
Y231437D01*
X377826Y264924D02*
Y265550D01*
Y263500D02*
Y264525D01*
Y262702D02*
Y263272D01*
Y261279D02*
Y262304D01*
Y259684D02*
Y260766D01*
Y258488D02*
Y259115D01*
Y257178D02*
Y257520D01*
Y255641D02*
Y256723D01*
Y253818D02*
Y254843D01*
Y251768D02*
Y252850D01*
Y249889D02*
Y250914D01*
Y246130D02*
Y247383D01*
Y242201D02*
Y243454D01*
Y237986D02*
Y239068D01*
Y235139D02*
Y236221D01*
Y232291D02*
Y233373D01*
Y230469D02*
Y231437D01*
X377883Y264980D02*
Y265550D01*
Y263500D02*
Y264525D01*
Y262702D02*
Y263272D01*
Y261279D02*
Y262304D01*
Y259741D02*
Y260823D01*
Y258545D02*
Y259228D01*
Y257178D02*
Y257520D01*
Y255641D02*
Y256723D01*
Y253818D02*
Y254900D01*
Y251768D02*
Y252850D01*
Y249946D02*
Y250914D01*
Y246130D02*
Y247383D01*
Y242201D02*
Y243454D01*
Y238043D02*
Y239068D01*
Y235139D02*
Y236221D01*
Y232291D02*
Y233373D01*
Y230469D02*
Y231437D01*
X377940Y264980D02*
Y265550D01*
Y263500D02*
Y264525D01*
Y262759D02*
Y263272D01*
Y261279D02*
Y262304D01*
Y259741D02*
Y260823D01*
Y258602D02*
Y259285D01*
Y257235D02*
Y257577D01*
Y255641D02*
Y256723D01*
Y253818D02*
Y254900D01*
Y251825D02*
Y252850D01*
Y249946D02*
Y250914D01*
Y246130D02*
Y247383D01*
Y242258D02*
Y243511D01*
Y238043D02*
Y239068D01*
Y235196D02*
Y236221D01*
Y232348D02*
Y233373D01*
Y230469D02*
Y231437D01*
X377997Y265037D02*
Y265607D01*
Y263500D02*
Y264525D01*
Y262759D02*
Y263329D01*
Y261279D02*
Y262361D01*
Y259741D02*
Y260823D01*
Y258659D02*
Y259399D01*
Y257235D02*
Y257577D01*
Y255641D02*
Y256723D01*
Y253818D02*
Y254900D01*
Y251825D02*
Y252850D01*
Y249946D02*
Y250914D01*
Y246130D02*
Y247383D01*
Y242258D02*
Y243511D01*
Y238043D02*
Y239125D01*
Y235196D02*
Y236221D01*
Y232348D02*
Y233373D01*
Y230469D02*
Y231437D01*
X378054Y265037D02*
Y265607D01*
Y263500D02*
Y264525D01*
Y262759D02*
Y263329D01*
Y261279D02*
Y262361D01*
Y259741D02*
Y260880D01*
Y258773D02*
Y259513D01*
Y257292D02*
Y257634D01*
Y255641D02*
Y256723D01*
Y253875D02*
Y254900D01*
Y251825D02*
Y252907D01*
Y249946D02*
Y250971D01*
Y246130D02*
Y247383D01*
Y242315D02*
Y243567D01*
Y238043D02*
Y239125D01*
Y235196D02*
Y236221D01*
Y232348D02*
Y233373D01*
Y230469D02*
Y231437D01*
X378111Y265037D02*
Y265607D01*
Y263500D02*
Y264525D01*
Y262816D02*
Y263386D01*
Y261279D02*
Y262361D01*
Y258830D02*
Y260880D01*
Y257292D02*
Y257634D01*
Y255641D02*
Y256723D01*
Y253875D02*
Y254900D01*
Y251825D02*
Y252907D01*
Y249946D02*
Y250971D01*
Y246130D02*
Y247383D01*
Y242315D02*
Y243567D01*
Y238100D02*
Y239125D01*
Y235196D02*
Y236278D01*
Y232348D02*
Y233430D01*
Y230469D02*
Y231494D01*
X378168Y265094D02*
Y265664D01*
Y263500D02*
Y264525D01*
Y262816D02*
Y263386D01*
Y261279D02*
Y262361D01*
Y258944D02*
Y260880D01*
Y257349D02*
Y257691D01*
Y255641D02*
Y256723D01*
Y253875D02*
Y254957D01*
Y251825D02*
Y252907D01*
Y250003D02*
Y250971D01*
Y246130D02*
Y247383D01*
Y242315D02*
Y243567D01*
Y238100D02*
Y239125D01*
Y235196D02*
Y236278D01*
Y232348D02*
Y233430D01*
Y230526D02*
Y231494D01*
X378225Y265094D02*
Y265664D01*
Y263500D02*
Y264525D01*
Y262873D02*
Y263386D01*
Y261279D02*
Y262361D01*
Y259001D02*
Y260880D01*
Y257349D02*
Y257691D01*
Y255641D02*
Y256723D01*
Y253875D02*
Y254957D01*
Y251882D02*
Y252907D01*
Y250003D02*
Y250971D01*
Y246130D02*
Y247383D01*
Y242372D02*
Y243624D01*
Y238100D02*
Y239125D01*
Y235253D02*
Y236278D01*
Y232405D02*
Y233430D01*
Y230526D02*
Y231494D01*
X378282Y265094D02*
Y265721D01*
Y263500D02*
Y264525D01*
Y262873D02*
Y263443D01*
Y261336D02*
Y262361D01*
Y259172D02*
Y260880D01*
Y257406D02*
Y257748D01*
Y255584D02*
Y256666D01*
Y253932D02*
Y254957D01*
Y251882D02*
Y252907D01*
Y250003D02*
Y251028D01*
Y246130D02*
Y247383D01*
Y242372D02*
Y243624D01*
Y238100D02*
Y239182D01*
Y235253D02*
Y236278D01*
Y232405D02*
Y233430D01*
Y230526D02*
Y231494D01*
X378339Y265151D02*
Y265721D01*
Y262873D02*
Y264525D01*
Y261336D02*
Y262361D01*
Y259285D02*
Y260937D01*
Y257406D02*
Y257748D01*
Y255584D02*
Y256666D01*
Y253932D02*
Y254957D01*
Y251882D02*
Y252964D01*
Y250003D02*
Y251028D01*
Y246130D02*
Y247383D01*
Y242372D02*
Y243624D01*
Y238100D02*
Y239182D01*
Y235253D02*
Y236335D01*
Y232405D02*
Y233430D01*
Y230526D02*
Y231494D01*
X378396Y265151D02*
Y265721D01*
Y262930D02*
Y264525D01*
Y261336D02*
Y262418D01*
Y259513D02*
Y260937D01*
Y257406D02*
Y257805D01*
Y255584D02*
Y256666D01*
Y253932D02*
Y254957D01*
Y251882D02*
Y252964D01*
Y250060D02*
Y251028D01*
Y246130D02*
Y247383D01*
Y242372D02*
Y243624D01*
Y238157D02*
Y239182D01*
Y235253D02*
Y236335D01*
Y232405D02*
Y233487D01*
Y230583D02*
Y231551D01*
X378453Y265208D02*
Y265778D01*
Y262930D02*
Y264525D01*
Y261336D02*
Y262418D01*
Y259798D02*
Y260937D01*
Y257349D02*
Y257919D01*
Y255584D02*
Y256666D01*
Y253932D02*
Y255014D01*
Y251939D02*
Y252964D01*
Y250060D02*
Y251028D01*
Y246130D02*
Y247383D01*
Y242372D02*
Y243681D01*
Y238157D02*
Y239182D01*
Y235253D02*
Y236335D01*
Y232405D02*
Y233487D01*
Y230583D02*
Y231551D01*
X378510Y265208D02*
Y265778D01*
Y262987D02*
Y264525D01*
Y261336D02*
Y262418D01*
Y259855D02*
Y260937D01*
Y257292D02*
Y257976D01*
Y255584D02*
Y256666D01*
Y253932D02*
Y255014D01*
Y251939D02*
Y252964D01*
Y250060D02*
Y251085D01*
Y246130D02*
Y247383D01*
Y242428D02*
Y243681D01*
Y238157D02*
Y239239D01*
Y235310D02*
Y236335D01*
Y232462D02*
Y233487D01*
Y230583D02*
Y231551D01*
X378567Y265208D02*
Y265778D01*
Y262987D02*
Y264525D01*
Y261336D02*
Y262418D01*
Y259855D02*
Y260937D01*
Y257292D02*
Y258033D01*
Y255584D02*
Y256666D01*
Y253989D02*
Y255014D01*
Y251939D02*
Y252964D01*
Y250060D02*
Y251085D01*
Y246130D02*
Y247383D01*
Y242428D02*
Y243681D01*
Y238157D02*
Y239239D01*
Y235310D02*
Y236335D01*
Y232462D02*
Y233487D01*
Y230583D02*
Y231608D01*
X378624Y265265D02*
Y265835D01*
Y263044D02*
Y264525D01*
Y261336D02*
Y262418D01*
Y259855D02*
Y260937D01*
Y257292D02*
Y258033D01*
Y255584D02*
Y256666D01*
Y253989D02*
Y255014D01*
Y251939D02*
Y253021D01*
Y250117D02*
Y251085D01*
Y246130D02*
Y247383D01*
Y242428D02*
Y243681D01*
Y238157D02*
Y239239D01*
Y235310D02*
Y236392D01*
Y232462D02*
Y233544D01*
Y230640D02*
Y231608D01*
X378681Y265265D02*
Y265835D01*
Y263044D02*
Y264525D01*
Y261393D02*
Y262418D01*
Y259855D02*
Y260937D01*
Y257292D02*
Y258089D01*
Y255584D02*
Y256666D01*
Y253989D02*
Y255071D01*
Y251939D02*
Y253021D01*
Y250117D02*
Y251085D01*
Y248921D02*
Y249205D01*
Y246130D02*
Y247383D01*
Y242428D02*
Y243738D01*
Y240207D02*
Y240264D01*
Y238214D02*
Y239239D01*
Y235310D02*
Y236392D01*
Y232462D02*
Y233544D01*
Y230640D02*
Y231608D01*
X378738Y265265D02*
Y265892D01*
Y263044D02*
Y264525D01*
Y261393D02*
Y262418D01*
Y259855D02*
Y260937D01*
Y257292D02*
Y258089D01*
Y255584D02*
Y256666D01*
Y253989D02*
Y255128D01*
Y251996D02*
Y253021D01*
Y250117D02*
Y251085D01*
Y248921D02*
Y249205D01*
Y246130D02*
Y247326D01*
Y242428D02*
Y243795D01*
Y240093D02*
Y240321D01*
Y238214D02*
Y239239D01*
Y235367D02*
Y236392D01*
Y232519D02*
Y233544D01*
Y230640D02*
Y231608D01*
X378795Y265322D02*
Y265892D01*
Y263101D02*
Y264525D01*
Y261393D02*
Y262418D01*
Y259855D02*
Y260937D01*
Y257292D02*
Y258147D01*
Y255584D02*
Y256666D01*
Y253989D02*
Y255242D01*
Y251996D02*
Y253078D01*
Y250117D02*
Y251142D01*
Y248921D02*
Y249262D01*
Y246073D02*
Y247326D01*
Y242372D02*
Y243852D01*
Y240150D02*
Y240378D01*
Y238214D02*
Y239296D01*
Y235367D02*
Y236392D01*
Y232519D02*
Y233544D01*
Y230640D02*
Y231665D01*
X378852Y265322D02*
Y265892D01*
Y263101D02*
Y264525D01*
Y261393D02*
Y262475D01*
Y259855D02*
Y260937D01*
Y257292D02*
Y258147D01*
Y255584D02*
Y256666D01*
Y254046D02*
Y255299D01*
Y251996D02*
Y253078D01*
Y250117D02*
Y251142D01*
Y248978D02*
Y249262D01*
Y246073D02*
Y247326D01*
Y242372D02*
Y243909D01*
Y240207D02*
Y240378D01*
Y238214D02*
Y239296D01*
Y235367D02*
Y236392D01*
Y232519D02*
Y233544D01*
Y230697D02*
Y231665D01*
X378908Y265379D02*
Y265949D01*
Y263158D02*
Y264525D01*
Y261393D02*
Y262475D01*
Y259855D02*
Y260937D01*
Y257349D02*
Y258203D01*
Y255584D02*
Y256666D01*
Y254046D02*
Y255413D01*
Y251996D02*
Y253135D01*
Y250174D02*
Y251142D01*
Y248978D02*
Y249319D01*
Y246073D02*
Y247326D01*
Y242372D02*
Y243966D01*
Y240207D02*
Y240435D01*
Y238271D02*
Y239296D01*
Y235367D02*
Y236449D01*
Y232519D02*
Y233601D01*
Y230697D02*
Y231665D01*
X378965Y265379D02*
Y265949D01*
Y263158D02*
Y264582D01*
Y261393D02*
Y262475D01*
Y259855D02*
Y260937D01*
Y257805D02*
Y258260D01*
Y257406D02*
Y257748D01*
Y255584D02*
Y256723D01*
Y254046D02*
Y255470D01*
Y251996D02*
Y253135D01*
Y250174D02*
Y251142D01*
Y249035D02*
Y249319D01*
Y246016D02*
Y247326D01*
Y242372D02*
Y244023D01*
Y240264D02*
Y240492D01*
Y238271D02*
Y239296D01*
Y235367D02*
Y236449D01*
Y232519D02*
Y233601D01*
Y230697D02*
Y231665D01*
X379022Y265379D02*
Y265949D01*
Y263158D02*
Y264582D01*
Y261450D02*
Y262475D01*
Y259855D02*
Y260937D01*
Y257805D02*
Y258317D01*
Y254046D02*
Y256723D01*
Y252053D02*
Y253192D01*
Y250174D02*
Y251142D01*
Y249035D02*
Y249376D01*
Y246016D02*
Y247326D01*
Y243738D02*
Y244080D01*
Y242315D02*
Y243681D01*
Y240264D02*
Y240549D01*
Y238271D02*
Y239296D01*
Y235424D02*
Y236449D01*
Y232576D02*
Y233601D01*
Y230697D02*
Y231722D01*
X379079Y265436D02*
Y266005D01*
Y263215D02*
Y264582D01*
Y261450D02*
Y262475D01*
Y259855D02*
Y260937D01*
Y257805D02*
Y258374D01*
Y255185D02*
Y256723D01*
Y254046D02*
Y255071D01*
Y252053D02*
Y253249D01*
Y250117D02*
Y251142D01*
Y249092D02*
Y249376D01*
Y245959D02*
Y247269D01*
Y243795D02*
Y244194D01*
Y242315D02*
Y243681D01*
Y240321D02*
Y240663D01*
Y238271D02*
Y239353D01*
Y235424D02*
Y236449D01*
Y232576D02*
Y233601D01*
Y230754D02*
Y231722D01*
X379136Y265436D02*
Y266005D01*
Y263215D02*
Y264582D01*
Y261450D02*
Y262475D01*
Y259798D02*
Y260937D01*
Y257748D02*
Y258431D01*
Y255299D02*
Y256780D01*
Y254046D02*
Y255071D01*
Y252053D02*
Y253306D01*
Y250117D02*
Y251142D01*
Y249092D02*
Y249433D01*
Y245902D02*
Y247269D01*
Y243852D02*
Y244251D01*
Y242258D02*
Y243681D01*
Y240378D02*
Y240720D01*
Y238271D02*
Y239353D01*
Y235424D02*
Y236506D01*
Y232576D02*
Y233601D01*
Y230754D02*
Y231722D01*
X379193Y265436D02*
Y266005D01*
Y263272D02*
Y264582D01*
Y261450D02*
Y262532D01*
Y259798D02*
Y260937D01*
Y257748D02*
Y258545D01*
Y255356D02*
Y256780D01*
Y253989D02*
Y255071D01*
Y252053D02*
Y253363D01*
Y250117D02*
Y251142D01*
Y249149D02*
Y249490D01*
Y245845D02*
Y247269D01*
Y243852D02*
Y244365D01*
Y242258D02*
Y243624D01*
Y240435D02*
Y240834D01*
Y238328D02*
Y239353D01*
Y235424D02*
Y236506D01*
Y232576D02*
Y233658D01*
Y230754D02*
Y231722D01*
X379250Y265493D02*
Y266062D01*
Y263272D02*
Y264582D01*
Y261450D02*
Y262532D01*
Y259741D02*
Y260937D01*
Y257748D02*
Y258602D01*
Y255413D02*
Y256837D01*
Y253989D02*
Y255071D01*
Y252110D02*
Y253420D01*
Y250060D02*
Y251142D01*
Y249149D02*
Y249547D01*
Y245789D02*
Y247212D01*
Y243909D02*
Y244479D01*
Y242201D02*
Y243624D01*
Y240435D02*
Y240948D01*
Y238328D02*
Y239353D01*
Y235424D02*
Y236506D01*
Y232576D02*
Y233658D01*
Y230754D02*
Y231779D01*
X379307Y265493D02*
Y266062D01*
Y263329D02*
Y264582D01*
Y261450D02*
Y262532D01*
Y259684D02*
Y260880D01*
Y258203D02*
Y258716D01*
Y257691D02*
Y258147D01*
Y255470D02*
Y256894D01*
Y253875D02*
Y255071D01*
Y252110D02*
Y253590D01*
Y249946D02*
Y251142D01*
Y249205D02*
Y249661D01*
Y245731D02*
Y247212D01*
Y243966D02*
Y244592D01*
Y242087D02*
Y243624D01*
Y240492D02*
Y241062D01*
Y238328D02*
Y239410D01*
Y235481D02*
Y236506D01*
Y232633D02*
Y233658D01*
Y230754D02*
Y231779D01*
X379364Y265550D02*
Y266119D01*
Y263329D02*
Y264582D01*
Y261450D02*
Y262532D01*
Y259627D02*
Y260880D01*
Y258260D02*
Y258887D01*
Y257634D02*
Y258147D01*
Y255584D02*
Y257008D01*
Y252110D02*
Y255071D01*
Y249205D02*
Y251142D01*
Y245561D02*
Y247212D01*
Y244023D02*
Y244820D01*
Y241973D02*
Y243567D01*
Y240549D02*
Y241232D01*
Y238328D02*
Y239410D01*
Y235481D02*
Y236506D01*
Y232633D02*
Y233658D01*
Y230811D02*
Y231779D01*
X379421Y265550D02*
Y266119D01*
Y263329D02*
Y264582D01*
Y261450D02*
Y262532D01*
Y259399D02*
Y260880D01*
Y258317D02*
Y259172D01*
Y257520D02*
Y258089D01*
Y255641D02*
Y257121D01*
Y252110D02*
Y255071D01*
Y249262D02*
Y251142D01*
Y244080D02*
Y247155D01*
Y241745D02*
Y243567D01*
Y240606D02*
Y241574D01*
Y238385D02*
Y239410D01*
Y235481D02*
Y236563D01*
Y232633D02*
Y233715D01*
Y230811D02*
Y231779D01*
X379478Y265550D02*
Y266119D01*
Y263386D02*
Y264582D01*
Y261507D02*
Y262532D01*
Y258431D02*
Y260823D01*
Y255755D02*
Y258089D01*
Y252110D02*
Y255071D01*
Y249319D02*
Y251142D01*
Y244137D02*
Y247155D01*
Y240663D02*
Y243511D01*
Y238385D02*
Y239410D01*
Y235481D02*
Y236563D01*
Y232633D02*
Y233715D01*
Y230811D02*
Y231779D01*
X379535Y265607D02*
Y266176D01*
Y263386D02*
Y264582D01*
Y261507D02*
Y262532D01*
Y258488D02*
Y260823D01*
Y255869D02*
Y258033D01*
Y252167D02*
Y255014D01*
Y249319D02*
Y251085D01*
Y244194D02*
Y247098D01*
Y240720D02*
Y243511D01*
Y238385D02*
Y239410D01*
Y235538D02*
Y236563D01*
Y232633D02*
Y233715D01*
Y230811D02*
Y231779D01*
X379592Y265607D02*
Y266176D01*
Y263443D02*
Y264582D01*
Y261507D02*
Y262532D01*
Y258545D02*
Y260766D01*
Y255925D02*
Y258033D01*
Y253306D02*
Y255014D01*
Y252167D02*
Y253192D01*
Y249376D02*
Y251085D01*
Y244251D02*
Y247041D01*
Y240834D02*
Y243454D01*
Y238385D02*
Y239467D01*
Y235538D02*
Y236563D01*
Y232690D02*
Y233715D01*
Y230811D02*
Y231779D01*
X379649Y265607D02*
Y266176D01*
Y263443D02*
Y264582D01*
Y261507D02*
Y262589D01*
Y258602D02*
Y260709D01*
Y255982D02*
Y257976D01*
Y253363D02*
Y255014D01*
Y252167D02*
Y253249D01*
Y249433D02*
Y251028D01*
Y244365D02*
Y246984D01*
Y240891D02*
Y243397D01*
Y238385D02*
Y239467D01*
Y235538D02*
Y236563D01*
Y232690D02*
Y233715D01*
Y230754D02*
Y231779D01*
X379706Y265664D02*
Y266233D01*
Y263500D02*
Y264582D01*
Y261507D02*
Y262589D01*
Y258716D02*
Y260652D01*
Y256039D02*
Y257919D01*
Y253420D02*
Y254957D01*
Y252167D02*
Y253249D01*
Y249490D02*
Y251028D01*
Y244422D02*
Y246927D01*
Y240948D02*
Y243397D01*
Y238442D02*
Y239467D01*
Y235538D02*
Y236620D01*
Y232690D02*
Y233772D01*
Y230754D02*
Y231779D01*
X379763Y265664D02*
Y266233D01*
Y263500D02*
Y264582D01*
Y261507D02*
Y262589D01*
Y258773D02*
Y260595D01*
Y256153D02*
Y257862D01*
Y253477D02*
Y254900D01*
Y252167D02*
Y253249D01*
Y249547D02*
Y250971D01*
Y244536D02*
Y246870D01*
Y241062D02*
Y243340D01*
Y238442D02*
Y239467D01*
Y235538D02*
Y236620D01*
Y232690D02*
Y233772D01*
Y230754D02*
Y231779D01*
X379820Y265664D02*
Y266233D01*
Y263500D02*
Y264582D01*
Y261507D02*
Y262589D01*
Y258887D02*
Y260538D01*
Y256210D02*
Y257805D01*
Y253590D02*
Y254843D01*
Y252224D02*
Y253249D01*
Y249661D02*
Y250914D01*
Y244650D02*
Y246814D01*
Y241176D02*
Y243283D01*
Y238442D02*
Y239467D01*
Y235595D02*
Y236620D01*
Y232747D02*
Y233772D01*
Y230697D02*
Y231779D01*
X379877Y265721D02*
Y266290D01*
Y263557D02*
Y264582D01*
Y261563D02*
Y262589D01*
Y259001D02*
Y260481D01*
Y256324D02*
Y257691D01*
Y253647D02*
Y254786D01*
Y252224D02*
Y253249D01*
Y249718D02*
Y250857D01*
Y244763D02*
Y246757D01*
Y241232D02*
Y243169D01*
Y238385D02*
Y239524D01*
Y235595D02*
Y236620D01*
Y232747D02*
Y233772D01*
Y230697D02*
Y231779D01*
X379934Y265721D02*
Y266290D01*
Y263557D02*
Y264582D01*
Y261563D02*
Y262589D01*
Y259172D02*
Y260311D01*
Y256495D02*
Y257577D01*
Y253818D02*
Y254730D01*
Y252224D02*
Y253306D01*
Y249832D02*
Y250743D01*
Y244877D02*
Y246643D01*
Y241403D02*
Y243112D01*
Y238214D02*
Y239524D01*
Y235595D02*
Y236620D01*
Y232747D02*
Y233772D01*
Y230640D02*
Y231722D01*
X379991Y259399D02*
Y260140D01*
Y256723D02*
Y257406D01*
Y253989D02*
Y254559D01*
Y250003D02*
Y250572D01*
Y245048D02*
Y246529D01*
Y241517D02*
Y242998D01*
Y238043D02*
Y239524D01*
Y230526D02*
Y231665D01*
X380047Y245276D02*
Y246301D01*
Y241745D02*
Y242827D01*
Y237929D02*
Y239524D01*
Y230754D02*
Y231551D01*
X380104Y245504D02*
Y245845D01*
Y242087D02*
Y242542D01*
Y237815D02*
Y239581D01*
Y231152D02*
Y231323D01*
X380161Y245561D02*
Y245845D01*
Y237702D02*
Y239239D01*
X380218Y245561D02*
Y245845D01*
Y237588D02*
Y238954D01*
X380275Y245618D02*
Y245845D01*
Y237474D02*
Y238784D01*
X380332Y245618D02*
Y245902D01*
Y237360D02*
Y238670D01*
X380389Y245618D02*
Y245902D01*
Y237303D02*
Y238556D01*
X380446Y245674D02*
Y245902D01*
Y237189D02*
Y238442D01*
X380503Y245674D02*
Y245959D01*
Y244991D02*
Y245561D01*
Y237075D02*
Y238328D01*
X380560Y244934D02*
Y245959D01*
Y236961D02*
Y238271D01*
X380617Y244877D02*
Y246016D01*
Y236790D02*
Y238157D01*
X380674Y244820D02*
Y246016D01*
Y236677D02*
Y238100D01*
X380731Y244820D02*
Y246016D01*
Y236506D02*
Y237986D01*
X380788Y244820D02*
Y246073D01*
Y236335D02*
Y237929D01*
Y235253D02*
Y235424D01*
X380845Y246016D02*
Y246073D01*
Y244820D02*
Y245504D01*
Y235936D02*
Y237815D01*
Y235253D02*
Y235822D01*
X380902Y244820D02*
Y245447D01*
Y235310D02*
Y237759D01*
X380959Y244820D02*
Y245447D01*
Y235310D02*
Y237702D01*
X381016Y244820D02*
Y245390D01*
Y235310D02*
Y237645D01*
X381073Y244820D02*
Y245390D01*
Y235310D02*
Y237531D01*
X381130Y244877D02*
Y245390D01*
Y235367D02*
Y237474D01*
X381187Y244877D02*
Y245390D01*
Y235367D02*
Y237417D01*
X381243Y246073D02*
Y246301D01*
Y244934D02*
Y245447D01*
Y235367D02*
Y237360D01*
X381300Y245959D02*
Y246415D01*
Y244991D02*
Y245447D01*
Y235367D02*
Y237246D01*
X381357Y245845D02*
Y246415D01*
Y245048D02*
Y245504D01*
Y235424D02*
Y237189D01*
X381414Y245731D02*
Y246472D01*
Y245105D02*
Y245618D01*
Y235424D02*
Y237132D01*
X381471Y245162D02*
Y246415D01*
Y235481D02*
Y237018D01*
X381528Y245276D02*
Y246301D01*
Y235481D02*
Y236961D01*
X381585Y245390D02*
Y246130D01*
Y235538D02*
Y236847D01*
X381642Y235595D02*
Y236790D01*
X381699Y235651D02*
Y236677D01*
X381756Y235708D02*
Y236563D01*
X381813Y235765D02*
Y236392D01*
X381870Y235936D02*
Y236164D01*
D200*
X32966Y142059D02*
Y142614D01*
X32887Y141425D02*
Y143328D01*
X32807Y141108D02*
Y143645D01*
X32728Y140870D02*
Y143883D01*
X32649Y140712D02*
Y144121D01*
X32569Y140474D02*
Y144279D01*
X32490Y140395D02*
Y144438D01*
X32411Y140236D02*
Y144517D01*
X32332Y140157D02*
Y144676D01*
X32252Y139998D02*
Y141901D01*
Y142931D02*
Y144755D01*
X32173Y139919D02*
Y141425D01*
Y143328D02*
Y144834D01*
X32094Y139840D02*
Y141187D01*
Y143566D02*
Y144993D01*
X32015Y139760D02*
Y140949D01*
Y143883D02*
Y144993D01*
X31935Y139681D02*
Y140791D01*
Y143962D02*
Y145072D01*
X31856Y139681D02*
Y140632D01*
Y144121D02*
Y145151D01*
X31777Y139602D02*
Y140553D01*
Y144279D02*
Y145231D01*
X31697Y139523D02*
Y140474D01*
Y144359D02*
Y145231D01*
X31618Y139523D02*
Y140395D01*
Y144438D02*
Y145310D01*
X31539Y139443D02*
Y140315D01*
Y144517D02*
Y145310D01*
X31460Y137778D02*
Y140236D01*
Y144517D02*
Y147768D01*
X31380Y137620D02*
Y140157D01*
Y144596D02*
Y147926D01*
X31301Y137540D02*
Y140157D01*
Y144676D02*
Y148005D01*
X31222Y137540D02*
Y140157D01*
Y144676D02*
Y148005D01*
X31142Y137540D02*
Y140157D01*
Y144676D02*
Y148005D01*
X31063Y137540D02*
Y140077D01*
Y144676D02*
Y148005D01*
X30984Y137540D02*
Y140077D01*
Y144676D02*
Y148005D01*
X30905Y137540D02*
Y139998D01*
Y144755D02*
Y148005D01*
X30825Y137461D02*
Y139919D01*
Y144834D02*
Y148085D01*
X30746Y137461D02*
Y138175D01*
Y147371D02*
Y148085D01*
X30667Y137461D02*
Y138175D01*
Y147371D02*
Y148085D01*
X30588Y137461D02*
Y138175D01*
Y147371D02*
Y148085D01*
X30508Y137382D02*
Y138175D01*
Y147371D02*
Y148164D01*
X30429Y137382D02*
Y138095D01*
Y147450D02*
Y148164D01*
X30350Y137382D02*
Y138095D01*
Y147450D02*
Y148164D01*
X30270Y137303D02*
Y138095D01*
Y147450D02*
Y148243D01*
X30191Y137223D02*
Y138016D01*
Y147530D02*
Y148243D01*
X30112Y137223D02*
Y138016D01*
Y147530D02*
Y148322D01*
X30033Y137144D02*
Y138016D01*
Y147530D02*
Y148402D01*
X29953Y137144D02*
Y137937D01*
Y147609D02*
Y148481D01*
X29874Y137065D02*
Y137937D01*
Y147609D02*
Y148481D01*
X29795Y136986D02*
Y137858D01*
Y147688D02*
Y148560D01*
X29715Y136906D02*
Y137778D01*
Y147768D02*
Y148640D01*
X29636Y136748D02*
Y137778D01*
Y147768D02*
Y148798D01*
X29557Y136668D02*
Y137699D01*
Y147847D02*
Y148878D01*
X29478Y136589D02*
Y137620D01*
Y147926D02*
Y149036D01*
X29398Y136431D02*
Y137540D01*
Y148005D02*
Y149115D01*
X29319Y136114D02*
Y137461D01*
Y148085D02*
Y149353D01*
X29240Y135638D02*
Y137382D01*
Y148164D02*
Y149829D01*
X29160Y135400D02*
Y137303D01*
Y148243D02*
Y150146D01*
X29081Y135321D02*
Y137223D01*
Y148322D02*
Y150225D01*
X29002Y135321D02*
Y137144D01*
Y148402D02*
Y150225D01*
X28923Y135241D02*
Y136986D01*
Y148560D02*
Y150304D01*
X28843Y135241D02*
Y136827D01*
Y148719D02*
Y150304D01*
X28764Y135241D02*
Y136668D01*
Y148957D02*
Y150304D01*
X28685Y135241D02*
Y136510D01*
Y149036D02*
Y150304D01*
X28605Y135241D02*
Y136193D01*
Y149353D02*
Y150304D01*
X28526Y135241D02*
Y135955D01*
Y149591D02*
Y150304D01*
X28447Y135241D02*
Y135955D01*
Y149591D02*
Y150304D01*
X28368Y135241D02*
Y135955D01*
Y149591D02*
Y150304D01*
X28288Y135241D02*
Y135955D01*
Y149591D02*
Y150304D01*
X28209Y135241D02*
Y135955D01*
Y149591D02*
Y150304D01*
X28130Y135241D02*
Y135955D01*
Y149591D02*
Y150304D01*
X28051Y135241D02*
Y135955D01*
Y149591D02*
Y150304D01*
X27971Y135241D02*
Y135955D01*
Y149591D02*
Y150304D01*
X27892Y135241D02*
Y135955D01*
Y149591D02*
Y150304D01*
X27813Y135241D02*
Y135955D01*
Y149591D02*
Y150304D01*
X27733Y135241D02*
Y135955D01*
Y149591D02*
Y150304D01*
X27654Y135241D02*
Y135955D01*
Y149591D02*
Y150304D01*
X27575Y135241D02*
Y135955D01*
Y149591D02*
Y150304D01*
X27496Y135241D02*
Y135955D01*
Y149591D02*
Y150304D01*
X27416Y135241D02*
Y135955D01*
Y149591D02*
Y150304D01*
X27337Y135241D02*
Y135955D01*
Y149591D02*
Y150304D01*
X27258Y135241D02*
Y135955D01*
Y149591D02*
Y150304D01*
X27178Y135241D02*
Y135955D01*
Y143883D02*
Y144121D01*
Y149591D02*
Y150304D01*
X27099Y135241D02*
Y135955D01*
Y143645D02*
Y144279D01*
Y149591D02*
Y150304D01*
X27020Y135241D02*
Y135955D01*
Y143486D02*
Y144279D01*
Y149591D02*
Y150304D01*
X26941Y135241D02*
Y135955D01*
Y143407D02*
Y143724D01*
Y143962D02*
Y144279D01*
Y149591D02*
Y150304D01*
X26861Y135083D02*
Y135955D01*
Y143328D02*
Y143566D01*
Y144041D02*
Y144279D01*
Y149591D02*
Y150463D01*
X26782Y134924D02*
Y135955D01*
Y143249D02*
Y143486D01*
Y144121D02*
Y144200D01*
Y149591D02*
Y150622D01*
X26703Y134845D02*
Y135955D01*
Y143169D02*
Y143486D01*
Y149591D02*
Y150701D01*
X26623Y134766D02*
Y135955D01*
Y143090D02*
Y143407D01*
Y149591D02*
Y150780D01*
X26544Y134607D02*
Y135955D01*
Y143011D02*
Y143328D01*
Y149591D02*
Y150939D01*
X26465Y134607D02*
Y135955D01*
Y143011D02*
Y143328D01*
Y149591D02*
Y151018D01*
X26386Y134528D02*
Y135876D01*
Y142931D02*
Y143328D01*
Y149750D02*
Y151018D01*
X26306Y134449D02*
Y135717D01*
Y142852D02*
Y143328D01*
Y149908D02*
Y151097D01*
X26227Y134369D02*
Y135400D01*
Y142852D02*
Y143249D01*
Y150146D02*
Y151177D01*
X26148Y134369D02*
Y135241D01*
Y139523D02*
Y140474D01*
Y142773D02*
Y143249D01*
Y145548D02*
Y146499D01*
Y150304D02*
Y151256D01*
X26068Y134290D02*
Y135162D01*
Y139285D02*
Y140632D01*
Y142773D02*
Y143249D01*
Y145389D02*
Y146737D01*
Y150384D02*
Y151256D01*
X25989Y134211D02*
Y135083D01*
Y139205D02*
Y139523D01*
Y139840D02*
Y140791D01*
Y142694D02*
Y143249D01*
Y145231D02*
Y145944D01*
Y146341D02*
Y146896D01*
Y150463D02*
Y151335D01*
X25910Y134211D02*
Y135004D01*
Y139047D02*
Y139285D01*
Y139919D02*
Y140870D01*
Y142614D02*
Y143249D01*
Y145072D02*
Y145786D01*
Y146420D02*
Y146975D01*
Y150542D02*
Y151335D01*
X25831Y134132D02*
Y134924D01*
Y138968D02*
Y139205D01*
Y139998D02*
Y140870D01*
Y142614D02*
Y143328D01*
Y144993D02*
Y145706D01*
Y146420D02*
Y146975D01*
Y150542D02*
Y151415D01*
X25751Y134132D02*
Y134924D01*
Y138888D02*
Y139047D01*
Y139998D02*
Y140949D01*
Y142535D02*
Y143328D01*
Y144913D02*
Y145627D01*
Y146499D02*
Y147054D01*
Y150622D02*
Y151415D01*
X25672Y134052D02*
Y134845D01*
Y138809D02*
Y138968D01*
Y140077D02*
Y140949D01*
Y142535D02*
Y143328D01*
Y144834D02*
Y145627D01*
Y146499D02*
Y147054D01*
Y150701D02*
Y151494D01*
X25593Y134052D02*
Y134845D01*
Y138730D02*
Y138968D01*
Y140077D02*
Y141029D01*
Y142456D02*
Y143328D01*
Y144755D02*
Y145548D01*
Y146499D02*
Y147054D01*
Y150701D02*
Y151494D01*
X25514Y134052D02*
Y134766D01*
Y138730D02*
Y138888D01*
Y140077D02*
Y141029D01*
Y142377D02*
Y143328D01*
Y144755D02*
Y145468D01*
Y146499D02*
Y147054D01*
Y150780D02*
Y151573D01*
X25434Y133973D02*
Y134766D01*
Y138650D02*
Y138888D01*
Y140077D02*
Y141108D01*
Y142377D02*
Y143328D01*
Y144676D02*
Y145468D01*
Y146499D02*
Y147054D01*
Y150780D02*
Y151573D01*
X25355Y133973D02*
Y134686D01*
Y138650D02*
Y138888D01*
Y140077D02*
Y141108D01*
Y142297D02*
Y143328D01*
Y144596D02*
Y145468D01*
Y146499D02*
Y147054D01*
Y150859D02*
Y151573D01*
X25276Y133973D02*
Y134686D01*
Y138650D02*
Y138888D01*
Y140077D02*
Y141187D01*
Y142297D02*
Y143328D01*
Y144596D02*
Y145389D01*
Y146499D02*
Y146975D01*
Y150859D02*
Y151573D01*
X25196Y133894D02*
Y134607D01*
Y138650D02*
Y138888D01*
Y139364D02*
Y139443D01*
Y139998D02*
Y141187D01*
Y142218D02*
Y143328D01*
Y144517D02*
Y145389D01*
Y146578D02*
Y146896D01*
Y150859D02*
Y151652D01*
X25117Y133894D02*
Y134607D01*
Y138650D02*
Y138968D01*
Y139205D02*
Y139602D01*
Y139998D02*
Y141267D01*
Y142218D02*
Y143328D01*
Y144517D02*
Y145389D01*
Y150939D02*
Y151652D01*
X25038Y133894D02*
Y134607D01*
Y138650D02*
Y139602D01*
Y139998D02*
Y140315D01*
Y140395D02*
Y141267D01*
Y142139D02*
Y143328D01*
Y144517D02*
Y145310D01*
Y150939D02*
Y151652D01*
X24959Y133894D02*
Y134607D01*
Y138650D02*
Y139602D01*
Y139998D02*
Y140315D01*
Y140395D02*
Y141346D01*
Y142139D02*
Y142456D01*
Y142535D02*
Y143328D01*
Y144438D02*
Y145310D01*
Y151018D02*
Y151652D01*
X24879Y133814D02*
Y134528D01*
Y138650D02*
Y139602D01*
Y139998D02*
Y140315D01*
Y140474D02*
Y141346D01*
Y142059D02*
Y142377D01*
Y142535D02*
Y143407D01*
Y144438D02*
Y145310D01*
Y151018D02*
Y151732D01*
X24800Y133814D02*
Y134528D01*
Y138730D02*
Y139602D01*
Y139998D02*
Y140315D01*
Y140474D02*
Y141425D01*
Y142059D02*
Y142297D01*
Y142535D02*
Y143407D01*
Y144438D02*
Y145310D01*
Y151018D02*
Y151732D01*
X24721Y133814D02*
Y134528D01*
Y138809D02*
Y139523D01*
Y139998D02*
Y140315D01*
Y140553D02*
Y141425D01*
Y141980D02*
Y142297D01*
Y142535D02*
Y143407D01*
Y144438D02*
Y145310D01*
Y151018D02*
Y151732D01*
X24642Y133814D02*
Y134528D01*
Y138888D02*
Y139443D01*
Y139998D02*
Y140236D01*
Y140553D02*
Y141505D01*
Y141980D02*
Y142218D01*
Y142535D02*
Y143407D01*
Y144359D02*
Y145310D01*
Y151018D02*
Y151732D01*
X24562Y133814D02*
Y134528D01*
Y139998D02*
Y140236D01*
Y140632D02*
Y141505D01*
Y141901D02*
Y142218D01*
Y142535D02*
Y143407D01*
Y144359D02*
Y145231D01*
Y151018D02*
Y151732D01*
X24483Y133814D02*
Y134528D01*
Y139998D02*
Y140236D01*
Y140632D02*
Y141584D01*
Y141901D02*
Y142139D01*
Y142535D02*
Y143407D01*
Y144359D02*
Y145231D01*
Y151018D02*
Y151732D01*
X24404Y133814D02*
Y134449D01*
Y139998D02*
Y140236D01*
Y140712D02*
Y141584D01*
Y141822D02*
Y142139D01*
Y142535D02*
Y143407D01*
Y144359D02*
Y145231D01*
Y151097D02*
Y151732D01*
X24324Y133814D02*
Y134449D01*
Y139998D02*
Y140236D01*
Y140712D02*
Y141663D01*
Y141822D02*
Y142059D01*
Y142535D02*
Y143407D01*
Y144359D02*
Y145231D01*
Y151097D02*
Y151732D01*
X24245Y133814D02*
Y134449D01*
Y139998D02*
Y140236D01*
Y140791D02*
Y141663D01*
Y141742D02*
Y142059D01*
Y142614D02*
Y143407D01*
Y144359D02*
Y145231D01*
Y151097D02*
Y151732D01*
X24166Y133735D02*
Y134449D01*
Y139998D02*
Y140236D01*
Y140791D02*
Y141980D01*
Y142614D02*
Y143407D01*
Y144359D02*
Y145231D01*
Y151097D02*
Y151811D01*
X24087Y133735D02*
Y134449D01*
Y139998D02*
Y140236D01*
Y140870D02*
Y141980D01*
Y142614D02*
Y143486D01*
Y144359D02*
Y145231D01*
Y151097D02*
Y151811D01*
X24007Y133735D02*
Y134449D01*
Y139998D02*
Y140236D01*
Y140870D02*
Y141901D01*
Y142614D02*
Y143486D01*
Y144359D02*
Y145231D01*
Y151097D02*
Y151811D01*
X23928Y133735D02*
Y134449D01*
Y139919D02*
Y140236D01*
Y140949D02*
Y141901D01*
Y142614D02*
Y143486D01*
Y144359D02*
Y145231D01*
Y151097D02*
Y151811D01*
X23849Y133735D02*
Y134449D01*
Y139919D02*
Y140236D01*
Y140949D02*
Y141901D01*
Y142614D02*
Y143486D01*
Y144359D02*
Y145231D01*
Y151097D02*
Y151811D01*
X23769Y133735D02*
Y134449D01*
Y139919D02*
Y140236D01*
Y141029D02*
Y141822D01*
Y142614D02*
Y143486D01*
Y144359D02*
Y145231D01*
Y151097D02*
Y151732D01*
X23690Y133814D02*
Y134449D01*
Y139919D02*
Y140236D01*
Y141029D02*
Y141822D01*
Y142614D02*
Y143486D01*
Y144359D02*
Y145231D01*
Y151097D02*
Y151732D01*
X23611Y133814D02*
Y134449D01*
Y139919D02*
Y140236D01*
Y141108D02*
Y141742D01*
Y142614D02*
Y143486D01*
Y144359D02*
Y145231D01*
Y151097D02*
Y151732D01*
X23532Y133814D02*
Y134528D01*
Y139919D02*
Y140236D01*
Y141187D02*
Y141742D01*
Y142614D02*
Y143486D01*
Y144359D02*
Y145231D01*
Y151018D02*
Y151732D01*
X23452Y133814D02*
Y134528D01*
Y139919D02*
Y140236D01*
Y141187D02*
Y141663D01*
Y142694D02*
Y143486D01*
Y144359D02*
Y145310D01*
Y151018D02*
Y151732D01*
X23373Y133814D02*
Y134528D01*
Y139919D02*
Y140157D01*
Y141187D02*
Y141663D01*
Y142694D02*
Y143486D01*
Y144438D02*
Y145310D01*
Y151018D02*
Y151732D01*
X23294Y133814D02*
Y134528D01*
Y139919D02*
Y140157D01*
Y141267D02*
Y141584D01*
Y142694D02*
Y143566D01*
Y144438D02*
Y145310D01*
Y151018D02*
Y151732D01*
X23214Y133814D02*
Y134528D01*
Y139840D02*
Y140157D01*
Y141267D02*
Y141584D01*
Y142694D02*
Y143566D01*
Y144438D02*
Y145310D01*
Y151018D02*
Y151732D01*
X23135Y133814D02*
Y134528D01*
Y139840D02*
Y140157D01*
Y142694D02*
Y143566D01*
Y144438D02*
Y145310D01*
Y151018D02*
Y151732D01*
X23056Y133894D02*
Y134607D01*
Y139840D02*
Y140157D01*
Y142694D02*
Y143566D01*
Y144438D02*
Y145310D01*
Y150939D02*
Y151732D01*
X22977Y133894D02*
Y134607D01*
Y139840D02*
Y140077D01*
Y142694D02*
Y143566D01*
Y144517D02*
Y145389D01*
Y150939D02*
Y151652D01*
X22897Y133894D02*
Y134607D01*
Y139840D02*
Y140077D01*
Y142694D02*
Y143566D01*
Y144596D02*
Y145389D01*
Y150939D02*
Y151652D01*
X22818Y133894D02*
Y134607D01*
Y139760D02*
Y140077D01*
Y142773D02*
Y143566D01*
Y144596D02*
Y145389D01*
Y150859D02*
Y151652D01*
X22739Y133973D02*
Y134686D01*
Y139760D02*
Y140077D01*
Y142773D02*
Y143566D01*
Y144596D02*
Y145468D01*
Y150859D02*
Y151652D01*
X22659Y133973D02*
Y134686D01*
Y138413D02*
Y138650D01*
Y139681D02*
Y139998D01*
Y142773D02*
Y143566D01*
Y144676D02*
Y145468D01*
Y150859D02*
Y151573D01*
X22580Y133973D02*
Y134766D01*
Y138413D02*
Y138650D01*
Y139681D02*
Y139919D01*
Y142773D02*
Y143645D01*
Y144676D02*
Y145548D01*
Y150780D02*
Y151573D01*
X22501Y133973D02*
Y134766D01*
Y138333D02*
Y138730D01*
Y139602D02*
Y139840D01*
Y142773D02*
Y143645D01*
Y144755D02*
Y145627D01*
Y147054D02*
Y147133D01*
Y150780D02*
Y151573D01*
X22422Y134052D02*
Y134766D01*
Y138413D02*
Y138809D01*
Y139523D02*
Y139760D01*
Y142852D02*
Y143724D01*
Y143883D02*
Y144041D01*
Y144834D02*
Y145706D01*
Y146975D02*
Y147133D01*
Y150701D02*
Y151494D01*
X22342Y134052D02*
Y134845D01*
Y138413D02*
Y138968D01*
Y139205D02*
Y139681D01*
Y142852D02*
Y143962D01*
Y144913D02*
Y145786D01*
Y146816D02*
Y147054D01*
Y150701D02*
Y151494D01*
X22263Y134132D02*
Y134924D01*
Y138571D02*
Y139523D01*
Y142931D02*
Y143804D01*
Y144993D02*
Y145865D01*
Y146658D02*
Y146975D01*
Y150622D02*
Y151415D01*
X22184Y134132D02*
Y134924D01*
Y143169D02*
Y143486D01*
Y145072D02*
Y146103D01*
Y146499D02*
Y146896D01*
Y150622D02*
Y151415D01*
X22105Y134211D02*
Y135004D01*
Y145151D02*
Y146737D01*
Y150542D02*
Y151415D01*
X22025Y134211D02*
Y135083D01*
Y145389D02*
Y146578D01*
Y150463D02*
Y151335D01*
X21946Y134290D02*
Y135162D01*
Y145627D02*
Y146341D01*
Y150384D02*
Y151256D01*
X21867Y134290D02*
Y135241D01*
Y145706D02*
Y145865D01*
Y150304D02*
Y151256D01*
X21787Y134369D02*
Y135400D01*
Y145706D02*
Y145865D01*
Y150146D02*
Y151177D01*
X21708Y134449D02*
Y135717D01*
Y145706D02*
Y146023D01*
Y149829D02*
Y151097D01*
X21629Y134528D02*
Y135876D01*
Y145865D02*
Y146261D01*
Y149670D02*
Y151018D01*
X21550Y134528D02*
Y135955D01*
Y146023D02*
Y146420D01*
Y149591D02*
Y151018D01*
X21470Y134607D02*
Y135955D01*
Y146103D02*
Y146499D01*
Y149591D02*
Y150939D01*
X21391Y134686D02*
Y135955D01*
Y146103D02*
Y146499D01*
Y149591D02*
Y150780D01*
X21312Y134845D02*
Y135955D01*
Y146103D02*
Y146499D01*
Y149591D02*
Y150701D01*
X21233Y134924D02*
Y135955D01*
Y146103D02*
Y146499D01*
Y149591D02*
Y150622D01*
X21153Y135083D02*
Y135955D01*
Y146103D02*
Y146499D01*
Y149591D02*
Y150463D01*
X21074Y135241D02*
Y135955D01*
Y146023D02*
Y146499D01*
Y149591D02*
Y150304D01*
X20995Y135241D02*
Y135955D01*
Y145310D02*
Y145389D01*
Y145944D02*
Y146420D01*
Y149591D02*
Y150304D01*
X20915Y135241D02*
Y135955D01*
Y145389D02*
Y146261D01*
Y149591D02*
Y150304D01*
X20836Y135241D02*
Y135955D01*
Y145706D02*
Y146023D01*
Y149591D02*
Y150304D01*
X20757Y135241D02*
Y135955D01*
Y149591D02*
Y150304D01*
X20677Y135241D02*
Y135955D01*
Y149591D02*
Y150304D01*
X20598Y135241D02*
Y135955D01*
Y149591D02*
Y150304D01*
X20519Y135241D02*
Y135955D01*
Y149591D02*
Y150304D01*
X20440Y135241D02*
Y135955D01*
Y149591D02*
Y150304D01*
X20360Y135241D02*
Y135955D01*
Y149591D02*
Y150304D01*
X20281Y135241D02*
Y135955D01*
Y149591D02*
Y150304D01*
X20202Y135241D02*
Y135955D01*
Y149591D02*
Y150304D01*
X20122Y135241D02*
Y135955D01*
Y149591D02*
Y150304D01*
X20043Y135241D02*
Y135955D01*
Y149591D02*
Y150304D01*
X19964Y135241D02*
Y135955D01*
Y149591D02*
Y150304D01*
X19885Y135241D02*
Y135955D01*
Y149591D02*
Y150304D01*
X19805Y135241D02*
Y135955D01*
Y149591D02*
Y150304D01*
X19726Y135241D02*
Y135955D01*
Y149591D02*
Y150304D01*
X19647Y135241D02*
Y135955D01*
Y149591D02*
Y150304D01*
X19568Y135241D02*
Y135955D01*
Y149591D02*
Y150304D01*
X19488Y135241D02*
Y135955D01*
Y149591D02*
Y150304D01*
X19409Y135241D02*
Y136193D01*
Y149353D02*
Y150304D01*
X19330Y135241D02*
Y136431D01*
Y149036D02*
Y150304D01*
X19251Y135241D02*
Y136668D01*
Y148878D02*
Y150304D01*
X19171Y135241D02*
Y136827D01*
Y148719D02*
Y150304D01*
X19092Y135241D02*
Y136986D01*
Y148560D02*
Y150304D01*
X19013Y135321D02*
Y137144D01*
Y148402D02*
Y150225D01*
X18933Y135321D02*
Y137223D01*
Y148322D02*
Y150225D01*
X18854Y135400D02*
Y137303D01*
Y148243D02*
Y150146D01*
X18775Y135717D02*
Y137382D01*
Y148164D02*
Y149829D01*
X18696Y136114D02*
Y137461D01*
Y148085D02*
Y149353D01*
X18616Y136351D02*
Y137540D01*
Y148005D02*
Y149195D01*
X18537Y136510D02*
Y137620D01*
Y147926D02*
Y149036D01*
X18458Y136668D02*
Y137699D01*
Y147847D02*
Y148878D01*
X18378Y136748D02*
Y137778D01*
Y147768D02*
Y148798D01*
X18299Y136827D02*
Y137778D01*
Y147768D02*
Y148640D01*
X18220Y136986D02*
Y137858D01*
Y147688D02*
Y148560D01*
X18140Y136986D02*
Y137858D01*
Y147688D02*
Y148481D01*
X18061Y137065D02*
Y137937D01*
Y147609D02*
Y148481D01*
X17982Y137144D02*
Y138016D01*
Y147530D02*
Y148402D01*
X17903Y137223D02*
Y138016D01*
Y147530D02*
Y148322D01*
X17823Y137223D02*
Y138016D01*
Y147530D02*
Y148322D01*
X17744Y137303D02*
Y138095D01*
Y147450D02*
Y148243D01*
X17665Y137303D02*
Y138095D01*
Y147450D02*
Y148164D01*
X17586Y137382D02*
Y138095D01*
Y147450D02*
Y148164D01*
X17506Y137382D02*
Y138175D01*
Y147371D02*
Y148164D01*
X17427Y137461D02*
Y138175D01*
Y147371D02*
Y148085D01*
X17348Y137461D02*
Y138175D01*
Y147371D02*
Y148085D01*
X17268Y137461D02*
Y138175D01*
Y147371D02*
Y148085D01*
X17189Y137461D02*
Y140315D01*
Y145231D02*
Y148085D01*
X17110Y137540D02*
Y140395D01*
Y145151D02*
Y148085D01*
Y161166D02*
Y161324D01*
X17031Y137540D02*
Y140474D01*
Y145072D02*
Y148005D01*
Y160849D02*
Y161642D01*
X16951Y137540D02*
Y140474D01*
Y145072D02*
Y148005D01*
Y160769D02*
Y161721D01*
X16872Y137540D02*
Y140474D01*
Y145072D02*
Y148005D01*
Y160690D02*
Y161800D01*
X16793Y137540D02*
Y140474D01*
Y145072D02*
Y148005D01*
Y160611D02*
Y161879D01*
X16714Y137540D02*
Y140553D01*
Y144993D02*
Y148005D01*
Y160532D02*
Y161959D01*
X16634Y137620D02*
Y140553D01*
Y144993D02*
Y147926D01*
Y160532D02*
Y161959D01*
X16555Y137778D02*
Y140632D01*
Y144913D02*
Y147768D01*
Y160452D02*
Y162038D01*
X16476Y139919D02*
Y140632D01*
Y144913D02*
Y145706D01*
Y160452D02*
Y162038D01*
X16396Y139919D02*
Y140712D01*
Y144834D02*
Y145627D01*
Y160452D02*
Y162038D01*
X16317Y139919D02*
Y140791D01*
Y144755D02*
Y145627D01*
Y160452D02*
Y162038D01*
X16238Y139998D02*
Y140949D01*
Y144596D02*
Y145548D01*
Y160452D02*
Y162038D01*
X16159Y139998D02*
Y141029D01*
Y144517D02*
Y145548D01*
Y160452D02*
Y162038D01*
X16079Y140077D02*
Y141187D01*
Y144359D02*
Y145468D01*
Y160452D02*
Y162038D01*
X16000Y140157D02*
Y141346D01*
Y144200D02*
Y145389D01*
Y160452D02*
Y162038D01*
X15921Y140157D02*
Y141584D01*
Y143962D02*
Y145310D01*
Y160532D02*
Y161959D01*
X15841Y140315D02*
Y141822D01*
Y143724D02*
Y145231D01*
Y160611D02*
Y161879D01*
X15762Y140395D02*
Y142297D01*
Y143249D02*
Y145151D01*
Y160611D02*
Y161879D01*
X15683Y140474D02*
Y145072D01*
Y160690D02*
Y161800D01*
X15604Y140632D02*
Y144913D01*
Y160849D02*
Y161642D01*
X15524Y140791D02*
Y144834D01*
Y161087D02*
Y161404D01*
X15445Y140870D02*
Y144676D01*
X15366Y141029D02*
Y144438D01*
X15286Y141267D02*
Y144279D01*
X15207Y141505D02*
Y144041D01*
X15128Y141822D02*
Y143724D01*
X15049Y142456D02*
Y143011D01*
X14652Y120099D02*
Y120892D01*
Y146816D02*
Y147688D01*
Y151811D02*
Y152762D01*
Y160769D02*
Y161642D01*
Y164733D02*
Y165605D01*
X14573Y119703D02*
Y121209D01*
Y146420D02*
Y148005D01*
Y151573D02*
Y153000D01*
Y157043D02*
Y157440D01*
Y160294D02*
Y161642D01*
Y164258D02*
Y165605D01*
Y167350D02*
Y168380D01*
X14494Y119544D02*
Y121288D01*
Y123429D02*
Y124935D01*
Y146182D02*
Y148243D01*
Y151335D02*
Y153159D01*
Y156409D02*
Y157598D01*
Y160056D02*
Y161562D01*
Y164020D02*
Y165526D01*
Y167270D02*
Y168301D01*
X14414Y119306D02*
Y121288D01*
Y123429D02*
Y124935D01*
Y146023D02*
Y148402D01*
Y151177D02*
Y153317D01*
Y156092D02*
Y157598D01*
Y159818D02*
Y161562D01*
Y163782D02*
Y165526D01*
Y167191D02*
Y168222D01*
X14335Y119148D02*
Y121288D01*
Y123349D02*
Y124935D01*
Y145865D02*
Y148481D01*
Y151097D02*
Y153396D01*
Y155854D02*
Y157598D01*
Y159580D02*
Y161562D01*
Y163544D02*
Y165526D01*
Y167112D02*
Y168142D01*
X14256Y118989D02*
Y121288D01*
Y123349D02*
Y124856D01*
Y134369D02*
Y134924D01*
Y145706D02*
Y148640D01*
Y150939D02*
Y153476D01*
Y155696D02*
Y157598D01*
Y159422D02*
Y161562D01*
Y163386D02*
Y165526D01*
Y167033D02*
Y168063D01*
X14177Y118831D02*
Y121288D01*
Y123270D02*
Y124856D01*
Y134211D02*
Y135083D01*
Y145627D02*
Y147213D01*
Y147847D02*
Y148719D01*
Y150859D02*
Y153555D01*
Y155458D02*
Y157519D01*
Y159263D02*
Y161562D01*
Y163227D02*
Y165526D01*
Y167033D02*
Y167984D01*
X14097Y118672D02*
Y121288D01*
Y123270D02*
Y124856D01*
Y134132D02*
Y135162D01*
Y137937D02*
Y138333D01*
Y145468D02*
Y147054D01*
Y147926D02*
Y148719D01*
Y150780D02*
Y152207D01*
Y152683D02*
Y153634D01*
Y155299D02*
Y157519D01*
Y159105D02*
Y161483D01*
Y163069D02*
Y165447D01*
Y166953D02*
Y167905D01*
X14018Y118593D02*
Y119703D01*
Y119861D02*
Y121288D01*
Y123270D02*
Y124856D01*
Y134052D02*
Y135241D01*
Y137382D02*
Y138333D01*
Y145389D02*
Y146896D01*
Y148005D02*
Y148798D01*
Y150701D02*
Y151969D01*
Y152841D02*
Y153634D01*
Y155141D02*
Y157519D01*
Y159025D02*
Y161483D01*
Y162989D02*
Y165447D01*
Y166874D02*
Y167825D01*
X13939Y118513D02*
Y119544D01*
Y119861D02*
Y121288D01*
Y123191D02*
Y124856D01*
Y133973D02*
Y135321D01*
Y136827D02*
Y138333D01*
Y145310D02*
Y146816D01*
Y148085D02*
Y148878D01*
Y150622D02*
Y151890D01*
Y152921D02*
Y153714D01*
Y155061D02*
Y157519D01*
Y158867D02*
Y159897D01*
Y159977D02*
Y161483D01*
Y162831D02*
Y163861D01*
Y163941D02*
Y165447D01*
Y166795D02*
Y167825D01*
X13859Y118355D02*
Y119386D01*
Y119782D02*
Y121288D01*
Y123191D02*
Y124856D01*
Y133973D02*
Y135400D01*
Y136827D02*
Y138333D01*
Y145231D02*
Y146737D01*
Y148085D02*
Y148878D01*
Y150542D02*
Y151811D01*
Y152921D02*
Y153714D01*
Y154903D02*
Y157440D01*
Y158787D02*
Y159739D01*
Y159977D02*
Y161483D01*
Y162751D02*
Y163703D01*
Y163941D02*
Y165447D01*
Y166795D02*
Y167746D01*
X13780Y118275D02*
Y119227D01*
Y119782D02*
Y121288D01*
Y123112D02*
Y124856D01*
Y133894D02*
Y135400D01*
Y136827D02*
Y138333D01*
Y145151D02*
Y146658D01*
Y148164D02*
Y148878D01*
Y150463D02*
Y151732D01*
Y153000D02*
Y153714D01*
Y154824D02*
Y155775D01*
Y156013D02*
Y157440D01*
Y158629D02*
Y159580D01*
Y159977D02*
Y161483D01*
Y162593D02*
Y163544D01*
Y163941D02*
Y165447D01*
Y166715D02*
Y167667D01*
X13701Y118196D02*
Y119068D01*
Y119782D02*
Y121288D01*
Y123112D02*
Y124856D01*
Y133894D02*
Y135400D01*
Y136827D02*
Y138254D01*
Y145072D02*
Y146578D01*
Y148164D02*
Y148957D01*
Y150463D02*
Y151652D01*
Y153000D02*
Y153793D01*
Y154665D02*
Y155616D01*
Y156013D02*
Y157440D01*
Y158550D02*
Y159501D01*
Y159977D02*
Y161404D01*
Y162514D02*
Y163386D01*
Y163941D02*
Y165368D01*
Y166636D02*
Y167587D01*
X13622Y118117D02*
Y118989D01*
Y119703D02*
Y121288D01*
Y123112D02*
Y124776D01*
Y133894D02*
Y135479D01*
Y136827D02*
Y138254D01*
Y144993D02*
Y146499D01*
Y148164D02*
Y148957D01*
Y150384D02*
Y151573D01*
Y153000D02*
Y153793D01*
Y154586D02*
Y155537D01*
Y155933D02*
Y157440D01*
Y158470D02*
Y159342D01*
Y159977D02*
Y161404D01*
Y162434D02*
Y163306D01*
Y163941D02*
Y165368D01*
Y166557D02*
Y167508D01*
X13542Y118038D02*
Y118910D01*
Y119703D02*
Y121288D01*
Y123032D02*
Y124776D01*
Y133814D02*
Y135479D01*
Y136748D02*
Y138254D01*
Y144913D02*
Y146499D01*
Y148164D02*
Y148957D01*
Y150304D02*
Y151573D01*
Y153000D02*
Y153793D01*
Y154506D02*
Y155378D01*
Y155933D02*
Y157440D01*
Y158391D02*
Y159263D01*
Y159897D02*
Y161404D01*
Y162355D02*
Y163227D01*
Y163861D02*
Y165368D01*
Y166557D02*
Y167429D01*
X13463Y117958D02*
Y118831D01*
Y119623D02*
Y121288D01*
Y123032D02*
Y124776D01*
Y133814D02*
Y135479D01*
Y136748D02*
Y138254D01*
Y144834D02*
Y146420D01*
Y148164D02*
Y148957D01*
Y150304D02*
Y151494D01*
Y153000D02*
Y153793D01*
Y154427D02*
Y155299D01*
Y155933D02*
Y157360D01*
Y158312D02*
Y159184D01*
Y159897D02*
Y161404D01*
Y162276D02*
Y163148D01*
Y163861D02*
Y165368D01*
Y166478D02*
Y167350D01*
X13384Y117879D02*
Y118751D01*
Y119623D02*
Y121288D01*
Y122953D02*
Y124776D01*
Y133814D02*
Y135479D01*
Y136748D02*
Y138175D01*
Y144834D02*
Y146341D01*
Y148164D02*
Y148957D01*
Y150225D02*
Y151494D01*
Y153000D02*
Y153793D01*
Y154348D02*
Y155220D01*
Y155933D02*
Y157360D01*
Y158232D02*
Y159105D01*
Y159897D02*
Y161324D01*
Y162197D02*
Y163069D01*
Y163861D02*
Y165288D01*
Y166398D02*
Y167350D01*
X13305Y117800D02*
Y118672D01*
Y119623D02*
Y121288D01*
Y122953D02*
Y124776D01*
Y133894D02*
Y135479D01*
Y136748D02*
Y138175D01*
Y144755D02*
Y146341D01*
Y148164D02*
Y148957D01*
Y150225D02*
Y151415D01*
Y153000D02*
Y153793D01*
Y154269D02*
Y155141D01*
Y155854D02*
Y157360D01*
Y158153D02*
Y159025D01*
Y159897D02*
Y161324D01*
Y162117D02*
Y162989D01*
Y163861D02*
Y165288D01*
Y166319D02*
Y167270D01*
X13225Y117721D02*
Y118593D01*
Y119544D02*
Y121288D01*
Y122874D02*
Y124776D01*
Y133894D02*
Y135400D01*
Y136748D02*
Y138175D01*
Y144676D02*
Y146261D01*
Y148085D02*
Y148957D01*
Y150146D02*
Y151415D01*
Y153000D02*
Y153793D01*
Y154189D02*
Y155061D01*
Y155854D02*
Y157360D01*
Y158074D02*
Y158946D01*
Y159897D02*
Y161324D01*
Y162038D02*
Y162910D01*
Y163861D02*
Y165288D01*
Y166319D02*
Y167191D01*
X13146Y117641D02*
Y118593D01*
Y119544D02*
Y121288D01*
Y122874D02*
Y124776D01*
Y133894D02*
Y135400D01*
Y136668D02*
Y138175D01*
Y144676D02*
Y146182D01*
Y148085D02*
Y148957D01*
Y150146D02*
Y151415D01*
Y153000D02*
Y153793D01*
Y154110D02*
Y154982D01*
Y155854D02*
Y157360D01*
Y157995D02*
Y158946D01*
Y159818D02*
Y161324D01*
Y161959D02*
Y162910D01*
Y163782D02*
Y165288D01*
Y166240D02*
Y167112D01*
X13067Y117641D02*
Y118513D01*
Y119544D02*
Y121288D01*
Y122874D02*
Y124697D01*
Y133973D02*
Y135400D01*
Y136668D02*
Y138175D01*
Y144596D02*
Y146182D01*
Y148085D02*
Y148957D01*
Y150146D02*
Y151335D01*
Y152921D02*
Y153793D01*
Y154031D02*
Y154903D01*
Y155854D02*
Y157281D01*
Y157915D02*
Y158867D01*
Y159818D02*
Y161324D01*
Y161879D02*
Y162831D01*
Y163782D02*
Y165288D01*
Y166161D02*
Y167033D01*
X12987Y117562D02*
Y118434D01*
Y119465D02*
Y121288D01*
Y122794D02*
Y124697D01*
Y133973D02*
Y135321D01*
Y136668D02*
Y138095D01*
Y144517D02*
Y146103D01*
Y148005D02*
Y148957D01*
Y150067D02*
Y151335D01*
Y152921D02*
Y153714D01*
Y153951D02*
Y154903D01*
Y155854D02*
Y157281D01*
Y157915D02*
Y158787D01*
Y159818D02*
Y161245D01*
Y161879D02*
Y162751D01*
Y163782D02*
Y165209D01*
Y166161D02*
Y166953D01*
X12908Y117483D02*
Y118434D01*
Y119465D02*
Y121288D01*
Y122794D02*
Y124697D01*
Y134052D02*
Y135241D01*
Y136668D02*
Y138095D01*
Y144517D02*
Y146103D01*
Y148005D02*
Y148957D01*
Y150067D02*
Y151335D01*
Y152841D02*
Y153714D01*
Y153872D02*
Y154824D01*
Y155775D02*
Y157281D01*
Y157836D02*
Y158787D01*
Y159818D02*
Y161245D01*
Y161800D02*
Y162751D01*
Y163782D02*
Y165209D01*
Y166081D02*
Y166874D01*
X12829Y117483D02*
Y118355D01*
Y119465D02*
Y121288D01*
Y122715D02*
Y124697D01*
Y134132D02*
Y135162D01*
Y136589D02*
Y138095D01*
Y144438D02*
Y146023D01*
Y147926D02*
Y148878D01*
Y150067D02*
Y151335D01*
Y152841D02*
Y153714D01*
Y153872D02*
Y154744D01*
Y155775D02*
Y157281D01*
Y157757D02*
Y158708D01*
Y159818D02*
Y161245D01*
Y161721D02*
Y162672D01*
Y163782D02*
Y165209D01*
Y166002D02*
Y166795D01*
X12750Y117403D02*
Y118355D01*
Y119386D02*
Y121209D01*
Y122715D02*
Y124697D01*
Y134290D02*
Y135004D01*
Y136589D02*
Y138095D01*
Y144438D02*
Y146023D01*
Y147847D02*
Y148878D01*
Y150067D02*
Y151335D01*
Y152762D02*
Y153634D01*
Y153793D02*
Y154744D01*
Y155775D02*
Y157202D01*
Y157757D02*
Y158708D01*
Y159739D02*
Y161245D01*
Y161721D02*
Y162672D01*
Y163703D02*
Y165209D01*
Y165923D02*
Y166795D01*
X12670Y117403D02*
Y118355D01*
Y119386D02*
Y121209D01*
Y122636D02*
Y124697D01*
Y136589D02*
Y138016D01*
Y144359D02*
Y146023D01*
Y147768D02*
Y148878D01*
Y150067D02*
Y151335D01*
Y152683D02*
Y153555D01*
Y153714D02*
Y154665D01*
Y155775D02*
Y157202D01*
Y157677D02*
Y158629D01*
Y159739D02*
Y161245D01*
Y161642D02*
Y162672D01*
Y163703D02*
Y165209D01*
Y165923D02*
Y166715D01*
X12591Y117324D02*
Y118275D01*
Y119306D02*
Y121209D01*
Y122636D02*
Y124618D01*
Y136589D02*
Y138016D01*
Y144359D02*
Y145944D01*
Y147688D02*
Y148798D01*
Y149987D02*
Y151335D01*
Y152604D02*
Y153555D01*
Y153714D02*
Y154665D01*
Y155775D02*
Y157202D01*
Y157677D02*
Y158629D01*
Y159739D02*
Y161166D01*
Y161642D02*
Y162593D01*
Y163703D02*
Y165130D01*
Y165843D02*
Y166636D01*
X12512Y117324D02*
Y118275D01*
Y119306D02*
Y121209D01*
Y122636D02*
Y124618D01*
Y136589D02*
Y138016D01*
Y144279D02*
Y145944D01*
Y147768D02*
Y148719D01*
Y149987D02*
Y151335D01*
Y152683D02*
Y153476D01*
Y153714D02*
Y154665D01*
Y155696D02*
Y157202D01*
Y157677D02*
Y158629D01*
Y159739D02*
Y161166D01*
Y161642D02*
Y162593D01*
Y163703D02*
Y165130D01*
Y165764D02*
Y166557D01*
X12432Y117324D02*
Y118275D01*
Y119306D02*
Y121209D01*
Y122557D02*
Y124618D01*
Y136510D02*
Y138016D01*
Y144279D02*
Y145865D01*
Y147926D02*
Y148640D01*
Y149987D02*
Y151335D01*
Y152762D02*
Y153317D01*
Y153634D02*
Y154586D01*
Y155696D02*
Y157202D01*
Y157598D02*
Y158550D01*
Y159660D02*
Y161166D01*
Y161562D02*
Y162514D01*
Y163623D02*
Y165130D01*
Y165685D02*
Y166478D01*
X12353Y117245D02*
Y118196D01*
Y119227D02*
Y121209D01*
Y122557D02*
Y124618D01*
Y131832D02*
Y131912D01*
Y136510D02*
Y138016D01*
Y144200D02*
Y145865D01*
Y149987D02*
Y151335D01*
Y153000D02*
Y153079D01*
Y153634D02*
Y154586D01*
Y155696D02*
Y157123D01*
Y157598D02*
Y158550D01*
Y159660D02*
Y161166D01*
Y161562D02*
Y162514D01*
Y163623D02*
Y165130D01*
Y165685D02*
Y166398D01*
X12274Y117245D02*
Y118196D01*
Y119227D02*
Y121209D01*
Y122477D02*
Y124618D01*
Y131198D02*
Y131912D01*
Y136510D02*
Y137937D01*
Y144200D02*
Y145865D01*
Y149987D02*
Y151335D01*
Y153634D02*
Y154586D01*
Y155696D02*
Y157123D01*
Y157598D02*
Y158550D01*
Y159660D02*
Y161087D01*
Y161562D02*
Y162514D01*
Y163623D02*
Y165130D01*
Y165605D02*
Y166319D01*
X12195Y117245D02*
Y118196D01*
Y119227D02*
Y121209D01*
Y122477D02*
Y124618D01*
Y130643D02*
Y131912D01*
Y136510D02*
Y137937D01*
Y144121D02*
Y145786D01*
Y150067D02*
Y151335D01*
Y153555D02*
Y154586D01*
Y155616D02*
Y157123D01*
Y157598D02*
Y158550D01*
Y159660D02*
Y161087D01*
Y161562D02*
Y162514D01*
Y163623D02*
Y165050D01*
Y165526D02*
Y166319D01*
X12115Y117245D02*
Y118196D01*
Y119148D02*
Y121209D01*
Y122477D02*
Y124618D01*
Y127155D02*
Y127789D01*
Y130405D02*
Y131912D01*
Y136510D02*
Y137937D01*
Y144121D02*
Y145786D01*
Y150067D02*
Y151415D01*
Y153555D02*
Y154506D01*
Y155616D02*
Y157123D01*
Y157598D02*
Y158550D01*
Y159660D02*
Y161087D01*
Y161562D02*
Y162514D01*
Y163623D02*
Y165050D01*
Y165447D02*
Y166240D01*
X12036Y117245D02*
Y118196D01*
Y119148D02*
Y121209D01*
Y122398D02*
Y124618D01*
Y126759D02*
Y128106D01*
Y130326D02*
Y131912D01*
Y133656D02*
Y135083D01*
Y136431D02*
Y137937D01*
Y138650D02*
Y139443D01*
Y144121D02*
Y145706D01*
Y150067D02*
Y151415D01*
Y153555D02*
Y154506D01*
Y155616D02*
Y157123D01*
Y157598D02*
Y158470D01*
Y159580D02*
Y161087D01*
Y161562D02*
Y162514D01*
Y163544D02*
Y165050D01*
Y165447D02*
Y166161D01*
X11957Y117245D02*
Y118196D01*
Y119068D02*
Y121209D01*
Y122398D02*
Y124539D01*
Y126521D02*
Y128265D01*
Y130326D02*
Y131912D01*
Y133577D02*
Y135083D01*
Y136431D02*
Y137937D01*
Y138413D02*
Y139681D01*
Y144041D02*
Y145706D01*
Y150067D02*
Y151415D01*
Y153555D02*
Y154506D01*
Y155616D02*
Y157043D01*
Y157598D02*
Y158470D01*
Y159580D02*
Y161087D01*
Y161562D02*
Y162434D01*
Y163544D02*
Y165050D01*
Y165368D02*
Y166081D01*
X11878Y117245D02*
Y118196D01*
Y119068D02*
Y121209D01*
Y122319D02*
Y124539D01*
Y126441D02*
Y128344D01*
Y130326D02*
Y131912D01*
Y133577D02*
Y135083D01*
Y136431D02*
Y137858D01*
Y138254D02*
Y139840D01*
Y144041D02*
Y145706D01*
Y150146D02*
Y151494D01*
Y153555D02*
Y154506D01*
Y155616D02*
Y157043D01*
Y157598D02*
Y158470D01*
Y159580D02*
Y161007D01*
Y161562D02*
Y162434D01*
Y163544D02*
Y164971D01*
Y165288D02*
Y166002D01*
X11798Y117245D02*
Y118117D01*
Y119068D02*
Y121209D01*
Y122319D02*
Y124539D01*
Y126283D02*
Y128423D01*
Y130247D02*
Y131912D01*
Y133577D02*
Y135083D01*
Y136431D02*
Y137858D01*
Y138175D02*
Y139919D01*
Y144041D02*
Y145706D01*
Y150146D02*
Y151494D01*
Y153555D02*
Y154506D01*
Y155537D02*
Y157043D01*
Y157598D02*
Y158470D01*
Y159580D02*
Y161007D01*
Y161562D02*
Y162434D01*
Y163544D02*
Y164971D01*
Y165209D02*
Y165923D01*
X11719Y117245D02*
Y118117D01*
Y118989D02*
Y121209D01*
Y122239D02*
Y124539D01*
Y126124D02*
Y128503D01*
Y130247D02*
Y131912D01*
Y133577D02*
Y135004D01*
Y136351D02*
Y137858D01*
Y138095D02*
Y139998D01*
Y143962D02*
Y145627D01*
Y150225D02*
Y151573D01*
Y153555D02*
Y154506D01*
Y155537D02*
Y157043D01*
Y157598D02*
Y158470D01*
Y159580D02*
Y161007D01*
Y161562D02*
Y162434D01*
Y163544D02*
Y164971D01*
Y165209D02*
Y165843D01*
X11640Y117245D02*
Y118117D01*
Y118989D02*
Y121209D01*
Y122239D02*
Y124539D01*
Y126045D02*
Y128582D01*
Y130247D02*
Y131912D01*
Y133577D02*
Y135004D01*
Y136351D02*
Y137858D01*
Y138016D02*
Y140077D01*
Y143962D02*
Y145627D01*
Y150225D02*
Y151652D01*
Y153555D02*
Y154506D01*
Y155537D02*
Y156964D01*
Y157598D02*
Y158470D01*
Y159501D02*
Y161007D01*
Y161562D02*
Y162434D01*
Y163465D02*
Y164971D01*
Y165130D02*
Y165764D01*
X11560Y117245D02*
Y118117D01*
Y118989D02*
Y121209D01*
Y122239D02*
Y124539D01*
Y125966D02*
Y127393D01*
Y127710D02*
Y128582D01*
Y130167D02*
Y131912D01*
Y133497D02*
Y135004D01*
Y136351D02*
Y140077D01*
Y143962D02*
Y145627D01*
Y150304D02*
Y151732D01*
Y153555D02*
Y154506D01*
Y155537D02*
Y156964D01*
Y157598D02*
Y158470D01*
Y159501D02*
Y161007D01*
Y161562D02*
Y162434D01*
Y163465D02*
Y164971D01*
Y165050D02*
Y165764D01*
X11481Y117324D02*
Y118117D01*
Y118910D02*
Y121209D01*
Y122160D02*
Y124539D01*
Y125886D02*
Y127234D01*
Y127789D02*
Y128582D01*
Y130167D02*
Y131912D01*
Y133497D02*
Y135004D01*
Y136351D02*
Y140157D01*
Y143883D02*
Y145548D01*
Y150384D02*
Y151811D01*
Y153634D02*
Y154506D01*
Y155537D02*
Y156964D01*
Y157598D02*
Y158470D01*
Y159501D02*
Y160928D01*
Y161562D02*
Y162434D01*
Y163465D02*
Y165685D01*
X11402Y117324D02*
Y118196D01*
Y118910D02*
Y119703D01*
Y119782D02*
Y121209D01*
Y122160D02*
Y124459D01*
Y125807D02*
Y127155D01*
Y127868D02*
Y128582D01*
Y130167D02*
Y131991D01*
Y133497D02*
Y134924D01*
Y136351D02*
Y140157D01*
Y143883D02*
Y145548D01*
Y150463D02*
Y151890D01*
Y153634D02*
Y154506D01*
Y155458D02*
Y156964D01*
Y157677D02*
Y158470D01*
Y159501D02*
Y160928D01*
Y161642D02*
Y162434D01*
Y163465D02*
Y165605D01*
X11322Y117403D02*
Y118196D01*
Y118831D02*
Y119703D01*
Y119782D02*
Y121209D01*
Y122081D02*
Y124459D01*
Y125728D02*
Y127076D01*
Y127868D02*
Y128661D01*
Y130088D02*
Y131991D01*
Y133497D02*
Y134924D01*
Y136272D02*
Y140157D01*
Y143883D02*
Y145548D01*
Y150542D02*
Y152049D01*
Y153634D02*
Y154506D01*
Y155458D02*
Y156964D01*
Y157757D02*
Y158550D01*
Y159422D02*
Y160928D01*
Y161721D02*
Y162514D01*
Y163386D02*
Y165526D01*
X11243Y117483D02*
Y118196D01*
Y118831D02*
Y119623D01*
Y119782D02*
Y121209D01*
Y122081D02*
Y122874D01*
Y122953D02*
Y124459D01*
Y125649D02*
Y127076D01*
Y127868D02*
Y128661D01*
Y130088D02*
Y131991D01*
Y133418D02*
Y134924D01*
Y136272D02*
Y140157D01*
Y143883D02*
Y145548D01*
Y150622D02*
Y152207D01*
Y153714D02*
Y154506D01*
Y155458D02*
Y156885D01*
Y157757D02*
Y158550D01*
Y159422D02*
Y160928D01*
Y161800D02*
Y162514D01*
Y163386D02*
Y166161D01*
X11164Y117562D02*
Y118196D01*
Y118831D02*
Y119623D01*
Y119782D02*
Y121209D01*
Y122081D02*
Y122874D01*
Y122953D02*
Y124459D01*
Y125569D02*
Y126996D01*
Y127868D02*
Y128661D01*
Y130009D02*
Y131991D01*
Y133418D02*
Y134924D01*
Y136272D02*
Y138254D01*
Y138492D02*
Y140236D01*
Y143804D02*
Y145468D01*
Y150622D02*
Y152207D01*
Y153793D02*
Y154506D01*
Y155458D02*
Y156885D01*
Y157915D02*
Y158550D01*
Y159422D02*
Y160849D01*
Y161879D02*
Y162514D01*
Y163386D02*
Y166557D01*
X11085Y117641D02*
Y118275D01*
Y118751D02*
Y119544D01*
Y119782D02*
Y121209D01*
Y122002D02*
Y122794D01*
Y122953D02*
Y124459D01*
Y125490D02*
Y126917D01*
Y127868D02*
Y128661D01*
Y130009D02*
Y131991D01*
Y133418D02*
Y134924D01*
Y136272D02*
Y138095D01*
Y138650D02*
Y140236D01*
Y143804D02*
Y145468D01*
Y150384D02*
Y151969D01*
Y153872D02*
Y154506D01*
Y155378D02*
Y156885D01*
Y157995D02*
Y158550D01*
Y159422D02*
Y160849D01*
Y161959D02*
Y162514D01*
Y163386D02*
Y166715D01*
X11005Y117958D02*
Y118275D01*
Y118751D02*
Y119544D01*
Y119782D02*
Y121209D01*
Y122002D02*
Y122794D01*
Y122953D02*
Y124459D01*
Y125490D02*
Y126917D01*
Y127868D02*
Y128661D01*
Y130009D02*
Y131991D01*
Y133418D02*
Y134845D01*
Y136272D02*
Y137937D01*
Y138730D02*
Y140236D01*
Y143804D02*
Y145468D01*
Y150225D02*
Y151811D01*
Y153951D02*
Y154586D01*
Y155378D02*
Y156885D01*
Y158312D02*
Y158629D01*
Y159422D02*
Y160849D01*
Y162276D02*
Y162593D01*
Y163386D02*
Y166874D01*
X10926Y118751D02*
Y119544D01*
Y119782D02*
Y121130D01*
Y121922D02*
Y122715D01*
Y122953D02*
Y124459D01*
Y125411D02*
Y126838D01*
Y127868D02*
Y128661D01*
Y129930D02*
Y130405D01*
Y130485D02*
Y131991D01*
Y133418D02*
Y134845D01*
Y136193D02*
Y137858D01*
Y138730D02*
Y140236D01*
Y143804D02*
Y145468D01*
Y150067D02*
Y151732D01*
Y154110D02*
Y154586D01*
Y155378D02*
Y156885D01*
Y159342D02*
Y160849D01*
Y163306D02*
Y166953D01*
X10847Y118672D02*
Y119465D01*
Y119782D02*
Y121130D01*
Y121922D02*
Y122715D01*
Y122953D02*
Y124380D01*
Y125331D02*
Y126759D01*
Y127789D02*
Y128582D01*
Y129930D02*
Y130326D01*
Y130485D02*
Y131991D01*
Y133339D02*
Y134845D01*
Y136193D02*
Y137858D01*
Y138730D02*
Y140236D01*
Y143724D02*
Y145468D01*
Y149908D02*
Y151573D01*
Y155378D02*
Y156806D01*
Y159342D02*
Y160849D01*
Y163306D02*
Y166953D01*
X10768Y118672D02*
Y119465D01*
Y119782D02*
Y121130D01*
Y121843D02*
Y122636D01*
Y122953D02*
Y124380D01*
Y125331D02*
Y126759D01*
Y127789D02*
Y128582D01*
Y129930D02*
Y130326D01*
Y130485D02*
Y131991D01*
Y133339D02*
Y134845D01*
Y136193D02*
Y137778D01*
Y138809D02*
Y140236D01*
Y143724D02*
Y145389D01*
Y149829D02*
Y151494D01*
Y155378D02*
Y156806D01*
Y159342D02*
Y160769D01*
Y163306D02*
Y164813D01*
Y165447D02*
Y167033D01*
X10688Y118672D02*
Y119465D01*
Y119782D02*
Y121130D01*
Y121843D02*
Y122636D01*
Y122953D02*
Y124380D01*
Y125252D02*
Y126679D01*
Y127789D02*
Y128582D01*
Y129850D02*
Y130326D01*
Y130485D02*
Y131991D01*
Y133339D02*
Y134845D01*
Y136193D02*
Y137699D01*
Y138809D02*
Y140236D01*
Y143724D02*
Y145389D01*
Y149750D02*
Y151415D01*
Y155299D02*
Y156806D01*
Y159342D02*
Y160769D01*
Y163306D02*
Y164733D01*
Y165605D02*
Y167112D01*
X10609Y118593D02*
Y119386D01*
Y119782D02*
Y121130D01*
Y121843D02*
Y122557D01*
Y122874D02*
Y124380D01*
Y125252D02*
Y126679D01*
Y127789D02*
Y128582D01*
Y129850D02*
Y130247D01*
Y130485D02*
Y131991D01*
Y133339D02*
Y134766D01*
Y136114D02*
Y137699D01*
Y138809D02*
Y140236D01*
Y143724D02*
Y145389D01*
Y149670D02*
Y151335D01*
Y155299D02*
Y156806D01*
Y159342D02*
Y160769D01*
Y163306D02*
Y164733D01*
Y165685D02*
Y167112D01*
X10530Y118593D02*
Y119386D01*
Y119782D02*
Y121130D01*
Y121764D02*
Y122557D01*
Y122874D02*
Y124380D01*
Y125173D02*
Y126679D01*
Y127710D02*
Y128503D01*
Y129771D02*
Y130247D01*
Y130485D02*
Y131991D01*
Y133339D02*
Y134766D01*
Y136114D02*
Y137620D01*
Y138809D02*
Y140157D01*
Y143724D02*
Y145389D01*
Y149591D02*
Y151256D01*
Y155299D02*
Y156726D01*
Y159263D02*
Y160769D01*
Y163227D02*
Y164733D01*
Y165685D02*
Y167112D01*
X10450Y118513D02*
Y119306D01*
Y119782D02*
Y121130D01*
Y121764D02*
Y122557D01*
Y122874D02*
Y124380D01*
Y125173D02*
Y126600D01*
Y127710D02*
Y128503D01*
Y129771D02*
Y130247D01*
Y130485D02*
Y131991D01*
Y133259D02*
Y134766D01*
Y136114D02*
Y137620D01*
Y138809D02*
Y140157D01*
Y143645D02*
Y145389D01*
Y149512D02*
Y151177D01*
Y155299D02*
Y156726D01*
Y159263D02*
Y160769D01*
Y163227D02*
Y164733D01*
Y165764D02*
Y167112D01*
X10371Y118513D02*
Y119306D01*
Y119782D02*
Y121130D01*
Y121685D02*
Y122477D01*
Y122874D02*
Y124380D01*
Y125094D02*
Y126600D01*
Y127630D02*
Y128503D01*
Y129771D02*
Y130167D01*
Y130485D02*
Y131991D01*
Y133259D02*
Y134766D01*
Y136114D02*
Y137620D01*
Y138809D02*
Y140157D01*
Y143645D02*
Y145389D01*
Y149433D02*
Y151097D01*
Y155299D02*
Y156726D01*
Y159263D02*
Y160690D01*
Y163227D02*
Y164654D01*
Y165764D02*
Y167191D01*
X10292Y118513D02*
Y119306D01*
Y119782D02*
Y121130D01*
Y121685D02*
Y122477D01*
Y122874D02*
Y124301D01*
Y125094D02*
Y126521D01*
Y127630D02*
Y128423D01*
Y129692D02*
Y130167D01*
Y130485D02*
Y131991D01*
Y133259D02*
Y134686D01*
Y136114D02*
Y137540D01*
Y138730D02*
Y140157D01*
Y143645D02*
Y145310D01*
Y149353D02*
Y151097D01*
Y155220D02*
Y156726D01*
Y159263D02*
Y160690D01*
Y163227D02*
Y164654D01*
Y165764D02*
Y167191D01*
X10213Y118434D02*
Y119227D01*
Y119782D02*
Y121130D01*
Y121685D02*
Y122398D01*
Y122874D02*
Y124301D01*
Y125014D02*
Y126521D01*
Y127551D02*
Y128423D01*
Y129692D02*
Y130088D01*
Y130485D02*
Y131991D01*
Y133259D02*
Y134686D01*
Y136034D02*
Y137540D01*
Y138730D02*
Y140157D01*
Y143645D02*
Y145310D01*
Y149274D02*
Y151018D01*
Y155220D02*
Y156726D01*
Y159184D02*
Y160690D01*
Y163227D02*
Y164654D01*
Y165843D02*
Y167191D01*
X10133Y118434D02*
Y119227D01*
Y119782D02*
Y121130D01*
Y121605D02*
Y122398D01*
Y122874D02*
Y124301D01*
Y125014D02*
Y126521D01*
Y127472D02*
Y128344D01*
Y129613D02*
Y130088D01*
Y130485D02*
Y132070D01*
Y133180D02*
Y134686D01*
Y136034D02*
Y137540D01*
Y138730D02*
Y140157D01*
Y143645D02*
Y145310D01*
Y149195D02*
Y150939D01*
Y155220D02*
Y156647D01*
Y159184D02*
Y160690D01*
Y163148D02*
Y164654D01*
Y165843D02*
Y167191D01*
X10054Y118434D02*
Y119227D01*
Y119703D02*
Y121130D01*
Y121605D02*
Y122398D01*
Y122794D02*
Y124301D01*
Y125014D02*
Y126441D01*
Y127472D02*
Y128265D01*
Y129613D02*
Y130088D01*
Y130485D02*
Y132070D01*
Y133180D02*
Y134686D01*
Y136034D02*
Y137461D01*
Y138730D02*
Y140077D01*
Y143645D02*
Y145310D01*
Y149195D02*
Y150939D01*
Y155220D02*
Y156647D01*
Y159184D02*
Y160611D01*
Y163148D02*
Y164654D01*
Y165843D02*
Y167191D01*
X9975Y118355D02*
Y119148D01*
Y119703D02*
Y121130D01*
Y121526D02*
Y122319D01*
Y122794D02*
Y124301D01*
Y124935D02*
Y126441D01*
Y127393D02*
Y128265D01*
Y129533D02*
Y130009D01*
Y130564D02*
Y132070D01*
Y133180D02*
Y134686D01*
Y136034D02*
Y137461D01*
Y138730D02*
Y140077D01*
Y143645D02*
Y145310D01*
Y149115D02*
Y150859D01*
Y155141D02*
Y156647D01*
Y159184D02*
Y160611D01*
Y163148D02*
Y164575D01*
Y165843D02*
Y167191D01*
X9895Y118355D02*
Y119148D01*
Y119703D02*
Y121130D01*
Y121526D02*
Y122319D01*
Y122794D02*
Y124301D01*
Y124935D02*
Y126441D01*
Y127313D02*
Y128185D01*
Y129533D02*
Y130009D01*
Y130564D02*
Y132070D01*
Y133180D02*
Y134607D01*
Y136034D02*
Y137461D01*
Y138650D02*
Y140077D01*
Y143645D02*
Y145310D01*
Y149115D02*
Y150859D01*
Y155141D02*
Y156647D01*
Y159184D02*
Y160611D01*
Y163148D02*
Y164575D01*
Y165764D02*
Y167191D01*
X9816Y118275D02*
Y119148D01*
Y119703D02*
Y121130D01*
Y121447D02*
Y122239D01*
Y122794D02*
Y124222D01*
Y124935D02*
Y126441D01*
Y127234D02*
Y128106D01*
Y129454D02*
Y129930D01*
Y130564D02*
Y132070D01*
Y133180D02*
Y134607D01*
Y135955D02*
Y137461D01*
Y138650D02*
Y140077D01*
Y143566D02*
Y145310D01*
Y149036D02*
Y150780D01*
Y155141D02*
Y156647D01*
Y159105D02*
Y160611D01*
Y163069D02*
Y164575D01*
Y165764D02*
Y167112D01*
X9737Y118275D02*
Y119068D01*
Y119703D02*
Y121130D01*
Y121447D02*
Y122239D01*
Y122794D02*
Y124222D01*
Y124856D02*
Y126362D01*
Y127076D02*
Y128027D01*
Y129454D02*
Y129930D01*
Y130564D02*
Y132070D01*
Y133101D02*
Y134607D01*
Y135955D02*
Y137461D01*
Y138650D02*
Y139998D01*
Y143566D02*
Y145310D01*
Y149036D02*
Y150780D01*
Y155141D02*
Y156568D01*
Y159105D02*
Y160611D01*
Y163069D02*
Y164575D01*
Y165764D02*
Y167112D01*
X9658Y118275D02*
Y119068D01*
Y119703D02*
Y121130D01*
Y121447D02*
Y122160D01*
Y122794D02*
Y124222D01*
Y124856D02*
Y126362D01*
Y126996D02*
Y127948D01*
Y129375D02*
Y129850D01*
Y130564D02*
Y132070D01*
Y133101D02*
Y134607D01*
Y135955D02*
Y137382D01*
Y138650D02*
Y139998D01*
Y143566D02*
Y145310D01*
Y148957D02*
Y150701D01*
Y155141D02*
Y156568D01*
Y159105D02*
Y160532D01*
Y163069D02*
Y164496D01*
Y165764D02*
Y167112D01*
X9578Y118196D02*
Y118989D01*
Y119703D02*
Y121130D01*
Y121368D02*
Y122160D01*
Y122715D02*
Y124222D01*
Y124856D02*
Y126362D01*
Y126838D02*
Y127868D01*
Y129375D02*
Y129850D01*
Y130564D02*
Y132070D01*
Y133101D02*
Y134607D01*
Y135955D02*
Y137382D01*
Y138650D02*
Y139998D01*
Y143566D02*
Y145310D01*
Y148957D02*
Y150701D01*
Y155061D02*
Y156568D01*
Y159105D02*
Y160532D01*
Y163069D02*
Y164496D01*
Y165764D02*
Y167112D01*
X9499Y118196D02*
Y118989D01*
Y119703D02*
Y121130D01*
Y121368D02*
Y122160D01*
Y122715D02*
Y124222D01*
Y124776D02*
Y126362D01*
Y126679D02*
Y127710D01*
Y129295D02*
Y129771D01*
Y130564D02*
Y132070D01*
Y133101D02*
Y134528D01*
Y135876D02*
Y137382D01*
Y138571D02*
Y139998D01*
Y143566D02*
Y145310D01*
Y148878D02*
Y150622D01*
Y155061D02*
Y156568D01*
Y159105D02*
Y160532D01*
Y163069D02*
Y164496D01*
Y165764D02*
Y167112D01*
X9420Y118196D02*
Y118989D01*
Y119703D02*
Y121130D01*
Y121288D02*
Y122081D01*
Y122715D02*
Y124222D01*
Y124776D02*
Y127630D01*
Y129295D02*
Y129771D01*
Y130564D02*
Y132070D01*
Y133101D02*
Y134528D01*
Y135876D02*
Y137382D01*
Y138571D02*
Y139998D01*
Y143566D02*
Y145310D01*
Y148878D02*
Y150622D01*
Y155061D02*
Y156488D01*
Y159025D02*
Y160532D01*
Y162989D02*
Y164496D01*
Y165685D02*
Y167112D01*
X9341Y118117D02*
Y118910D01*
Y119703D02*
Y121130D01*
Y121288D02*
Y122081D01*
Y122715D02*
Y124222D01*
Y124776D02*
Y127472D01*
Y129216D02*
Y129692D01*
Y130564D02*
Y132070D01*
Y133022D02*
Y134528D01*
Y135876D02*
Y137382D01*
Y138571D02*
Y139919D01*
Y143566D02*
Y145310D01*
Y148878D02*
Y150622D01*
Y155061D02*
Y156488D01*
Y159025D02*
Y160532D01*
Y162989D02*
Y164496D01*
Y165685D02*
Y167033D01*
X9261Y118117D02*
Y118910D01*
Y119703D02*
Y121130D01*
Y121288D02*
Y122002D01*
Y122715D02*
Y124222D01*
Y124776D02*
Y127393D01*
Y129216D02*
Y129692D01*
Y130564D02*
Y132070D01*
Y133022D02*
Y134528D01*
Y135876D02*
Y137303D01*
Y138571D02*
Y139919D01*
Y143566D02*
Y145310D01*
Y148798D02*
Y150542D01*
Y155061D02*
Y156488D01*
Y159025D02*
Y160452D01*
Y162989D02*
Y164416D01*
Y165685D02*
Y167033D01*
X9182Y118038D02*
Y118910D01*
Y119703D02*
Y121130D01*
Y121209D02*
Y122002D01*
Y122715D02*
Y124142D01*
Y124776D02*
Y127155D01*
Y129137D02*
Y129613D01*
Y130643D02*
Y132150D01*
Y133022D02*
Y134449D01*
Y135876D02*
Y137303D01*
Y138492D02*
Y139919D01*
Y143566D02*
Y145310D01*
Y148798D02*
Y150542D01*
Y154982D02*
Y156488D01*
Y159025D02*
Y160452D01*
Y162989D02*
Y164416D01*
Y165685D02*
Y167033D01*
X9103Y118038D02*
Y118831D01*
Y119703D02*
Y122002D01*
Y122715D02*
Y124142D01*
Y124697D02*
Y126996D01*
Y129137D02*
Y129613D01*
Y130643D02*
Y132150D01*
Y133022D02*
Y134449D01*
Y135796D02*
Y137303D01*
Y138492D02*
Y139919D01*
Y143566D02*
Y145310D01*
Y148798D02*
Y150542D01*
Y154982D02*
Y156488D01*
Y158946D02*
Y160452D01*
Y162989D02*
Y164416D01*
Y165685D02*
Y167033D01*
X9023Y118038D02*
Y118831D01*
Y119703D02*
Y121922D01*
Y122636D02*
Y124142D01*
Y124697D02*
Y126679D01*
Y129058D02*
Y129613D01*
Y130643D02*
Y132150D01*
Y133022D02*
Y134449D01*
Y135796D02*
Y137303D01*
Y138492D02*
Y139840D01*
Y143566D02*
Y145310D01*
Y148798D02*
Y150542D01*
Y154982D02*
Y156409D01*
Y158946D02*
Y160452D01*
Y162910D02*
Y164416D01*
Y165605D02*
Y166953D01*
X8944Y117958D02*
Y118751D01*
Y119703D02*
Y121922D01*
Y122636D02*
Y124142D01*
Y124697D02*
Y126283D01*
Y128899D02*
Y129692D01*
Y130643D02*
Y132150D01*
Y132942D02*
Y134449D01*
Y135796D02*
Y137223D01*
Y138492D02*
Y139840D01*
Y143566D02*
Y145310D01*
Y148719D02*
Y150542D01*
Y154982D02*
Y156409D01*
Y158946D02*
Y160452D01*
Y162910D02*
Y164416D01*
Y165605D02*
Y166953D01*
X8865Y117958D02*
Y118751D01*
Y119703D02*
Y121843D01*
Y122636D02*
Y124142D01*
Y124697D02*
Y126204D01*
Y128820D02*
Y129771D01*
Y130643D02*
Y132150D01*
Y132942D02*
Y134449D01*
Y135796D02*
Y137223D01*
Y138413D02*
Y139840D01*
Y143566D02*
Y145310D01*
Y148719D02*
Y150463D01*
Y154903D02*
Y156409D01*
Y158946D02*
Y160373D01*
Y162910D02*
Y164337D01*
Y165605D02*
Y166953D01*
X8786Y117958D02*
Y118751D01*
Y119703D02*
Y121843D01*
Y122636D02*
Y124142D01*
Y124697D02*
Y126204D01*
Y128741D02*
Y129771D01*
Y130643D02*
Y132150D01*
Y132942D02*
Y134369D01*
Y135796D02*
Y137223D01*
Y138413D02*
Y139840D01*
Y143566D02*
Y145310D01*
Y148719D02*
Y150463D01*
Y154903D02*
Y156409D01*
Y158946D02*
Y160373D01*
Y162910D02*
Y164337D01*
Y165526D02*
Y166953D01*
X8706Y117879D02*
Y118672D01*
Y119703D02*
Y121764D01*
Y122636D02*
Y124142D01*
Y124697D02*
Y126204D01*
Y128741D02*
Y129771D01*
Y130643D02*
Y132150D01*
Y132942D02*
Y134369D01*
Y135717D02*
Y137223D01*
Y138413D02*
Y139760D01*
Y143566D02*
Y145310D01*
Y148719D02*
Y150463D01*
Y154903D02*
Y156409D01*
Y158867D02*
Y160373D01*
Y162831D02*
Y164337D01*
Y165526D02*
Y166874D01*
X8627Y117879D02*
Y118672D01*
Y119703D02*
Y121764D01*
Y122636D02*
Y124063D01*
Y124697D02*
Y126204D01*
Y128661D02*
Y129771D01*
Y130643D02*
Y132150D01*
Y132863D02*
Y134369D01*
Y135717D02*
Y137223D01*
Y138413D02*
Y139760D01*
Y141029D02*
Y141425D01*
Y143566D02*
Y145310D01*
Y148640D02*
Y150463D01*
Y153476D02*
Y153555D01*
Y154903D02*
Y156330D01*
Y158867D02*
Y160373D01*
Y162831D02*
Y164337D01*
Y165526D02*
Y166874D01*
X8548Y117800D02*
Y118672D01*
Y119703D02*
Y121764D01*
Y122636D02*
Y124063D01*
Y124697D02*
Y126204D01*
Y128661D02*
Y129771D01*
Y130643D02*
Y132150D01*
Y132784D02*
Y134369D01*
Y135717D02*
Y137144D01*
Y138413D02*
Y139760D01*
Y141029D02*
Y141425D01*
Y143645D02*
Y145310D01*
Y148560D02*
Y150463D01*
Y153396D02*
Y153714D01*
Y154903D02*
Y156330D01*
Y158867D02*
Y160294D01*
Y162831D02*
Y164258D01*
Y165526D02*
Y166874D01*
X8468Y117800D02*
Y118593D01*
Y119703D02*
Y121685D01*
Y122636D02*
Y124063D01*
Y124697D02*
Y126204D01*
Y128582D02*
Y129771D01*
Y130643D02*
Y132150D01*
Y132625D02*
Y134369D01*
Y135638D02*
Y137144D01*
Y138333D02*
Y139760D01*
Y140949D02*
Y141425D01*
Y143645D02*
Y145389D01*
Y148481D02*
Y150542D01*
Y153317D02*
Y153634D01*
Y154824D02*
Y156330D01*
Y158867D02*
Y160294D01*
Y162831D02*
Y164258D01*
Y165447D02*
Y166874D01*
X8389Y117800D02*
Y118593D01*
Y119703D02*
Y121685D01*
Y122557D02*
Y124063D01*
Y124697D02*
Y126204D01*
Y128582D02*
Y129771D01*
Y130643D02*
Y132150D01*
Y132546D02*
Y134290D01*
Y135638D02*
Y137144D01*
Y138333D02*
Y139760D01*
Y140949D02*
Y141346D01*
Y143645D02*
Y145389D01*
Y148402D02*
Y150542D01*
Y153317D02*
Y153555D01*
Y154824D02*
Y156330D01*
Y158867D02*
Y160294D01*
Y162831D02*
Y164258D01*
Y165447D02*
Y166795D01*
X8310Y117721D02*
Y118513D01*
Y119703D02*
Y121605D01*
Y122557D02*
Y124063D01*
Y124697D02*
Y126204D01*
Y128503D02*
Y129692D01*
Y130643D02*
Y132150D01*
Y132387D02*
Y134290D01*
Y135558D02*
Y137144D01*
Y138333D02*
Y139681D01*
Y140870D02*
Y141346D01*
Y143645D02*
Y145389D01*
Y148322D02*
Y150542D01*
Y153238D02*
Y153555D01*
Y154824D02*
Y156251D01*
Y158787D02*
Y160294D01*
Y162751D02*
Y164258D01*
Y165447D02*
Y166795D01*
X8231Y117721D02*
Y118513D01*
Y119623D02*
Y121605D01*
Y122557D02*
Y124063D01*
Y124697D02*
Y126204D01*
Y128423D02*
Y129058D01*
Y129137D02*
Y129613D01*
Y130564D02*
Y132150D01*
Y132308D02*
Y134290D01*
Y135558D02*
Y137144D01*
Y138333D02*
Y139681D01*
Y140870D02*
Y141267D01*
Y143645D02*
Y145468D01*
Y148243D02*
Y150542D01*
Y153159D02*
Y153476D01*
Y154824D02*
Y156251D01*
Y158787D02*
Y160294D01*
Y162751D02*
Y164258D01*
Y165447D02*
Y166795D01*
X8151Y117721D02*
Y118513D01*
Y119623D02*
Y121605D01*
Y122557D02*
Y123984D01*
Y124697D02*
Y126204D01*
Y128344D02*
Y129058D01*
Y130564D02*
Y134290D01*
Y135479D02*
Y137065D01*
Y138333D02*
Y139681D01*
Y140791D02*
Y141267D01*
Y143645D02*
Y145468D01*
Y148164D02*
Y148640D01*
Y148719D02*
Y150622D01*
Y153079D02*
Y153476D01*
Y154824D02*
Y156251D01*
Y158787D02*
Y160214D01*
Y162751D02*
Y164179D01*
Y165368D02*
Y166795D01*
X8072Y117641D02*
Y118434D01*
Y119623D02*
Y121526D01*
Y122557D02*
Y123984D01*
Y124697D02*
Y126204D01*
Y128265D02*
Y129058D01*
Y130564D02*
Y132704D01*
Y132863D02*
Y134290D01*
Y135400D02*
Y137065D01*
Y138333D02*
Y139760D01*
Y140791D02*
Y141187D01*
Y143724D02*
Y145548D01*
Y148005D02*
Y148560D01*
Y148719D02*
Y150622D01*
Y152921D02*
Y153396D01*
Y154744D02*
Y156251D01*
Y158787D02*
Y160214D01*
Y162751D02*
Y164179D01*
Y165368D02*
Y166715D01*
X7993Y117641D02*
Y118434D01*
Y119623D02*
Y121526D01*
Y122557D02*
Y123984D01*
Y124697D02*
Y126283D01*
Y128185D02*
Y129137D01*
Y130485D02*
Y132546D01*
Y132863D02*
Y134290D01*
Y135321D02*
Y137065D01*
Y138333D02*
Y139760D01*
Y140712D02*
Y141187D01*
Y143724D02*
Y145627D01*
Y147926D02*
Y148481D01*
Y148719D02*
Y150701D01*
Y152841D02*
Y153317D01*
Y154744D02*
Y156251D01*
Y158708D02*
Y160214D01*
Y162751D02*
Y164179D01*
Y165368D02*
Y166715D01*
X7914Y117641D02*
Y118434D01*
Y119623D02*
Y121447D01*
Y122477D02*
Y123984D01*
Y124697D02*
Y126283D01*
Y128027D02*
Y129137D01*
Y130485D02*
Y132467D01*
Y132863D02*
Y134369D01*
Y135241D02*
Y137065D01*
Y138333D02*
Y139760D01*
Y140632D02*
Y141108D01*
Y143724D02*
Y145706D01*
Y147768D02*
Y148481D01*
Y148798D02*
Y150701D01*
Y152683D02*
Y153238D01*
Y154744D02*
Y156171D01*
Y158708D02*
Y160214D01*
Y162672D02*
Y164179D01*
Y165368D02*
Y166715D01*
X7834Y117562D02*
Y118355D01*
Y119623D02*
Y121447D01*
Y122477D02*
Y123984D01*
Y124697D02*
Y126362D01*
Y127948D02*
Y129137D01*
Y130405D02*
Y132387D01*
Y132863D02*
Y134369D01*
Y135162D02*
Y136986D01*
Y138333D02*
Y139840D01*
Y140553D02*
Y141108D01*
Y143804D02*
Y145786D01*
Y147609D02*
Y148402D01*
Y148798D02*
Y150780D01*
Y152524D02*
Y153238D01*
Y154744D02*
Y156171D01*
Y158708D02*
Y160214D01*
Y162672D02*
Y164179D01*
Y165288D02*
Y166715D01*
X7755Y117562D02*
Y118355D01*
Y119623D02*
Y121368D01*
Y122477D02*
Y123984D01*
Y124776D02*
Y126441D01*
Y127789D02*
Y128503D01*
Y128582D02*
Y129216D01*
Y130326D02*
Y132308D01*
Y132863D02*
Y134528D01*
Y134924D02*
Y136986D01*
Y138333D02*
Y139998D01*
Y140395D02*
Y141029D01*
Y143804D02*
Y145865D01*
Y147450D02*
Y148322D01*
Y148798D02*
Y150939D01*
Y152366D02*
Y153159D01*
Y154665D02*
Y156171D01*
Y158708D02*
Y160135D01*
Y162672D02*
Y164099D01*
Y165288D02*
Y166715D01*
X7676Y117483D02*
Y118275D01*
Y119623D02*
Y121368D01*
Y122477D02*
Y123984D01*
Y124776D02*
Y126521D01*
Y127551D02*
Y128423D01*
Y128582D02*
Y129295D01*
Y130167D02*
Y132150D01*
Y132863D02*
Y136986D01*
Y138333D02*
Y141029D01*
Y143804D02*
Y146103D01*
Y147133D02*
Y148243D01*
Y148878D02*
Y151097D01*
Y152128D02*
Y153079D01*
Y154665D02*
Y156171D01*
Y158708D02*
Y160135D01*
Y162672D02*
Y164099D01*
Y165288D02*
Y166636D01*
X7596Y117483D02*
Y118275D01*
Y119623D02*
Y121368D01*
Y122477D02*
Y123984D01*
Y124776D02*
Y126838D01*
Y127155D02*
Y128344D01*
Y128661D02*
Y129454D01*
Y130009D02*
Y132070D01*
Y132863D02*
Y136986D01*
Y138333D02*
Y140949D01*
Y143883D02*
Y148164D01*
Y148878D02*
Y151415D01*
Y151652D02*
Y153000D01*
Y154665D02*
Y156092D01*
Y158629D02*
Y160135D01*
Y162593D02*
Y164099D01*
Y165288D02*
Y166636D01*
X7517Y117483D02*
Y118275D01*
Y119623D02*
Y121288D01*
Y122477D02*
Y123904D01*
Y124856D02*
Y128185D01*
Y128661D02*
Y131912D01*
Y132863D02*
Y136986D01*
Y138333D02*
Y140870D01*
Y143883D02*
Y148085D01*
Y148957D02*
Y152921D01*
Y154665D02*
Y156092D01*
Y158629D02*
Y160135D01*
Y162593D02*
Y164099D01*
Y165288D02*
Y166636D01*
X7438Y117403D02*
Y118196D01*
Y119623D02*
Y121288D01*
Y122477D02*
Y123904D01*
Y124856D02*
Y128106D01*
Y128741D02*
Y131753D01*
Y132942D02*
Y136906D01*
Y138413D02*
Y140870D01*
Y143962D02*
Y148005D01*
Y148957D02*
Y152841D01*
Y154665D02*
Y156092D01*
Y158629D02*
Y160056D01*
Y162593D02*
Y164099D01*
Y165288D02*
Y166636D01*
X7359Y117403D02*
Y118196D01*
Y119623D02*
Y121209D01*
Y122477D02*
Y123904D01*
Y124935D02*
Y128027D01*
Y128741D02*
Y131674D01*
Y132942D02*
Y135321D01*
Y135479D02*
Y136906D01*
Y138413D02*
Y140791D01*
Y144041D02*
Y147926D01*
Y149036D02*
Y152683D01*
Y154586D02*
Y156092D01*
Y158629D02*
Y160056D01*
Y162593D02*
Y164020D01*
Y165288D02*
Y166636D01*
X7279Y117403D02*
Y118196D01*
Y119623D02*
Y121209D01*
Y122398D02*
Y123904D01*
Y125014D02*
Y127948D01*
Y128820D02*
Y131595D01*
Y132942D02*
Y135241D01*
Y135400D02*
Y136906D01*
Y138492D02*
Y140712D01*
Y144121D02*
Y147768D01*
Y149115D02*
Y152604D01*
Y154586D02*
Y156092D01*
Y158629D02*
Y160056D01*
Y162593D02*
Y164020D01*
Y165288D02*
Y166715D01*
X7200Y117324D02*
Y118117D01*
Y119623D02*
Y121130D01*
Y122398D02*
Y123904D01*
Y125094D02*
Y127789D01*
Y128899D02*
Y131515D01*
Y133022D02*
Y135162D01*
Y135400D02*
Y136906D01*
Y138492D02*
Y140632D01*
Y144200D02*
Y147688D01*
Y149115D02*
Y152524D01*
Y154586D02*
Y156013D01*
Y158550D02*
Y160056D01*
Y162514D02*
Y164020D01*
Y165288D02*
Y166715D01*
X7121Y117324D02*
Y118117D01*
Y119623D02*
Y121130D01*
Y122398D02*
Y123904D01*
Y125173D02*
Y127710D01*
Y128978D02*
Y131357D01*
Y133101D02*
Y135083D01*
Y135400D02*
Y136906D01*
Y138571D02*
Y140553D01*
Y144279D02*
Y147530D01*
Y149195D02*
Y152366D01*
Y154586D02*
Y156013D01*
Y158550D02*
Y160056D01*
Y162514D02*
Y164020D01*
Y165288D02*
Y166715D01*
X7041Y117324D02*
Y118117D01*
Y119623D02*
Y121130D01*
Y122398D02*
Y123904D01*
Y125252D02*
Y127551D01*
Y129058D02*
Y131277D01*
Y133180D02*
Y134924D01*
Y135400D02*
Y136827D01*
Y138650D02*
Y140395D01*
Y144359D02*
Y147371D01*
Y149274D02*
Y152207D01*
Y154586D02*
Y156013D01*
Y158550D02*
Y159977D01*
Y162514D02*
Y163941D01*
Y165288D02*
Y166795D01*
X6962Y117245D02*
Y118038D01*
Y119623D02*
Y121050D01*
Y122398D02*
Y123825D01*
Y125331D02*
Y127393D01*
Y129216D02*
Y131119D01*
Y133259D02*
Y134845D01*
Y135400D02*
Y136827D01*
Y138730D02*
Y140315D01*
Y144438D02*
Y147213D01*
Y149433D02*
Y152128D01*
Y154506D02*
Y156092D01*
Y158550D02*
Y159977D01*
Y162514D02*
Y163941D01*
Y165288D02*
Y166795D01*
X6883Y117245D02*
Y118038D01*
Y119623D02*
Y121050D01*
Y122398D02*
Y123825D01*
Y125569D02*
Y127155D01*
Y129375D02*
Y130881D01*
Y133339D02*
Y134607D01*
Y135321D02*
Y136827D01*
Y138888D02*
Y140157D01*
Y144596D02*
Y147054D01*
Y149512D02*
Y151890D01*
Y154506D02*
Y156330D01*
Y158550D02*
Y159977D01*
Y162514D02*
Y163941D01*
Y165368D02*
Y166874D01*
X6804Y125807D02*
Y126838D01*
Y129613D02*
Y130564D01*
Y133577D02*
Y134369D01*
Y139126D02*
Y139919D01*
Y144755D02*
Y146816D01*
Y149670D02*
Y151732D01*
Y154506D02*
Y156568D01*
Y165447D02*
Y167033D01*
X6724Y145072D02*
Y146499D01*
Y149908D02*
Y151415D01*
Y154506D02*
Y156726D01*
Y165605D02*
Y166715D01*
X6645Y145706D02*
Y146182D01*
Y150304D02*
Y150939D01*
Y154427D02*
Y156885D01*
Y165923D02*
Y166161D01*
X6566Y145706D02*
Y146103D01*
Y154903D02*
Y157043D01*
X6486Y145706D02*
Y146103D01*
Y155299D02*
Y157202D01*
X6407Y145706D02*
Y146023D01*
Y155537D02*
Y157360D01*
X6328Y145627D02*
Y146023D01*
Y155696D02*
Y157519D01*
X6249Y145627D02*
Y146023D01*
Y155854D02*
Y157598D01*
X6169Y145627D02*
Y145944D01*
Y156013D02*
Y157757D01*
X6090Y145548D02*
Y145944D01*
Y146103D02*
Y146896D01*
Y156171D02*
Y157915D01*
X6011Y145548D02*
Y146975D01*
Y156251D02*
Y158074D01*
X5931Y145468D02*
Y147054D01*
Y156409D02*
Y158312D01*
X5852Y145468D02*
Y147133D01*
Y156488D02*
Y158470D01*
X5773Y145468D02*
Y147133D01*
Y156647D02*
Y158708D01*
X5694Y145389D02*
Y147133D01*
Y156726D02*
Y158946D01*
Y160214D02*
Y160452D01*
X5614Y145389D02*
Y145468D01*
Y146182D02*
Y147133D01*
Y156885D02*
Y159501D01*
Y159660D02*
Y160452D01*
X5535Y146261D02*
Y147133D01*
Y156964D02*
Y160373D01*
X5456Y146261D02*
Y147133D01*
Y157043D02*
Y160373D01*
X5376Y146341D02*
Y147133D01*
Y157123D02*
Y160373D01*
X5297Y146341D02*
Y147133D01*
Y157281D02*
Y160373D01*
X5218Y146341D02*
Y147054D01*
Y157360D02*
Y160294D01*
X5139Y146341D02*
Y147054D01*
Y157440D02*
Y160294D01*
X5059Y145072D02*
Y145389D01*
Y146261D02*
Y146975D01*
Y157519D02*
Y160294D01*
X4980Y144913D02*
Y145548D01*
Y146261D02*
Y146896D01*
Y157677D02*
Y160294D01*
X4901Y144913D02*
Y145706D01*
Y146182D02*
Y146816D01*
Y157757D02*
Y160214D01*
X4822Y144834D02*
Y145865D01*
Y146023D02*
Y146737D01*
Y157836D02*
Y160214D01*
X4742Y144913D02*
Y146658D01*
Y157995D02*
Y160135D01*
X4663Y145072D02*
Y146499D01*
Y158074D02*
Y160135D01*
X4584Y145310D02*
Y146341D01*
Y158232D02*
Y160056D01*
X4504Y158312D02*
Y159977D01*
X4425Y158470D02*
Y159897D01*
X4346Y158629D02*
Y159818D01*
X4267Y158867D02*
Y159739D01*
X4187Y159184D02*
Y159501D01*
M02*
