G04*
G04 #@! TF.GenerationSoftware,Altium Limited,Altium Designer,21.7.1 (17)*
G04*
G04 Layer_Physical_Order=2*
G04 Layer_Color=32768*
%FSLAX25Y25*%
%MOIN*%
G70*
G04*
G04 #@! TF.SameCoordinates,E541626C-5F42-4904-A579-91A45D143E40*
G04*
G04*
G04 #@! TF.FilePolarity,Negative*
G04*
G01*
G75*
%ADD17C,0.01000*%
%ADD178C,0.02200*%
%ADD179C,0.04000*%
%ADD180R,0.06800X0.06400*%
%ADD181R,0.06800X0.07200*%
%AMTHRECTD182*
4,1,4,0.03681,-0.07618,-0.03681,-0.07618,-0.03681,0.07618,0.03681,0.07618,0.03681,-0.07618,0.0*
4,0,4,0.02681,-0.06618,-0.02681,-0.06618,-0.02681,0.06618,0.02681,0.06618,0.02681,-0.06618,0.0*
20,0,0.01500,0.00000,-0.03937,0.07362,-0.11299,0*
20,0,0.01500,0.00000,0.03937,-0.07362,0.11299,0*
20,0,0.01500,0.00000,-0.03937,-0.07362,-0.11299,0*
20,0,0.01500,0.00000,0.03937,0.07362,0.11299,0*
%
%ADD182THRECTD182*%

%AMTHRECTD183*
4,1,4,-0.07618,-0.03091,-0.07618,0.03091,0.07618,0.03091,0.07618,-0.03091,-0.07618,-0.03091,0.0*
4,0,4,-0.06618,-0.02091,-0.06618,0.02091,0.06618,0.02091,0.06618,-0.02091,-0.06618,-0.02091,0.0*
20,0,0.01500,-0.04528,0.00000,-0.10709,-0.06181,0*
20,0,0.01500,0.04528,0.00000,0.10709,0.06181,0*
20,0,0.01500,-0.04528,0.00000,-0.10709,0.06181,0*
20,0,0.01500,0.04528,0.00000,0.10709,-0.06181,0*
%
%ADD183THRECTD183*%

%ADD184R,0.09543X0.08362*%
%ADD185C,0.08756*%
G04:AMPARAMS|DCode=186|XSize=77.559mil|YSize=77.559mil|CornerRadius=0mil|HoleSize=0mil|Usage=FLASHONLY|Rotation=0.000|XOffset=0mil|YOffset=0mil|HoleType=Round|Shape=Relief|Width=15mil|Gap=10mil|Entries=4|*
%AMTHD186*
7,0,0,0.07756,0.05756,0.01500,45*
%
%ADD186THD186*%
%ADD187C,0.12890*%
%ADD188C,0.09543*%
%ADD189C,0.09150*%
%ADD190C,0.09622*%
%ADD191C,0.11118*%
%ADD192C,0.07378*%
G04:AMPARAMS|DCode=193|XSize=63.779mil|YSize=63.779mil|CornerRadius=0mil|HoleSize=0mil|Usage=FLASHONLY|Rotation=0.000|XOffset=0mil|YOffset=0mil|HoleType=Round|Shape=Relief|Width=15mil|Gap=10mil|Entries=4|*
%AMTHD193*
7,0,0,0.06378,0.04378,0.01500,45*
%
%ADD193THD193*%
G36*
X111000Y285400D02*
Y195600D01*
X111200D01*
X115200Y191600D01*
X157400D01*
X159800Y189200D01*
Y60400D01*
X157200Y57800D01*
X53800D01*
X48200Y52200D01*
Y200D01*
X400Y200D01*
X400Y285200D01*
X111000Y285400D01*
D02*
G37*
D17*
X290000Y286000D02*
X290400Y210800D01*
D178*
X290000Y211200D02*
Y286000D01*
D179*
X0Y0D02*
X290600D01*
X290600Y170030D02*
X290600Y0D01*
X290600Y170030D02*
Y210660D01*
X401200D01*
Y285463D01*
X289370D02*
X401200D01*
X289370Y285433D02*
Y285463D01*
X0Y285433D02*
X289370D01*
X0Y0D02*
Y285433D01*
D180*
X303000Y247200D02*
D03*
D181*
X279200Y241000D02*
D03*
D182*
X203862Y36244D02*
D03*
X270791D02*
D03*
D183*
X185039Y23622D02*
D03*
X251969D02*
D03*
D184*
X180693Y48465D02*
D03*
X247622D02*
D03*
D185*
X122047Y42323D02*
D03*
X340545Y243471D02*
D03*
Y257613D02*
D03*
X62992Y42323D02*
D03*
D186*
X122047Y20669D02*
D03*
X326403Y257613D02*
D03*
X62992Y20669D02*
D03*
D187*
X23622Y41142D02*
D03*
Y21063D02*
D03*
X19094Y265748D02*
D03*
Y245669D02*
D03*
Y213779D02*
D03*
Y193701D02*
D03*
D188*
X23228Y62992D02*
D03*
X23622Y173228D02*
D03*
X141732Y106299D02*
D03*
Y145669D02*
D03*
X62992Y86614D02*
D03*
Y165354D02*
D03*
D189*
X279200Y235400D02*
D03*
Y241305D02*
D03*
Y247211D02*
D03*
Y253116D02*
D03*
Y259022D02*
D03*
Y264928D02*
D03*
X303000Y270706D02*
D03*
Y264800D02*
D03*
Y258894D02*
D03*
Y252989D02*
D03*
Y247083D02*
D03*
Y241178D02*
D03*
X173425Y177953D02*
D03*
X193110D02*
D03*
D190*
X262468Y276712D02*
D03*
X250657D02*
D03*
D191*
X35433Y246457D02*
D03*
X65433D02*
D03*
X105433D02*
D03*
Y276457D02*
D03*
X45433D02*
D03*
X35472Y200748D02*
D03*
X65472D02*
D03*
X105472D02*
D03*
Y230748D02*
D03*
X45472D02*
D03*
D192*
X108019Y31496D02*
D03*
X172200Y69800D02*
D03*
X238000Y243000D02*
D03*
X210400Y160200D02*
D03*
X185000Y114000D02*
D03*
X390494Y228362D02*
D03*
X144400Y55600D02*
D03*
X186416Y125984D02*
D03*
X307000Y278400D02*
D03*
X316939Y235394D02*
D03*
X324000Y236000D02*
D03*
X318400Y259200D02*
D03*
X367000Y216800D02*
D03*
X169200Y92400D02*
D03*
X163800D02*
D03*
X171400Y77200D02*
D03*
X164000Y77400D02*
D03*
X179400Y97600D02*
D03*
Y103200D02*
D03*
Y108600D02*
D03*
X185000D02*
D03*
X238600Y51000D02*
D03*
X233067D02*
D03*
X229400Y266200D02*
D03*
X253200Y227600D02*
D03*
X170000Y244800D02*
D03*
X200000Y199000D02*
D03*
X171800Y253000D02*
D03*
X169200Y211200D02*
D03*
X222000Y51000D02*
D03*
X227533D02*
D03*
X216200Y52000D02*
D03*
X149200Y248400D02*
D03*
X182600Y279000D02*
D03*
X156600Y248400D02*
D03*
X187900Y279000D02*
D03*
X259200Y190400D02*
D03*
X166000Y240400D02*
D03*
X259200Y200400D02*
D03*
Y210400D02*
D03*
X186600Y251200D02*
D03*
X240600Y216600D02*
D03*
X231200Y186600D02*
D03*
X160600Y235800D02*
D03*
X218600Y204000D02*
D03*
X168200Y271400D02*
D03*
X205400Y89600D02*
D03*
X193600Y132600D02*
D03*
X115600Y251600D02*
D03*
X152900Y257345D02*
D03*
D193*
X342400Y270400D02*
D03*
X185600Y188800D02*
D03*
X139600Y256200D02*
D03*
X372200Y216800D02*
D03*
X319600Y241600D02*
D03*
X115400Y219800D02*
D03*
X159600Y51000D02*
D03*
X171600Y52000D02*
D03*
X191200Y120000D02*
D03*
X210200Y146800D02*
D03*
M02*
