G04*
G04 #@! TF.GenerationSoftware,Altium Limited,Altium Designer,21.7.1 (17)*
G04*
G04 Layer_Physical_Order=4*
G04 Layer_Color=16711680*
%FSLAX25Y25*%
%MOIN*%
G70*
G04*
G04 #@! TF.SameCoordinates,E541626C-5F42-4904-A579-91A45D143E40*
G04*
G04*
G04 #@! TF.FilePolarity,Positive*
G04*
G01*
G75*
%ADD112C,0.05906*%
%ADD158C,0.06000*%
%ADD161C,0.01100*%
%ADD162C,0.01200*%
%ADD163C,0.03000*%
%ADD164C,0.01470*%
%ADD167R,0.06299X0.15748*%
%ADD168R,0.15748X0.06299*%
%ADD169R,0.07087X0.06299*%
%ADD170C,0.06693*%
%ADD171C,0.11811*%
%ADD172C,0.07874*%
%ADD173R,0.03937X0.03937*%
%ADD174C,0.05512*%
%ADD175C,0.09843*%
%ADD176R,0.09843X0.09843*%
%ADD177C,0.02362*%
G36*
X23606Y269636D02*
X23965Y269442D01*
X24414Y269270D01*
X24954Y269121D01*
X25586Y268995D01*
X26308Y268892D01*
X28027Y268755D01*
X30110Y268709D01*
X30063Y262709D01*
X28976Y262697D01*
X25537Y262428D01*
X24904Y262305D01*
X24363Y262159D01*
X23912Y261990D01*
X23553Y261799D01*
X23284Y261586D01*
X23339Y269854D01*
X23606Y269636D01*
D02*
G37*
G36*
X288400Y277200D02*
Y10200D01*
X281000Y2800D01*
X52800D01*
X47800Y7800D01*
Y27562D01*
X108019D01*
X109037Y27696D01*
X109985Y28089D01*
X110800Y28715D01*
X111425Y29529D01*
X111818Y30478D01*
X111952Y31496D01*
X111818Y32514D01*
X111425Y33463D01*
X110800Y34278D01*
X109985Y34903D01*
X109037Y35296D01*
X108019Y35430D01*
X48873D01*
X47800Y36503D01*
X47800Y48400D01*
X47800Y52000D01*
X54000Y58200D01*
X143071D01*
X143223Y57700D01*
X142670Y57330D01*
X142139Y56536D01*
X141953Y55600D01*
X142139Y54664D01*
X142670Y53870D01*
X143464Y53339D01*
X144400Y53153D01*
X158152D01*
X158310Y52653D01*
X157836Y52179D01*
X157519Y51414D01*
Y50586D01*
X157836Y49821D01*
X158421Y49236D01*
X159186Y48919D01*
X160014D01*
X160779Y49236D01*
X161364Y49821D01*
X161681Y50586D01*
Y51414D01*
X161364Y52179D01*
X160890Y52653D01*
X161047Y53153D01*
X165400D01*
X166336Y53339D01*
X167130Y53870D01*
X192330Y79070D01*
X192861Y79864D01*
X193047Y80800D01*
Y114500D01*
X192861Y115436D01*
X192330Y116230D01*
X191142Y117419D01*
X191349Y117919D01*
X191614D01*
X192379Y118236D01*
X192964Y118821D01*
X193281Y119586D01*
Y120414D01*
X192964Y121179D01*
X192379Y121764D01*
X191614Y122081D01*
X190786D01*
X190021Y121764D01*
X189436Y121179D01*
X189363Y121003D01*
X188863Y121102D01*
Y125984D01*
X188677Y126921D01*
X188146Y127715D01*
X187352Y128245D01*
X186416Y128431D01*
X185479Y128245D01*
X184685Y127715D01*
X184155Y126921D01*
X183969Y125984D01*
Y118684D01*
X184155Y117748D01*
X184685Y116954D01*
X185058Y116581D01*
X184851Y116081D01*
X184586D01*
X183821Y115764D01*
X183236Y115179D01*
X182919Y114414D01*
Y113586D01*
X183236Y112821D01*
X183821Y112236D01*
X184586Y111919D01*
X185414D01*
X186179Y112236D01*
X186764Y112821D01*
X187081Y113586D01*
Y113851D01*
X187581Y114058D01*
X188153Y113486D01*
Y81814D01*
X164386Y58047D01*
X159554D01*
X159347Y58547D01*
X160200Y59400D01*
Y189800D01*
X158400Y191600D01*
X115200D01*
X112600Y194200D01*
X115400Y197000D01*
Y205600D01*
X111200Y209800D01*
Y211000D01*
X111200Y229704D01*
X111294Y230175D01*
Y231321D01*
X111200Y231792D01*
Y239800D01*
X114400Y243000D01*
X114400Y249303D01*
X114900Y249637D01*
X115186Y249519D01*
X116014D01*
X116779Y249836D01*
X117364Y250421D01*
X117681Y251186D01*
Y252014D01*
X117364Y252779D01*
X116779Y253364D01*
X116014Y253681D01*
X115186D01*
X114421Y253364D01*
X113836Y252779D01*
X113769Y252619D01*
X113279Y252521D01*
X111600Y254200D01*
Y280000D01*
X115000Y283400D01*
X282200D01*
X288400Y277200D01*
D02*
G37*
G36*
X60707Y253824D02*
X63206Y251660D01*
X63546Y251444D01*
X63833Y251301D01*
X64066Y251231D01*
X64246Y251233D01*
X60634Y245366D01*
X60582Y245425D01*
X59381Y246647D01*
X55641Y250395D01*
X60048Y254474D01*
X60707Y253824D01*
D02*
G37*
G36*
X398200Y278600D02*
Y217000D01*
X395200Y214000D01*
X297628D01*
X294400Y217228D01*
X294400Y278600D01*
X297800Y282000D01*
X394800D01*
X398200Y278600D01*
D02*
G37*
G36*
X35423Y195827D02*
X35270Y195794D01*
X35061Y195692D01*
X34795Y195520D01*
X34473Y195280D01*
X33660Y194592D01*
X32016Y193043D01*
X31355Y192388D01*
X27113Y196631D01*
X27767Y197292D01*
X30245Y200071D01*
X30416Y200337D01*
X30518Y200546D01*
X30551Y200699D01*
X35423Y195827D01*
D02*
G37*
G36*
X112400Y249600D02*
Y244200D01*
X107000Y238800D01*
X97800D01*
X93800Y234800D01*
Y216000D01*
X100800Y209000D01*
X109200D01*
X113800Y204400D01*
X113800Y197600D01*
X108400Y192200D01*
X100800D01*
X69400Y223600D01*
Y224600D01*
X99600Y254800D01*
X107200D01*
X112400Y249600D01*
D02*
G37*
G36*
X26437Y51158D02*
X26615Y48447D01*
X26722Y47727D01*
X26853Y47097D01*
X27007Y46560D01*
X27185Y46113D01*
X27387Y45758D01*
X27613Y45495D01*
X19350Y45219D01*
X19554Y45490D01*
X19737Y45851D01*
X19898Y46304D01*
X20038Y46847D01*
X20156Y47481D01*
X20328Y49021D01*
X20414Y50925D01*
X20425Y52013D01*
X26425Y52245D01*
X26437Y51158D01*
D02*
G37*
%LPC*%
G36*
X188314Y281082D02*
X187486D01*
X186721Y280765D01*
X186136Y280179D01*
X186113Y280125D01*
X185594Y279606D01*
X185250Y279359D01*
X184906Y279606D01*
X184387Y280125D01*
X184364Y280179D01*
X183779Y280765D01*
X183014Y281082D01*
X182186D01*
X181421Y280765D01*
X180836Y280179D01*
X180519Y279414D01*
Y278586D01*
X180836Y277821D01*
X181343Y277314D01*
X181508Y276772D01*
X171488Y266752D01*
X165249D01*
X164611Y266625D01*
X164070Y266264D01*
X155443Y257637D01*
X154945Y257846D01*
X154664Y258524D01*
X154079Y259109D01*
X153314Y259426D01*
X152486D01*
X151721Y259109D01*
X151136Y258524D01*
X150819Y257759D01*
Y256931D01*
X151136Y256166D01*
X151721Y255580D01*
X152399Y255300D01*
X152608Y254802D01*
X150487Y252680D01*
X150125Y252139D01*
X149998Y251501D01*
Y250738D01*
X149614Y250481D01*
X148786D01*
X148021Y250164D01*
X147436Y249579D01*
X147119Y248814D01*
Y247986D01*
X147436Y247221D01*
X148021Y246636D01*
X148786Y246319D01*
X149614D01*
X150379Y246636D01*
X150476Y246733D01*
X150804D01*
X151442Y246860D01*
X151983Y247221D01*
X152556Y247794D01*
X152900Y248042D01*
X153244Y247794D01*
X153817Y247221D01*
X154358Y246860D01*
X154996Y246733D01*
X155324D01*
X155421Y246636D01*
X156186Y246319D01*
X157014D01*
X157779Y246636D01*
X158364Y247221D01*
X158681Y247986D01*
Y248814D01*
X158364Y249579D01*
X157779Y250164D01*
X157147Y250426D01*
X156957Y250943D01*
X166962Y260948D01*
X173201D01*
X173839Y261075D01*
X174380Y261437D01*
X187663Y274720D01*
X188025Y275261D01*
X188152Y275899D01*
Y276919D01*
X188314D01*
X189079Y277236D01*
X189664Y277821D01*
X189981Y278586D01*
Y279414D01*
X189664Y280179D01*
X189079Y280765D01*
X188314Y281082D01*
D02*
G37*
G36*
X262950Y280367D02*
X261987D01*
X261057Y280118D01*
X260224Y279637D01*
X259543Y278956D01*
X259062Y278123D01*
X258812Y277193D01*
Y276230D01*
X259062Y275301D01*
X259543Y274467D01*
X260224Y273786D01*
X261057Y273305D01*
X261987Y273056D01*
X262950D01*
X263879Y273305D01*
X264713Y273786D01*
X265394Y274467D01*
X265875Y275301D01*
X266124Y276230D01*
Y277193D01*
X265875Y278123D01*
X265394Y278956D01*
X264713Y279637D01*
X263879Y280118D01*
X262950Y280367D01*
D02*
G37*
G36*
X251138D02*
X250176D01*
X249246Y280118D01*
X248412Y279637D01*
X247732Y278956D01*
X247251Y278123D01*
X247001Y277193D01*
Y276230D01*
X247251Y275301D01*
X247732Y274467D01*
X248412Y273786D01*
X249246Y273305D01*
X250176Y273056D01*
X251138D01*
X252068Y273305D01*
X252902Y273786D01*
X253583Y274467D01*
X254064Y275301D01*
X254313Y276230D01*
Y277193D01*
X254064Y278123D01*
X253583Y278956D01*
X252902Y279637D01*
X252068Y280118D01*
X251138Y280367D01*
D02*
G37*
G36*
X168614Y273481D02*
X167786D01*
X167021Y273164D01*
X166436Y272579D01*
X166119Y271814D01*
Y270986D01*
X166436Y270221D01*
X167021Y269636D01*
X167786Y269319D01*
X168614D01*
X169379Y269636D01*
X169964Y270221D01*
X170281Y270986D01*
Y271814D01*
X169964Y272579D01*
X169379Y273164D01*
X168614Y273481D01*
D02*
G37*
G36*
X229814Y268281D02*
X228986D01*
X228221Y267964D01*
X227636Y267379D01*
X227319Y266614D01*
Y265786D01*
X227636Y265021D01*
X228221Y264436D01*
X228986Y264119D01*
X229814D01*
X230579Y264436D01*
X231164Y265021D01*
X231481Y265786D01*
Y266614D01*
X231164Y267379D01*
X230579Y267964D01*
X229814Y268281D01*
D02*
G37*
G36*
X140014Y258281D02*
X139186D01*
X138421Y257964D01*
X137836Y257379D01*
X137519Y256614D01*
Y255786D01*
X137836Y255021D01*
X138421Y254436D01*
X139186Y254119D01*
X140014D01*
X140779Y254436D01*
X141364Y255021D01*
X141681Y255786D01*
Y256614D01*
X141364Y257379D01*
X140779Y257964D01*
X140014Y258281D01*
D02*
G37*
G36*
X172214Y255081D02*
X171386D01*
X170621Y254764D01*
X170036Y254179D01*
X169719Y253414D01*
Y252586D01*
X170036Y251821D01*
X170621Y251236D01*
X171386Y250919D01*
X172214D01*
X172979Y251236D01*
X173564Y251821D01*
X173881Y252586D01*
Y253414D01*
X173564Y254179D01*
X172979Y254764D01*
X172214Y255081D01*
D02*
G37*
G36*
X223200Y247478D02*
X198871D01*
X198305Y247366D01*
X197825Y247045D01*
X197058Y246278D01*
X171465D01*
X171179Y246564D01*
X170414Y246881D01*
X169586D01*
X168821Y246564D01*
X168236Y245979D01*
X167919Y245214D01*
Y244386D01*
X168236Y243621D01*
X168821Y243036D01*
X169586Y242719D01*
X170414D01*
X171179Y243036D01*
X171465Y243322D01*
X197671D01*
X198237Y243434D01*
X198716Y243755D01*
X199483Y244522D01*
X222588D01*
X253322Y213788D01*
Y204800D01*
X253434Y204234D01*
X253755Y203755D01*
X257119Y200390D01*
Y199986D01*
X257436Y199221D01*
X258021Y198636D01*
X258786Y198319D01*
X259614D01*
X260379Y198636D01*
X260964Y199221D01*
X261281Y199986D01*
Y200814D01*
X260964Y201579D01*
X260379Y202164D01*
X259614Y202481D01*
X259210D01*
X256278Y205412D01*
Y214400D01*
X256166Y214966D01*
X255845Y215445D01*
X224245Y247045D01*
X223766Y247366D01*
X223200Y247478D01*
D02*
G37*
G36*
X282068Y267796D02*
X276331D01*
Y262391D01*
X276331Y262059D01*
X276331Y261559D01*
Y256485D01*
X276331Y256153D01*
X276331Y255654D01*
Y250580D01*
X276331Y250248D01*
X276331Y249748D01*
Y244674D01*
X276331Y244342D01*
X276331Y243843D01*
Y238769D01*
X276331Y238437D01*
X276331Y237937D01*
Y232531D01*
X282068D01*
Y237937D01*
X282068Y238268D01*
X282068Y238769D01*
Y243843D01*
X282068Y244174D01*
X282068Y244674D01*
Y249748D01*
X282068Y250079D01*
X282068Y250580D01*
Y255654D01*
X282068Y255985D01*
X282068Y256485D01*
Y261559D01*
X282068Y261891D01*
X282068Y262391D01*
Y267796D01*
D02*
G37*
G36*
X115814Y221881D02*
X114986D01*
X114221Y221564D01*
X113636Y220979D01*
X113319Y220214D01*
Y219386D01*
X113636Y218621D01*
X114221Y218036D01*
X114986Y217719D01*
X115814D01*
X116579Y218036D01*
X117164Y218621D01*
X117481Y219386D01*
Y220214D01*
X117164Y220979D01*
X116579Y221564D01*
X115814Y221881D01*
D02*
G37*
G36*
X169614Y213281D02*
X168786D01*
X168021Y212964D01*
X167436Y212379D01*
X167119Y211614D01*
Y210786D01*
X167436Y210021D01*
X168021Y209436D01*
X168786Y209119D01*
X169614D01*
X170379Y209436D01*
X170964Y210021D01*
X171281Y210786D01*
Y211614D01*
X170964Y212379D01*
X170379Y212964D01*
X169614Y213281D01*
D02*
G37*
G36*
X187014Y253281D02*
X186186D01*
X185421Y252964D01*
X184836Y252379D01*
X184519Y251614D01*
Y250786D01*
X184836Y250021D01*
X185421Y249436D01*
X186186Y249119D01*
X187014D01*
X187779Y249436D01*
X188065Y249722D01*
X224388D01*
X257722Y216388D01*
Y211865D01*
X257436Y211579D01*
X257119Y210814D01*
Y209986D01*
X257436Y209221D01*
X258021Y208636D01*
X258786Y208319D01*
X259614D01*
X260379Y208636D01*
X260964Y209221D01*
X261281Y209986D01*
Y210814D01*
X260964Y211579D01*
X260678Y211865D01*
Y217000D01*
X260566Y217566D01*
X260245Y218045D01*
X253272Y225019D01*
X253479Y225519D01*
X253614D01*
X254379Y225836D01*
X254964Y226421D01*
X255281Y227186D01*
Y228014D01*
X254964Y228779D01*
X254379Y229364D01*
X253614Y229681D01*
X252786D01*
X252021Y229364D01*
X251436Y228779D01*
X251119Y228014D01*
Y227879D01*
X250619Y227672D01*
X237872Y240419D01*
X238079Y240919D01*
X238414D01*
X239179Y241236D01*
X239764Y241821D01*
X240081Y242586D01*
Y243414D01*
X239764Y244179D01*
X239179Y244764D01*
X238414Y245081D01*
X237586D01*
X236821Y244764D01*
X236236Y244179D01*
X235919Y243414D01*
Y243079D01*
X235419Y242872D01*
X226045Y252245D01*
X225566Y252566D01*
X225000Y252678D01*
X188065D01*
X187779Y252964D01*
X187014Y253281D01*
D02*
G37*
G36*
X161014Y237881D02*
X160186D01*
X159421Y237564D01*
X158836Y236979D01*
X158519Y236214D01*
Y235386D01*
X158836Y234621D01*
X159421Y234036D01*
X160186Y233719D01*
X161014D01*
X161779Y234036D01*
X162065Y234322D01*
X186188D01*
X216519Y203990D01*
Y203586D01*
X216836Y202821D01*
X217421Y202236D01*
X218186Y201919D01*
X219014D01*
X219779Y202236D01*
X220364Y202821D01*
X220681Y203586D01*
Y204414D01*
X220364Y205179D01*
X219779Y205764D01*
X219014Y206081D01*
X218610D01*
X187845Y236845D01*
X187366Y237166D01*
X186800Y237278D01*
X162065D01*
X161779Y237564D01*
X161014Y237881D01*
D02*
G37*
G36*
X200414Y201081D02*
X199586D01*
X198821Y200764D01*
X198236Y200179D01*
X197919Y199414D01*
Y198586D01*
X198236Y197821D01*
X198821Y197236D01*
X199586Y196919D01*
X200414D01*
X201179Y197236D01*
X201764Y197821D01*
X202081Y198586D01*
Y199414D01*
X201764Y200179D01*
X201179Y200764D01*
X200414Y201081D01*
D02*
G37*
G36*
X166414Y242481D02*
X165586D01*
X164821Y242164D01*
X164236Y241579D01*
X163919Y240814D01*
Y239986D01*
X164236Y239221D01*
X164821Y238636D01*
X165586Y238319D01*
X166414D01*
X167179Y238636D01*
X167465Y238922D01*
X221988D01*
X249722Y211188D01*
Y198400D01*
X249834Y197834D01*
X250155Y197355D01*
X257119Y190390D01*
Y189986D01*
X257436Y189221D01*
X258021Y188636D01*
X258786Y188319D01*
X259614D01*
X260379Y188636D01*
X260964Y189221D01*
X261281Y189986D01*
Y190814D01*
X260964Y191579D01*
X260379Y192164D01*
X259614Y192481D01*
X259210D01*
X252678Y199012D01*
Y211800D01*
X252566Y212366D01*
X252245Y212845D01*
X223645Y241445D01*
X223166Y241766D01*
X222600Y241878D01*
X167465D01*
X167179Y242164D01*
X166414Y242481D01*
D02*
G37*
G36*
X186014Y190881D02*
X185186D01*
X184421Y190564D01*
X183836Y189979D01*
X183519Y189214D01*
Y188386D01*
X183836Y187621D01*
X184421Y187036D01*
X185186Y186719D01*
X186014D01*
X186779Y187036D01*
X187364Y187621D01*
X187681Y188386D01*
Y189214D01*
X187364Y189979D01*
X186779Y190564D01*
X186014Y190881D01*
D02*
G37*
G36*
X241014Y218681D02*
X240186D01*
X239421Y218364D01*
X238836Y217779D01*
X238519Y217014D01*
Y216186D01*
X238836Y215421D01*
X239122Y215135D01*
Y196612D01*
X231190Y188681D01*
X230786D01*
X230021Y188364D01*
X229436Y187779D01*
X229119Y187014D01*
Y186186D01*
X229436Y185421D01*
X230021Y184836D01*
X230786Y184519D01*
X231614D01*
X232379Y184836D01*
X232964Y185421D01*
X233281Y186186D01*
Y186590D01*
X241645Y194955D01*
X241966Y195434D01*
X242078Y196000D01*
Y215135D01*
X242364Y215421D01*
X242681Y216186D01*
Y217014D01*
X242364Y217779D01*
X241779Y218364D01*
X241014Y218681D01*
D02*
G37*
G36*
X193747Y182790D02*
X192473D01*
X191243Y182460D01*
X190140Y181823D01*
X189240Y180923D01*
X188603Y179820D01*
X188273Y178590D01*
Y177316D01*
X188603Y176086D01*
X189240Y174983D01*
X190140Y174082D01*
X191243Y173445D01*
X192473Y173116D01*
X193747D01*
X194977Y173445D01*
X196080Y174082D01*
X196981Y174983D01*
X197618Y176086D01*
X197947Y177316D01*
Y178590D01*
X197618Y179820D01*
X196981Y180923D01*
X196080Y181823D01*
X194977Y182460D01*
X193747Y182790D01*
D02*
G37*
G36*
X174062D02*
X172788D01*
X171558Y182460D01*
X170455Y181823D01*
X169555Y180923D01*
X168918Y179820D01*
X168588Y178590D01*
Y177316D01*
X168918Y176086D01*
X169555Y174983D01*
X170455Y174082D01*
X171558Y173445D01*
X172788Y173116D01*
X174062D01*
X175292Y173445D01*
X176395Y174082D01*
X177296Y174983D01*
X177933Y176086D01*
X178262Y177316D01*
Y178590D01*
X177933Y179820D01*
X177296Y180923D01*
X176395Y181823D01*
X175292Y182460D01*
X174062Y182790D01*
D02*
G37*
G36*
X210814Y162281D02*
X209986D01*
X209221Y161964D01*
X208636Y161379D01*
X208319Y160614D01*
Y159786D01*
X208636Y159021D01*
X209221Y158436D01*
X209986Y158119D01*
X210814D01*
X211579Y158436D01*
X212164Y159021D01*
X212481Y159786D01*
Y160614D01*
X212164Y161379D01*
X211579Y161964D01*
X210814Y162281D01*
D02*
G37*
G36*
X210614Y148881D02*
X209786D01*
X209021Y148564D01*
X208436Y147979D01*
X208119Y147214D01*
Y146386D01*
X208436Y145621D01*
X209021Y145036D01*
X209786Y144719D01*
X210614D01*
X211379Y145036D01*
X211964Y145621D01*
X212281Y146386D01*
Y147214D01*
X211964Y147979D01*
X211379Y148564D01*
X210614Y148881D01*
D02*
G37*
G36*
X194014Y134681D02*
X193186D01*
X192421Y134364D01*
X191836Y133779D01*
X191519Y133014D01*
Y132186D01*
X191836Y131421D01*
X192421Y130836D01*
X193186Y130519D01*
X194014D01*
X194779Y130836D01*
X195364Y131421D01*
X195681Y132186D01*
Y133014D01*
X195364Y133779D01*
X194779Y134364D01*
X194014Y134681D01*
D02*
G37*
G36*
X185414Y110681D02*
X184586D01*
X183821Y110364D01*
X183236Y109779D01*
X182919Y109014D01*
Y108186D01*
X183236Y107421D01*
X183821Y106836D01*
X184586Y106519D01*
X185414D01*
X186179Y106836D01*
X186764Y107421D01*
X187081Y108186D01*
Y109014D01*
X186764Y109779D01*
X186179Y110364D01*
X185414Y110681D01*
D02*
G37*
G36*
X179814D02*
X178986D01*
X178221Y110364D01*
X177636Y109779D01*
X177319Y109014D01*
Y108186D01*
X177636Y107421D01*
X178221Y106836D01*
X178986Y106519D01*
X179814D01*
X180579Y106836D01*
X181164Y107421D01*
X181481Y108186D01*
Y109014D01*
X181164Y109779D01*
X180579Y110364D01*
X179814Y110681D01*
D02*
G37*
G36*
Y105281D02*
X178986D01*
X178221Y104964D01*
X177636Y104379D01*
X177319Y103614D01*
Y102786D01*
X177636Y102021D01*
X178221Y101436D01*
X178986Y101119D01*
X179814D01*
X180579Y101436D01*
X181164Y102021D01*
X181481Y102786D01*
Y103614D01*
X181164Y104379D01*
X180579Y104964D01*
X179814Y105281D01*
D02*
G37*
G36*
Y99681D02*
X178986D01*
X178221Y99364D01*
X177636Y98779D01*
X177319Y98014D01*
Y97186D01*
X177636Y96421D01*
X178221Y95836D01*
X178986Y95519D01*
X179814D01*
X180579Y95836D01*
X181164Y96421D01*
X181481Y97186D01*
Y98014D01*
X181164Y98779D01*
X180579Y99364D01*
X179814Y99681D01*
D02*
G37*
G36*
X169614Y94481D02*
X168786D01*
X168021Y94164D01*
X167436Y93579D01*
X167119Y92814D01*
Y91986D01*
X167436Y91221D01*
X168021Y90636D01*
X168786Y90319D01*
X169614D01*
X170379Y90636D01*
X170964Y91221D01*
X171281Y91986D01*
Y92814D01*
X170964Y93579D01*
X170379Y94164D01*
X169614Y94481D01*
D02*
G37*
G36*
X164214D02*
X163386D01*
X162621Y94164D01*
X162036Y93579D01*
X161719Y92814D01*
Y91986D01*
X162036Y91221D01*
X162621Y90636D01*
X163386Y90319D01*
X164214D01*
X164979Y90636D01*
X165564Y91221D01*
X165881Y91986D01*
Y92814D01*
X165564Y93579D01*
X164979Y94164D01*
X164214Y94481D01*
D02*
G37*
G36*
X205814Y91681D02*
X204986D01*
X204221Y91364D01*
X203636Y90779D01*
X203319Y90014D01*
Y89186D01*
X203636Y88421D01*
X204221Y87836D01*
X204986Y87519D01*
X205814D01*
X206579Y87836D01*
X207164Y88421D01*
X207481Y89186D01*
Y90014D01*
X207164Y90779D01*
X206579Y91364D01*
X205814Y91681D01*
D02*
G37*
G36*
X164414Y79481D02*
X163586D01*
X162821Y79164D01*
X162236Y78579D01*
X161919Y77814D01*
Y76986D01*
X162236Y76221D01*
X162821Y75636D01*
X163586Y75319D01*
X164414D01*
X165179Y75636D01*
X165764Y76221D01*
X166081Y76986D01*
Y77814D01*
X165764Y78579D01*
X165179Y79164D01*
X164414Y79481D01*
D02*
G37*
G36*
X171814Y79281D02*
X170986D01*
X170221Y78964D01*
X169636Y78379D01*
X169319Y77614D01*
Y76786D01*
X169636Y76021D01*
X170221Y75436D01*
X170986Y75119D01*
X171814D01*
X172579Y75436D01*
X173164Y76021D01*
X173481Y76786D01*
Y77614D01*
X173164Y78379D01*
X172579Y78964D01*
X171814Y79281D01*
D02*
G37*
G36*
X172614Y71881D02*
X171786D01*
X171021Y71564D01*
X170436Y70979D01*
X170119Y70214D01*
Y69386D01*
X170436Y68621D01*
X171021Y68036D01*
X171786Y67719D01*
X172614D01*
X173379Y68036D01*
X173964Y68621D01*
X174281Y69386D01*
Y70214D01*
X173964Y70979D01*
X173379Y71564D01*
X172614Y71881D01*
D02*
G37*
G36*
X216614Y54081D02*
X215786D01*
X215021Y53764D01*
X214436Y53179D01*
X214119Y52414D01*
Y51586D01*
X214436Y50821D01*
X215021Y50236D01*
X215786Y49919D01*
X216614D01*
X217379Y50236D01*
X217964Y50821D01*
X218281Y51586D01*
Y52414D01*
X217964Y53179D01*
X217379Y53764D01*
X216614Y54081D01*
D02*
G37*
G36*
X172014D02*
X171186D01*
X170421Y53764D01*
X169836Y53179D01*
X169519Y52414D01*
Y51586D01*
X169836Y50821D01*
X170421Y50236D01*
X171186Y49919D01*
X172014D01*
X172779Y50236D01*
X173364Y50821D01*
X173681Y51586D01*
Y52414D01*
X173364Y53179D01*
X172779Y53764D01*
X172014Y54081D01*
D02*
G37*
G36*
X239014Y53081D02*
X238186D01*
X237421Y52764D01*
X236836Y52179D01*
X236519Y51414D01*
Y50586D01*
X236836Y49821D01*
X237421Y49236D01*
X238186Y48919D01*
X239014D01*
X239779Y49236D01*
X240364Y49821D01*
X240681Y50586D01*
Y51414D01*
X240364Y52179D01*
X239779Y52764D01*
X239014Y53081D01*
D02*
G37*
G36*
X233481D02*
X232653D01*
X231888Y52764D01*
X231302Y52179D01*
X230986Y51414D01*
Y50586D01*
X231302Y49821D01*
X231888Y49236D01*
X232653Y48919D01*
X233481D01*
X234245Y49236D01*
X234831Y49821D01*
X235148Y50586D01*
Y51414D01*
X234831Y52179D01*
X234245Y52764D01*
X233481Y53081D01*
D02*
G37*
G36*
X227947D02*
X227119D01*
X226355Y52764D01*
X225769Y52179D01*
X225452Y51414D01*
Y50586D01*
X225769Y49821D01*
X226355Y49236D01*
X227119Y48919D01*
X227947D01*
X228712Y49236D01*
X229298Y49821D01*
X229614Y50586D01*
Y51414D01*
X229298Y52179D01*
X228712Y52764D01*
X227947Y53081D01*
D02*
G37*
G36*
X222414D02*
X221586D01*
X220821Y52764D01*
X220236Y52179D01*
X219919Y51414D01*
Y50586D01*
X220236Y49821D01*
X220821Y49236D01*
X221586Y48919D01*
X222414D01*
X223179Y49236D01*
X223764Y49821D01*
X224081Y50586D01*
Y51414D01*
X223764Y52179D01*
X223179Y52764D01*
X222414Y53081D01*
D02*
G37*
G36*
X252065Y52514D02*
X243179D01*
Y44415D01*
X252065D01*
Y52514D01*
D02*
G37*
G36*
X185136D02*
X176250D01*
Y44415D01*
X185136D01*
Y52514D01*
D02*
G37*
G36*
X122606Y46569D02*
X121488D01*
X120408Y46280D01*
X119440Y45721D01*
X118649Y44930D01*
X118090Y43962D01*
X117801Y42882D01*
Y41764D01*
X118090Y40684D01*
X118649Y39715D01*
X119440Y38925D01*
X120408Y38366D01*
X121488Y38076D01*
X122606D01*
X123686Y38366D01*
X124655Y38925D01*
X125445Y39715D01*
X126004Y40684D01*
X126294Y41764D01*
Y42882D01*
X126004Y43962D01*
X125445Y44930D01*
X124655Y45721D01*
X123686Y46280D01*
X122606Y46569D01*
D02*
G37*
G36*
X63551D02*
X62433D01*
X61353Y46280D01*
X60385Y45721D01*
X59594Y44930D01*
X59035Y43962D01*
X58746Y42882D01*
Y41764D01*
X59035Y40684D01*
X59594Y39715D01*
X60385Y38925D01*
X61353Y38366D01*
X62433Y38076D01*
X63551D01*
X64631Y38366D01*
X65600Y38925D01*
X66390Y39715D01*
X66949Y40684D01*
X67239Y41764D01*
Y42882D01*
X66949Y43962D01*
X66390Y44930D01*
X65600Y45721D01*
X64631Y46280D01*
X63551Y46569D01*
D02*
G37*
G36*
X274841Y45018D02*
X266742D01*
Y27470D01*
X274841D01*
Y45018D01*
D02*
G37*
G36*
X207912D02*
X199813D01*
Y27470D01*
X207912D01*
Y45018D01*
D02*
G37*
G36*
X260742Y27672D02*
X243195D01*
Y19572D01*
X260742D01*
Y27672D01*
D02*
G37*
G36*
X193813D02*
X176265D01*
Y19572D01*
X193813D01*
Y27672D01*
D02*
G37*
G36*
X122606Y24916D02*
X121488D01*
X120408Y24626D01*
X119440Y24067D01*
X118649Y23277D01*
X118090Y22308D01*
X117801Y21228D01*
Y20110D01*
X118090Y19030D01*
X118649Y18062D01*
X119440Y17271D01*
X120408Y16712D01*
X121488Y16423D01*
X122606D01*
X123686Y16712D01*
X124655Y17271D01*
X125445Y18062D01*
X126004Y19030D01*
X126294Y20110D01*
Y21228D01*
X126004Y22308D01*
X125445Y23277D01*
X124655Y24067D01*
X123686Y24626D01*
X122606Y24916D01*
D02*
G37*
G36*
X63551D02*
X62433D01*
X61353Y24626D01*
X60385Y24067D01*
X59594Y23277D01*
X59035Y22308D01*
X58746Y21228D01*
Y20110D01*
X59035Y19030D01*
X59594Y18062D01*
X60385Y17271D01*
X61353Y16712D01*
X62433Y16423D01*
X63551D01*
X64631Y16712D01*
X65600Y17271D01*
X66390Y18062D01*
X66949Y19030D01*
X67239Y20110D01*
Y21228D01*
X66949Y22308D01*
X66390Y23277D01*
X65600Y24067D01*
X64631Y24626D01*
X63551Y24916D01*
D02*
G37*
%LPD*%
G36*
X170906Y245574D02*
X170986Y245527D01*
X171082Y245486D01*
X171195Y245450D01*
X171325Y245419D01*
X171472Y245394D01*
X171815Y245361D01*
X172012Y245353D01*
X172226Y245350D01*
Y244250D01*
X172012Y244247D01*
X171472Y244206D01*
X171325Y244181D01*
X171195Y244150D01*
X171082Y244114D01*
X170986Y244073D01*
X170906Y244026D01*
X170844Y243973D01*
Y245627D01*
X170906Y245574D01*
D02*
G37*
G36*
X258168Y202214D02*
X258580Y201861D01*
X258701Y201775D01*
X258814Y201704D01*
X258920Y201650D01*
X259017Y201611D01*
X259107Y201588D01*
X259188Y201581D01*
X258019Y200412D01*
X258012Y200493D01*
X257989Y200583D01*
X257950Y200680D01*
X257896Y200786D01*
X257825Y200899D01*
X257739Y201020D01*
X257520Y201287D01*
X257386Y201432D01*
X257237Y201585D01*
X258015Y202363D01*
X258168Y202214D01*
D02*
G37*
G36*
X187506Y251974D02*
X187586Y251927D01*
X187682Y251886D01*
X187795Y251850D01*
X187925Y251819D01*
X188072Y251794D01*
X188415Y251761D01*
X188612Y251753D01*
X188826Y251750D01*
Y250650D01*
X188612Y250647D01*
X188072Y250606D01*
X187925Y250581D01*
X187795Y250550D01*
X187682Y250514D01*
X187586Y250473D01*
X187506Y250426D01*
X187443Y250373D01*
Y252027D01*
X187506Y251974D01*
D02*
G37*
G36*
X259753Y212412D02*
X259794Y211872D01*
X259819Y211725D01*
X259850Y211595D01*
X259886Y211482D01*
X259927Y211386D01*
X259974Y211306D01*
X260027Y211244D01*
X258373D01*
X258426Y211306D01*
X258473Y211386D01*
X258514Y211482D01*
X258550Y211595D01*
X258581Y211725D01*
X258606Y211872D01*
X258639Y212215D01*
X258647Y212412D01*
X258650Y212626D01*
X259750D01*
X259753Y212412D01*
D02*
G37*
G36*
X161506Y236574D02*
X161586Y236527D01*
X161682Y236486D01*
X161795Y236450D01*
X161925Y236419D01*
X162072Y236394D01*
X162415Y236361D01*
X162612Y236353D01*
X162826Y236350D01*
Y235250D01*
X162612Y235247D01*
X162072Y235206D01*
X161925Y235181D01*
X161795Y235150D01*
X161682Y235114D01*
X161586Y235073D01*
X161506Y235026D01*
X161443Y234973D01*
Y236627D01*
X161506Y236574D01*
D02*
G37*
G36*
X217568Y205814D02*
X217980Y205461D01*
X218101Y205375D01*
X218214Y205304D01*
X218320Y205250D01*
X218417Y205211D01*
X218507Y205188D01*
X218588Y205181D01*
X217419Y204012D01*
X217412Y204093D01*
X217389Y204183D01*
X217350Y204280D01*
X217296Y204386D01*
X217225Y204499D01*
X217139Y204620D01*
X216920Y204887D01*
X216786Y205032D01*
X216637Y205185D01*
X217415Y205963D01*
X217568Y205814D01*
D02*
G37*
G36*
X166906Y241174D02*
X166986Y241127D01*
X167082Y241086D01*
X167195Y241050D01*
X167325Y241019D01*
X167472Y240994D01*
X167815Y240961D01*
X168012Y240953D01*
X168226Y240950D01*
Y239850D01*
X168012Y239847D01*
X167472Y239806D01*
X167325Y239781D01*
X167195Y239750D01*
X167082Y239714D01*
X166986Y239673D01*
X166906Y239626D01*
X166843Y239573D01*
Y241227D01*
X166906Y241174D01*
D02*
G37*
G36*
X258168Y192214D02*
X258580Y191861D01*
X258701Y191775D01*
X258814Y191704D01*
X258920Y191650D01*
X259017Y191611D01*
X259107Y191588D01*
X259188Y191581D01*
X258019Y190412D01*
X258012Y190493D01*
X257989Y190583D01*
X257950Y190680D01*
X257896Y190786D01*
X257825Y190899D01*
X257739Y191020D01*
X257520Y191287D01*
X257386Y191432D01*
X257237Y191585D01*
X258015Y192363D01*
X258168Y192214D01*
D02*
G37*
G36*
X241374Y215694D02*
X241327Y215614D01*
X241286Y215518D01*
X241250Y215405D01*
X241219Y215275D01*
X241194Y215128D01*
X241161Y214785D01*
X241153Y214588D01*
X241150Y214374D01*
X240050D01*
X240047Y214588D01*
X240006Y215128D01*
X239981Y215275D01*
X239950Y215405D01*
X239914Y215518D01*
X239873Y215614D01*
X239826Y215694D01*
X239773Y215757D01*
X241427D01*
X241374Y215694D01*
D02*
G37*
G36*
X233163Y187785D02*
X233014Y187632D01*
X232661Y187220D01*
X232575Y187099D01*
X232504Y186986D01*
X232450Y186880D01*
X232411Y186783D01*
X232388Y186693D01*
X232381Y186612D01*
X231212Y187781D01*
X231293Y187788D01*
X231383Y187811D01*
X231480Y187850D01*
X231586Y187904D01*
X231699Y187975D01*
X231820Y188061D01*
X232087Y188280D01*
X232232Y188414D01*
X232385Y188563D01*
X233163Y187785D01*
D02*
G37*
%LPC*%
G36*
X307414Y280481D02*
X306586D01*
X305821Y280164D01*
X305236Y279579D01*
X304919Y278814D01*
Y277986D01*
X305236Y277221D01*
X305821Y276636D01*
X306586Y276319D01*
X307414D01*
X308179Y276636D01*
X308764Y277221D01*
X309081Y277986D01*
Y278814D01*
X308764Y279579D01*
X308179Y280164D01*
X307414Y280481D01*
D02*
G37*
G36*
X327153Y261504D02*
Y258363D01*
X330294D01*
X330086Y259138D01*
X329566Y260040D01*
X328830Y260776D01*
X327929Y261296D01*
X327153Y261504D01*
D02*
G37*
G36*
X325653D02*
X324877Y261296D01*
X323976Y260776D01*
X323240Y260040D01*
X322720Y259138D01*
X322512Y258363D01*
X325653D01*
Y261504D01*
D02*
G37*
G36*
X341052Y261466D02*
X340038D01*
X339058Y261203D01*
X338179Y260696D01*
X337462Y259979D01*
X336955Y259100D01*
X336692Y258120D01*
Y257106D01*
X336955Y256126D01*
X337462Y255247D01*
X338179Y254530D01*
X339058Y254023D01*
X340038Y253760D01*
X341052D01*
X342032Y254023D01*
X342911Y254530D01*
X343628Y255247D01*
X344135Y256126D01*
X344398Y257106D01*
Y258120D01*
X344135Y259100D01*
X343628Y259979D01*
X342911Y260696D01*
X342032Y261203D01*
X341052Y261466D01*
D02*
G37*
G36*
X330294Y256863D02*
X327153D01*
Y253722D01*
X327929Y253929D01*
X328830Y254450D01*
X329566Y255186D01*
X330086Y256087D01*
X330294Y256863D01*
D02*
G37*
G36*
X325653D02*
X322512D01*
X322720Y256087D01*
X323240Y255186D01*
X323976Y254450D01*
X324877Y253929D01*
X325653Y253722D01*
Y256863D01*
D02*
G37*
G36*
X305869Y273574D02*
X300132D01*
Y268168D01*
X300132Y267837D01*
X300132Y267337D01*
Y262263D01*
X300132Y261931D01*
X300132Y261432D01*
Y256358D01*
X300132Y256026D01*
X300132Y255526D01*
Y250511D01*
X300031Y250052D01*
X300031Y249662D01*
Y247833D01*
X303000D01*
X305968D01*
Y249662D01*
X305968Y250052D01*
X305869Y250511D01*
Y255526D01*
X305869Y255857D01*
X305869Y256358D01*
Y261432D01*
X305869Y261763D01*
X305869Y262263D01*
Y267337D01*
X305869Y267669D01*
X305869Y268168D01*
Y273574D01*
D02*
G37*
G36*
X320350Y243650D02*
Y242350D01*
X321650D01*
X321449Y242835D01*
X320835Y243449D01*
X320350Y243650D01*
D02*
G37*
G36*
X318850D02*
X318365Y243449D01*
X317751Y242835D01*
X317550Y242350D01*
X318850D01*
Y243650D01*
D02*
G37*
G36*
X341052Y247324D02*
X340038D01*
X339058Y247061D01*
X338179Y246554D01*
X337462Y245837D01*
X336955Y244958D01*
X336692Y243978D01*
Y242964D01*
X336955Y241984D01*
X337462Y241105D01*
X338179Y240388D01*
X339058Y239881D01*
X340038Y239618D01*
X341052D01*
X342032Y239881D01*
X342911Y240388D01*
X343628Y241105D01*
X344135Y241984D01*
X344398Y242964D01*
Y243978D01*
X344135Y244958D01*
X343628Y245837D01*
X342911Y246554D01*
X342032Y247061D01*
X341052Y247324D01*
D02*
G37*
G36*
X321650Y240850D02*
X320350D01*
Y239550D01*
X320835Y239751D01*
X321449Y240365D01*
X321650Y240850D01*
D02*
G37*
G36*
X318850D02*
X317550D01*
X317751Y240365D01*
X318365Y239751D01*
X318850Y239550D01*
Y240850D01*
D02*
G37*
G36*
X305968Y246333D02*
X303000D01*
X300031D01*
Y244505D01*
X300031Y244115D01*
X300132Y243656D01*
Y238310D01*
X305869D01*
Y243656D01*
X305968Y244115D01*
X305968Y244505D01*
Y246333D01*
D02*
G37*
G36*
X318814Y261281D02*
X317986D01*
X317221Y260964D01*
X316636Y260379D01*
X316319Y259614D01*
Y258786D01*
X316636Y258021D01*
X316871Y257786D01*
Y250400D01*
X316987Y249815D01*
X317319Y249319D01*
X322471Y244166D01*
Y237414D01*
X322236Y237179D01*
X321919Y236414D01*
Y235586D01*
X322236Y234821D01*
X322821Y234236D01*
X323586Y233919D01*
X324414D01*
X325179Y234236D01*
X325764Y234821D01*
X326081Y235586D01*
Y236414D01*
X325764Y237179D01*
X325529Y237414D01*
Y244800D01*
X325413Y245385D01*
X325081Y245881D01*
X319929Y251033D01*
Y257786D01*
X320164Y258021D01*
X320481Y258786D01*
Y259614D01*
X320164Y260379D01*
X319579Y260964D01*
X318814Y261281D01*
D02*
G37*
G36*
X317353Y237475D02*
X316525D01*
X315760Y237158D01*
X315174Y236573D01*
X314858Y235808D01*
Y234980D01*
X315174Y234215D01*
X315760Y233629D01*
X316525Y233313D01*
X317353D01*
X318117Y233629D01*
X318703Y234215D01*
X319020Y234980D01*
Y235808D01*
X318703Y236573D01*
X318117Y237158D01*
X317353Y237475D01*
D02*
G37*
G36*
X390908Y230443D02*
X390080D01*
X389316Y230126D01*
X388730Y229540D01*
X388413Y228776D01*
Y227948D01*
X388730Y227183D01*
X389316Y226597D01*
X390080Y226280D01*
X390908D01*
X391673Y226597D01*
X392259Y227183D01*
X392576Y227948D01*
Y228776D01*
X392259Y229540D01*
X391673Y230126D01*
X390908Y230443D01*
D02*
G37*
G36*
X372950Y218850D02*
Y217550D01*
X374250D01*
X374049Y218036D01*
X373435Y218649D01*
X372950Y218850D01*
D02*
G37*
G36*
X371450D02*
X370965Y218649D01*
X370351Y218036D01*
X370150Y217550D01*
X371450D01*
Y218850D01*
D02*
G37*
G36*
X374250Y216050D02*
X372950D01*
Y214750D01*
X373435Y214951D01*
X374049Y215564D01*
X374250Y216050D01*
D02*
G37*
G36*
X371450D02*
X370150D01*
X370351Y215564D01*
X370965Y214951D01*
X371450Y214750D01*
Y216050D01*
D02*
G37*
G36*
X367414Y218881D02*
X366586D01*
X365821Y218564D01*
X365236Y217979D01*
X364919Y217214D01*
Y216386D01*
X365236Y215621D01*
X365821Y215036D01*
X366586Y214719D01*
X367414D01*
X368179Y215036D01*
X368764Y215621D01*
X369081Y216386D01*
Y217214D01*
X368764Y217979D01*
X368179Y218564D01*
X367414Y218881D01*
D02*
G37*
%LPD*%
G36*
X319184Y258303D02*
X319145Y258231D01*
X319111Y258141D01*
X319082Y258033D01*
X319057Y257907D01*
X319036Y257762D01*
X319009Y257418D01*
X319000Y257001D01*
X317800D01*
X317798Y257219D01*
X317743Y257907D01*
X317718Y258033D01*
X317689Y258141D01*
X317655Y258231D01*
X317616Y258303D01*
X317573Y258356D01*
X319227D01*
X319184Y258303D01*
D02*
G37*
G36*
X324602Y237981D02*
X324657Y237293D01*
X324682Y237167D01*
X324711Y237059D01*
X324745Y236969D01*
X324784Y236897D01*
X324827Y236843D01*
X323173D01*
X323216Y236897D01*
X323255Y236969D01*
X323289Y237059D01*
X323318Y237167D01*
X323343Y237293D01*
X323364Y237438D01*
X323391Y237782D01*
X323400Y238198D01*
X324600D01*
X324602Y237981D01*
D02*
G37*
D112*
X326403Y257613D02*
D03*
X340545Y243471D02*
D03*
Y257613D02*
D03*
D158*
X47244Y31496D02*
X108019D01*
X40500Y38240D02*
Y182100D01*
Y38240D02*
X47244Y31496D01*
X23425Y41299D02*
X23622Y41102D01*
X23425Y41299D02*
Y62795D01*
X23228Y62992D02*
X23425Y62795D01*
X28465Y193740D02*
X35472Y200748D01*
X19094Y193740D02*
X28465D01*
X19094D02*
X19240Y193595D01*
X34059Y265709D02*
X40229Y259539D01*
X19094Y265709D02*
X34059D01*
X50740Y259539D02*
X61901Y248378D01*
X62472D02*
X64393Y246457D01*
X40229Y259539D02*
X50740D01*
X64393Y246457D02*
X65433D01*
X61901Y248378D02*
X62472D01*
X40500Y182100D02*
X51600Y193200D01*
Y211000D01*
X64800Y224200D02*
X82020D01*
X51600Y211000D02*
X64800Y224200D01*
X82020D02*
X84976Y221244D01*
D161*
X225000Y251200D02*
X259200Y217000D01*
X186600Y251200D02*
X225000D01*
X259200Y210400D02*
Y217000D01*
X198871Y246000D02*
X223200D01*
X254800Y204800D02*
Y214400D01*
X223200Y246000D02*
X254800Y214400D01*
X166000Y240400D02*
X222600D01*
X251200Y198400D02*
Y211800D01*
X222600Y240400D02*
X251200Y211800D01*
X170000Y244800D02*
X197671D01*
X198871Y246000D01*
X251200Y198400D02*
X259200Y190400D01*
X254800Y204800D02*
X259200Y200400D01*
X231200Y186600D02*
X240600Y196000D01*
Y216600D01*
X160600Y235800D02*
X186800D01*
X218600Y204000D01*
D162*
X318400Y250400D02*
X324000Y244800D01*
Y236000D02*
Y244800D01*
X318400Y250400D02*
Y259200D01*
D163*
X165400Y55600D02*
X190600Y80800D01*
Y114500D01*
X144400Y55600D02*
X165400D01*
X186416Y118684D02*
X190600Y114500D01*
X186416Y118684D02*
Y125984D01*
D164*
X149200Y248400D02*
X150804D01*
X151665Y249261D01*
Y251501D02*
X165249Y265085D01*
X151665Y249261D02*
Y251501D01*
X165249Y265085D02*
X172178D01*
X184015Y276922D01*
X182600Y279000D02*
X183154D01*
X184015Y276922D02*
Y278139D01*
X183154Y279000D02*
X184015Y278139D01*
X154135Y249261D02*
X154996Y248400D01*
X154135Y249261D02*
Y250479D01*
X154996Y248400D02*
X156600D01*
X154135Y250479D02*
X166271Y262615D01*
X173201D01*
X186485Y275899D01*
Y278139D02*
X187346Y279000D01*
X186485Y275899D02*
Y278139D01*
X187346Y279000D02*
X187900D01*
D167*
X203862Y36244D02*
D03*
X270791D02*
D03*
D168*
X185039Y23622D02*
D03*
X251969D02*
D03*
D169*
X180693Y48465D02*
D03*
X247622D02*
D03*
D170*
X122047Y42323D02*
D03*
Y20669D02*
D03*
X62992D02*
D03*
Y42323D02*
D03*
D171*
X23622Y41142D02*
D03*
Y21063D02*
D03*
X19094Y265748D02*
D03*
Y245669D02*
D03*
Y213779D02*
D03*
Y193701D02*
D03*
D172*
X23228Y62992D02*
D03*
X23622Y173228D02*
D03*
X173425Y177953D02*
D03*
X193110D02*
D03*
D173*
X279200Y235400D02*
D03*
Y241305D02*
D03*
Y247211D02*
D03*
Y253116D02*
D03*
Y259022D02*
D03*
Y264928D02*
D03*
X303000Y270706D02*
D03*
Y264800D02*
D03*
Y258894D02*
D03*
Y252989D02*
D03*
Y247083D02*
D03*
Y241178D02*
D03*
D174*
X262468Y276712D02*
D03*
X250657D02*
D03*
D175*
X35433Y246457D02*
D03*
X65433D02*
D03*
X105433D02*
D03*
Y276457D02*
D03*
X45433D02*
D03*
X35472Y200748D02*
D03*
X65472D02*
D03*
X105472D02*
D03*
Y230748D02*
D03*
X45472D02*
D03*
D176*
X141732Y106299D02*
D03*
Y145669D02*
D03*
X62992Y86614D02*
D03*
Y165354D02*
D03*
D177*
X108019Y31496D02*
D03*
X172200Y69800D02*
D03*
X238000Y243000D02*
D03*
X210400Y160200D02*
D03*
X185000Y114000D02*
D03*
X390494Y228362D02*
D03*
X144400Y55600D02*
D03*
X186416Y125984D02*
D03*
X342400Y270400D02*
D03*
X185600Y188800D02*
D03*
X307000Y278400D02*
D03*
X316939Y235394D02*
D03*
X324000Y236000D02*
D03*
X139600Y256200D02*
D03*
X318400Y259200D02*
D03*
X367000Y216800D02*
D03*
X169200Y92400D02*
D03*
X163800D02*
D03*
X171400Y77200D02*
D03*
X164000Y77400D02*
D03*
X372200Y216800D02*
D03*
X319600Y241600D02*
D03*
X115400Y219800D02*
D03*
X179400Y97600D02*
D03*
Y103200D02*
D03*
Y108600D02*
D03*
X185000D02*
D03*
X238600Y51000D02*
D03*
X233067D02*
D03*
X229400Y266200D02*
D03*
X253200Y227600D02*
D03*
X170000Y244800D02*
D03*
X200000Y199000D02*
D03*
X171800Y253000D02*
D03*
X169200Y211200D02*
D03*
X222000Y51000D02*
D03*
X227533D02*
D03*
X216200Y52000D02*
D03*
X149200Y248400D02*
D03*
X182600Y279000D02*
D03*
X156600Y248400D02*
D03*
X187900Y279000D02*
D03*
X259200Y190400D02*
D03*
X166000Y240400D02*
D03*
X259200Y200400D02*
D03*
Y210400D02*
D03*
X186600Y251200D02*
D03*
X240600Y216600D02*
D03*
X231200Y186600D02*
D03*
X159600Y51000D02*
D03*
X171600Y52000D02*
D03*
X191200Y120000D02*
D03*
X210200Y146800D02*
D03*
X160600Y235800D02*
D03*
X218600Y204000D02*
D03*
X168200Y271400D02*
D03*
X205400Y89600D02*
D03*
X193600Y132600D02*
D03*
X115600Y251600D02*
D03*
X152900Y257345D02*
D03*
M02*
