G04*
G04 #@! TF.GenerationSoftware,Altium Limited,Altium Designer,21.7.1 (17)*
G04*
G04 Layer_Color=65535*
%FSLAX25Y25*%
%MOIN*%
G70*
G04*
G04 #@! TF.SameCoordinates,891A90FC-BE59-465C-B327-3CD4912ABD0C*
G04*
G04*
G04 #@! TF.FilePolarity,Positive*
G04*
G01*
G75*
%ADD10C,0.03937*%
%ADD11C,0.01968*%
%ADD12C,0.00394*%
%ADD13C,0.03543*%
%ADD14C,0.01575*%
%ADD15C,0.02362*%
%ADD16C,0.01181*%
%ADD17C,0.01000*%
%ADD18C,0.03150*%
%ADD19C,0.00787*%
%ADD20C,0.00500*%
%ADD21C,0.00400*%
%ADD22C,0.00800*%
%ADD23C,0.00300*%
%ADD24R,0.04724X0.02362*%
D10*
X210602Y55539D02*
G03*
X210602Y55539I-1969J0D01*
G01*
X277532D02*
G03*
X277532Y55539I-1969J0D01*
G01*
D11*
X122638Y55315D02*
G03*
X122638Y55315I-984J0D01*
G01*
X249449Y224849D02*
G03*
X249449Y224849I-984J0D01*
G01*
X63583Y55315D02*
G03*
X63583Y55315I-984J0D01*
G01*
D12*
X149016Y31496D02*
G03*
X149016Y31496I-26969J0D01*
G01*
X336209Y232241D02*
G03*
X330739Y232241I-2735J18301D01*
G01*
X336209D02*
G03*
X330739Y232241I-2735J18301D01*
G01*
X346057Y244424D02*
G03*
X345663Y244817I-394J0D01*
G01*
Y242062D02*
G03*
X346057Y242455I0J394D01*
G01*
X89961Y31496D02*
G03*
X89961Y31496I-26969J0D01*
G01*
X207677Y177953D02*
G03*
X207677Y177953I-24409J0D01*
G01*
X192520Y139370D02*
G03*
X192520Y133071I0J-3150D01*
G01*
X162992Y38976D02*
Y44488D01*
X147244D02*
X162992D01*
X147244Y38976D02*
Y44488D01*
Y38976D02*
X162992D01*
X148425Y41732D02*
X150394D01*
X149452Y42795D02*
X149495Y40649D01*
X161024Y40945D02*
Y42520D01*
X154697Y-6272D02*
Y61839D01*
X215327D01*
X154697Y-6272D02*
X215327D01*
Y61839D01*
X212205Y170640D02*
X283071D01*
Y70118D02*
Y170640D01*
X212205Y70118D02*
X283071D01*
X212205D02*
Y170640D01*
X334943Y228066D02*
X335408D01*
X331540D02*
X335049D01*
X330718Y228888D02*
X331540Y228066D01*
X336230Y231250D02*
Y232038D01*
Y228888D02*
Y229676D01*
Y231250D01*
X330718Y228888D02*
Y232040D01*
X335408Y228066D02*
X336230Y228888D01*
X334943Y228066D02*
X335408D01*
X331540D02*
X335049D01*
X330718Y228888D02*
X331540Y228066D01*
X336230Y231250D02*
Y232038D01*
Y228888D02*
Y229676D01*
Y231250D01*
X330718Y228888D02*
Y232040D01*
X335408Y228066D02*
X336230Y228888D01*
X346057Y242455D02*
Y244424D01*
X344482Y244817D02*
X345663D01*
X344482Y242062D02*
Y244817D01*
X346057Y242455D02*
Y244424D01*
X344482Y242062D02*
X345663D01*
X344482D02*
Y244817D01*
X344088Y256432D02*
X345663D01*
Y257613D01*
X344088D02*
X345663D01*
X344088D02*
Y258794D01*
X345663D01*
X330758Y257613D02*
X331490D01*
Y256432D02*
Y257613D01*
X329915Y256432D02*
X331490D01*
X329915D02*
Y258794D01*
X331490D01*
X282256Y-6272D02*
Y61839D01*
X221626Y-6272D02*
X282256D01*
X221626Y61839D02*
X282256D01*
X221626Y-6272D02*
Y61839D01*
X295276Y173983D02*
Y227093D01*
X245669Y173983D02*
X295276D01*
X245669Y227093D02*
X295276D01*
X245669Y173983D02*
Y227093D01*
X206496Y37008D02*
X233268D01*
Y58268D01*
X227756Y63779D02*
X233268Y58268D01*
X212008Y63779D02*
X227756D01*
X206496Y58268D02*
X212008Y63779D01*
X206496Y37008D02*
Y58268D01*
X355669Y226160D02*
X364331D01*
X355669Y220664D02*
Y226160D01*
X364331Y220664D02*
Y226160D01*
X355669Y220664D02*
X364331D01*
X326469Y276044D02*
X335131D01*
Y281556D01*
X326469Y276044D02*
Y281556D01*
X335131D01*
X32026Y7480D02*
Y54724D01*
X-16267Y7480D02*
X32026D01*
X-16267Y54724D02*
X32026D01*
X-16267Y7480D02*
Y54724D01*
X27499Y232087D02*
Y279331D01*
X-20795Y232087D02*
X27499D01*
X-20795Y279331D02*
X27499D01*
X-20795Y232087D02*
Y279331D01*
X27499Y180118D02*
Y227362D01*
X-20795Y180118D02*
X27499D01*
X-20795Y227362D02*
X27499D01*
X-20795Y180118D02*
Y227362D01*
X4331Y74410D02*
X42913D01*
Y161811D01*
X4331D02*
X42913D01*
X4331Y74410D02*
Y161811D01*
X135479Y266742D02*
X167762D01*
X135479D02*
Y288002D01*
X167762D01*
Y266742D02*
Y288002D01*
X273688Y228904D02*
X288255D01*
Y271424D01*
X275657D02*
X288255D01*
X273688Y269455D02*
X275657Y271424D01*
X273688Y228904D02*
Y269455D01*
X293945Y277202D02*
X308512D01*
X293945Y234682D02*
Y277202D01*
Y234682D02*
X306543D01*
X308512Y236650D01*
Y277202D01*
X154724Y44882D02*
Y58268D01*
X147638Y44882D02*
X154724D01*
X147638D02*
Y58268D01*
X154724D01*
X209480Y60376D02*
Y82424D01*
X194520D02*
X209480D01*
X194520Y60376D02*
Y82424D01*
Y60376D02*
X209480D01*
X194913Y78880D02*
X209480D01*
X159199Y244635D02*
Y252509D01*
X146601D02*
X159199D01*
X148569Y244635D02*
X159199D01*
X146601Y246604D02*
X148569Y244635D01*
X146601Y246604D02*
Y252509D01*
X310033Y261471D02*
Y281711D01*
Y261471D02*
X317907D01*
X310033Y281711D02*
X317907D01*
Y261471D02*
Y281711D01*
X124475Y254683D02*
X129203D01*
X124475D02*
Y265419D01*
X129203D01*
Y254683D02*
Y265419D01*
X124181Y265954D02*
Y270683D01*
X134918D01*
Y265954D02*
Y270683D01*
X124181Y265954D02*
X134918D01*
X136966Y206834D02*
Y211562D01*
X126230Y206834D02*
X136966D01*
X126230D02*
Y211562D01*
X136966D01*
X121238Y208566D02*
X125966D01*
Y197830D02*
Y208566D01*
X121238Y197830D02*
X125966D01*
X121238D02*
Y208566D01*
X204331Y201823D02*
X209059D01*
Y191087D02*
Y201823D01*
X204331Y191087D02*
X209059D01*
X204331D02*
Y201823D01*
X136966Y211834D02*
Y216562D01*
X126230Y211834D02*
X136966D01*
X126230D02*
Y216562D01*
X136966D01*
X153634Y224338D02*
Y229066D01*
X164370D01*
Y224338D02*
Y229066D01*
X153634Y224338D02*
X164370D01*
X144534Y216038D02*
Y220766D01*
X155270D01*
Y216038D02*
Y220766D01*
X144534Y216038D02*
X155270D01*
X201438Y262166D02*
X206166D01*
Y251430D02*
Y262166D01*
X201438Y251430D02*
X206166D01*
X201438D02*
Y262166D01*
X194838Y278566D02*
X199566D01*
Y267830D02*
Y278566D01*
X194838Y267830D02*
X199566D01*
X194838D02*
Y278566D01*
X208638Y252566D02*
X213366D01*
Y241830D02*
Y252566D01*
X208638Y241830D02*
X213366D01*
X208638D02*
Y252566D01*
X201438Y273766D02*
X206166D01*
Y263030D02*
Y273766D01*
X201438Y263030D02*
X206166D01*
X201438D02*
Y273766D01*
X185538Y277266D02*
X190266D01*
Y266530D02*
Y277266D01*
X185538Y266530D02*
X190266D01*
X185538D02*
Y277266D01*
X180238D02*
X184966D01*
Y266530D02*
Y277266D01*
X180238Y266530D02*
X184966D01*
X180238D02*
Y277266D01*
X216234Y188834D02*
X220962D01*
X216234D02*
Y199570D01*
X220962D01*
Y188834D02*
Y199570D01*
X255381Y261571D02*
Y266299D01*
X244645Y261571D02*
X255381D01*
X244645D02*
Y266299D01*
X255381D01*
X226638Y205166D02*
X231366D01*
Y194430D02*
Y205166D01*
X226638Y194430D02*
X231366D01*
X226638D02*
Y205166D01*
X217234Y215438D02*
Y220166D01*
X227970D01*
Y215438D02*
Y220166D01*
X217234Y215438D02*
X227970D01*
X235966Y222234D02*
Y226962D01*
X225230Y222234D02*
X235966D01*
X225230D02*
Y226962D01*
X235966D01*
X219933Y171650D02*
Y176378D01*
X209197Y171650D02*
X219933D01*
X209197D02*
Y176378D01*
X219933D01*
X273466Y261634D02*
Y266362D01*
X262730Y261634D02*
X273466D01*
X262730D02*
Y266362D01*
X273466D01*
X382614Y258406D02*
Y263134D01*
X371878Y258406D02*
X382614D01*
X371878D02*
Y263134D01*
X382614D01*
X353340Y272625D02*
X358069D01*
Y261888D02*
Y272625D01*
X353340Y261888D02*
X358069D01*
X353340D02*
Y272625D01*
X309838Y261166D02*
X314566D01*
Y250430D02*
Y261166D01*
X309838Y250430D02*
X314566D01*
X309838D02*
Y261166D01*
X383506Y268046D02*
Y272774D01*
X394242D01*
Y268046D02*
Y272774D01*
X383506Y268046D02*
X394242D01*
X394287Y262924D02*
Y267652D01*
X383551Y262924D02*
X394287D01*
X383551D02*
Y267652D01*
X394287D01*
X366634Y258333D02*
X371362D01*
X366634D02*
Y269070D01*
X371362D01*
Y258333D02*
Y269070D01*
X323866Y216034D02*
Y220762D01*
X313130Y216034D02*
X323866D01*
X313130D02*
Y220762D01*
X323866D01*
X330906Y226955D02*
X335634D01*
Y216219D02*
Y226955D01*
X330906Y216219D02*
X335634D01*
X330906D02*
Y226955D01*
X325756D02*
X330485D01*
Y216219D02*
Y226955D01*
X325756Y216219D02*
X330485D01*
X325756D02*
Y226955D01*
X367838Y229766D02*
X372566D01*
Y219030D02*
Y229766D01*
X367838Y219030D02*
X372566D01*
X367838D02*
Y229766D01*
X384834Y216434D02*
X389562D01*
X384834D02*
Y227170D01*
X389562D01*
Y216434D02*
Y227170D01*
X364759Y215473D02*
Y220201D01*
X354023Y215473D02*
X364759D01*
X354023D02*
Y220201D01*
X364759D01*
X374438Y227166D02*
X379166D01*
Y216430D02*
Y227166D01*
X374438Y216430D02*
X379166D01*
X374438D02*
Y227166D01*
X338431Y270207D02*
Y274936D01*
X327695Y270207D02*
X338431D01*
X327695D02*
Y274936D01*
X338431D01*
X319088Y281680D02*
X323817D01*
Y270943D02*
Y281680D01*
X319088Y270943D02*
X323817D01*
X319088D02*
Y281680D01*
X393238Y256166D02*
X397966D01*
Y245430D02*
Y256166D01*
X393238Y245430D02*
X397966D01*
X393238D02*
Y256166D01*
X180709Y81299D02*
X193307D01*
Y68701D02*
Y81299D01*
X180709Y68701D02*
X193307D01*
X180709D02*
Y81299D01*
X240815Y287637D02*
X272311D01*
Y267558D02*
Y287637D01*
X240815Y267558D02*
X272311D01*
X240815D02*
Y287637D01*
X168898Y127559D02*
X169685Y126772D01*
Y125197D02*
Y126772D01*
Y125197D02*
X170472Y124409D01*
X168504Y148031D02*
X169291Y147244D01*
Y145669D02*
Y147244D01*
Y145669D02*
X170079Y144882D01*
X187008Y125591D02*
X190551D01*
X188976Y123622D02*
Y127559D01*
Y144488D02*
Y148425D01*
X167323Y119291D02*
X192520D01*
X167323Y153150D02*
X192520D01*
X167323Y119291D02*
Y153150D01*
X192520Y119291D02*
Y133071D01*
Y139370D02*
Y153150D01*
X352878Y281629D02*
X373122D01*
X352878Y272967D02*
Y281629D01*
X373122Y272967D02*
Y281629D01*
X352878Y272967D02*
X373122D01*
X373927D02*
X394171D01*
Y281629D01*
X373927Y272967D02*
Y281629D01*
X394171D01*
X196462Y104134D02*
X202358D01*
X196462Y91535D02*
Y104134D01*
Y91535D02*
X202358D01*
Y104134D01*
X156701Y53853D02*
Y59749D01*
Y53853D02*
X169299D01*
Y59749D01*
X156701D02*
X169299D01*
X196461Y104528D02*
X202357D01*
Y117126D01*
X196461D02*
X202357D01*
X196461Y104528D02*
Y117126D01*
X202957Y104528D02*
X208853D01*
Y117126D01*
X202957D02*
X208853D01*
X202957Y104528D02*
Y117126D01*
X172053Y283699D02*
X177949D01*
X172053Y271101D02*
Y283699D01*
Y271101D02*
X177949D01*
Y283699D01*
X261421Y241520D02*
X267317D01*
X261421Y228921D02*
Y241520D01*
Y228921D02*
X267317D01*
Y241520D01*
X255122D02*
X261018D01*
X255122Y228921D02*
Y241520D01*
Y228921D02*
X261018D01*
Y241520D01*
X267453D02*
X273349D01*
X267453Y228921D02*
Y241520D01*
Y228921D02*
X273349D01*
Y241520D01*
X239139Y268254D02*
Y274150D01*
X226541D02*
X239139D01*
X226541Y268254D02*
Y274150D01*
Y268254D02*
X239139D01*
X127778Y242327D02*
Y248223D01*
X115180D02*
X127778D01*
X115180Y242327D02*
Y248223D01*
Y242327D02*
X127778D01*
X239139Y274750D02*
Y280646D01*
X226541D02*
X239139D01*
X226541Y274750D02*
Y280646D01*
Y274750D02*
X239139D01*
X210053Y201499D02*
X215949D01*
X210053Y188901D02*
Y201499D01*
Y188901D02*
X215949D01*
Y201499D01*
X222034Y250769D02*
X227930D01*
X222034Y238171D02*
Y250769D01*
Y238171D02*
X227930D01*
Y250769D01*
X215535D02*
X221431D01*
X215535Y238171D02*
Y250769D01*
Y238171D02*
X221431D01*
Y250769D01*
X228530D02*
X234426D01*
X228530Y238171D02*
Y250769D01*
Y238171D02*
X234426D01*
Y250769D01*
X173451Y204101D02*
X179347D01*
Y216699D01*
X173451D02*
X179347D01*
X173451Y204101D02*
Y216699D01*
X176653Y255639D02*
X182549D01*
X176653Y243041D02*
Y255639D01*
Y243041D02*
X182549D01*
Y255639D01*
X211199Y202751D02*
Y208647D01*
X198601D02*
X211199D01*
X198601Y202751D02*
Y208647D01*
Y202751D02*
X211199D01*
X202957Y120669D02*
X208853D01*
Y133268D01*
X202957D02*
X208853D01*
X202957Y120669D02*
Y133268D01*
X196462Y142323D02*
X202358D01*
X196462Y129724D02*
Y142323D01*
Y129724D02*
X202358D01*
Y142323D01*
X202958Y146260D02*
X208854D01*
X202958Y133661D02*
Y146260D01*
Y133661D02*
X208854D01*
Y146260D01*
X349206Y215884D02*
Y221780D01*
X336608D02*
X349206D01*
X336608Y215884D02*
Y221780D01*
Y215884D02*
X349206D01*
Y222666D02*
Y228562D01*
X336608D02*
X349206D01*
X336608Y222666D02*
Y228562D01*
Y222666D02*
X349206D01*
X392251Y216901D02*
X398147D01*
Y229499D01*
X392251D02*
X398147D01*
X392251Y216901D02*
Y229499D01*
X296482Y228359D02*
Y234255D01*
Y228359D02*
X309081D01*
Y234255D01*
X296482D02*
X309081D01*
X296441Y221988D02*
Y227885D01*
Y221988D02*
X309040D01*
Y227885D01*
X296441D02*
X309040D01*
X309053Y247699D02*
X314949D01*
X309053Y235101D02*
Y247699D01*
Y235101D02*
X314949D01*
Y247699D01*
X169418Y54997D02*
X180206D01*
Y59749D01*
X169418D02*
X180206D01*
X169418Y54997D02*
Y59749D01*
X207685Y92059D02*
Y102847D01*
X202933D02*
X207685D01*
X202933Y92059D02*
Y102847D01*
Y92059D02*
X207685D01*
X180421Y90756D02*
X191209D01*
X180421Y86004D02*
Y90756D01*
Y86004D02*
X191209D01*
Y90756D01*
X117018Y248630D02*
X127805D01*
Y253382D01*
X117018D02*
X127805D01*
X117018Y248630D02*
Y253382D01*
X130970Y193018D02*
Y203805D01*
X126218D02*
X130970D01*
X126218Y193018D02*
Y203805D01*
Y193018D02*
X130970D01*
X153430Y194395D02*
Y205182D01*
Y194395D02*
X158182D01*
Y205182D01*
X153430D02*
X158182D01*
X371843Y268260D02*
X382630D01*
X371843Y263508D02*
Y268260D01*
Y263508D02*
X382630D01*
Y268260D01*
X298195Y221570D02*
X308982D01*
X298195Y216818D02*
Y221570D01*
Y216818D02*
X308982D01*
Y221570D01*
X357088Y246375D02*
Y257162D01*
X352337D02*
X357088D01*
X352337Y246375D02*
Y257162D01*
Y246375D02*
X357088D01*
X383516Y262542D02*
X394303D01*
X383516Y257790D02*
Y262542D01*
Y257790D02*
X394303D01*
Y262542D01*
X366170Y258318D02*
Y269105D01*
X361418D02*
X366170D01*
X361418Y258318D02*
Y269105D01*
Y258318D02*
X366170D01*
X398170Y230618D02*
Y241406D01*
X393418D02*
X398170D01*
X393418Y230618D02*
Y241406D01*
Y230618D02*
X398170D01*
X379630Y216394D02*
Y227182D01*
Y216394D02*
X384382D01*
Y227182D01*
X379630D02*
X384382D01*
X203230Y151795D02*
Y162582D01*
Y151795D02*
X207982D01*
Y162582D01*
X203230D02*
X207982D01*
X311678Y221761D02*
X320540D01*
X322335Y223556D01*
Y234359D01*
X311678Y221761D02*
Y234359D01*
X322335D01*
X120148Y283671D02*
X128022D01*
X120148Y271072D02*
Y283671D01*
X128022Y272253D02*
Y283671D01*
X126841Y271072D02*
X128022Y272253D01*
X120148Y271072D02*
X126841D01*
X115748Y221654D02*
X123622D01*
X115748Y209055D02*
Y221654D01*
X123622Y210236D02*
Y221654D01*
X122441Y209055D02*
X123622Y210236D01*
X115748Y209055D02*
X122441D01*
X208071Y178937D02*
Y186811D01*
Y178937D02*
X220669D01*
X208071Y186811D02*
X219488D01*
X220669Y185630D01*
Y178937D02*
Y185630D01*
X221063Y173622D02*
Y181496D01*
Y173622D02*
X233661D01*
X221063Y181496D02*
X232480D01*
X233661Y180315D01*
Y173622D02*
Y180315D01*
X341726Y281432D02*
X349600D01*
X341726Y268833D02*
Y281432D01*
X349600Y270014D02*
Y281432D01*
X348419Y268833D02*
X349600Y270014D01*
X341726Y268833D02*
X348419D01*
X113744Y257326D02*
X119256D01*
Y273074D01*
X113744D02*
X119256D01*
X113744Y257326D02*
Y273074D01*
X116500Y269924D02*
Y271893D01*
X115417Y270823D02*
X117562Y270866D01*
X115713Y259295D02*
X117287D01*
X113779Y192913D02*
X119291D01*
Y208661D01*
X113779D02*
X119291D01*
X113779Y192913D02*
Y208661D01*
X116535Y205512D02*
Y207480D01*
X115452Y206411D02*
X117598Y206453D01*
X115748Y194882D02*
X117323D01*
X177762Y260644D02*
Y266156D01*
X162014D02*
X177762D01*
X162014Y260644D02*
Y266156D01*
Y260644D02*
X177762D01*
X163195Y263400D02*
X165164D01*
X164222Y264462D02*
X164265Y262316D01*
X175794Y262613D02*
Y264187D01*
X131964Y192507D02*
Y205893D01*
Y192507D02*
X152436D01*
Y205893D01*
X131964D02*
X152436D01*
X110984Y240984D02*
Y281929D01*
X29882Y240984D02*
X110984D01*
X29882D02*
Y272087D01*
X39724Y281929D01*
X110984D01*
X111024Y195276D02*
Y236221D01*
X29921Y195276D02*
X111024D01*
X29921D02*
Y226378D01*
X39764Y236221D01*
X111024D01*
X172244Y117717D02*
X187205D01*
X172244Y90945D02*
Y117717D01*
X187205Y94095D02*
Y117717D01*
X184055Y90945D02*
X187205Y94095D01*
X172244Y90945D02*
X184055D01*
X392514Y236156D02*
Y249936D01*
X390545Y251904D02*
X392514Y249936D01*
X357868Y251904D02*
X390545D01*
X357868Y236156D02*
Y251904D01*
Y236156D02*
X392514D01*
X157087Y61417D02*
Y190551D01*
X47638Y61417D02*
X157087D01*
X47638D02*
Y190551D01*
X157087D01*
X177559Y80905D02*
X179527Y78937D01*
Y67520D02*
Y78937D01*
X159843Y80905D02*
X177559D01*
X159843Y67520D02*
X179527D01*
X159843D02*
Y80905D01*
X206557Y262276D02*
X208526Y260307D01*
X206557Y262276D02*
Y273693D01*
X208526Y260307D02*
X226242D01*
X206557Y273693D02*
X226242D01*
Y260307D02*
Y273693D01*
X132283Y222047D02*
X134252Y224016D01*
X120866Y222047D02*
X132283D01*
X134252Y224016D02*
Y241732D01*
X120866Y222047D02*
Y241732D01*
X134252D01*
X141838Y223357D02*
X145381D01*
X146562Y224538D01*
Y230443D01*
X141838D02*
X146562D01*
X141838Y223357D02*
Y230443D01*
X289370Y0D02*
Y285416D01*
X289381Y285426D01*
X401400D01*
X293000Y210800D02*
X293200Y285400D01*
X401400Y210660D02*
Y285426D01*
X289370Y210660D02*
X401400D01*
X287203Y285465D02*
X289370Y285433D01*
X287402Y0D02*
X289370D01*
X0Y285433D02*
X287203Y285465D01*
X0Y0D02*
Y285433D01*
Y0D02*
X287402D01*
D13*
X219685Y164341D02*
G03*
X219685Y164341I-1181J0D01*
G01*
D14*
X165400Y269498D02*
G03*
X165400Y269498I-394J0D01*
G01*
D15*
X170079Y185433D02*
G03*
X170079Y185433I-984J0D01*
G01*
D16*
X271084Y269357D02*
G03*
X271084Y269357I-557J0D01*
G01*
X180216Y213376D02*
G03*
X180216Y213376I-591J0D01*
G01*
D17*
X133743Y193885D02*
G03*
X133743Y193885I-394J0D01*
G01*
X56287Y93727D02*
X59822Y90192D01*
Y92549D01*
X62178D01*
X58644Y96083D01*
X63356Y93727D02*
X64534Y94905D01*
X63945Y94316D01*
X61589Y96672D01*
X61000Y96083D01*
X63945Y99028D02*
X66302Y96672D01*
X65123Y97850D01*
Y99028D01*
Y100206D01*
X65712Y100795D01*
X71603Y101974D02*
X70425Y100795D01*
X69247D01*
X68069Y101974D01*
X68069Y103152D01*
X69247Y104330D01*
X70425D01*
X71014Y103741D01*
X68658Y101385D01*
X73370Y103741D02*
X74549Y104919D01*
X73959Y104330D01*
X70425Y107864D01*
X69836Y107275D01*
X78083Y108453D02*
X76905Y107275D01*
X75727D01*
X74549Y108453D01*
Y109632D01*
X75727Y110810D01*
X76905D01*
X77494Y110221D01*
X75138Y107864D01*
X79850Y110221D02*
X81617Y111988D01*
X81617Y113166D01*
X80439D01*
X79261Y111988D01*
X78083D01*
X78083Y113166D01*
X79850Y114933D01*
X83385Y113755D02*
X85152Y115522D01*
X85152Y116700D01*
X83973D01*
X82795Y115522D01*
X81617D01*
X81617Y116700D01*
X83385Y118467D01*
X89864Y126125D02*
X88686Y126125D01*
X87508Y124947D01*
Y123769D01*
X88097Y123180D01*
X89275D01*
X90453Y124358D01*
X91631Y124358D01*
X92220Y123769D01*
X92220Y122591D01*
X91042Y121413D01*
X89864D01*
X95755Y126125D02*
X94577Y124947D01*
X93399D01*
X92220Y126125D01*
Y127303D01*
X93399Y128482D01*
X94577D01*
X95166Y127892D01*
X92809Y125536D01*
X97522Y132605D02*
X95755Y130838D01*
Y129660D01*
X96933Y128481D01*
X98111D01*
X99878Y130249D01*
X98700Y133783D02*
X100467Y132016D01*
X101646D01*
X103413Y133783D01*
X101056Y136139D01*
X102234Y137318D02*
X104591Y134961D01*
X103413Y136139D01*
Y137318D01*
Y138496D01*
X104002Y139085D01*
X108125Y138496D02*
X109303Y139674D01*
X108714Y139085D01*
X106358Y141441D01*
X105769Y140852D01*
X108714Y144975D02*
X109303Y144386D01*
X108714Y143797D01*
X109892Y144975D01*
X109303Y144386D01*
X111071Y142619D01*
X112249Y142619D01*
X111660Y146743D02*
X113427Y144975D01*
X114605D01*
X116372Y146743D01*
X116961Y146153D01*
Y144975D01*
X116372Y144386D01*
Y146743D02*
X114016Y149099D01*
X117550Y154990D02*
X121085Y151455D01*
X122852Y153222D01*
Y154400D01*
X120495Y156757D01*
X119317Y156757D01*
X117550Y154990D01*
X126386Y156757D02*
X125208Y155578D01*
X124030D01*
X122852Y156757D01*
X122852Y157935D01*
X124030Y159113D01*
X125208D01*
X125797Y158524D01*
X123441Y156168D01*
X125797Y162058D02*
X126386Y161469D01*
X125797Y160880D01*
X126975Y162058D01*
X126386Y161469D01*
X128153Y159702D01*
X129332Y159702D01*
X132866Y163236D02*
X131688Y162058D01*
X130510D01*
X129332Y163236D01*
X129332Y164415D01*
X130510Y165593D01*
X131688D01*
X132277Y165004D01*
X129921Y162647D01*
X134633Y169716D02*
X132866Y167949D01*
X132866Y166771D01*
X134044Y165593D01*
X135222D01*
X136989Y167360D01*
X135811Y172072D02*
X136400Y171483D01*
X135811Y170894D01*
X136989Y172072D01*
X136400Y171483D01*
X138168Y169716D01*
X139346D01*
X141702Y172072D02*
X142880Y173250D01*
X142880Y174429D01*
X141702Y175607D01*
X140524D01*
X139346Y174429D01*
Y173250D01*
X140524Y172072D01*
X141702D01*
X142291Y177374D02*
X144647Y175018D01*
X143469Y176196D01*
Y177374D01*
Y178552D01*
X144058Y179141D01*
X274635Y68899D02*
Y64734D01*
X275468Y63901D01*
X277134D01*
X277967Y64734D01*
Y68899D01*
X282965D02*
X281299Y68066D01*
X279633Y66400D01*
Y64734D01*
X280466Y63901D01*
X282132D01*
X282965Y64734D01*
Y65567D01*
X282132Y66400D01*
X279633D01*
X158401Y110201D02*
Y114200D01*
Y112201D01*
X164399D01*
Y116199D02*
Y118199D01*
Y117199D01*
X158401D01*
X159401Y116199D01*
X16998Y168999D02*
Y163001D01*
X13999D01*
X13000Y164001D01*
Y166000D01*
X13999Y167000D01*
X16998D01*
X14999D02*
X13000Y168999D01*
X11000Y164001D02*
X10001Y163001D01*
X8001D01*
X7002Y164001D01*
Y165000D01*
X8001Y166000D01*
X9001D01*
X8001D01*
X7002Y167000D01*
Y167999D01*
X8001Y168999D01*
X10001D01*
X11000Y167999D01*
D18*
X56783Y182858D02*
G03*
X56783Y182858I-1575J0D01*
G01*
D19*
X182775Y240542D02*
X206397D01*
X185924Y216920D02*
X206397D01*
X182775Y220069D02*
Y240542D01*
Y220069D02*
X185924Y216920D01*
X206397D02*
Y240542D01*
D20*
X156556Y38507D02*
Y35508D01*
X158055D01*
X158555Y36008D01*
Y38008D01*
X158055Y38507D01*
X156556D01*
X159555D02*
X161554D01*
Y38008D01*
X159555Y36008D01*
Y35508D01*
X216500Y5800D02*
Y4800D01*
Y5300D01*
X219000D01*
X219499Y4800D01*
Y4301D01*
X219000Y3801D01*
X219499Y6800D02*
Y7799D01*
Y7299D01*
X216500D01*
X217000Y6800D01*
X137851D02*
X137351Y7299D01*
X136351D01*
X135851Y6800D01*
Y4800D01*
X136351Y4301D01*
X137351D01*
X137851Y4800D01*
X138850Y4301D02*
X139850D01*
X139350D01*
Y7299D01*
X138850Y6800D01*
X141349D02*
X141849Y7299D01*
X142849D01*
X143349Y6800D01*
Y4800D01*
X142849Y4301D01*
X141849D01*
X141349Y4800D01*
Y6800D01*
X166299Y140300D02*
X163300D01*
Y138801D01*
X163800Y138301D01*
X164300D01*
X164799Y138801D01*
Y140300D01*
Y138801D01*
X165299Y138301D01*
X165799D01*
X166299Y138801D01*
Y140300D01*
X163300Y137301D02*
X166299D01*
Y135801D01*
X165799Y135302D01*
X164799D01*
X164300Y135801D01*
Y137301D01*
Y136301D02*
X163300Y135302D01*
Y134302D02*
Y133302D01*
Y133802D01*
X166299D01*
X165799Y134302D01*
X298900Y257700D02*
Y258699D01*
Y258200D01*
X296400D01*
X295901Y258699D01*
Y259199D01*
X296400Y259699D01*
X298400Y256700D02*
X298900Y256200D01*
Y255201D01*
X298400Y254701D01*
X297900D01*
X297400Y255201D01*
X296900Y254701D01*
X296400D01*
X295901Y255201D01*
Y256200D01*
X296400Y256700D01*
X296900D01*
X297400Y256200D01*
X297900Y256700D01*
X298400D01*
X297400Y256200D02*
Y255201D01*
X208800Y152801D02*
X208300Y152301D01*
Y151301D01*
X208800Y150801D01*
X210800D01*
X211299Y151301D01*
Y152301D01*
X210800Y152801D01*
X211299Y155800D02*
Y153800D01*
X209300Y155800D01*
X208800D01*
X208300Y155300D01*
Y154300D01*
X208800Y153800D01*
X208300Y158799D02*
X208800Y157799D01*
X209800Y156799D01*
X210800D01*
X211299Y157299D01*
Y158299D01*
X210800Y158799D01*
X210300D01*
X209800Y158299D01*
Y156799D01*
X151799Y206700D02*
Y207200D01*
X150800Y208200D01*
X149800Y207200D01*
Y206700D01*
X150800Y208200D02*
Y209700D01*
X148800D02*
X147801D01*
X148301D01*
Y206700D01*
X148800Y207200D01*
X147501Y225201D02*
X150499Y227200D01*
X147501D02*
X150499Y225201D01*
Y228200D02*
Y229199D01*
Y228699D01*
X147501D01*
X148000Y228200D01*
X371701Y244499D02*
Y242000D01*
X372201Y241500D01*
X373200D01*
X373700Y242000D01*
Y244499D01*
X374700Y244000D02*
X375200Y244499D01*
X376199D01*
X376699Y244000D01*
Y243500D01*
X376199Y243000D01*
X376699Y242500D01*
Y242000D01*
X376199Y241500D01*
X375200D01*
X374700Y242000D01*
Y242500D01*
X375200Y243000D01*
X374700Y243500D01*
Y244000D01*
X375200Y243000D02*
X376199D01*
X315300Y225701D02*
X317800D01*
X318300Y226201D01*
Y227200D01*
X317800Y227700D01*
X315300D01*
Y228700D02*
Y230699D01*
X315800D01*
X317800Y228700D01*
X318300D01*
X127701Y221499D02*
Y219000D01*
X128201Y218500D01*
X129200D01*
X129700Y219000D01*
Y221499D01*
X132699D02*
X130700D01*
Y220000D01*
X131700Y220500D01*
X132199D01*
X132699Y220000D01*
Y219000D01*
X132199Y218500D01*
X131200D01*
X130700Y219000D01*
X192300Y230199D02*
Y227700D01*
X192800Y227200D01*
X193799D01*
X194299Y227700D01*
Y230199D01*
X196799Y227200D02*
Y230199D01*
X195299Y228699D01*
X197298D01*
X227301Y259301D02*
X229800D01*
X230299Y259801D01*
Y260800D01*
X229800Y261300D01*
X227301D01*
X227800Y262300D02*
X227301Y262800D01*
Y263799D01*
X227800Y264299D01*
X228300D01*
X228800Y263799D01*
Y263299D01*
Y263799D01*
X229300Y264299D01*
X229800D01*
X230299Y263799D01*
Y262800D01*
X229800Y262300D01*
X179101Y66500D02*
Y64000D01*
X179601Y63500D01*
X180600D01*
X181100Y64000D01*
Y66500D01*
X184099Y63500D02*
X182100D01*
X184099Y65500D01*
Y66000D01*
X183599Y66500D01*
X182600D01*
X182100Y66000D01*
X171500Y116399D02*
X169000D01*
X168500Y115900D01*
Y114900D01*
X169000Y114400D01*
X171500D01*
X168500Y113400D02*
Y112401D01*
Y112900D01*
X171500D01*
X171000Y113400D01*
X160100Y243802D02*
Y245801D01*
Y244801D01*
X163100D01*
X160100Y246801D02*
X162100D01*
X163100Y247800D01*
X162100Y248800D01*
X160100D01*
X160600Y251799D02*
X160100Y251299D01*
Y250300D01*
X160600Y249800D01*
X161100D01*
X161600Y250300D01*
Y251299D01*
X162100Y251799D01*
X162600D01*
X163100Y251299D01*
Y250300D01*
X162600Y249800D01*
X163100Y252799D02*
Y253798D01*
Y253298D01*
X160100D01*
X160600Y252799D01*
X274400Y276700D02*
X273901Y276201D01*
Y275201D01*
X274400Y274701D01*
X274900D01*
X275400Y275201D01*
Y276201D01*
X275900Y276700D01*
X276400D01*
X276900Y276201D01*
Y275201D01*
X276400Y274701D01*
X273901Y277700D02*
X276900D01*
X275900Y278700D01*
X276900Y279699D01*
X273901D01*
X276900Y280699D02*
Y281699D01*
Y281199D01*
X273901D01*
X274400Y280699D01*
X333499Y249599D02*
X332999Y250099D01*
X332000D01*
X331500Y249599D01*
Y249099D01*
X332000Y248600D01*
X332999D01*
X333499Y248100D01*
Y247600D01*
X332999Y247100D01*
X332000D01*
X331500Y247600D01*
X334499Y247100D02*
X335499D01*
X334999D01*
Y250099D01*
X334499Y249599D01*
X310500Y270100D02*
Y273099D01*
X312000D01*
X312499Y272599D01*
Y271600D01*
X312000Y271100D01*
X310500D01*
X311500D02*
X312499Y270100D01*
X313499Y273099D02*
X315498D01*
X314499D01*
Y270100D01*
X316498D02*
X317498D01*
X316998D01*
Y273099D01*
X316498Y272599D01*
X70001Y191300D02*
Y194299D01*
X71501D01*
X72001Y193800D01*
Y192800D01*
X71501Y192300D01*
X70001D01*
X71001D02*
X72001Y191300D01*
X73000Y194299D02*
Y191300D01*
X75000D01*
X77999D02*
X75999D01*
X77999Y193300D01*
Y193800D01*
X77499Y194299D01*
X76499D01*
X75999Y193800D01*
X69901Y237300D02*
Y240300D01*
X71401D01*
X71900Y239800D01*
Y238800D01*
X71401Y238300D01*
X69901D01*
X70901D02*
X71900Y237300D01*
X72900Y240300D02*
Y237300D01*
X74900D01*
X75899D02*
X76899D01*
X76399D01*
Y240300D01*
X75899Y239800D01*
X263401Y258101D02*
Y261100D01*
X264901D01*
X265401Y260600D01*
Y259600D01*
X264901Y259100D01*
X263401D01*
X264401D02*
X265401Y258101D01*
X268400D02*
X266400D01*
X268400Y260100D01*
Y260600D01*
X267900Y261100D01*
X266900D01*
X266400Y260600D01*
X271399Y258101D02*
X269399D01*
X271399Y260100D01*
Y260600D01*
X270899Y261100D01*
X269899D01*
X269399Y260600D01*
X234999Y230900D02*
Y227901D01*
X233499D01*
X232999Y228400D01*
Y229400D01*
X233499Y229900D01*
X234999D01*
X233999D02*
X232999Y230900D01*
X230000D02*
X232000D01*
X230000Y228900D01*
Y228400D01*
X230500Y227901D01*
X231500D01*
X232000Y228400D01*
X229001D02*
X228501Y227901D01*
X227501D01*
X227001Y228400D01*
Y230400D01*
X227501Y230900D01*
X228501D01*
X229001Y230400D01*
Y228400D01*
X219251Y211701D02*
Y214700D01*
X220751D01*
X221251Y214200D01*
Y213200D01*
X220751Y212700D01*
X219251D01*
X220251D02*
X221251Y211701D01*
X222250D02*
X223250D01*
X222750D01*
Y214700D01*
X222250Y214200D01*
X224749Y212200D02*
X225249Y211701D01*
X226249D01*
X226749Y212200D01*
Y214200D01*
X226249Y214700D01*
X225249D01*
X224749Y214200D01*
Y213700D01*
X225249Y213200D01*
X226749D01*
X235100Y196051D02*
X232101D01*
Y197551D01*
X232600Y198051D01*
X233600D01*
X234100Y197551D01*
Y196051D01*
Y197051D02*
X235100Y198051D01*
Y199050D02*
Y200050D01*
Y199550D01*
X232101D01*
X232600Y199050D01*
Y201549D02*
X232101Y202049D01*
Y203049D01*
X232600Y203549D01*
X233100D01*
X233600Y203049D01*
X234100Y203549D01*
X234600D01*
X235100Y203049D01*
Y202049D01*
X234600Y201549D01*
X234100D01*
X233600Y202049D01*
X233100Y201549D01*
X232600D01*
X233600Y202049D02*
Y203049D01*
X246251Y257901D02*
Y260899D01*
X247751D01*
X248251Y260400D01*
Y259400D01*
X247751Y258900D01*
X246251D01*
X247251D02*
X248251Y257901D01*
X249250D02*
X250250D01*
X249750D01*
Y260899D01*
X249250Y260400D01*
X251749Y260899D02*
X253749D01*
Y260400D01*
X251749Y258400D01*
Y257901D01*
X224699Y190051D02*
X221701D01*
Y191551D01*
X222200Y192051D01*
X223200D01*
X223700Y191551D01*
Y190051D01*
Y191051D02*
X224699Y192051D01*
Y193050D02*
Y194050D01*
Y193550D01*
X221701D01*
X222200Y193050D01*
X221701Y197549D02*
X222200Y196549D01*
X223200Y195549D01*
X224200D01*
X224699Y196049D01*
Y197049D01*
X224200Y197549D01*
X223700D01*
X223200Y197049D01*
Y195549D01*
X197701Y260349D02*
X200699D01*
Y258849D01*
X200200Y258349D01*
X199200D01*
X198700Y258849D01*
Y260349D01*
Y259349D02*
X197701Y258349D01*
Y257350D02*
Y256350D01*
Y256850D01*
X200699D01*
X200200Y257350D01*
Y254851D02*
X200699Y254351D01*
Y253351D01*
X200200Y252851D01*
X198200D01*
X197701Y253351D01*
Y254351D01*
X198200Y254851D01*
X200200D01*
X159099Y216101D02*
X156100D01*
Y217600D01*
X156600Y218100D01*
X157600D01*
X158100Y217600D01*
Y216101D01*
Y217101D02*
X159099Y218100D01*
X158600Y219100D02*
X159099Y219600D01*
Y220599D01*
X158600Y221099D01*
X156600D01*
X156100Y220599D01*
Y219600D01*
X156600Y219100D01*
X157100D01*
X157600Y219600D01*
Y221099D01*
X168299Y224301D02*
X165301D01*
Y225800D01*
X165800Y226300D01*
X166800D01*
X167300Y225800D01*
Y224301D01*
Y225301D02*
X168299Y226300D01*
X165800Y227300D02*
X165301Y227800D01*
Y228799D01*
X165800Y229299D01*
X166300D01*
X166800Y228799D01*
X167300Y229299D01*
X167800D01*
X168299Y228799D01*
Y227800D01*
X167800Y227300D01*
X167300D01*
X166800Y227800D01*
X166300Y227300D01*
X165800D01*
X166800Y227800D02*
Y228799D01*
X138101Y212501D02*
Y215499D01*
X139600D01*
X140100Y215000D01*
Y214000D01*
X139600Y213500D01*
X138101D01*
X139101D02*
X140100Y212501D01*
X141100Y215499D02*
X143099D01*
Y215000D01*
X141100Y213000D01*
Y212501D01*
X125100Y192301D02*
X122100D01*
Y193800D01*
X122600Y194300D01*
X123600D01*
X124100Y193800D01*
Y192301D01*
Y193300D02*
X125100Y194300D01*
X122100Y197299D02*
Y195300D01*
X123600D01*
X123100Y196300D01*
Y196799D01*
X123600Y197299D01*
X124600D01*
X125100Y196799D01*
Y195800D01*
X124600Y195300D01*
X138101Y207300D02*
Y210299D01*
X139600D01*
X140100Y209800D01*
Y208800D01*
X139600Y208300D01*
X138101D01*
X139101D02*
X140100Y207300D01*
X142599D02*
Y210299D01*
X141100Y208800D01*
X143099D01*
X133099Y257801D02*
X130101D01*
Y259300D01*
X130600Y259800D01*
X131600D01*
X132100Y259300D01*
Y257801D01*
Y258800D02*
X133099Y259800D01*
Y260800D02*
Y261799D01*
Y261299D01*
X130101D01*
X130600Y260800D01*
X142803Y261900D02*
Y264899D01*
X143802Y263900D01*
X144802Y264899D01*
Y261900D01*
X145802Y263400D02*
X147801D01*
X148801Y264899D02*
Y262400D01*
X149301Y261900D01*
X150300D01*
X150800Y262400D01*
Y264899D01*
X153799Y264400D02*
X153299Y264899D01*
X152299D01*
X151800Y264400D01*
Y263900D01*
X152299Y263400D01*
X153299D01*
X153799Y262900D01*
Y262400D01*
X153299Y261900D01*
X152299D01*
X151800Y262400D01*
X154799Y264899D02*
Y261900D01*
X156298D01*
X156798Y262400D01*
Y262900D01*
X156298Y263400D01*
X154799D01*
X156298D01*
X156798Y263900D01*
Y264400D01*
X156298Y264899D01*
X154799D01*
X157798Y261900D02*
X158797D01*
X158298D01*
Y264899D01*
X157798Y264400D01*
X190599Y81901D02*
Y84899D01*
X188600D01*
X187600D02*
X186601D01*
X187101D01*
Y81901D01*
X187600Y82400D01*
X272699Y249900D02*
Y250900D01*
Y250400D01*
X270200D01*
X269701Y250900D01*
Y251399D01*
X270200Y251899D01*
X272699Y248900D02*
Y246901D01*
X272200D01*
X270200Y248900D01*
X269701D01*
X285700Y173500D02*
X284700D01*
X285200D01*
Y171000D01*
X284700Y170501D01*
X284201D01*
X283701Y171000D01*
X288699Y173500D02*
X287700Y173000D01*
X286700Y172000D01*
Y171000D01*
X287200Y170501D01*
X288199D01*
X288699Y171000D01*
Y171500D01*
X288199Y172000D01*
X286700D01*
X10700Y179299D02*
X9701D01*
X10200D01*
Y176800D01*
X9701Y176301D01*
X9201D01*
X8701Y176800D01*
X13699Y179299D02*
X11700D01*
Y177800D01*
X12699Y178300D01*
X13199D01*
X13699Y177800D01*
Y176800D01*
X13199Y176301D01*
X12200D01*
X11700Y176800D01*
X12500Y231299D02*
X11501D01*
X12000D01*
Y228800D01*
X11501Y228300D01*
X11001D01*
X10501Y228800D01*
X14999Y228300D02*
Y231299D01*
X13500Y229800D01*
X15499D01*
X11500Y6499D02*
X10501D01*
X11000D01*
Y4000D01*
X10501Y3500D01*
X10001D01*
X9501Y4000D01*
X12500Y6000D02*
X13000Y6499D01*
X13999D01*
X14499Y6000D01*
Y5500D01*
X13999Y5000D01*
X13499D01*
X13999D01*
X14499Y4500D01*
Y4000D01*
X13999Y3500D01*
X13000D01*
X12500Y4000D01*
X283300Y4900D02*
Y3901D01*
Y4400D01*
X285800D01*
X286299Y3901D01*
Y3401D01*
X285800Y2901D01*
X286299Y7899D02*
Y5900D01*
X284300Y7899D01*
X283800D01*
X283300Y7399D01*
Y6400D01*
X283800Y5900D01*
X147169Y49606D02*
Y51606D01*
X145669D01*
Y50606D01*
Y51606D01*
X144170D01*
Y48607D02*
Y47607D01*
Y48107D01*
X147169D01*
X146669Y48607D01*
X167501Y259899D02*
Y256901D01*
X169000D01*
X169500Y257400D01*
Y259400D01*
X169000Y259899D01*
X167501D01*
X171999Y256901D02*
Y259899D01*
X170500Y258400D01*
X172499D01*
X210501Y64701D02*
X213499D01*
Y66200D01*
X213000Y66700D01*
X211000D01*
X210501Y66200D01*
Y64701D01*
X211000Y67700D02*
X210501Y68200D01*
Y69199D01*
X211000Y69699D01*
X211500D01*
X212000Y69199D01*
Y68700D01*
Y69199D01*
X212500Y69699D01*
X213000D01*
X213499Y69199D01*
Y68200D01*
X213000Y67700D01*
X107901Y194299D02*
Y191300D01*
X109400D01*
X109900Y191800D01*
Y193800D01*
X109400Y194299D01*
X107901D01*
X112899Y191300D02*
X110900D01*
X112899Y193300D01*
Y193800D01*
X112399Y194299D01*
X111400D01*
X110900Y193800D01*
X120100Y262401D02*
X123100D01*
Y263900D01*
X122600Y264400D01*
X120600D01*
X120100Y263900D01*
Y262401D01*
X123100Y265400D02*
Y266399D01*
Y265899D01*
X120100D01*
X120600Y265400D01*
X383167Y275534D02*
X382750Y275117D01*
Y274284D01*
X383167Y273868D01*
X384833D01*
X385250Y274284D01*
Y275117D01*
X384833Y275534D01*
X383167Y276367D02*
X382750Y276783D01*
Y277617D01*
X383167Y278033D01*
X383583D01*
X384000Y277617D01*
Y277200D01*
Y277617D01*
X384417Y278033D01*
X384833D01*
X385250Y277617D01*
Y276783D01*
X384833Y276367D01*
X382750Y280532D02*
Y278866D01*
X384000D01*
X383583Y279699D01*
Y280116D01*
X384000Y280532D01*
X384833D01*
X385250Y280116D01*
Y279283D01*
X384833Y278866D01*
X362167Y275534D02*
X361750Y275117D01*
Y274284D01*
X362167Y273868D01*
X363833D01*
X364250Y274284D01*
Y275117D01*
X363833Y275534D01*
X362167Y276367D02*
X361750Y276783D01*
Y277617D01*
X362167Y278033D01*
X362583D01*
X363000Y277617D01*
Y277200D01*
Y277617D01*
X363417Y278033D01*
X363833D01*
X364250Y277617D01*
Y276783D01*
X363833Y276367D01*
X362167Y278866D02*
X361750Y279283D01*
Y280116D01*
X362167Y280532D01*
X362583D01*
X363000Y280116D01*
Y279699D01*
Y280116D01*
X363417Y280532D01*
X363833D01*
X364250Y280116D01*
Y279283D01*
X363833Y278866D01*
X203899Y127999D02*
X203399Y128499D01*
X202400D01*
X201900Y127999D01*
Y126000D01*
X202400Y125500D01*
X203399D01*
X203899Y126000D01*
X206898Y125500D02*
X204899D01*
X206898Y127499D01*
Y127999D01*
X206399Y128499D01*
X205399D01*
X204899Y127999D01*
X207898Y126000D02*
X208398Y125500D01*
X209398D01*
X209897Y126000D01*
Y127999D01*
X209398Y128499D01*
X208398D01*
X207898Y127999D01*
Y127499D01*
X208398Y126999D01*
X209897D01*
X213801Y208200D02*
X213301Y208699D01*
X212301D01*
X211801Y208200D01*
Y206200D01*
X212301Y205700D01*
X213301D01*
X213801Y206200D01*
X216800Y205700D02*
X214800D01*
X216800Y207700D01*
Y208200D01*
X216300Y208699D01*
X215300D01*
X214800Y208200D01*
X217799D02*
X218299Y208699D01*
X219299D01*
X219799Y208200D01*
Y207700D01*
X219299Y207200D01*
X219799Y206700D01*
Y206200D01*
X219299Y205700D01*
X218299D01*
X217799Y206200D01*
Y206700D01*
X218299Y207200D01*
X217799Y207700D01*
Y208200D01*
X218299Y207200D02*
X219299D01*
X181599Y257000D02*
X182099Y256501D01*
X183099D01*
X183599Y257000D01*
Y259000D01*
X183099Y259500D01*
X182099D01*
X181599Y259000D01*
X178600Y259500D02*
X180600D01*
X178600Y257500D01*
Y257000D01*
X179100Y256501D01*
X180100D01*
X180600Y257000D01*
X177601Y256501D02*
X175601D01*
Y257000D01*
X177601Y259000D01*
Y259500D01*
X182401Y207000D02*
X181901Y207500D01*
X180901D01*
X180401Y207000D01*
Y205000D01*
X180901Y204501D01*
X181901D01*
X182401Y205000D01*
X185400Y204501D02*
X183400D01*
X185400Y206500D01*
Y207000D01*
X184900Y207500D01*
X183900D01*
X183400Y207000D01*
X188399Y207500D02*
X186399D01*
Y206000D01*
X187399Y206500D01*
X187899D01*
X188399Y206000D01*
Y205000D01*
X187899Y204501D01*
X186899D01*
X186399Y205000D01*
X229499Y245499D02*
X228999Y245999D01*
X228000D01*
X227500Y245499D01*
Y243500D01*
X228000Y243000D01*
X228999D01*
X229499Y243500D01*
X232498Y243000D02*
X230499D01*
X232498Y244999D01*
Y245499D01*
X231998Y245999D01*
X230999D01*
X230499Y245499D01*
X234998Y243000D02*
Y245999D01*
X233498Y244499D01*
X235497D01*
X216499Y245499D02*
X216000Y245999D01*
X215000D01*
X214500Y245499D01*
Y243500D01*
X215000Y243000D01*
X216000D01*
X216499Y243500D01*
X219498Y243000D02*
X217499D01*
X219498Y244999D01*
Y245499D01*
X218999Y245999D01*
X217999D01*
X217499Y245499D01*
X220498D02*
X220998Y245999D01*
X221998D01*
X222497Y245499D01*
Y244999D01*
X221998Y244499D01*
X221498D01*
X221998D01*
X222497Y244000D01*
Y243500D01*
X221998Y243000D01*
X220998D01*
X220498Y243500D01*
X222999Y245499D02*
X222499Y245999D01*
X221500D01*
X221000Y245499D01*
Y243500D01*
X221500Y243000D01*
X222499D01*
X222999Y243500D01*
X225998Y243000D02*
X223999D01*
X225998Y244999D01*
Y245499D01*
X225499Y245999D01*
X224499D01*
X223999Y245499D01*
X228997Y243000D02*
X226998D01*
X228997Y244999D01*
Y245499D01*
X228498Y245999D01*
X227498D01*
X226998Y245499D01*
X159600Y197001D02*
X159100Y196501D01*
Y195501D01*
X159600Y195001D01*
X161600D01*
X162100Y195501D01*
Y196501D01*
X161600Y197001D01*
X162100Y200000D02*
Y198000D01*
X160100Y200000D01*
X159600D01*
X159100Y199500D01*
Y198500D01*
X159600Y198000D01*
Y200999D02*
X159100Y201499D01*
Y202499D01*
X159600Y202999D01*
X161600D01*
X162100Y202499D01*
Y201499D01*
X161600Y200999D01*
X159600D01*
X127600Y185051D02*
X127101Y184551D01*
Y183551D01*
X127600Y183051D01*
X129600D01*
X130099Y183551D01*
Y184551D01*
X129600Y185051D01*
X130099Y186050D02*
Y187050D01*
Y186550D01*
X127101D01*
X127600Y186050D01*
X129600Y188549D02*
X130099Y189049D01*
Y190049D01*
X129600Y190549D01*
X127600D01*
X127101Y190049D01*
Y189049D01*
X127600Y188549D01*
X128100D01*
X128600Y189049D01*
Y190549D01*
X130651Y246200D02*
X130151Y246700D01*
X129151D01*
X128651Y246200D01*
Y244200D01*
X129151Y243701D01*
X130151D01*
X130651Y244200D01*
X131650Y243701D02*
X132650D01*
X132150D01*
Y246700D01*
X131650Y246200D01*
X134149Y246700D02*
X136149D01*
Y246200D01*
X134149Y244200D01*
Y243701D01*
X234251Y267200D02*
X233751Y267700D01*
X232751D01*
X232251Y267200D01*
Y265200D01*
X232751Y264701D01*
X233751D01*
X234251Y265200D01*
X235250Y264701D02*
X236250D01*
X235750D01*
Y267700D01*
X235250Y267200D01*
X239749Y267700D02*
X238749Y267200D01*
X237749Y266200D01*
Y265200D01*
X238249Y264701D01*
X239249D01*
X239749Y265200D01*
Y265700D01*
X239249Y266200D01*
X237749D01*
X130651Y252000D02*
X130151Y252500D01*
X129151D01*
X128651Y252000D01*
Y250000D01*
X129151Y249500D01*
X130151D01*
X130651Y250000D01*
X131650Y249500D02*
X132650D01*
X132150D01*
Y252500D01*
X131650Y252000D01*
X136149Y252500D02*
X134149D01*
Y251000D01*
X135149Y251500D01*
X135649D01*
X136149Y251000D01*
Y250000D01*
X135649Y249500D01*
X134649D01*
X134149Y250000D01*
X173550Y269800D02*
X173051Y270300D01*
X172051D01*
X171551Y269800D01*
Y267800D01*
X172051Y267301D01*
X173051D01*
X173550Y267800D01*
X174550Y267301D02*
X175550D01*
X175050D01*
Y270300D01*
X174550Y269800D01*
X177049Y267301D02*
X178049D01*
X177549D01*
Y270300D01*
X177049Y269800D01*
X234600Y55100D02*
X234101Y54600D01*
Y53601D01*
X234600Y53101D01*
X236600D01*
X237100Y53601D01*
Y54600D01*
X236600Y55100D01*
Y56100D02*
X237100Y56600D01*
Y57599D01*
X236600Y58099D01*
X234600D01*
X234101Y57599D01*
Y56600D01*
X234600Y56100D01*
X235100D01*
X235600Y56600D01*
Y58099D01*
X77300Y6600D02*
X76800Y7100D01*
X75801D01*
X75301Y6600D01*
Y4600D01*
X75801Y4101D01*
X76800D01*
X77300Y4600D01*
X78300Y6600D02*
X78800Y7100D01*
X79799D01*
X80299Y6600D01*
Y6100D01*
X79799Y5600D01*
X80299Y5100D01*
Y4600D01*
X79799Y4101D01*
X78800D01*
X78300Y4600D01*
Y5100D01*
X78800Y5600D01*
X78300Y6100D01*
Y6600D01*
X78800Y5600D02*
X79799D01*
X194100Y89400D02*
X193600Y89899D01*
X192601D01*
X192101Y89400D01*
Y87400D01*
X192601Y86901D01*
X193600D01*
X194100Y87400D01*
X197099Y89899D02*
X196099Y89400D01*
X195100Y88400D01*
Y87400D01*
X195600Y86901D01*
X196599D01*
X197099Y87400D01*
Y87900D01*
X196599Y88400D01*
X195100D01*
X164400Y51100D02*
X164900Y51600D01*
Y52599D01*
X164400Y53099D01*
X162400D01*
X161900Y52599D01*
Y51600D01*
X162400Y51100D01*
X161900Y48601D02*
X164900D01*
X163400Y50100D01*
Y48101D01*
X201800Y88900D02*
X202299Y89400D01*
Y90399D01*
X201800Y90899D01*
X199800D01*
X199301Y90399D01*
Y89400D01*
X199800Y88900D01*
X201800Y87900D02*
X202299Y87400D01*
Y86401D01*
X201800Y85901D01*
X201300D01*
X200800Y86401D01*
Y86901D01*
Y86401D01*
X200300Y85901D01*
X199800D01*
X199301Y86401D01*
Y87400D01*
X199800Y87900D01*
X158701Y157901D02*
X161699D01*
Y159401D01*
X161200Y159900D01*
X160700D01*
X160200Y159401D01*
Y157901D01*
Y159401D01*
X159700Y159900D01*
X159200D01*
X158701Y159401D01*
Y157901D01*
Y160900D02*
Y162899D01*
X159200D01*
X161200Y160900D01*
X161699D01*
Y162899D01*
Y163899D02*
Y164899D01*
Y164399D01*
X158701D01*
X159200Y163899D01*
X234501Y172102D02*
X237499D01*
Y173601D01*
X237000Y174101D01*
X236500D01*
X236000Y173601D01*
Y172102D01*
Y173601D01*
X235500Y174101D01*
X235000D01*
X234501Y173601D01*
Y172102D01*
Y177100D02*
Y176101D01*
Y176600D01*
X237000D01*
X237499Y176101D01*
Y175601D01*
X237000Y175101D01*
X234501Y178100D02*
Y180099D01*
Y179100D01*
X237499D01*
Y182598D02*
X234501D01*
X236000Y181099D01*
Y183098D01*
X129901Y272402D02*
X132899D01*
Y273901D01*
X132400Y274401D01*
X131900D01*
X131400Y273901D01*
Y272402D01*
Y273901D01*
X130900Y274401D01*
X130400D01*
X129901Y273901D01*
Y272402D01*
Y277400D02*
Y276400D01*
Y276900D01*
X132400D01*
X132899Y276400D01*
Y275901D01*
X132400Y275401D01*
X129901Y278400D02*
Y280399D01*
Y279399D01*
X132899D01*
Y281399D02*
Y282398D01*
Y281898D01*
X129901D01*
X130400Y281399D01*
D21*
X285601Y272400D02*
X287600D01*
X286934Y273066D01*
X287600Y273733D01*
X285601D01*
X285934Y275732D02*
X285601Y275399D01*
Y274733D01*
X285934Y274399D01*
X286267D01*
X286600Y274733D01*
Y275399D01*
X286934Y275732D01*
X287267D01*
X287600Y275399D01*
Y274733D01*
X287267Y274399D01*
X287600Y276399D02*
X285601D01*
Y277398D01*
X285934Y277732D01*
X286600D01*
X286934Y277398D01*
Y276399D01*
Y277065D02*
X287600Y277732D01*
Y278398D02*
X287267D01*
Y278731D01*
X287600D01*
Y278398D01*
X285601Y280064D02*
X286934D01*
X287600Y280731D01*
X286934Y281397D01*
X285601D01*
X285934Y282064D02*
X285601Y282397D01*
Y283063D01*
X285934Y283396D01*
X287267D01*
X287600Y283063D01*
Y282397D01*
X287267Y282064D01*
X285934D01*
X287600Y284063D02*
Y284729D01*
Y284396D01*
X285601D01*
X285934Y284063D01*
X308400Y281801D02*
Y283800D01*
X307734Y283134D01*
X307067Y283800D01*
Y281801D01*
X305068Y282134D02*
X305401Y281801D01*
X306067D01*
X306401Y282134D01*
Y282467D01*
X306067Y282800D01*
X305401D01*
X305068Y283134D01*
Y283467D01*
X305401Y283800D01*
X306067D01*
X306401Y283467D01*
X304401Y283800D02*
Y281801D01*
X303402D01*
X303068Y282134D01*
Y282800D01*
X303402Y283134D01*
X304401D01*
X303735D02*
X303068Y283800D01*
X302402D02*
Y283467D01*
X302069D01*
Y283800D01*
X302402D01*
X300736Y281801D02*
Y283134D01*
X300069Y283800D01*
X299403Y283134D01*
Y281801D01*
X298737Y282134D02*
X298403Y281801D01*
X297737D01*
X297404Y282134D01*
Y283467D01*
X297737Y283800D01*
X298403D01*
X298737Y283467D01*
Y282134D01*
X296737Y283800D02*
X296071D01*
X296404D01*
Y281801D01*
X296737Y282134D01*
X333867Y284600D02*
X335200D01*
X333867Y283267D01*
Y282934D01*
X334200Y282601D01*
X334867D01*
X335200Y282934D01*
X333201Y284600D02*
Y284267D01*
X332867D01*
Y284600D01*
X333201D01*
X330202Y282934D02*
X330535Y282601D01*
X331201D01*
X331535Y282934D01*
Y283267D01*
X331201Y283600D01*
X330535D01*
X330202Y283934D01*
Y284267D01*
X330535Y284600D01*
X331201D01*
X331535Y284267D01*
X328202Y282601D02*
X329535D01*
Y284600D01*
X328202D01*
X329535Y283600D02*
X328869D01*
X327536Y284600D02*
Y282601D01*
X326203Y284600D01*
Y282601D01*
X324204Y282934D02*
X324537Y282601D01*
X325203D01*
X325536Y282934D01*
Y283267D01*
X325203Y283600D01*
X324537D01*
X324204Y283934D01*
Y284267D01*
X324537Y284600D01*
X325203D01*
X325536Y284267D01*
X322537Y282601D02*
X323204D01*
X323537Y282934D01*
Y284267D01*
X323204Y284600D01*
X322537D01*
X322204Y284267D01*
Y282934D01*
X322537Y282601D01*
X321538Y284600D02*
Y282601D01*
X320538D01*
X320205Y282934D01*
Y283600D01*
X320538Y283934D01*
X321538D01*
X320871D02*
X320205Y284600D01*
X396600Y248334D02*
X394600D01*
Y249334D01*
X394934Y249667D01*
X395600D01*
X395933Y249334D01*
Y248334D01*
Y249001D02*
X396600Y249667D01*
X396266Y250334D02*
X396600Y250667D01*
Y251333D01*
X396266Y251666D01*
X394934D01*
X394600Y251333D01*
Y250667D01*
X394934Y250334D01*
X395267D01*
X395600Y250667D01*
Y251666D01*
X396266Y252333D02*
X396600Y252666D01*
Y253333D01*
X396266Y253666D01*
X394934D01*
X394600Y253333D01*
Y252666D01*
X394934Y252333D01*
X395267D01*
X395600Y252666D01*
Y253666D01*
X207267Y169200D02*
Y171200D01*
X208267D01*
X208600Y170867D01*
Y170200D01*
X208267Y169867D01*
X207267D01*
X207934D02*
X208600Y169200D01*
X210600D02*
X209267D01*
X210600Y170533D01*
Y170867D01*
X210266Y171200D01*
X209600D01*
X209267Y170867D01*
X211266Y169200D02*
X211933D01*
X211599D01*
Y171200D01*
X211266Y170867D01*
X180701Y263800D02*
Y265800D01*
X181701D01*
X182034Y265466D01*
Y264800D01*
X181701Y264467D01*
X180701D01*
X181367D02*
X182034Y263800D01*
X182700D02*
X183367D01*
X183033D01*
Y265800D01*
X182700Y265466D01*
X185699Y265800D02*
X184366D01*
Y264800D01*
X185033Y265133D01*
X185366D01*
X185699Y264800D01*
Y264134D01*
X185366Y263800D01*
X184699D01*
X184366Y264134D01*
X192800Y269701D02*
X190800D01*
Y270701D01*
X191133Y271034D01*
X191800D01*
X192133Y270701D01*
Y269701D01*
Y270367D02*
X192800Y271034D01*
Y271700D02*
Y272367D01*
Y272033D01*
X190800D01*
X191133Y271700D01*
X192800Y274366D02*
X190800D01*
X191800Y273366D01*
Y274699D01*
X206499Y276400D02*
Y274400D01*
X205500D01*
X205166Y274733D01*
Y275400D01*
X205500Y275733D01*
X206499D01*
X205833D02*
X205166Y276400D01*
X204500D02*
X203833D01*
X204167D01*
Y274400D01*
X204500Y274733D01*
X202834D02*
X202501Y274400D01*
X201834D01*
X201501Y274733D01*
Y275067D01*
X201834Y275400D01*
X202167D01*
X201834D01*
X201501Y275733D01*
Y276066D01*
X201834Y276400D01*
X202501D01*
X202834Y276066D01*
X195034Y265000D02*
Y267000D01*
X196034D01*
X196367Y266667D01*
Y266000D01*
X196034Y265667D01*
X195034D01*
X195701D02*
X196367Y265000D01*
X197033D02*
X197700D01*
X197367D01*
Y267000D01*
X197033Y266667D01*
X198699Y265000D02*
X199366D01*
X199033D01*
Y267000D01*
X198699Y266667D01*
X205934Y188400D02*
Y190400D01*
X206934D01*
X207267Y190067D01*
Y189400D01*
X206934Y189067D01*
X205934D01*
X206600D02*
X207267Y188400D01*
X209266Y190400D02*
X208600Y190067D01*
X207933Y189400D01*
Y188734D01*
X208266Y188400D01*
X208933D01*
X209266Y188734D01*
Y189067D01*
X208933Y189400D01*
X207933D01*
X131134Y263400D02*
Y265400D01*
X132134D01*
X132467Y265067D01*
Y264400D01*
X132134Y264067D01*
X131134D01*
X131800D02*
X132467Y263400D01*
X134466D02*
X133133D01*
X134466Y264733D01*
Y265067D01*
X134133Y265400D01*
X133466D01*
X133133Y265067D01*
X329800Y277334D02*
X331800D01*
Y278334D01*
X331466Y278667D01*
X330134D01*
X329800Y278334D01*
Y277334D01*
Y280666D02*
X330134Y280000D01*
X330800Y279333D01*
X331466D01*
X331800Y279666D01*
Y280333D01*
X331466Y280666D01*
X331133D01*
X330800Y280333D01*
Y279333D01*
X206800Y147334D02*
X207133Y147000D01*
X207799D01*
X208133Y147334D01*
Y148666D01*
X207799Y149000D01*
X207133D01*
X206800Y148666D01*
X206133Y147334D02*
X205800Y147000D01*
X205134D01*
X204800Y147334D01*
Y147667D01*
X205134Y148000D01*
X205467D01*
X205134D01*
X204800Y148333D01*
Y148666D01*
X205134Y149000D01*
X205800D01*
X206133Y148666D01*
X204134Y149000D02*
X203467D01*
X203801D01*
Y147000D01*
X204134Y147334D01*
X195667Y139733D02*
X196000Y140066D01*
Y140733D01*
X195667Y141066D01*
X194334D01*
X194000Y140733D01*
Y140066D01*
X194334Y139733D01*
X195667Y139067D02*
X196000Y138733D01*
Y138067D01*
X195667Y137733D01*
X195333D01*
X195000Y138067D01*
Y138400D01*
Y138067D01*
X194667Y137733D01*
X194334D01*
X194000Y138067D01*
Y138733D01*
X194334Y139067D01*
X195667Y137067D02*
X196000Y136734D01*
Y136067D01*
X195667Y135734D01*
X194334D01*
X194000Y136067D01*
Y136734D01*
X194334Y137067D01*
X195667D01*
X215400Y202333D02*
X215733Y202000D01*
X216399D01*
X216733Y202333D01*
Y203666D01*
X216399Y204000D01*
X215733D01*
X215400Y203666D01*
X213400Y204000D02*
X214733D01*
X213400Y202667D01*
Y202333D01*
X213734Y202000D01*
X214400D01*
X214733Y202333D01*
X212734Y204000D02*
X212067D01*
X212401D01*
Y202000D01*
X212734Y202333D01*
X233366Y281534D02*
X233699Y281200D01*
X234366D01*
X234699Y281534D01*
Y282866D01*
X234366Y283200D01*
X233699D01*
X233366Y282866D01*
X232700Y283200D02*
X232033D01*
X232367D01*
Y281200D01*
X232700Y281534D01*
X231034D02*
X230700Y281200D01*
X230034D01*
X229701Y281534D01*
Y281867D01*
X230034Y282200D01*
X229701Y282533D01*
Y282866D01*
X230034Y283200D01*
X230700D01*
X231034Y282866D01*
Y282533D01*
X230700Y282200D01*
X231034Y281867D01*
Y281534D01*
X230700Y282200D02*
X230034D01*
X206333Y118133D02*
X206666Y117800D01*
X207333D01*
X207666Y118133D01*
Y119466D01*
X207333Y119800D01*
X206666D01*
X206333Y119466D01*
X205667Y117800D02*
X204334D01*
Y118133D01*
X205667Y119466D01*
Y119800D01*
X199933Y118133D02*
X200266Y117800D01*
X200933D01*
X201266Y118133D01*
Y119466D01*
X200933Y119800D01*
X200266D01*
X199933Y119466D01*
X197934Y117800D02*
X199267D01*
Y118800D01*
X198600Y118467D01*
X198267D01*
X197934Y118800D01*
Y119466D01*
X198267Y119800D01*
X198933D01*
X199267Y119466D01*
X174400Y54066D02*
X174067Y54400D01*
X173400D01*
X173067Y54066D01*
Y52734D01*
X173400Y52400D01*
X174067D01*
X174400Y52734D01*
X175066Y52400D02*
X175733D01*
X175400D01*
Y54400D01*
X175066Y54066D01*
X221335Y185800D02*
Y183800D01*
X222334D01*
X222667Y184134D01*
Y184467D01*
X222334Y184800D01*
X221335D01*
X222334D01*
X222667Y185133D01*
Y185467D01*
X222334Y185800D01*
X221335D01*
X224667D02*
X224000D01*
X224334D01*
Y184134D01*
X224000Y183800D01*
X223667D01*
X223334Y184134D01*
X225333Y185800D02*
X226666D01*
X226000D01*
Y183800D01*
X227333Y185467D02*
X227666Y185800D01*
X228332D01*
X228665Y185467D01*
Y185133D01*
X228332Y184800D01*
X227999D01*
X228332D01*
X228665Y184467D01*
Y184134D01*
X228332Y183800D01*
X227666D01*
X227333Y184134D01*
X113800Y218465D02*
X111800D01*
Y217466D01*
X112134Y217133D01*
X112467D01*
X112800Y217466D01*
Y218465D01*
Y217466D01*
X113133Y217133D01*
X113467D01*
X113800Y217466D01*
Y218465D01*
Y215133D02*
Y215800D01*
Y215466D01*
X112134D01*
X111800Y215800D01*
Y216133D01*
X112134Y216466D01*
X113800Y214467D02*
Y213134D01*
Y213800D01*
X111800D01*
Y211135D02*
Y212467D01*
X113133Y211135D01*
X113467D01*
X113800Y211468D01*
Y212134D01*
X113467Y212467D01*
D22*
X218800Y284000D02*
X217467D01*
X218134D01*
Y280001D01*
X218800Y280668D01*
X215468Y284000D02*
Y283334D01*
X214801D01*
Y284000D01*
X215468D01*
X209470Y280668D02*
X210136Y280001D01*
X211469D01*
X212136Y280668D01*
Y281334D01*
X211469Y282001D01*
X210136D01*
X209470Y282667D01*
Y283334D01*
X210136Y284000D01*
X211469D01*
X212136Y283334D01*
X205471Y280001D02*
X208137D01*
Y284000D01*
X205471D01*
X208137Y282001D02*
X206804D01*
X204138Y284000D02*
Y280001D01*
X201472Y284000D01*
Y280001D01*
X197474Y280668D02*
X198140Y280001D01*
X199473D01*
X200139Y280668D01*
Y281334D01*
X199473Y282001D01*
X198140D01*
X197474Y282667D01*
Y283334D01*
X198140Y284000D01*
X199473D01*
X200139Y283334D01*
X194141Y280001D02*
X195474D01*
X196141Y280668D01*
Y283334D01*
X195474Y284000D01*
X194141D01*
X193475Y283334D01*
Y280668D01*
X194141Y280001D01*
X192142Y284000D02*
Y280001D01*
X190143D01*
X189476Y280668D01*
Y282001D01*
X190143Y282667D01*
X192142D01*
X190809D02*
X189476Y284000D01*
D23*
X319400Y275600D02*
Y277099D01*
X320150D01*
X320400Y276850D01*
Y276350D01*
X320150Y276100D01*
X319400D01*
X319900D02*
X320400Y275600D01*
X320900Y276850D02*
X321149Y277099D01*
X321649D01*
X321899Y276850D01*
Y276600D01*
X321649Y276350D01*
X321399D01*
X321649D01*
X321899Y276100D01*
Y275850D01*
X321649Y275600D01*
X321149D01*
X320900Y275850D01*
X322399Y277099D02*
X323399D01*
Y276850D01*
X322399Y275850D01*
Y275600D01*
X333650Y270867D02*
X332350D01*
Y271517D01*
X332567Y271734D01*
X333000D01*
X333217Y271517D01*
Y270867D01*
Y271300D02*
X333650Y271734D01*
X332567Y272167D02*
X332350Y272383D01*
Y272817D01*
X332567Y273033D01*
X332783D01*
X333000Y272817D01*
Y272600D01*
Y272817D01*
X333217Y273033D01*
X333433D01*
X333650Y272817D01*
Y272383D01*
X333433Y272167D01*
X332350Y274333D02*
X332567Y273900D01*
X333000Y273466D01*
X333433D01*
X333650Y273683D01*
Y274116D01*
X333433Y274333D01*
X333217D01*
X333000Y274116D01*
Y273466D01*
X374800Y221100D02*
Y222600D01*
X375550D01*
X375800Y222350D01*
Y221850D01*
X375550Y221600D01*
X374800D01*
X375300D02*
X375800Y221100D01*
X376300Y222350D02*
X376549Y222600D01*
X377049D01*
X377299Y222350D01*
Y222100D01*
X377049Y221850D01*
X376799D01*
X377049D01*
X377299Y221600D01*
Y221350D01*
X377049Y221100D01*
X376549D01*
X376300Y221350D01*
X378799Y222600D02*
X377799D01*
Y221850D01*
X378299Y222100D01*
X378549D01*
X378799Y221850D01*
Y221350D01*
X378549Y221100D01*
X378049D01*
X377799Y221350D01*
X360150Y216001D02*
X358650D01*
Y216750D01*
X358900Y217000D01*
X359400D01*
X359650Y216750D01*
Y216001D01*
Y216500D02*
X360150Y217000D01*
X358900Y217500D02*
X358650Y217750D01*
Y218250D01*
X358900Y218500D01*
X359150D01*
X359400Y218250D01*
Y218000D01*
Y218250D01*
X359650Y218500D01*
X359900D01*
X360150Y218250D01*
Y217750D01*
X359900Y217500D01*
X360150Y219749D02*
X358650D01*
X359400Y219000D01*
Y219999D01*
X385200Y221000D02*
Y222499D01*
X385950D01*
X386200Y222250D01*
Y221750D01*
X385950Y221500D01*
X385200D01*
X385700D02*
X386200Y221000D01*
X386700Y222250D02*
X386949Y222499D01*
X387449D01*
X387699Y222250D01*
Y222000D01*
X387449Y221750D01*
X387199D01*
X387449D01*
X387699Y221500D01*
Y221250D01*
X387449Y221000D01*
X386949D01*
X386700Y221250D01*
X388199Y222250D02*
X388449Y222499D01*
X388949D01*
X389199Y222250D01*
Y222000D01*
X388949Y221750D01*
X388699D01*
X388949D01*
X389199Y221500D01*
Y221250D01*
X388949Y221000D01*
X388449D01*
X388199Y221250D01*
X368200Y223700D02*
Y225200D01*
X368950D01*
X369200Y224950D01*
Y224450D01*
X368950Y224200D01*
X368200D01*
X368700D02*
X369200Y223700D01*
X369700Y224950D02*
X369949Y225200D01*
X370449D01*
X370699Y224950D01*
Y224700D01*
X370449Y224450D01*
X370199D01*
X370449D01*
X370699Y224200D01*
Y223950D01*
X370449Y223700D01*
X369949D01*
X369700Y223950D01*
X372199Y223700D02*
X371199D01*
X372199Y224700D01*
Y224950D01*
X371949Y225200D01*
X371449D01*
X371199Y224950D01*
X326400Y220800D02*
Y222300D01*
X327150D01*
X327400Y222050D01*
Y221550D01*
X327150Y221300D01*
X326400D01*
X326900D02*
X327400Y220800D01*
X327900Y222050D02*
X328149Y222300D01*
X328649D01*
X328899Y222050D01*
Y221800D01*
X328649Y221550D01*
X328399D01*
X328649D01*
X328899Y221300D01*
Y221050D01*
X328649Y220800D01*
X328149D01*
X327900Y221050D01*
X329399Y220800D02*
X329899D01*
X329649D01*
Y222300D01*
X329399Y222050D01*
X331300Y220800D02*
Y222300D01*
X332050D01*
X332300Y222050D01*
Y221550D01*
X332050Y221300D01*
X331300D01*
X331800D02*
X332300Y220800D01*
X332800Y222050D02*
X333049Y222300D01*
X333549D01*
X333799Y222050D01*
Y221800D01*
X333549Y221550D01*
X333299D01*
X333549D01*
X333799Y221300D01*
Y221050D01*
X333549Y220800D01*
X333049D01*
X332800Y221050D01*
X334299Y222050D02*
X334549Y222300D01*
X335049D01*
X335299Y222050D01*
Y221050D01*
X335049Y220800D01*
X334549D01*
X334299Y221050D01*
Y222050D01*
X319350Y216401D02*
X317850D01*
Y217150D01*
X318100Y217400D01*
X318600D01*
X318850Y217150D01*
Y216401D01*
Y216900D02*
X319350Y217400D01*
Y218900D02*
Y217900D01*
X318350Y218900D01*
X318100D01*
X317850Y218650D01*
Y218150D01*
X318100Y217900D01*
X319100Y219400D02*
X319350Y219650D01*
Y220149D01*
X319100Y220399D01*
X318100D01*
X317850Y220149D01*
Y219650D01*
X318100Y219400D01*
X318350D01*
X318600Y219650D01*
Y220399D01*
X367000Y262900D02*
Y264400D01*
X367750D01*
X368000Y264150D01*
Y263650D01*
X367750Y263400D01*
X367000D01*
X367500D02*
X368000Y262900D01*
X369499D02*
X368499D01*
X369499Y263900D01*
Y264150D01*
X369249Y264400D01*
X368749D01*
X368499Y264150D01*
X369999D02*
X370249Y264400D01*
X370749D01*
X370999Y264150D01*
Y263900D01*
X370749Y263650D01*
X370999Y263400D01*
Y263150D01*
X370749Y262900D01*
X370249D01*
X369999Y263150D01*
Y263400D01*
X370249Y263650D01*
X369999Y263900D01*
Y264150D01*
X370249Y263650D02*
X370749D01*
X389750Y263401D02*
X388250D01*
Y264150D01*
X388500Y264400D01*
X389000D01*
X389250Y264150D01*
Y263401D01*
Y263900D02*
X389750Y264400D01*
Y265900D02*
Y264900D01*
X388750Y265900D01*
X388500D01*
X388250Y265650D01*
Y265150D01*
X388500Y264900D01*
X388250Y266400D02*
Y267399D01*
X388500D01*
X389500Y266400D01*
X389750D01*
Y268401D02*
X388250D01*
Y269150D01*
X388500Y269400D01*
X389000D01*
X389250Y269150D01*
Y268401D01*
Y268900D02*
X389750Y269400D01*
Y270900D02*
Y269900D01*
X388750Y270900D01*
X388500D01*
X388250Y270650D01*
Y270150D01*
X388500Y269900D01*
X388250Y272399D02*
X388500Y271900D01*
X389000Y271400D01*
X389500D01*
X389750Y271650D01*
Y272149D01*
X389500Y272399D01*
X389250D01*
X389000Y272149D01*
Y271400D01*
X310200Y255100D02*
Y256599D01*
X310950D01*
X311200Y256350D01*
Y255850D01*
X310950Y255600D01*
X310200D01*
X310700D02*
X311200Y255100D01*
X312699D02*
X311700D01*
X312699Y256100D01*
Y256350D01*
X312449Y256599D01*
X311949D01*
X311700Y256350D01*
X314199Y256599D02*
X313199D01*
Y255850D01*
X313699Y256100D01*
X313949D01*
X314199Y255850D01*
Y255350D01*
X313949Y255100D01*
X313449D01*
X313199Y255350D01*
X353700Y266500D02*
Y268000D01*
X354450D01*
X354700Y267750D01*
Y267250D01*
X354450Y267000D01*
X353700D01*
X354200D02*
X354700Y266500D01*
X356199D02*
X355200D01*
X356199Y267500D01*
Y267750D01*
X355949Y268000D01*
X355449D01*
X355200Y267750D01*
X357449Y266500D02*
Y268000D01*
X356699Y267250D01*
X357699D01*
X377950Y258801D02*
X376450D01*
Y259550D01*
X376700Y259800D01*
X377200D01*
X377450Y259550D01*
Y258801D01*
Y259300D02*
X377950Y259800D01*
Y261300D02*
Y260300D01*
X376950Y261300D01*
X376700D01*
X376450Y261050D01*
Y260550D01*
X376700Y260300D01*
Y261800D02*
X376450Y262050D01*
Y262549D01*
X376700Y262799D01*
X376950D01*
X377200Y262549D01*
Y262299D01*
Y262549D01*
X377450Y262799D01*
X377700D01*
X377950Y262549D01*
Y262050D01*
X377700Y261800D01*
X206650Y250274D02*
X208150D01*
Y249525D01*
X207900Y249275D01*
X207400D01*
X207150Y249525D01*
Y250274D01*
Y249775D02*
X206650Y249275D01*
Y248775D02*
Y248275D01*
Y248525D01*
X208150D01*
X207900Y248775D01*
X206650Y246526D02*
Y247525D01*
X207650Y246526D01*
X207900D01*
X208150Y246776D01*
Y247275D01*
X207900Y247525D01*
X359250Y222350D02*
X360750D01*
Y223100D01*
X360500Y223350D01*
X359500D01*
X359250Y223100D01*
Y222350D01*
Y224850D02*
Y223850D01*
X360000D01*
X359750Y224350D01*
Y224600D01*
X360000Y224850D01*
X360500D01*
X360750Y224600D01*
Y224100D01*
X360500Y223850D01*
X311000Y241950D02*
X310750Y242199D01*
X310250D01*
X310000Y241950D01*
Y240950D01*
X310250Y240700D01*
X310750D01*
X311000Y240950D01*
X312249Y240700D02*
Y242199D01*
X311500Y241450D01*
X312499D01*
X313999Y242199D02*
X313499Y241950D01*
X312999Y241450D01*
Y240950D01*
X313249Y240700D01*
X313749D01*
X313999Y240950D01*
Y241200D01*
X313749Y241450D01*
X312999D01*
X302300Y223800D02*
X302050Y223550D01*
Y223051D01*
X302300Y222801D01*
X303300D01*
X303550Y223051D01*
Y223550D01*
X303300Y223800D01*
X303550Y225050D02*
X302050D01*
X302800Y224300D01*
Y225300D01*
X302050Y226799D02*
Y225800D01*
X302800D01*
X302550Y226300D01*
Y226549D01*
X302800Y226799D01*
X303300D01*
X303550Y226549D01*
Y226050D01*
X303300Y225800D01*
X302100Y230400D02*
X301850Y230150D01*
Y229651D01*
X302100Y229401D01*
X303100D01*
X303350Y229651D01*
Y230150D01*
X303100Y230400D01*
X303350Y231650D02*
X301850D01*
X302600Y230900D01*
Y231900D01*
X303350Y233149D02*
X301850D01*
X302600Y232400D01*
Y233399D01*
X381000Y222250D02*
X380750Y222499D01*
X380250D01*
X380000Y222250D01*
Y221250D01*
X380250Y221000D01*
X380750D01*
X381000Y221250D01*
X382249Y221000D02*
Y222499D01*
X381500Y221750D01*
X382499D01*
X382999Y222250D02*
X383249Y222499D01*
X383749D01*
X383999Y222250D01*
Y222000D01*
X383749Y221750D01*
X383499D01*
X383749D01*
X383999Y221500D01*
Y221250D01*
X383749Y221000D01*
X383249D01*
X382999Y221250D01*
X394200Y223750D02*
X393950Y224000D01*
X393450D01*
X393200Y223750D01*
Y222750D01*
X393450Y222500D01*
X393950D01*
X394200Y222750D01*
X395449Y222500D02*
Y224000D01*
X394700Y223250D01*
X395699D01*
X397199Y222500D02*
X396199D01*
X397199Y223500D01*
Y223750D01*
X396949Y224000D01*
X396449D01*
X396199Y223750D01*
X395000Y236550D02*
X394750Y236800D01*
X394250D01*
X394000Y236550D01*
Y235550D01*
X394250Y235300D01*
X394750D01*
X395000Y235550D01*
X396249Y235300D02*
Y236800D01*
X395499Y236050D01*
X396499D01*
X396999Y235300D02*
X397499D01*
X397249D01*
Y236800D01*
X396999Y236550D01*
X342500Y224600D02*
X342250Y224350D01*
Y223851D01*
X342500Y223601D01*
X343500D01*
X343750Y223851D01*
Y224350D01*
X343500Y224600D01*
X343750Y225850D02*
X342250D01*
X343000Y225100D01*
Y226100D01*
X342500Y226600D02*
X342250Y226850D01*
Y227349D01*
X342500Y227599D01*
X343500D01*
X343750Y227349D01*
Y226850D01*
X343500Y226600D01*
X342500D01*
X342300Y217800D02*
X342050Y217550D01*
Y217051D01*
X342300Y216801D01*
X343300D01*
X343550Y217051D01*
Y217550D01*
X343300Y217800D01*
X342300Y218300D02*
X342050Y218550D01*
Y219050D01*
X342300Y219300D01*
X342550D01*
X342800Y219050D01*
Y218800D01*
Y219050D01*
X343050Y219300D01*
X343300D01*
X343550Y219050D01*
Y218550D01*
X343300Y218300D01*
Y219800D02*
X343550Y220050D01*
Y220549D01*
X343300Y220799D01*
X342300D01*
X342050Y220549D01*
Y220050D01*
X342300Y219800D01*
X342550D01*
X342800Y220050D01*
Y220799D01*
X362800Y264250D02*
X362550Y264499D01*
X362050D01*
X361800Y264250D01*
Y263250D01*
X362050Y263000D01*
X362550D01*
X362800Y263250D01*
X363299Y264250D02*
X363549Y264499D01*
X364049D01*
X364299Y264250D01*
Y264000D01*
X364049Y263750D01*
X363799D01*
X364049D01*
X364299Y263500D01*
Y263250D01*
X364049Y263000D01*
X363549D01*
X363299Y263250D01*
X364799Y264250D02*
X365049Y264499D01*
X365549D01*
X365799Y264250D01*
Y264000D01*
X365549Y263750D01*
X365799Y263500D01*
Y263250D01*
X365549Y263000D01*
X365049D01*
X364799Y263250D01*
Y263500D01*
X365049Y263750D01*
X364799Y264000D01*
Y264250D01*
X365049Y263750D02*
X365549D01*
X388500Y259200D02*
X388250Y258950D01*
Y258451D01*
X388500Y258201D01*
X389500D01*
X389750Y258451D01*
Y258950D01*
X389500Y259200D01*
X388500Y259700D02*
X388250Y259950D01*
Y260450D01*
X388500Y260700D01*
X388750D01*
X389000Y260450D01*
Y260200D01*
Y260450D01*
X389250Y260700D01*
X389500D01*
X389750Y260450D01*
Y259950D01*
X389500Y259700D01*
X388250Y261200D02*
Y262199D01*
X388500D01*
X389500Y261200D01*
X389750D01*
X353700Y252250D02*
X353450Y252500D01*
X352950D01*
X352700Y252250D01*
Y251250D01*
X352950Y251000D01*
X353450D01*
X353700Y251250D01*
X354200Y252250D02*
X354449Y252500D01*
X354949D01*
X355199Y252250D01*
Y252000D01*
X354949Y251750D01*
X354699D01*
X354949D01*
X355199Y251500D01*
Y251250D01*
X354949Y251000D01*
X354449D01*
X354200Y251250D01*
X356699Y252500D02*
X356199Y252250D01*
X355699Y251750D01*
Y251250D01*
X355949Y251000D01*
X356449D01*
X356699Y251250D01*
Y251500D01*
X356449Y251750D01*
X355699D01*
X303100Y218200D02*
X302850Y217950D01*
Y217451D01*
X303100Y217201D01*
X304100D01*
X304350Y217451D01*
Y217950D01*
X304100Y218200D01*
X303100Y218700D02*
X302850Y218950D01*
Y219450D01*
X303100Y219700D01*
X303350D01*
X303600Y219450D01*
Y219200D01*
Y219450D01*
X303850Y219700D01*
X304100D01*
X304350Y219450D01*
Y218950D01*
X304100Y218700D01*
X304350Y220949D02*
X302850D01*
X303600Y220200D01*
Y221199D01*
X376700Y265000D02*
X376450Y264750D01*
Y264251D01*
X376700Y264001D01*
X377700D01*
X377950Y264251D01*
Y264750D01*
X377700Y265000D01*
X376700Y265500D02*
X376450Y265750D01*
Y266250D01*
X376700Y266500D01*
X376950D01*
X377200Y266250D01*
Y266000D01*
Y266250D01*
X377450Y266500D01*
X377700D01*
X377950Y266250D01*
Y265750D01*
X377700Y265500D01*
X377950Y267999D02*
Y267000D01*
X376950Y267999D01*
X376700D01*
X376450Y267749D01*
Y267250D01*
X376700Y267000D01*
X271875Y242300D02*
X272125Y242050D01*
X272624D01*
X272874Y242300D01*
Y243300D01*
X272624Y243550D01*
X272125D01*
X271875Y243300D01*
X271375Y243550D02*
X270875D01*
X271125D01*
Y242050D01*
X271375Y242300D01*
X269375Y243550D02*
Y242050D01*
X270125Y242800D01*
X269126D01*
X259875Y242500D02*
X260125Y242250D01*
X260625D01*
X260874Y242500D01*
Y243500D01*
X260625Y243750D01*
X260125D01*
X259875Y243500D01*
X259375Y243750D02*
X258875D01*
X259125D01*
Y242250D01*
X259375Y242500D01*
X258125D02*
X257875Y242250D01*
X257376D01*
X257126Y242500D01*
Y242750D01*
X257376Y243000D01*
X257625D01*
X257376D01*
X257126Y243250D01*
Y243500D01*
X257376Y243750D01*
X257875D01*
X258125Y243500D01*
X265875Y242500D02*
X266125Y242250D01*
X266624D01*
X266874Y242500D01*
Y243500D01*
X266624Y243750D01*
X266125D01*
X265875Y243500D01*
X265375Y243750D02*
X264875D01*
X265125D01*
Y242250D01*
X265375Y242500D01*
X263126Y243750D02*
X264125D01*
X263126Y242750D01*
Y242500D01*
X263375Y242250D01*
X263875D01*
X264125Y242500D01*
X208500Y96550D02*
X208250Y96300D01*
Y95800D01*
X208500Y95550D01*
X209500D01*
X209750Y95800D01*
Y96300D01*
X209500Y96550D01*
X209750Y98050D02*
Y97050D01*
X208750Y98050D01*
X208500D01*
X208250Y97800D01*
Y97300D01*
X208500Y97050D01*
X345250Y272251D02*
X346750D01*
Y273001D01*
X346500Y273251D01*
X346250D01*
X346000Y273001D01*
Y272251D01*
Y273001D01*
X345750Y273251D01*
X345500D01*
X345250Y273001D01*
Y272251D01*
Y274750D02*
Y274250D01*
Y274500D01*
X346500D01*
X346750Y274250D01*
Y274000D01*
X346500Y273750D01*
X345250Y275250D02*
Y276250D01*
Y275750D01*
X346750D01*
X345250Y277749D02*
Y276749D01*
X346000D01*
X345750Y277249D01*
Y277499D01*
X346000Y277749D01*
X346500D01*
X346750Y277499D01*
Y276999D01*
X346500Y276749D01*
D24*
X219882Y38189D02*
D03*
M02*
