G04*
G04 #@! TF.GenerationSoftware,Altium Limited,Altium Designer,21.7.1 (17)*
G04*
G04 Layer_Physical_Order=3*
G04 Layer_Color=128*
%FSLAX25Y25*%
%MOIN*%
G70*
G04*
G04 #@! TF.SameCoordinates,891A90FC-BE59-465C-B327-3CD4912ABD0C*
G04*
G04*
G04 #@! TF.FilePolarity,Negative*
G04*
G01*
G75*
%ADD19C,0.00787*%
%ADD178C,0.02200*%
%ADD179C,0.04000*%
%ADD184R,0.09543X0.08362*%
%ADD185C,0.08756*%
%ADD187C,0.12890*%
%ADD188C,0.09543*%
%ADD189C,0.09150*%
%ADD190C,0.09622*%
%ADD191C,0.11118*%
%ADD192C,0.07378*%
G04:AMPARAMS|DCode=193|XSize=63.779mil|YSize=63.779mil|CornerRadius=0mil|HoleSize=0mil|Usage=FLASHONLY|Rotation=0.000|XOffset=0mil|YOffset=0mil|HoleType=Round|Shape=Relief|Width=15mil|Gap=10mil|Entries=4|*
%AMTHD193*
7,0,0,0.06378,0.04378,0.01500,45*
%
%ADD193THD193*%
%ADD194C,0.03600*%
%ADD195R,0.08362X0.16236*%
%ADD196R,0.16236X0.07181*%
%AMTHRECTD197*
4,1,4,-0.04272,-0.03681,-0.04272,0.03681,0.04272,0.03681,0.04272,-0.03681,-0.04272,-0.03681,0.0*
4,0,4,-0.03272,-0.02681,-0.03272,0.02681,0.03272,0.02681,0.03272,-0.02681,-0.03272,-0.02681,0.0*
20,0,0.01500,-0.00591,0.00000,-0.07953,-0.07362,0*
20,0,0.01500,0.00591,0.00000,0.07953,0.07362,0*
20,0,0.01500,-0.00591,0.00000,-0.07953,0.07362,0*
20,0,0.01500,0.00591,0.00000,0.07953,-0.07362,0*
%
%ADD197THRECTD197*%

G04:AMPARAMS|DCode=198|XSize=81.496mil|YSize=81.496mil|CornerRadius=0mil|HoleSize=0mil|Usage=FLASHONLY|Rotation=0.000|XOffset=0mil|YOffset=0mil|HoleType=Round|Shape=Relief|Width=15mil|Gap=10mil|Entries=4|*
%AMTHD198*
7,0,0,0.08150,0.06150,0.01500,45*
%
%ADD198THD198*%
G36*
X111000Y285400D02*
Y195600D01*
X111200D01*
X115200Y191600D01*
X157400D01*
X159800Y189200D01*
Y60400D01*
X157200Y57800D01*
X53800D01*
X48200Y52200D01*
Y-0D01*
X-0Y-0D01*
X-0Y285199D01*
X111000Y285400D01*
D02*
G37*
D19*
X96063Y88976D02*
Y108661D01*
Y88976D02*
X107087Y100000D01*
D178*
X169000D02*
X179600Y89400D01*
X162600Y100000D02*
X169000D01*
X155800Y93200D02*
X162600Y100000D01*
X179600Y89400D02*
X192400D01*
X219000Y116000D01*
Y151000D01*
X215200Y154800D02*
X219000Y151000D01*
X207200Y154800D02*
X215200D01*
X204000Y158000D02*
X207200Y154800D01*
X204000Y158000D02*
Y163200D01*
X207200Y166400D01*
X249800D01*
X251800Y168400D01*
Y175000D01*
X224800Y202000D02*
X251800Y175000D01*
X224800Y202000D02*
Y226400D01*
X190000Y261200D02*
X224800Y226400D01*
X171000Y261200D02*
X190000D01*
X162400Y269800D02*
X171000Y261200D01*
X162400Y269800D02*
Y274200D01*
X165200Y277000D01*
X170000D01*
X171400Y275600D01*
X178400Y268600D01*
X198400D01*
X232800Y234200D01*
Y205600D02*
Y234200D01*
Y205600D02*
X290551Y147849D01*
Y64951D02*
Y147849D01*
X274600Y49000D02*
X290551Y64951D01*
X259400Y49000D02*
X274600D01*
X251000Y40600D02*
X259400Y49000D01*
X217200Y40600D02*
X251000D01*
X212000Y45800D02*
X217200Y40600D01*
X155800Y73200D02*
Y93200D01*
Y73200D02*
X165200Y63800D01*
X178800D01*
X191400Y51200D01*
X206600D01*
X212000Y45800D01*
D179*
X0Y0D02*
X290600D01*
X290600Y170030D02*
X290600Y0D01*
X290600Y170030D02*
Y210660D01*
X401200D01*
Y285463D01*
X289370D02*
X401200D01*
X289370Y285433D02*
Y285463D01*
X0Y285433D02*
X289370D01*
X0Y0D02*
Y285433D01*
D184*
X180693Y48465D02*
D03*
D185*
X122047Y42323D02*
D03*
Y20669D02*
D03*
X326403Y257613D02*
D03*
X340545Y243471D02*
D03*
Y257613D02*
D03*
X62992Y20669D02*
D03*
Y42323D02*
D03*
D187*
X23622Y41142D02*
D03*
Y21063D02*
D03*
X19094Y265748D02*
D03*
Y245669D02*
D03*
Y213779D02*
D03*
Y193701D02*
D03*
D188*
X23228Y62992D02*
D03*
X23622Y173228D02*
D03*
X141732Y106299D02*
D03*
Y145669D02*
D03*
X62992Y86614D02*
D03*
Y165354D02*
D03*
D189*
X279200Y241305D02*
D03*
Y247211D02*
D03*
Y253116D02*
D03*
Y259022D02*
D03*
Y264928D02*
D03*
X303000Y270706D02*
D03*
Y264800D02*
D03*
Y258894D02*
D03*
Y252989D02*
D03*
Y247083D02*
D03*
X173425Y177953D02*
D03*
X193110D02*
D03*
D190*
X262468Y276712D02*
D03*
X250657D02*
D03*
D191*
X35433Y246457D02*
D03*
X65433D02*
D03*
X105433D02*
D03*
Y276457D02*
D03*
X45433D02*
D03*
X35472Y200748D02*
D03*
X65472D02*
D03*
X105472D02*
D03*
Y230748D02*
D03*
X45472D02*
D03*
D192*
X108019Y31496D02*
D03*
X144400Y55600D02*
D03*
X186416Y125984D02*
D03*
X342400Y270400D02*
D03*
X185600Y188800D02*
D03*
X324000Y236000D02*
D03*
X139600Y256200D02*
D03*
X318400Y259200D02*
D03*
X372200Y216800D02*
D03*
X319600Y241600D02*
D03*
X115400Y219800D02*
D03*
X170000Y244800D02*
D03*
X149200Y248400D02*
D03*
X182600Y279000D02*
D03*
X156600Y248400D02*
D03*
X187900Y279000D02*
D03*
X259200Y190400D02*
D03*
X166000Y240400D02*
D03*
X259200Y200400D02*
D03*
Y210400D02*
D03*
X186600Y251200D02*
D03*
X240600Y216600D02*
D03*
X231200Y186600D02*
D03*
X159600Y51000D02*
D03*
X171600Y52000D02*
D03*
X191200Y120000D02*
D03*
X210200Y146800D02*
D03*
X160600Y235800D02*
D03*
X218600Y204000D02*
D03*
D193*
X172200Y69800D02*
D03*
X238000Y243000D02*
D03*
X210400Y160200D02*
D03*
X185000Y114000D02*
D03*
X390494Y228362D02*
D03*
X307000Y278400D02*
D03*
X316939Y235394D02*
D03*
X367000Y216800D02*
D03*
X169200Y92400D02*
D03*
X163800D02*
D03*
X171400Y77200D02*
D03*
X164000Y77400D02*
D03*
X179400Y97600D02*
D03*
Y103200D02*
D03*
Y108600D02*
D03*
X185000D02*
D03*
X238600Y51000D02*
D03*
X233067D02*
D03*
X229400Y266200D02*
D03*
X253200Y227600D02*
D03*
X200000Y199000D02*
D03*
X171800Y253000D02*
D03*
X169200Y211200D02*
D03*
X222000Y51000D02*
D03*
X227533D02*
D03*
X216200Y52000D02*
D03*
X168200Y271400D02*
D03*
X205400Y89600D02*
D03*
X193600Y132600D02*
D03*
X115600Y251600D02*
D03*
X152900Y257345D02*
D03*
D194*
X291295Y210188D02*
Y285188D01*
D195*
X203862Y36244D02*
D03*
X270791D02*
D03*
D196*
X185039Y23622D02*
D03*
X251969D02*
D03*
D197*
X247622Y48465D02*
D03*
D198*
X279200Y235400D02*
D03*
X303000Y241178D02*
D03*
M02*
