G04*
G04 #@! TF.GenerationSoftware,Altium Limited,Altium Designer,21.7.1 (17)*
G04*
G04 Layer_Color=255*
%FSLAX25Y25*%
%MOIN*%
G70*
G04*
G04 #@! TF.SameCoordinates,891A90FC-BE59-465C-B327-3CD4912ABD0C*
G04*
G04*
G04 #@! TF.FilePolarity,Positive*
G04*
G01*
G75*
%ADD112C,0.05906*%
%ADD167R,0.06299X0.15748*%
%ADD168R,0.15748X0.06299*%
%ADD169R,0.07087X0.06299*%
%ADD170C,0.06693*%
%ADD171C,0.11811*%
%ADD172C,0.07874*%
%ADD173R,0.03937X0.03937*%
%ADD174C,0.05512*%
%ADD175C,0.09843*%
%ADD176R,0.09843X0.09843*%
D112*
X326403Y257613D02*
D03*
X340545Y243471D02*
D03*
Y257613D02*
D03*
D167*
X203862Y36244D02*
D03*
X270791D02*
D03*
D168*
X185039Y23622D02*
D03*
X251969D02*
D03*
D169*
X180693Y48465D02*
D03*
X247622D02*
D03*
D170*
X122047Y42323D02*
D03*
Y20669D02*
D03*
X62992D02*
D03*
Y42323D02*
D03*
D171*
X23622Y41142D02*
D03*
Y21063D02*
D03*
X19094Y265748D02*
D03*
Y245669D02*
D03*
Y213779D02*
D03*
Y193701D02*
D03*
D172*
X23228Y62992D02*
D03*
X23622Y173228D02*
D03*
X173425Y177953D02*
D03*
X193110D02*
D03*
D173*
X279200Y235400D02*
D03*
Y241305D02*
D03*
Y247211D02*
D03*
Y253116D02*
D03*
Y259022D02*
D03*
Y264928D02*
D03*
X303000Y270706D02*
D03*
Y264800D02*
D03*
Y258894D02*
D03*
Y252989D02*
D03*
Y247083D02*
D03*
Y241178D02*
D03*
D174*
X262468Y276712D02*
D03*
X250657D02*
D03*
D175*
X35433Y246457D02*
D03*
X65433D02*
D03*
X105433D02*
D03*
Y276457D02*
D03*
X45433D02*
D03*
X35472Y200748D02*
D03*
X65472D02*
D03*
X105472D02*
D03*
Y230748D02*
D03*
X45472D02*
D03*
D176*
X141732Y106299D02*
D03*
Y145669D02*
D03*
X62992Y86614D02*
D03*
Y165354D02*
D03*
M02*
