G04*
G04 #@! TF.GenerationSoftware,Altium Limited,Altium Designer,21.7.1 (17)*
G04*
G04 Layer_Color=1930808*
%FSLAX25Y25*%
%MOIN*%
G70*
G04*
G04 #@! TF.SameCoordinates,891A90FC-BE59-465C-B327-3CD4912ABD0C*
G04*
G04*
G04 #@! TF.FilePolarity,Positive*
G04*
G01*
G75*
%ADD11C,0.01968*%
%ADD12C,0.00394*%
%ADD14C,0.01575*%
%ADD17C,0.01000*%
%ADD19C,0.00787*%
%ADD201C,0.00591*%
%ADD202C,0.00197*%
D11*
X224016Y112763D02*
Y104563D01*
X225656Y102923D01*
X228935D01*
X230575Y104563D01*
Y112763D01*
X240415D02*
X237135Y111123D01*
X233855Y107843D01*
Y104563D01*
X235495Y102923D01*
X238775D01*
X240415Y104563D01*
Y106203D01*
X238775Y107843D01*
X233855D01*
D12*
X148622Y31496D02*
G03*
X148622Y31496I-26575J0D01*
G01*
X336209Y232241D02*
G03*
X330739Y232241I-2735J18301D01*
G01*
X89567Y31496D02*
G03*
X89567Y31496I-26575J0D01*
G01*
X207283Y177953D02*
G03*
X207283Y177953I-24016J0D01*
G01*
X147244Y38976D02*
X162992D01*
Y44488D01*
X147244D02*
X162992D01*
X147244Y38976D02*
Y44488D01*
X154697Y-6272D02*
Y61839D01*
X215327D01*
Y-6272D02*
Y61839D01*
X154697Y-6272D02*
X215327D01*
X209842Y67884D02*
Y171034D01*
X285433Y67884D02*
Y171034D01*
X209842D02*
X285433D01*
X209842Y67884D02*
X285433D01*
X336230Y231250D02*
Y232038D01*
X330718Y228888D02*
Y232040D01*
X336230Y229676D02*
Y231250D01*
Y228888D02*
Y229676D01*
X330718Y228888D02*
X331540Y228066D01*
X335408D02*
X336230Y228888D01*
X334943Y228066D02*
X335408D01*
X331540D02*
X335049D01*
X221626Y-6272D02*
X282256D01*
Y61839D01*
X221626D02*
X282256D01*
X221626Y-6272D02*
Y61839D01*
X295276Y174022D02*
Y227093D01*
X245669Y174022D02*
X295276D01*
X245669Y227093D02*
X295276D01*
X245669Y174022D02*
Y227093D01*
X206496Y34646D02*
X233268D01*
Y65748D01*
X206496D02*
X233268D01*
X206496Y34646D02*
Y65748D01*
X353701Y220652D02*
Y226148D01*
X366378D01*
Y220652D02*
Y226148D01*
X353701Y220652D02*
X366378D01*
X324501Y276052D02*
X337178D01*
Y281568D01*
X324501D02*
X337178D01*
X324501Y276052D02*
Y281568D01*
X-16267Y54724D02*
X32026D01*
Y7480D02*
Y54724D01*
X-16267Y7480D02*
X32026D01*
X-16267D02*
Y54724D01*
X-20795Y279331D02*
X27499D01*
Y232087D02*
Y279331D01*
X-20795Y232087D02*
X27499D01*
X-20795D02*
Y279331D01*
Y227362D02*
X27499D01*
Y180118D02*
Y227362D01*
X-20795Y180118D02*
X27499D01*
X-20795D02*
Y227362D01*
X43377Y58661D02*
Y177588D01*
X3937D02*
X43377D01*
X3937Y58661D02*
X43377D01*
X3937D02*
Y177588D01*
X171306Y265167D02*
Y288002D01*
X131935D02*
X171306D01*
X131935Y265167D02*
Y288002D01*
Y265167D02*
X171306D01*
X273688Y228904D02*
X288255D01*
Y271424D01*
X273688D02*
X288255D01*
X273688Y228904D02*
Y271424D01*
X293945Y277202D02*
X308512D01*
X293945Y234682D02*
Y277202D01*
Y234682D02*
X308512D01*
Y277202D01*
X146850Y58268D02*
X155512D01*
X146850Y44882D02*
Y58268D01*
Y44882D02*
X155512D01*
Y58268D01*
X209480Y58014D02*
Y84786D01*
X194520D02*
X209480D01*
X194520Y58014D02*
Y84786D01*
Y58014D02*
X209480D01*
X146601Y255659D02*
X159199D01*
Y241486D02*
Y255659D01*
X146601Y241486D02*
X159199D01*
X146601D02*
Y255659D01*
X310029Y261471D02*
X317911D01*
X310029D02*
Y281719D01*
X317911D01*
Y261471D02*
Y281719D01*
X124475Y254663D02*
X129223D01*
X124475D02*
Y265419D01*
X129223D01*
Y254663D02*
Y265419D01*
X124162Y265935D02*
Y270683D01*
X134918D01*
Y265935D02*
Y270683D01*
X124162Y265935D02*
X134918D01*
X136986Y206834D02*
Y211582D01*
X126230Y206834D02*
X136986D01*
X126230D02*
Y211582D01*
X136986D01*
X121218Y208586D02*
X125966D01*
Y197830D02*
Y208586D01*
X121218Y197830D02*
X125966D01*
X121218D02*
Y208586D01*
X204311Y201842D02*
X209059D01*
Y191087D02*
Y201842D01*
X204311Y191087D02*
X209059D01*
X204311D02*
Y201842D01*
X136986Y211834D02*
Y216582D01*
X126230Y211834D02*
X136986D01*
X126230D02*
Y216582D01*
X136986D01*
X153614Y224318D02*
Y229066D01*
X164370D01*
Y224318D02*
Y229066D01*
X153614Y224318D02*
X164370D01*
X144514Y216018D02*
Y220766D01*
X155270D01*
Y216018D02*
Y220766D01*
X144514Y216018D02*
X155270D01*
X201418Y262186D02*
X206166D01*
Y251430D02*
Y262186D01*
X201418Y251430D02*
X206166D01*
X201418D02*
Y262186D01*
X194818Y278586D02*
X199566D01*
Y267830D02*
Y278586D01*
X194818Y267830D02*
X199566D01*
X194818D02*
Y278586D01*
X208618Y252586D02*
X213366D01*
Y241830D02*
Y252586D01*
X208618Y241830D02*
X213366D01*
X208618D02*
Y252586D01*
X201418Y273786D02*
X206166D01*
Y263030D02*
Y273786D01*
X201418Y263030D02*
X206166D01*
X201418D02*
Y273786D01*
X185518Y277286D02*
X190266D01*
Y266530D02*
Y277286D01*
X185518Y266530D02*
X190266D01*
X185518D02*
Y277286D01*
X180218D02*
X184966D01*
Y266530D02*
Y277286D01*
X180218Y266530D02*
X184966D01*
X180218D02*
Y277286D01*
X216234Y188814D02*
X220982D01*
X216234D02*
Y199570D01*
X220982D01*
Y188814D02*
Y199570D01*
X255400Y261571D02*
Y266319D01*
X244645Y261571D02*
X255400D01*
X244645D02*
Y266319D01*
X255400D01*
X226618Y205186D02*
X231366D01*
Y194430D02*
Y205186D01*
X226618Y194430D02*
X231366D01*
X226618D02*
Y205186D01*
X217214Y215418D02*
Y220166D01*
X227970D01*
Y215418D02*
Y220166D01*
X217214Y215418D02*
X227970D01*
X235986Y222234D02*
Y226982D01*
X225230Y222234D02*
X235986D01*
X225230D02*
Y226982D01*
X235986D01*
X219953Y171650D02*
Y176398D01*
X209197Y171650D02*
X219953D01*
X209197D02*
Y176398D01*
X219953D01*
X273486Y261634D02*
Y266382D01*
X262730Y261634D02*
X273486D01*
X262730D02*
Y266382D01*
X273486D01*
X382634Y258406D02*
Y263154D01*
X371878Y258406D02*
X382634D01*
X371878D02*
Y263154D01*
X382634D01*
X353321Y272644D02*
X358069D01*
Y261888D02*
Y272644D01*
X353321Y261888D02*
X358069D01*
X353321D02*
Y272644D01*
X309818Y261186D02*
X314566D01*
Y250430D02*
Y261186D01*
X309818Y250430D02*
X314566D01*
X309818D02*
Y261186D01*
X383486Y268026D02*
Y272774D01*
X394242D01*
Y268026D02*
Y272774D01*
X383486Y268026D02*
X394242D01*
X394307Y262924D02*
Y267672D01*
X383551Y262924D02*
X394307D01*
X383551D02*
Y267672D01*
X394307D01*
X366634Y258314D02*
X371382D01*
X366634D02*
Y269070D01*
X371382D01*
Y258314D02*
Y269070D01*
X323886Y216034D02*
Y220782D01*
X313130Y216034D02*
X323886D01*
X313130D02*
Y220782D01*
X323886D01*
X330886Y226975D02*
X335634D01*
Y216219D02*
Y226975D01*
X330886Y216219D02*
X335634D01*
X330886D02*
Y226975D01*
X325736D02*
X330485D01*
Y216219D02*
Y226975D01*
X325736Y216219D02*
X330485D01*
X325736D02*
Y226975D01*
X367818Y229786D02*
X372566D01*
Y219030D02*
Y229786D01*
X367818Y219030D02*
X372566D01*
X367818D02*
Y229786D01*
X384834Y216414D02*
X389582D01*
X384834D02*
Y227170D01*
X389582D01*
Y216414D02*
Y227170D01*
X364779Y215473D02*
Y220220D01*
X354023Y215473D02*
X364779D01*
X354023D02*
Y220220D01*
X364779D01*
X374418Y227186D02*
X379166D01*
Y216430D02*
Y227186D01*
X374418Y216430D02*
X379166D01*
X374418D02*
Y227186D01*
X338451Y270207D02*
Y274955D01*
X327695Y270207D02*
X338451D01*
X327695D02*
Y274955D01*
X338451D01*
X319069Y281699D02*
X323817D01*
Y270943D02*
Y281699D01*
X319069Y270943D02*
X323817D01*
X319069D02*
Y281699D01*
X393218Y256186D02*
X397966D01*
Y245430D02*
Y256186D01*
X393218Y245430D02*
X397966D01*
X393218D02*
Y256186D01*
X179921Y82087D02*
X194095D01*
Y67913D02*
Y82087D01*
X179921Y67913D02*
X194095D01*
X179921D02*
Y82087D01*
X240027Y288031D02*
X273098D01*
Y266771D02*
Y288031D01*
X240027Y266771D02*
X273098D01*
X240027D02*
Y288031D01*
X159055Y119291D02*
Y153150D01*
X200787D01*
Y119291D02*
Y153150D01*
X159055Y119291D02*
X200787D01*
X352890Y273361D02*
Y281235D01*
X373114D01*
Y273361D02*
Y281235D01*
X352890Y273361D02*
X373114D01*
X394159D02*
Y281235D01*
X373935Y273361D02*
X394159D01*
X373935D02*
Y281235D01*
X394159D01*
X202379Y91535D02*
Y104134D01*
X196453D02*
X202379D01*
X196453Y91535D02*
Y104134D01*
Y91535D02*
X202379D01*
X156701Y59770D02*
X169299D01*
X156701Y53844D02*
Y59770D01*
Y53844D02*
X169299D01*
Y59770D01*
X196440Y104528D02*
Y117126D01*
Y104528D02*
X202366D01*
Y117126D01*
X196440D02*
X202366D01*
X202936Y104528D02*
Y117126D01*
Y104528D02*
X208862D01*
Y117126D01*
X202936D02*
X208862D01*
X177970Y271101D02*
Y283699D01*
X172044D02*
X177970D01*
X172044Y271101D02*
Y283699D01*
Y271101D02*
X177970D01*
X267338Y228921D02*
Y241520D01*
X261412D02*
X267338D01*
X261412Y228921D02*
Y241520D01*
Y228921D02*
X267338D01*
X261039D02*
Y241520D01*
X255113D02*
X261039D01*
X255113Y228921D02*
Y241520D01*
Y228921D02*
X261039D01*
X273370D02*
Y241520D01*
X267444D02*
X273370D01*
X267444Y228921D02*
Y241520D01*
Y228921D02*
X273370D01*
X226541Y268234D02*
X239139D01*
Y274159D01*
X226541D02*
X239139D01*
X226541Y268234D02*
Y274159D01*
X115180Y242306D02*
X127778D01*
Y248232D01*
X115180D02*
X127778D01*
X115180Y242306D02*
Y248232D01*
X226541Y274730D02*
X239139D01*
Y280655D01*
X226541D02*
X239139D01*
X226541Y274730D02*
Y280655D01*
X215970Y188901D02*
Y201499D01*
X210044D02*
X215970D01*
X210044Y188901D02*
Y201499D01*
Y188901D02*
X215970D01*
X227951Y238171D02*
Y250769D01*
X222025D02*
X227951D01*
X222025Y238171D02*
Y250769D01*
Y238171D02*
X227951D01*
X221451D02*
Y250769D01*
X215526D02*
X221451D01*
X215526Y238171D02*
Y250769D01*
Y238171D02*
X221451D01*
X234447D02*
Y250769D01*
X228521D02*
X234447D01*
X228521Y238171D02*
Y250769D01*
Y238171D02*
X234447D01*
X173430Y204101D02*
Y216699D01*
Y204101D02*
X179356D01*
Y216699D01*
X173430D02*
X179356D01*
X182570Y243041D02*
Y255639D01*
X176644D02*
X182570D01*
X176644Y243041D02*
Y255639D01*
Y243041D02*
X182570D01*
X198601Y202730D02*
X211199D01*
Y208656D01*
X198601D02*
X211199D01*
X198601Y202730D02*
Y208656D01*
X202936Y120669D02*
Y133268D01*
Y120669D02*
X208862D01*
Y133268D01*
X202936D02*
X208862D01*
X202379Y129724D02*
Y142323D01*
X196453D02*
X202379D01*
X196453Y129724D02*
Y142323D01*
Y129724D02*
X202379D01*
X208875Y133661D02*
Y146260D01*
X202949D02*
X208875D01*
X202949Y133661D02*
Y146260D01*
Y133661D02*
X208875D01*
X336608Y215864D02*
X349206D01*
Y221789D01*
X336608D02*
X349206D01*
X336608Y215864D02*
Y221789D01*
Y222645D02*
X349206D01*
Y228571D01*
X336608D02*
X349206D01*
X336608Y222645D02*
Y228571D01*
X392230Y216901D02*
Y229499D01*
Y216901D02*
X398156D01*
Y229499D01*
X392230D02*
X398156D01*
X296482Y234275D02*
X309081D01*
X296482Y228349D02*
Y234275D01*
Y228349D02*
X309081D01*
Y234275D01*
X296441Y227905D02*
X309040D01*
X296441Y221979D02*
Y227905D01*
Y221979D02*
X309040D01*
Y227905D01*
X314970Y235101D02*
Y247699D01*
X309044D02*
X314970D01*
X309044Y235101D02*
Y247699D01*
Y235101D02*
X314970D01*
X169410Y55398D02*
X180194D01*
Y59335D01*
X169410D02*
X180194D01*
X169410Y55398D02*
Y59335D01*
X207283Y92051D02*
Y102835D01*
X203346D02*
X207283D01*
X203346Y92051D02*
Y102835D01*
Y92051D02*
X207283D01*
X180433Y90354D02*
X191217D01*
X180433Y86417D02*
Y90354D01*
Y86417D02*
X191217D01*
Y90354D01*
X117010Y249031D02*
X127794D01*
Y252969D01*
X117010D02*
X127794D01*
X117010Y249031D02*
Y252969D01*
X130569Y193010D02*
Y203794D01*
X126631D02*
X130569D01*
X126631Y193010D02*
Y203794D01*
Y193010D02*
X130569D01*
X153832Y194406D02*
Y205190D01*
Y194406D02*
X157768D01*
Y205190D01*
X153832D02*
X157768D01*
X371855Y267859D02*
X382638D01*
X371855Y263921D02*
Y267859D01*
Y263921D02*
X382638D01*
Y267859D01*
X298206Y221168D02*
X308990D01*
X298206Y217231D02*
Y221168D01*
Y217231D02*
X308990D01*
Y221168D01*
X356687Y246367D02*
Y257150D01*
X352750D02*
X356687D01*
X352750Y246367D02*
Y257150D01*
Y246367D02*
X356687D01*
X383527Y262140D02*
X394311D01*
X383527Y258203D02*
Y262140D01*
Y258203D02*
X394311D01*
Y262140D01*
X365769Y258310D02*
Y269093D01*
X361831D02*
X365769D01*
X361831Y258310D02*
Y269093D01*
Y258310D02*
X365769D01*
X397768Y230610D02*
Y241394D01*
X393831D02*
X397768D01*
X393831Y230610D02*
Y241394D01*
Y230610D02*
X397768D01*
X380031Y216406D02*
Y227190D01*
Y216406D02*
X383968D01*
Y227190D01*
X380031D02*
X383968D01*
X203631Y151806D02*
Y162590D01*
Y151806D02*
X207569D01*
Y162590D01*
X203631D02*
X207569D01*
X309741Y221761D02*
X323914D01*
Y234359D01*
X309741D02*
X323914D01*
X309741Y221761D02*
Y234359D01*
X118180Y283277D02*
X129991D01*
X118180Y271466D02*
Y283277D01*
Y271466D02*
X129991D01*
Y283277D01*
X113779Y221260D02*
X125591D01*
X113779Y209449D02*
Y221260D01*
Y209449D02*
X125591D01*
Y221260D01*
X208465Y176969D02*
Y188779D01*
Y176969D02*
X220276D01*
Y188779D01*
X208465D02*
X220276D01*
X221457Y171653D02*
Y183465D01*
Y171653D02*
X233268D01*
Y183465D01*
X221457D02*
X233268D01*
X339758Y281038D02*
X351569D01*
X339758Y269227D02*
Y281038D01*
Y269227D02*
X351569D01*
Y281038D01*
X113744Y257326D02*
Y273074D01*
Y257326D02*
X119256D01*
Y273074D01*
X113744D02*
X119256D01*
X113779Y192913D02*
Y208661D01*
Y192913D02*
X119291D01*
Y208661D01*
X113779D02*
X119291D01*
X162014Y260644D02*
X177762D01*
Y266156D01*
X162014D02*
X177762D01*
X162014Y260644D02*
Y266156D01*
X131570Y192113D02*
Y206287D01*
Y192113D02*
X152830D01*
Y206287D01*
X131570D02*
X152830D01*
X29882Y240984D02*
X110984D01*
X29882D02*
Y281929D01*
X110984D01*
Y240984D02*
Y281929D01*
X29921Y195276D02*
X111024D01*
X29921D02*
Y236221D01*
X111024D01*
Y195276D02*
Y236221D01*
X163562Y90954D02*
X163976Y90945D01*
X163562Y90954D02*
X163583Y92520D01*
Y118110D01*
X195866D01*
Y90945D02*
Y118110D01*
X163976Y90945D02*
X195866D01*
X357474Y230644D02*
X392907D01*
X357474D02*
Y257416D01*
X392907D01*
Y230644D02*
Y257416D01*
X174901Y209046D02*
Y248416D01*
Y209046D02*
X214271D01*
X214665Y248416D01*
X174901D02*
X214665D01*
X157087Y61417D02*
Y190551D01*
X47638Y61417D02*
X157087D01*
X47638D02*
Y190551D01*
X157087D01*
X179527Y60433D02*
Y87992D01*
X159843D02*
X179527D01*
X159843Y60433D02*
Y87992D01*
Y60433D02*
X179527D01*
X206557Y253221D02*
Y280780D01*
Y253221D02*
X226242D01*
Y280780D01*
X206557D02*
X226242D01*
X113779Y222047D02*
X141339D01*
Y241732D01*
X113779D02*
X141339D01*
X113779Y222047D02*
Y241732D01*
X141838Y223357D02*
Y230443D01*
Y223357D02*
X146562D01*
Y230443D01*
X141838D02*
X146562D01*
X158661Y41339D02*
Y43307D01*
X157677D01*
X157350Y42979D01*
Y41667D01*
X157677Y41339D01*
X158661D01*
X156693D02*
X155382D01*
Y41667D01*
X156693Y42979D01*
Y43307D01*
X363149Y222613D02*
Y224581D01*
X362165D01*
X361838Y224253D01*
Y222941D01*
X362165Y222613D01*
X363149D01*
X359870D02*
X361182D01*
Y223597D01*
X360526Y223269D01*
X360198D01*
X359870Y223597D01*
Y224253D01*
X360198Y224581D01*
X360854D01*
X361182Y224253D01*
X333949Y278013D02*
Y279981D01*
X332965D01*
X332638Y279653D01*
Y278341D01*
X332965Y278013D01*
X333949D01*
X330670D02*
X331326Y278341D01*
X331982Y278997D01*
Y279653D01*
X331654Y279981D01*
X330998D01*
X330670Y279653D01*
Y279325D01*
X330998Y278997D01*
X331982D01*
X151968Y54200D02*
Y55512D01*
X150984D01*
Y54856D01*
Y55512D01*
X150000D01*
Y53544D02*
Y52888D01*
Y53216D01*
X151968D01*
X151640Y53544D01*
X199868Y99672D02*
X200196Y100000D01*
Y100656D01*
X199868Y100984D01*
X198556D01*
X198228Y100656D01*
Y100000D01*
X198556Y99672D01*
X199868Y99016D02*
X200196Y98688D01*
Y98032D01*
X199868Y97704D01*
X199540D01*
X199212Y98032D01*
Y98360D01*
Y98032D01*
X198884Y97704D01*
X198556D01*
X198228Y98032D01*
Y98688D01*
X198556Y99016D01*
X161163Y57258D02*
X160835Y57586D01*
X160179D01*
X159851Y57258D01*
Y55946D01*
X160179Y55618D01*
X160835D01*
X161163Y55946D01*
X162803Y55618D02*
Y57586D01*
X161819Y56602D01*
X163131D01*
X198951Y108990D02*
X198623Y108662D01*
Y108006D01*
X198951Y107678D01*
X200263D01*
X200591Y108006D01*
Y108662D01*
X200263Y108990D01*
X198623Y110958D02*
Y109646D01*
X199607D01*
X199279Y110302D01*
Y110630D01*
X199607Y110958D01*
X200263D01*
X200591Y110630D01*
Y109974D01*
X200263Y109646D01*
X205447Y108990D02*
X205119Y108662D01*
Y108006D01*
X205447Y107678D01*
X206759D01*
X207087Y108006D01*
Y108662D01*
X206759Y108990D01*
X205119Y109646D02*
Y110958D01*
X205447D01*
X206759Y109646D01*
X207087D01*
X175458Y279237D02*
X175786Y279565D01*
Y280221D01*
X175458Y280549D01*
X174146D01*
X173818Y280221D01*
Y279565D01*
X174146Y279237D01*
X173818Y278581D02*
Y277925D01*
Y278253D01*
X175786D01*
X175458Y278581D01*
X173818Y276941D02*
Y276285D01*
Y276613D01*
X175786D01*
X175458Y276941D01*
X264827Y237057D02*
X265155Y237385D01*
Y238041D01*
X264827Y238369D01*
X263515D01*
X263187Y238041D01*
Y237385D01*
X263515Y237057D01*
X263187Y236402D02*
Y235746D01*
Y236073D01*
X265155D01*
X264827Y236402D01*
X263187Y233450D02*
Y234762D01*
X264499Y233450D01*
X264827D01*
X265155Y233778D01*
Y234434D01*
X264827Y234762D01*
X258527Y237057D02*
X258855Y237385D01*
Y238041D01*
X258527Y238369D01*
X257215D01*
X256888Y238041D01*
Y237385D01*
X257215Y237057D01*
X256888Y236402D02*
Y235746D01*
Y236073D01*
X258855D01*
X258527Y236402D01*
Y234762D02*
X258855Y234434D01*
Y233778D01*
X258527Y233450D01*
X258199D01*
X257871Y233778D01*
Y234106D01*
Y233778D01*
X257543Y233450D01*
X257215D01*
X256888Y233778D01*
Y234434D01*
X257215Y234762D01*
X270858Y237057D02*
X271186Y237385D01*
Y238041D01*
X270858Y238369D01*
X269546D01*
X269218Y238041D01*
Y237385D01*
X269546Y237057D01*
X269218Y236402D02*
Y235746D01*
Y236073D01*
X271186D01*
X270858Y236402D01*
X269218Y233778D02*
X271186D01*
X270202Y234762D01*
Y233450D01*
X234677Y270745D02*
X235005Y270417D01*
X235661D01*
X235989Y270745D01*
Y272057D01*
X235661Y272385D01*
X235005D01*
X234677Y272057D01*
X234021Y272385D02*
X233365D01*
X233693D01*
Y270417D01*
X234021Y270745D01*
X231069Y270417D02*
X231725Y270745D01*
X232381Y271401D01*
Y272057D01*
X232053Y272385D01*
X231397D01*
X231069Y272057D01*
Y271729D01*
X231397Y271401D01*
X232381D01*
X123316Y244817D02*
X123644Y244490D01*
X124300D01*
X124628Y244817D01*
Y246129D01*
X124300Y246457D01*
X123644D01*
X123316Y246129D01*
X122660Y246457D02*
X122004D01*
X122332D01*
Y244490D01*
X122660Y244817D01*
X121020Y244490D02*
X119708D01*
Y244817D01*
X121020Y246129D01*
Y246457D01*
X234677Y277241D02*
X235005Y276913D01*
X235661D01*
X235989Y277241D01*
Y278553D01*
X235661Y278881D01*
X235005D01*
X234677Y278553D01*
X234021Y278881D02*
X233365D01*
X233693D01*
Y276913D01*
X234021Y277241D01*
X232381D02*
X232053Y276913D01*
X231397D01*
X231069Y277241D01*
Y277569D01*
X231397Y277897D01*
X231069Y278225D01*
Y278553D01*
X231397Y278881D01*
X232053D01*
X232381Y278553D01*
Y278225D01*
X232053Y277897D01*
X232381Y277569D01*
Y277241D01*
X232053Y277897D02*
X231397D01*
X213458Y197037D02*
X213786Y197365D01*
Y198021D01*
X213458Y198349D01*
X212146D01*
X211818Y198021D01*
Y197365D01*
X212146Y197037D01*
X211818Y195069D02*
Y196381D01*
X213130Y195069D01*
X213458D01*
X213786Y195397D01*
Y196053D01*
X213458Y196381D01*
X211818Y194413D02*
Y193757D01*
Y194085D01*
X213786D01*
X213458Y194413D01*
X225440Y246307D02*
X225767Y246635D01*
Y247291D01*
X225440Y247619D01*
X224128D01*
X223800Y247291D01*
Y246635D01*
X224128Y246307D01*
X223800Y244339D02*
Y245651D01*
X225112Y244339D01*
X225440D01*
X225767Y244667D01*
Y245323D01*
X225440Y245651D01*
X223800Y242371D02*
Y243683D01*
X225112Y242371D01*
X225440D01*
X225767Y242699D01*
Y243355D01*
X225440Y243683D01*
X218940Y246307D02*
X219268Y246635D01*
Y247291D01*
X218940Y247619D01*
X217628D01*
X217300Y247291D01*
Y246635D01*
X217628Y246307D01*
X217300Y244339D02*
Y245651D01*
X218612Y244339D01*
X218940D01*
X219268Y244667D01*
Y245323D01*
X218940Y245651D01*
Y243683D02*
X219268Y243355D01*
Y242699D01*
X218940Y242371D01*
X218612D01*
X218284Y242699D01*
Y243027D01*
Y242699D01*
X217956Y242371D01*
X217628D01*
X217300Y242699D01*
Y243355D01*
X217628Y243683D01*
X231936Y246307D02*
X232263Y246635D01*
Y247291D01*
X231936Y247619D01*
X230624D01*
X230296Y247291D01*
Y246635D01*
X230624Y246307D01*
X230296Y244339D02*
Y245651D01*
X231608Y244339D01*
X231936D01*
X232263Y244667D01*
Y245323D01*
X231936Y245651D01*
X230296Y242699D02*
X232263D01*
X231280Y243683D01*
Y242371D01*
X175942Y208563D02*
X175614Y208235D01*
Y207579D01*
X175942Y207251D01*
X177254D01*
X177582Y207579D01*
Y208235D01*
X177254Y208563D01*
X177582Y210531D02*
Y209219D01*
X176270Y210531D01*
X175942D01*
X175614Y210203D01*
Y209547D01*
X175942Y209219D01*
X175614Y212499D02*
Y211187D01*
X176598D01*
X176270Y211843D01*
Y212171D01*
X176598Y212499D01*
X177254D01*
X177582Y212171D01*
Y211515D01*
X177254Y211187D01*
X180058Y251177D02*
X180386Y251505D01*
Y252161D01*
X180058Y252489D01*
X178746D01*
X178418Y252161D01*
Y251505D01*
X178746Y251177D01*
X178418Y249209D02*
Y250521D01*
X179730Y249209D01*
X180058D01*
X180386Y249537D01*
Y250193D01*
X180058Y250521D01*
X180386Y248553D02*
Y247241D01*
X180058D01*
X178746Y248553D01*
X178418D01*
X206737Y205242D02*
X207065Y204914D01*
X207721D01*
X208049Y205242D01*
Y206554D01*
X207721Y206882D01*
X207065D01*
X206737Y206554D01*
X204769Y206882D02*
X206081D01*
X204769Y205570D01*
Y205242D01*
X205097Y204914D01*
X205753D01*
X206081Y205242D01*
X204113D02*
X203785Y204914D01*
X203129D01*
X202801Y205242D01*
Y205570D01*
X203129Y205898D01*
X202801Y206226D01*
Y206554D01*
X203129Y206882D01*
X203785D01*
X204113Y206554D01*
Y206226D01*
X203785Y205898D01*
X204113Y205570D01*
Y205242D01*
X203785Y205898D02*
X203129D01*
X205447Y125131D02*
X205119Y124803D01*
Y124147D01*
X205447Y123820D01*
X206759D01*
X207087Y124147D01*
Y124803D01*
X206759Y125131D01*
X207087Y127099D02*
Y125787D01*
X205775Y127099D01*
X205447D01*
X205119Y126771D01*
Y126115D01*
X205447Y125787D01*
X206759Y127755D02*
X207087Y128083D01*
Y128739D01*
X206759Y129067D01*
X205447D01*
X205119Y128739D01*
Y128083D01*
X205447Y127755D01*
X205775D01*
X206103Y128083D01*
Y129067D01*
X199868Y137861D02*
X200196Y138189D01*
Y138845D01*
X199868Y139173D01*
X198556D01*
X198228Y138845D01*
Y138189D01*
X198556Y137861D01*
X199868Y137205D02*
X200196Y136877D01*
Y136221D01*
X199868Y135893D01*
X199540D01*
X199212Y136221D01*
Y136549D01*
Y136221D01*
X198884Y135893D01*
X198556D01*
X198228Y136221D01*
Y136877D01*
X198556Y137205D01*
X199868Y135237D02*
X200196Y134909D01*
Y134253D01*
X199868Y133925D01*
X198556D01*
X198228Y134253D01*
Y134909D01*
X198556Y135237D01*
X199868D01*
X206364Y141798D02*
X206692Y142126D01*
Y142782D01*
X206364Y143110D01*
X205052D01*
X204724Y142782D01*
Y142126D01*
X205052Y141798D01*
X206364Y141142D02*
X206692Y140814D01*
Y140158D01*
X206364Y139830D01*
X206036D01*
X205708Y140158D01*
Y140486D01*
Y140158D01*
X205380Y139830D01*
X205052D01*
X204724Y140158D01*
Y140814D01*
X205052Y141142D01*
X204724Y139174D02*
Y138518D01*
Y138846D01*
X206692D01*
X206364Y139174D01*
X344744Y218375D02*
X345072Y218047D01*
X345728D01*
X346056Y218375D01*
Y219687D01*
X345728Y220015D01*
X345072D01*
X344744Y219687D01*
X344088Y218375D02*
X343760Y218047D01*
X343105D01*
X342776Y218375D01*
Y218703D01*
X343105Y219031D01*
X343432D01*
X343105D01*
X342776Y219359D01*
Y219687D01*
X343105Y220015D01*
X343760D01*
X344088Y219687D01*
X342121D02*
X341793Y220015D01*
X341137D01*
X340809Y219687D01*
Y218375D01*
X341137Y218047D01*
X341793D01*
X342121Y218375D01*
Y218703D01*
X341793Y219031D01*
X340809D01*
X344744Y225157D02*
X345072Y224829D01*
X345728D01*
X346056Y225157D01*
Y226469D01*
X345728Y226797D01*
X345072D01*
X344744Y226469D01*
X343105Y226797D02*
Y224829D01*
X344088Y225813D01*
X342776D01*
X342121Y225157D02*
X341793Y224829D01*
X341137D01*
X340809Y225157D01*
Y226469D01*
X341137Y226797D01*
X341793D01*
X342121Y226469D01*
Y225157D01*
X394742Y221363D02*
X394414Y221035D01*
Y220379D01*
X394742Y220051D01*
X396054D01*
X396382Y220379D01*
Y221035D01*
X396054Y221363D01*
X396382Y223003D02*
X394414D01*
X395398Y222019D01*
Y223331D01*
X396382Y225299D02*
Y223987D01*
X395070Y225299D01*
X394742D01*
X394414Y224971D01*
Y224315D01*
X394742Y223987D01*
X300945Y231764D02*
X300617Y232092D01*
X299961D01*
X299633Y231764D01*
Y230452D01*
X299961Y230124D01*
X300617D01*
X300945Y230452D01*
X302585Y230124D02*
Y232092D01*
X301601Y231108D01*
X302912D01*
X304552Y230124D02*
Y232092D01*
X303569Y231108D01*
X304880D01*
X300903Y225394D02*
X300575Y225722D01*
X299919D01*
X299591Y225394D01*
Y224082D01*
X299919Y223754D01*
X300575D01*
X300903Y224082D01*
X302543Y223754D02*
Y225722D01*
X301559Y224738D01*
X302871D01*
X304839Y225722D02*
X303527D01*
Y224738D01*
X304183Y225066D01*
X304511D01*
X304839Y224738D01*
Y224082D01*
X304511Y223754D01*
X303855D01*
X303527Y224082D01*
X312458Y243237D02*
X312786Y243565D01*
Y244221D01*
X312458Y244549D01*
X311146D01*
X310818Y244221D01*
Y243565D01*
X311146Y243237D01*
X310818Y241597D02*
X312786D01*
X311802Y242581D01*
Y241269D01*
X312786Y239301D02*
X312458Y239957D01*
X311802Y240613D01*
X311146D01*
X310818Y240285D01*
Y239629D01*
X311146Y239301D01*
X311474D01*
X311802Y239629D01*
Y240613D01*
X116107Y261657D02*
X118075D01*
Y262641D01*
X117747Y262969D01*
X116435D01*
X116107Y262641D01*
Y261657D01*
X118075Y263625D02*
Y264281D01*
Y263953D01*
X116107D01*
X116435Y263625D01*
X116142Y197244D02*
X118110D01*
Y198228D01*
X117782Y198556D01*
X116470D01*
X116142Y198228D01*
Y197244D01*
X118110Y200524D02*
Y199212D01*
X116798Y200524D01*
X116470D01*
X116142Y200196D01*
Y199540D01*
X116470Y199212D01*
X173431Y263007D02*
Y264975D01*
X172448D01*
X172119Y264647D01*
Y263335D01*
X172448Y263007D01*
X173431D01*
X170480Y264975D02*
Y263007D01*
X171464Y263991D01*
X170152D01*
X143807Y225325D02*
X145381Y226375D01*
X143807D02*
X145381Y225325D01*
Y226900D02*
Y227424D01*
Y227162D01*
X143807D01*
X144069Y226900D01*
D14*
X89724Y266181D02*
Y258310D01*
X85789D01*
X84477Y259622D01*
Y262245D01*
X85789Y263557D01*
X89724D01*
X87101D02*
X84477Y266181D01*
X81853Y258310D02*
Y266181D01*
X76605D01*
X73981D02*
X71358D01*
X72670D01*
Y258310D01*
X73981Y259622D01*
X89764Y220472D02*
Y212601D01*
X85828D01*
X84516Y213913D01*
Y216537D01*
X85828Y217849D01*
X89764D01*
X87140D02*
X84516Y220472D01*
X81892Y212601D02*
Y220472D01*
X76645D01*
X68773D02*
X74021D01*
X68773Y215225D01*
Y213913D01*
X70085Y212601D01*
X72709D01*
X74021Y213913D01*
D17*
X189254Y41092D02*
Y43091D01*
Y42092D01*
X184256D01*
X183256Y43091D01*
Y44091D01*
X184256Y45090D01*
X183256Y39092D02*
Y37093D01*
Y38093D01*
X189254D01*
X188254Y39092D01*
X135553Y30222D02*
X136552Y29222D01*
X138551D01*
X139551Y30222D01*
Y34221D01*
X138551Y35220D01*
X136552D01*
X135553Y34221D01*
X133553Y35220D02*
X131554D01*
X132553D01*
Y29222D01*
X133553Y30222D01*
X128555D02*
X127555Y29222D01*
X125556D01*
X124556Y30222D01*
Y34221D01*
X125556Y35220D01*
X127555D01*
X128555Y34221D01*
Y30222D01*
X329418Y251422D02*
X328418Y252422D01*
X326419D01*
X325419Y251422D01*
Y250422D01*
X326419Y249423D01*
X328418D01*
X329418Y248423D01*
Y247423D01*
X328418Y246424D01*
X326419D01*
X325419Y247423D01*
X331417Y246424D02*
X333416D01*
X332417D01*
Y252422D01*
X331417Y251422D01*
X256183Y41092D02*
Y43091D01*
Y42092D01*
X251185D01*
X250185Y43091D01*
Y44091D01*
X251185Y45090D01*
X250185Y35094D02*
Y39092D01*
X254184Y35094D01*
X255183D01*
X256183Y36093D01*
Y38093D01*
X255183Y39092D01*
X269597Y215007D02*
Y217007D01*
Y216007D01*
X264598D01*
X263598Y217007D01*
Y218007D01*
X264598Y219006D01*
X269597Y209010D02*
X268597Y211009D01*
X266597Y213008D01*
X264598D01*
X263598Y212009D01*
Y210009D01*
X264598Y209010D01*
X265598D01*
X266597Y210009D01*
Y213008D01*
X76497Y30222D02*
X77497Y29222D01*
X79496D01*
X80496Y30222D01*
Y34221D01*
X79496Y35220D01*
X77497D01*
X76497Y34221D01*
X74498Y30222D02*
X73498Y29222D01*
X71499D01*
X70499Y30222D01*
Y31222D01*
X71499Y32221D01*
X70499Y33221D01*
Y34221D01*
X71499Y35220D01*
X73498D01*
X74498Y34221D01*
Y33221D01*
X73498Y32221D01*
X74498Y31222D01*
Y30222D01*
X73498Y32221D02*
X71499D01*
X221364Y46337D02*
X220364Y45338D01*
Y43338D01*
X221364Y42339D01*
X225362D01*
X226362Y43338D01*
Y45338D01*
X225362Y46337D01*
Y48337D02*
X226362Y49336D01*
Y51336D01*
X225362Y52335D01*
X221364D01*
X220364Y51336D01*
Y49336D01*
X221364Y48337D01*
X222363D01*
X223363Y49336D01*
Y52335D01*
X2844Y21534D02*
Y19535D01*
Y20535D01*
X7843D01*
X8843Y19535D01*
Y18535D01*
X7843Y17535D01*
X3844Y23534D02*
X2844Y24533D01*
Y26533D01*
X3844Y27532D01*
X4844D01*
X5844Y26533D01*
Y25533D01*
Y26533D01*
X6843Y27532D01*
X7843D01*
X8843Y26533D01*
Y24533D01*
X7843Y23534D01*
X-1683Y246141D02*
Y244141D01*
Y245141D01*
X3315D01*
X4315Y244141D01*
Y243141D01*
X3315Y242142D01*
X4315Y251139D02*
X-1683D01*
X1316Y248140D01*
Y252138D01*
X-1683Y194172D02*
Y192173D01*
Y193172D01*
X3315D01*
X4315Y192173D01*
Y191173D01*
X3315Y190173D01*
X-1683Y200170D02*
Y196171D01*
X1316D01*
X316Y198171D01*
Y199170D01*
X1316Y200170D01*
X3315D01*
X4315Y199170D01*
Y197171D01*
X3315Y196171D01*
X32071Y85646D02*
X26073D01*
Y88645D01*
X27073Y89644D01*
X29072D01*
X30071Y88645D01*
Y85646D01*
Y87645D02*
X32071Y89644D01*
X27073Y91644D02*
X26073Y92643D01*
Y94643D01*
X27073Y95643D01*
X28072D01*
X29072Y94643D01*
Y93643D01*
Y94643D01*
X30071Y95643D01*
X31071D01*
X32071Y94643D01*
Y92643D01*
X31071Y91644D01*
X164794Y281490D02*
Y275492D01*
X162794Y277491D01*
X160795Y275492D01*
Y281490D01*
X158796Y278491D02*
X154797D01*
X152797Y275492D02*
Y280490D01*
X151798Y281490D01*
X149799D01*
X148799Y280490D01*
Y275492D01*
X142801Y276491D02*
X143800Y275492D01*
X145800D01*
X146800Y276491D01*
Y277491D01*
X145800Y278491D01*
X143800D01*
X142801Y279490D01*
Y280490D01*
X143800Y281490D01*
X145800D01*
X146800Y280490D01*
X140801Y275492D02*
Y281490D01*
X137802D01*
X136803Y280490D01*
Y279490D01*
X137802Y278491D01*
X140801D01*
X137802D01*
X136803Y277491D01*
Y276491D01*
X137802Y275492D01*
X140801D01*
X134803Y281490D02*
X132804D01*
X133804D01*
Y275492D01*
X134803Y276491D01*
X282655Y261307D02*
Y263306D01*
Y262306D01*
X277656D01*
X276657Y263306D01*
Y264306D01*
X277656Y265305D01*
X282655Y259307D02*
Y255309D01*
X281655D01*
X277656Y259307D01*
X276657D01*
X299545Y244799D02*
Y242799D01*
Y243799D01*
X304544D01*
X305543Y242799D01*
Y241800D01*
X304544Y240800D01*
X300545Y246798D02*
X299545Y247798D01*
Y249797D01*
X300545Y250797D01*
X301545D01*
X302544Y249797D01*
X303544Y250797D01*
X304544D01*
X305543Y249797D01*
Y247798D01*
X304544Y246798D01*
X303544D01*
X302544Y247798D01*
X301545Y246798D01*
X300545D01*
X302544Y247798D02*
Y249797D01*
X181781Y164780D02*
X187779D01*
Y167779D01*
X186780Y168778D01*
X185780D01*
X184781Y167779D01*
Y164780D01*
Y167779D01*
X183781Y168778D01*
X182781D01*
X181781Y167779D01*
Y164780D01*
Y170778D02*
Y174776D01*
X182781D01*
X186780Y170778D01*
X187779D01*
Y174776D01*
Y176776D02*
Y178775D01*
Y177775D01*
X181781D01*
X182781Y176776D01*
X203880Y77880D02*
X197882D01*
Y74881D01*
X198882Y73882D01*
X202880D01*
X203880Y74881D01*
Y77880D01*
X202880Y71882D02*
X203880Y70883D01*
Y68883D01*
X202880Y67883D01*
X201881D01*
X200881Y68883D01*
Y69883D01*
Y68883D01*
X199881Y67883D01*
X198882D01*
X197882Y68883D01*
Y70883D01*
X198882Y71882D01*
X251719Y278281D02*
X250719Y279280D01*
X248720D01*
X247720Y278281D01*
Y277281D01*
X248720Y276281D01*
X250719D01*
X251719Y275282D01*
Y274282D01*
X250719Y273282D01*
X248720D01*
X247720Y274282D01*
X253718Y279280D02*
Y273282D01*
X255718Y275282D01*
X257717Y273282D01*
Y279280D01*
X259716Y273282D02*
X261716D01*
X260716D01*
Y279280D01*
X259716Y278281D01*
X136507Y201080D02*
Y200080D01*
X138506Y198081D01*
X140506Y200080D01*
Y201080D01*
X138506Y198081D02*
Y195082D01*
X142505D02*
X144504D01*
X143505D01*
Y201080D01*
X142505Y200080D01*
X175482Y98638D02*
X180481D01*
X181480Y99638D01*
Y101637D01*
X180481Y102637D01*
X175482D01*
X181480Y104636D02*
Y106635D01*
Y105635D01*
X175482D01*
X176482Y104636D01*
X384427Y242937D02*
Y247936D01*
X383427Y248936D01*
X381428D01*
X380428Y247936D01*
Y242937D01*
X378429Y243937D02*
X377429Y242937D01*
X375430D01*
X374430Y243937D01*
Y244937D01*
X375430Y245936D01*
X374430Y246936D01*
Y247936D01*
X375430Y248936D01*
X377429D01*
X378429Y247936D01*
Y246936D01*
X377429Y245936D01*
X378429Y244937D01*
Y243937D01*
X377429Y245936D02*
X375430D01*
X183381Y231792D02*
Y226793D01*
X184381Y225794D01*
X186380D01*
X187380Y226793D01*
Y231792D01*
X192378Y225794D02*
Y231792D01*
X189379Y228793D01*
X193378D01*
X106211Y155693D02*
Y151694D01*
Y153693D01*
X100213D01*
Y149695D02*
Y147696D01*
Y148695D01*
X106211D01*
X105211Y149695D01*
D19*
X179135Y124016D02*
X183858D01*
Y126377D01*
X183071Y127164D01*
X182284D01*
X181497Y126377D01*
Y124016D01*
Y126377D01*
X180710Y127164D01*
X179922D01*
X179135Y126377D01*
Y124016D01*
X183858Y128739D02*
X179135D01*
Y131100D01*
X179922Y131887D01*
X181497D01*
X182284Y131100D01*
Y128739D01*
Y130313D02*
X183858Y131887D01*
Y133462D02*
Y135036D01*
Y134249D01*
X179135D01*
X179922Y133462D01*
X175425Y72556D02*
Y75836D01*
X174769Y76492D01*
X173457D01*
X172801Y75836D01*
Y72556D01*
X168866Y76492D02*
X171489D01*
X168866Y73868D01*
Y73212D01*
X169521Y72556D01*
X170833D01*
X171489Y73212D01*
X210660Y268656D02*
Y265376D01*
X211316Y264721D01*
X212628D01*
X213284Y265376D01*
Y268656D01*
X214596Y268000D02*
X215251Y268656D01*
X216564D01*
X217219Y268000D01*
Y267344D01*
X216564Y266688D01*
X215908D01*
X216564D01*
X217219Y266032D01*
Y265376D01*
X216564Y264721D01*
X215251D01*
X214596Y265376D01*
X125903Y226150D02*
X129183D01*
X129839Y226806D01*
Y228117D01*
X129183Y228773D01*
X125903D01*
Y232709D02*
Y230085D01*
X127871D01*
X127215Y231397D01*
Y232053D01*
X127871Y232709D01*
X129183D01*
X129839Y232053D01*
Y230741D01*
X129183Y230085D01*
D201*
X149160Y249359D02*
X151390D01*
X150275D01*
Y246013D01*
X152505Y249359D02*
Y247129D01*
X153620Y246013D01*
X154735Y247129D01*
Y249359D01*
X158081Y248801D02*
X157523Y249359D01*
X156408D01*
X155851Y248801D01*
Y248244D01*
X156408Y247686D01*
X157523D01*
X158081Y247129D01*
Y246571D01*
X157523Y246013D01*
X156408D01*
X155851Y246571D01*
X159196Y246013D02*
X160311D01*
X159754D01*
Y249359D01*
X159196Y248801D01*
X312199Y274148D02*
X314560D01*
Y272968D01*
X314167Y272574D01*
X313379D01*
X312986Y272968D01*
Y274148D01*
Y273361D02*
X312199Y272574D01*
X314560Y271787D02*
Y270213D01*
Y271000D01*
X312199D01*
Y269425D02*
Y268638D01*
Y269032D01*
X314560D01*
X314167Y269425D01*
X183268Y75984D02*
Y74016D01*
X184580D01*
X185236D02*
X185891D01*
X185564D01*
Y75984D01*
X185236Y75656D01*
X363985Y277102D02*
X364378Y276708D01*
X365165D01*
X365559Y277102D01*
Y278676D01*
X365165Y279069D01*
X364378D01*
X363985Y278676D01*
X363198Y277102D02*
X362804Y276708D01*
X362017D01*
X361623Y277102D01*
Y277495D01*
X362017Y277889D01*
X362410D01*
X362017D01*
X361623Y278282D01*
Y278676D01*
X362017Y279069D01*
X362804D01*
X363198Y278676D01*
X360836Y277102D02*
X360443Y276708D01*
X359655D01*
X359262Y277102D01*
Y277495D01*
X359655Y277889D01*
X360049D01*
X359655D01*
X359262Y278282D01*
Y278676D01*
X359655Y279069D01*
X360443D01*
X360836Y278676D01*
X383064Y277494D02*
X382671Y277888D01*
X381884D01*
X381490Y277494D01*
Y275920D01*
X381884Y275526D01*
X382671D01*
X383064Y275920D01*
X383852Y277494D02*
X384245Y277888D01*
X385032D01*
X385426Y277494D01*
Y277100D01*
X385032Y276707D01*
X384639D01*
X385032D01*
X385426Y276313D01*
Y275920D01*
X385032Y275526D01*
X384245D01*
X383852Y275920D01*
X387787Y277888D02*
X386213D01*
Y276707D01*
X387000Y277100D01*
X387394D01*
X387787Y276707D01*
Y275920D01*
X387394Y275526D01*
X386607D01*
X386213Y275920D01*
X316041Y224320D02*
X318829D01*
X319387Y224877D01*
Y225992D01*
X318829Y226550D01*
X316041D01*
Y227665D02*
Y229895D01*
X316599D01*
X318829Y227665D01*
X319387D01*
X124281Y281112D02*
X121132D01*
Y279538D01*
X121657Y279013D01*
X122182D01*
X122707Y279538D01*
Y281112D01*
Y279538D01*
X123231Y279013D01*
X123756D01*
X124281Y279538D01*
Y281112D01*
Y275864D02*
Y276914D01*
Y276389D01*
X121657D01*
X121132Y276914D01*
Y277438D01*
X121657Y277963D01*
X124281Y274815D02*
Y272716D01*
Y273765D01*
X121132D01*
Y271666D02*
Y270617D01*
Y271141D01*
X124281D01*
X123756Y271666D01*
X119881Y219094D02*
X116732D01*
Y217520D01*
X117257Y216995D01*
X117782D01*
X118307Y217520D01*
Y219094D01*
Y217520D01*
X118831Y216995D01*
X119356D01*
X119881Y217520D01*
Y219094D01*
Y213847D02*
Y214896D01*
Y214372D01*
X117257D01*
X116732Y214896D01*
Y215421D01*
X117257Y215946D01*
X119881Y212797D02*
Y210698D01*
Y211748D01*
X116732D01*
Y207550D02*
Y209649D01*
X118831Y207550D01*
X119356D01*
X119881Y208074D01*
Y209124D01*
X119356Y209649D01*
X210630Y183070D02*
Y179921D01*
X212204D01*
X212729Y180446D01*
Y180971D01*
X212204Y181495D01*
X210630D01*
X212204D01*
X212729Y182020D01*
Y182545D01*
X212204Y183070D01*
X210630D01*
X215878D02*
X214828D01*
X215353D01*
Y180446D01*
X214828Y179921D01*
X214303D01*
X213778Y180446D01*
X216927Y183070D02*
X219026D01*
X217977D01*
Y179921D01*
X220076Y182545D02*
X220601Y183070D01*
X221650D01*
X222175Y182545D01*
Y182020D01*
X221650Y181495D01*
X221125D01*
X221650D01*
X222175Y180971D01*
Y180446D01*
X221650Y179921D01*
X220601D01*
X220076Y180446D01*
X223622Y177755D02*
Y174606D01*
X225196D01*
X225721Y175131D01*
Y175656D01*
X225196Y176181D01*
X223622D01*
X225196D01*
X225721Y176705D01*
Y177230D01*
X225196Y177755D01*
X223622D01*
X228870D02*
X227820D01*
X228345D01*
Y175131D01*
X227820Y174606D01*
X227295D01*
X226771Y175131D01*
X229919Y177755D02*
X232018D01*
X230969D01*
Y174606D01*
X234642D02*
Y177755D01*
X233068Y176181D01*
X235167D01*
X345859Y278873D02*
X342710D01*
Y277298D01*
X343235Y276774D01*
X343760D01*
X344285Y277298D01*
Y278873D01*
Y277298D01*
X344810Y276774D01*
X345334D01*
X345859Y277298D01*
Y278873D01*
Y273625D02*
Y274675D01*
Y274150D01*
X343235D01*
X342710Y274675D01*
Y275199D01*
X343235Y275724D01*
X345859Y272575D02*
Y270476D01*
Y271526D01*
X342710D01*
X345859Y267328D02*
Y269427D01*
X344285D01*
X344810Y268377D01*
Y267853D01*
X344285Y267328D01*
X343235D01*
X342710Y267853D01*
Y268902D01*
X343235Y269427D01*
D202*
X126250Y264182D02*
X127431D01*
Y263592D01*
X127234Y263395D01*
X126840D01*
X126644Y263592D01*
Y264182D01*
Y263789D02*
X126250Y263395D01*
Y263002D02*
Y262608D01*
Y262805D01*
X127431D01*
X127234Y263002D01*
X133681Y268907D02*
Y267727D01*
X133091D01*
X132894Y267924D01*
Y268317D01*
X133091Y268514D01*
X133681D01*
X133288D02*
X132894Y268907D01*
X131713D02*
X132500D01*
X131713Y268120D01*
Y267924D01*
X131910Y267727D01*
X132304D01*
X132500Y267924D01*
X127466Y208609D02*
Y209790D01*
X128057D01*
X128254Y209593D01*
Y209199D01*
X128057Y209003D01*
X127466D01*
X127860D02*
X128254Y208609D01*
X129238D02*
Y209790D01*
X128647Y209199D01*
X129434D01*
X124191Y199066D02*
X123010D01*
Y199657D01*
X123207Y199854D01*
X123601D01*
X123797Y199657D01*
Y199066D01*
Y199460D02*
X124191Y199854D01*
X123010Y201034D02*
Y200247D01*
X123601D01*
X123404Y200641D01*
Y200838D01*
X123601Y201034D01*
X123994D01*
X124191Y200838D01*
Y200444D01*
X123994Y200247D01*
X207284Y192323D02*
X206103D01*
Y192914D01*
X206300Y193110D01*
X206694D01*
X206890Y192914D01*
Y192323D01*
Y192717D02*
X207284Y193110D01*
X206103Y194291D02*
X206300Y193897D01*
X206694Y193504D01*
X207087D01*
X207284Y193701D01*
Y194094D01*
X207087Y194291D01*
X206890D01*
X206694Y194094D01*
Y193504D01*
X127466Y213609D02*
Y214790D01*
X128057D01*
X128254Y214593D01*
Y214199D01*
X128057Y214003D01*
X127466D01*
X127860D02*
X128254Y213609D01*
X128647Y214790D02*
X129434D01*
Y214593D01*
X128647Y213806D01*
Y213609D01*
X163134Y227291D02*
Y226110D01*
X162543D01*
X162346Y226307D01*
Y226701D01*
X162543Y226897D01*
X163134D01*
X162740D02*
X162346Y227291D01*
X161953Y226307D02*
X161756Y226110D01*
X161362D01*
X161166Y226307D01*
Y226504D01*
X161362Y226701D01*
X161166Y226897D01*
Y227094D01*
X161362Y227291D01*
X161756D01*
X161953Y227094D01*
Y226897D01*
X161756Y226701D01*
X161953Y226504D01*
Y226307D01*
X161756Y226701D02*
X161362D01*
X154033Y218991D02*
Y217810D01*
X153443D01*
X153246Y218007D01*
Y218401D01*
X153443Y218597D01*
X154033D01*
X153639D02*
X153246Y218991D01*
X152852Y218794D02*
X152656Y218991D01*
X152262D01*
X152065Y218794D01*
Y218007D01*
X152262Y217810D01*
X152656D01*
X152852Y218007D01*
Y218204D01*
X152656Y218401D01*
X152065D01*
X204391Y252666D02*
X203210D01*
Y253257D01*
X203407Y253454D01*
X203801D01*
X203997Y253257D01*
Y252666D01*
Y253060D02*
X204391Y253454D01*
Y253847D02*
Y254241D01*
Y254044D01*
X203210D01*
X203407Y253847D01*
Y254831D02*
X203210Y255028D01*
Y255421D01*
X203407Y255618D01*
X204194D01*
X204391Y255421D01*
Y255028D01*
X204194Y254831D01*
X203407D01*
X197791Y269067D02*
X196610D01*
Y269657D01*
X196807Y269854D01*
X197201D01*
X197397Y269657D01*
Y269067D01*
Y269460D02*
X197791Y269854D01*
Y270247D02*
Y270641D01*
Y270444D01*
X196610D01*
X196807Y270247D01*
X197791Y271231D02*
Y271625D01*
Y271428D01*
X196610D01*
X196807Y271231D01*
X211591Y243067D02*
X210410D01*
Y243657D01*
X210607Y243854D01*
X211001D01*
X211197Y243657D01*
Y243067D01*
Y243460D02*
X211591Y243854D01*
Y244247D02*
Y244641D01*
Y244444D01*
X210410D01*
X210607Y244247D01*
X211591Y246018D02*
Y245231D01*
X210804Y246018D01*
X210607D01*
X210410Y245821D01*
Y245428D01*
X210607Y245231D01*
X204391Y264266D02*
X203210D01*
Y264857D01*
X203407Y265054D01*
X203801D01*
X203997Y264857D01*
Y264266D01*
Y264660D02*
X204391Y265054D01*
Y265447D02*
Y265841D01*
Y265644D01*
X203210D01*
X203407Y265447D01*
Y266431D02*
X203210Y266628D01*
Y267021D01*
X203407Y267218D01*
X203604D01*
X203801Y267021D01*
Y266825D01*
Y267021D01*
X203997Y267218D01*
X204194D01*
X204391Y267021D01*
Y266628D01*
X204194Y266431D01*
X188491Y267766D02*
X187310D01*
Y268357D01*
X187507Y268554D01*
X187901D01*
X188097Y268357D01*
Y267766D01*
Y268160D02*
X188491Y268554D01*
Y268947D02*
Y269341D01*
Y269144D01*
X187310D01*
X187507Y268947D01*
X188491Y270521D02*
X187310D01*
X187901Y269931D01*
Y270718D01*
X183191Y267766D02*
X182010D01*
Y268357D01*
X182207Y268554D01*
X182601D01*
X182797Y268357D01*
Y267766D01*
Y268160D02*
X183191Y268554D01*
Y268947D02*
Y269341D01*
Y269144D01*
X182010D01*
X182207Y268947D01*
X182010Y270718D02*
Y269931D01*
X182601D01*
X182404Y270325D01*
Y270521D01*
X182601Y270718D01*
X182994D01*
X183191Y270521D01*
Y270128D01*
X182994Y269931D01*
X218009Y198334D02*
X219190D01*
Y197743D01*
X218993Y197546D01*
X218599D01*
X218403Y197743D01*
Y198334D01*
Y197940D02*
X218009Y197546D01*
Y197153D02*
Y196759D01*
Y196956D01*
X219190D01*
X218993Y197153D01*
X219190Y195382D02*
X218993Y195775D01*
X218599Y196169D01*
X218206D01*
X218009Y195972D01*
Y195578D01*
X218206Y195382D01*
X218403D01*
X218599Y195578D01*
Y196169D01*
X245881Y263346D02*
Y264527D01*
X246472D01*
X246668Y264330D01*
Y263936D01*
X246472Y263739D01*
X245881D01*
X246275D02*
X246668Y263346D01*
X247062D02*
X247456D01*
X247259D01*
Y264527D01*
X247062Y264330D01*
X248046Y264527D02*
X248833D01*
Y264330D01*
X248046Y263543D01*
Y263346D01*
X229591Y195667D02*
X228410D01*
Y196257D01*
X228607Y196454D01*
X229001D01*
X229197Y196257D01*
Y195667D01*
Y196060D02*
X229591Y196454D01*
Y196847D02*
Y197241D01*
Y197044D01*
X228410D01*
X228607Y196847D01*
Y197831D02*
X228410Y198028D01*
Y198422D01*
X228607Y198618D01*
X228804D01*
X229001Y198422D01*
X229197Y198618D01*
X229394D01*
X229591Y198422D01*
Y198028D01*
X229394Y197831D01*
X229197D01*
X229001Y198028D01*
X228804Y197831D01*
X228607D01*
X229001Y198028D02*
Y198422D01*
X226733Y218391D02*
Y217210D01*
X226143D01*
X225946Y217407D01*
Y217801D01*
X226143Y217997D01*
X226733D01*
X226340D02*
X225946Y218391D01*
X225553D02*
X225159D01*
X225356D01*
Y217210D01*
X225553Y217407D01*
X224569Y218194D02*
X224372Y218391D01*
X223978D01*
X223782Y218194D01*
Y217407D01*
X223978Y217210D01*
X224372D01*
X224569Y217407D01*
Y217604D01*
X224372Y217801D01*
X223782D01*
X226466Y224009D02*
Y225190D01*
X227057D01*
X227254Y224993D01*
Y224599D01*
X227057Y224403D01*
X226466D01*
X226860D02*
X227254Y224009D01*
X228434D02*
X227647D01*
X228434Y224796D01*
Y224993D01*
X228238Y225190D01*
X227844D01*
X227647Y224993D01*
X228828D02*
X229025Y225190D01*
X229418D01*
X229615Y224993D01*
Y224206D01*
X229418Y224009D01*
X229025D01*
X228828Y224206D01*
Y224993D01*
X210433Y173425D02*
Y174606D01*
X211024D01*
X211221Y174409D01*
Y174015D01*
X211024Y173818D01*
X210433D01*
X210827D02*
X211221Y173425D01*
X212401D02*
X211614D01*
X212401Y174212D01*
Y174409D01*
X212205Y174606D01*
X211811D01*
X211614Y174409D01*
X212795Y173425D02*
X213189D01*
X212992D01*
Y174606D01*
X212795Y174409D01*
X263966Y263409D02*
Y264590D01*
X264557D01*
X264754Y264393D01*
Y263999D01*
X264557Y263803D01*
X263966D01*
X264360D02*
X264754Y263409D01*
X265934D02*
X265147D01*
X265934Y264196D01*
Y264393D01*
X265738Y264590D01*
X265344D01*
X265147Y264393D01*
X267115Y263409D02*
X266328D01*
X267115Y264196D01*
Y264393D01*
X266918Y264590D01*
X266525D01*
X266328Y264393D01*
X373115Y260181D02*
Y261362D01*
X373705D01*
X373902Y261165D01*
Y260771D01*
X373705Y260575D01*
X373115D01*
X373508D02*
X373902Y260181D01*
X375083D02*
X374295D01*
X375083Y260968D01*
Y261165D01*
X374886Y261362D01*
X374492D01*
X374295Y261165D01*
X375476D02*
X375673Y261362D01*
X376067D01*
X376263Y261165D01*
Y260968D01*
X376067Y260771D01*
X375870D01*
X376067D01*
X376263Y260575D01*
Y260378D01*
X376067Y260181D01*
X375673D01*
X375476Y260378D01*
X356294Y263125D02*
X355113D01*
Y263715D01*
X355310Y263912D01*
X355703D01*
X355900Y263715D01*
Y263125D01*
Y263519D02*
X356294Y263912D01*
Y265093D02*
Y264306D01*
X355506Y265093D01*
X355310D01*
X355113Y264896D01*
Y264503D01*
X355310Y264306D01*
X356294Y266077D02*
X355113D01*
X355703Y265487D01*
Y266274D01*
X312791Y251666D02*
X311610D01*
Y252257D01*
X311807Y252454D01*
X312201D01*
X312397Y252257D01*
Y251666D01*
Y252060D02*
X312791Y252454D01*
Y253634D02*
Y252847D01*
X312004Y253634D01*
X311807D01*
X311610Y253438D01*
Y253044D01*
X311807Y252847D01*
X311610Y254815D02*
Y254028D01*
X312201D01*
X312004Y254421D01*
Y254618D01*
X312201Y254815D01*
X312594D01*
X312791Y254618D01*
Y254225D01*
X312594Y254028D01*
X393005Y270999D02*
Y269818D01*
X392415D01*
X392218Y270015D01*
Y270409D01*
X392415Y270605D01*
X393005D01*
X392612D02*
X392218Y270999D01*
X391038D02*
X391825D01*
X391038Y270212D01*
Y270015D01*
X391234Y269818D01*
X391628D01*
X391825Y270015D01*
X389857Y269818D02*
X390250Y270015D01*
X390644Y270409D01*
Y270802D01*
X390447Y270999D01*
X390054D01*
X389857Y270802D01*
Y270605D01*
X390054Y270409D01*
X390644D01*
X384788Y264699D02*
Y265880D01*
X385378D01*
X385575Y265683D01*
Y265289D01*
X385378Y265093D01*
X384788D01*
X385181D02*
X385575Y264699D01*
X386755D02*
X385968D01*
X386755Y265486D01*
Y265683D01*
X386559Y265880D01*
X386165D01*
X385968Y265683D01*
X387149Y265880D02*
X387936D01*
Y265683D01*
X387149Y264896D01*
Y264699D01*
X368409Y267833D02*
X369590D01*
Y267243D01*
X369393Y267046D01*
X368999D01*
X368803Y267243D01*
Y267833D01*
Y267440D02*
X368409Y267046D01*
Y265865D02*
Y266652D01*
X369196Y265865D01*
X369393D01*
X369590Y266062D01*
Y266456D01*
X369393Y266652D01*
Y265472D02*
X369590Y265275D01*
Y264881D01*
X369393Y264685D01*
X369196D01*
X368999Y264881D01*
X368803Y264685D01*
X368606D01*
X368409Y264881D01*
Y265275D01*
X368606Y265472D01*
X368803D01*
X368999Y265275D01*
X369196Y265472D01*
X369393D01*
X368999Y265275D02*
Y264881D01*
X314367Y217809D02*
Y218990D01*
X314957D01*
X315154Y218793D01*
Y218399D01*
X314957Y218203D01*
X314367D01*
X314760D02*
X315154Y217809D01*
X316334D02*
X315547D01*
X316334Y218596D01*
Y218793D01*
X316138Y218990D01*
X315744D01*
X315547Y218793D01*
X316728Y218006D02*
X316925Y217809D01*
X317318D01*
X317515Y218006D01*
Y218793D01*
X317318Y218990D01*
X316925D01*
X316728Y218793D01*
Y218596D01*
X316925Y218399D01*
X317515D01*
X333859Y217456D02*
X332678D01*
Y218046D01*
X332875Y218243D01*
X333268D01*
X333465Y218046D01*
Y217456D01*
Y217849D02*
X333859Y218243D01*
X332875Y218636D02*
X332678Y218833D01*
Y219227D01*
X332875Y219424D01*
X333072D01*
X333268Y219227D01*
Y219030D01*
Y219227D01*
X333465Y219424D01*
X333662D01*
X333859Y219227D01*
Y218833D01*
X333662Y218636D01*
X332875Y219817D02*
X332678Y220014D01*
Y220408D01*
X332875Y220604D01*
X333662D01*
X333859Y220408D01*
Y220014D01*
X333662Y219817D01*
X332875D01*
X328709Y217456D02*
X327529D01*
Y218046D01*
X327725Y218243D01*
X328119D01*
X328316Y218046D01*
Y217456D01*
Y217849D02*
X328709Y218243D01*
X327725Y218636D02*
X327529Y218833D01*
Y219227D01*
X327725Y219424D01*
X327922D01*
X328119Y219227D01*
Y219030D01*
Y219227D01*
X328316Y219424D01*
X328513D01*
X328709Y219227D01*
Y218833D01*
X328513Y218636D01*
X328709Y219817D02*
Y220211D01*
Y220014D01*
X327529D01*
X327725Y219817D01*
X370791Y220267D02*
X369610D01*
Y220857D01*
X369807Y221054D01*
X370201D01*
X370397Y220857D01*
Y220267D01*
Y220660D02*
X370791Y221054D01*
X369807Y221447D02*
X369610Y221644D01*
Y222038D01*
X369807Y222234D01*
X370004D01*
X370201Y222038D01*
Y221841D01*
Y222038D01*
X370397Y222234D01*
X370594D01*
X370791Y222038D01*
Y221644D01*
X370594Y221447D01*
X370791Y223415D02*
Y222628D01*
X370004Y223415D01*
X369807D01*
X369610Y223218D01*
Y222825D01*
X369807Y222628D01*
X386609Y225934D02*
X387790D01*
Y225343D01*
X387593Y225146D01*
X387199D01*
X387003Y225343D01*
Y225934D01*
Y225540D02*
X386609Y225146D01*
X387593Y224753D02*
X387790Y224556D01*
Y224162D01*
X387593Y223966D01*
X387396D01*
X387199Y224162D01*
Y224359D01*
Y224162D01*
X387003Y223966D01*
X386806D01*
X386609Y224162D01*
Y224556D01*
X386806Y224753D01*
X387593Y223572D02*
X387790Y223375D01*
Y222982D01*
X387593Y222785D01*
X387396D01*
X387199Y222982D01*
Y223179D01*
Y222982D01*
X387003Y222785D01*
X386806D01*
X386609Y222982D01*
Y223375D01*
X386806Y223572D01*
X355259Y217248D02*
Y218428D01*
X355850D01*
X356046Y218232D01*
Y217838D01*
X355850Y217641D01*
X355259D01*
X355653D02*
X356046Y217248D01*
X356440Y218232D02*
X356637Y218428D01*
X357030D01*
X357227Y218232D01*
Y218035D01*
X357030Y217838D01*
X356834D01*
X357030D01*
X357227Y217641D01*
Y217444D01*
X357030Y217248D01*
X356637D01*
X356440Y217444D01*
X358211Y217248D02*
Y218428D01*
X357621Y217838D01*
X358408D01*
X377391Y217667D02*
X376210D01*
Y218257D01*
X376407Y218454D01*
X376801D01*
X376997Y218257D01*
Y217667D01*
Y218060D02*
X377391Y218454D01*
X376407Y218847D02*
X376210Y219044D01*
Y219438D01*
X376407Y219634D01*
X376604D01*
X376801Y219438D01*
Y219241D01*
Y219438D01*
X376997Y219634D01*
X377194D01*
X377391Y219438D01*
Y219044D01*
X377194Y218847D01*
X376210Y220815D02*
Y220028D01*
X376801D01*
X376604Y220422D01*
Y220618D01*
X376801Y220815D01*
X377194D01*
X377391Y220618D01*
Y220225D01*
X377194Y220028D01*
X328931Y271983D02*
Y273163D01*
X329522D01*
X329718Y272966D01*
Y272573D01*
X329522Y272376D01*
X328931D01*
X329325D02*
X329718Y271983D01*
X330112Y272966D02*
X330309Y273163D01*
X330702D01*
X330899Y272966D01*
Y272770D01*
X330702Y272573D01*
X330506D01*
X330702D01*
X330899Y272376D01*
Y272179D01*
X330702Y271983D01*
X330309D01*
X330112Y272179D01*
X332080Y273163D02*
X331686Y272966D01*
X331293Y272573D01*
Y272179D01*
X331490Y271983D01*
X331883D01*
X332080Y272179D01*
Y272376D01*
X331883Y272573D01*
X331293D01*
X322042Y272180D02*
X320861D01*
Y272771D01*
X321058Y272967D01*
X321451D01*
X321648Y272771D01*
Y272180D01*
Y272574D02*
X322042Y272967D01*
X321058Y273361D02*
X320861Y273558D01*
Y273951D01*
X321058Y274148D01*
X321254D01*
X321451Y273951D01*
Y273754D01*
Y273951D01*
X321648Y274148D01*
X321845D01*
X322042Y273951D01*
Y273558D01*
X321845Y273361D01*
X320861Y274542D02*
Y275329D01*
X321058D01*
X321845Y274542D01*
X322042D01*
X396191Y246667D02*
X395010D01*
Y247257D01*
X395207Y247454D01*
X395601D01*
X395797Y247257D01*
Y246667D01*
Y247060D02*
X396191Y247454D01*
X395994Y247847D02*
X396191Y248044D01*
Y248438D01*
X395994Y248634D01*
X395207D01*
X395010Y248438D01*
Y248044D01*
X395207Y247847D01*
X395404D01*
X395601Y248044D01*
Y248634D01*
X395994Y249028D02*
X396191Y249225D01*
Y249618D01*
X395994Y249815D01*
X395207D01*
X395010Y249618D01*
Y249225D01*
X395207Y249028D01*
X395404D01*
X395601Y249225D01*
Y249815D01*
X178146Y56974D02*
X178343Y56777D01*
X178737D01*
X178934Y56974D01*
Y57761D01*
X178737Y57958D01*
X178343D01*
X178146Y57761D01*
X177753Y57958D02*
X177359D01*
X177556D01*
Y56777D01*
X177753Y56974D01*
X205708Y100787D02*
X205905Y100984D01*
Y101378D01*
X205708Y101574D01*
X204921D01*
X204724Y101378D01*
Y100984D01*
X204921Y100787D01*
X204724Y99607D02*
Y100394D01*
X205511Y99607D01*
X205708D01*
X205905Y99803D01*
Y100197D01*
X205708Y100394D01*
X182481Y88779D02*
X182284Y88976D01*
X181890D01*
X181693Y88779D01*
Y87992D01*
X181890Y87795D01*
X182284D01*
X182481Y87992D01*
X183661Y88976D02*
X183268Y88779D01*
X182874Y88385D01*
Y87992D01*
X183071Y87795D01*
X183464D01*
X183661Y87992D01*
Y88188D01*
X183464Y88385D01*
X182874D01*
X125746Y250607D02*
X125943Y250410D01*
X126337D01*
X126533Y250607D01*
Y251394D01*
X126337Y251591D01*
X125943D01*
X125746Y251394D01*
X125353Y251591D02*
X124959D01*
X125156D01*
Y250410D01*
X125353Y250607D01*
X123582Y250410D02*
X124369D01*
Y251001D01*
X123975Y250804D01*
X123778D01*
X123582Y251001D01*
Y251394D01*
X123778Y251591D01*
X124172D01*
X124369Y251394D01*
X128993Y201746D02*
X129190Y201943D01*
Y202337D01*
X128993Y202533D01*
X128206D01*
X128009Y202337D01*
Y201943D01*
X128206Y201746D01*
X128009Y201353D02*
Y200959D01*
Y201156D01*
X129190D01*
X128993Y201353D01*
X128206Y200369D02*
X128009Y200172D01*
Y199778D01*
X128206Y199582D01*
X128993D01*
X129190Y199778D01*
Y200172D01*
X128993Y200369D01*
X128796D01*
X128599Y200172D01*
Y199582D01*
X155407Y196454D02*
X155210Y196257D01*
Y195863D01*
X155407Y195667D01*
X156194D01*
X156391Y195863D01*
Y196257D01*
X156194Y196454D01*
X156391Y197634D02*
Y196847D01*
X155604Y197634D01*
X155407D01*
X155210Y197438D01*
Y197044D01*
X155407Y196847D01*
Y198028D02*
X155210Y198225D01*
Y198618D01*
X155407Y198815D01*
X156194D01*
X156391Y198618D01*
Y198225D01*
X156194Y198028D01*
X155407D01*
X373902Y266283D02*
X373705Y266480D01*
X373312D01*
X373115Y266283D01*
Y265496D01*
X373312Y265299D01*
X373705D01*
X373902Y265496D01*
X374295Y266283D02*
X374492Y266480D01*
X374886D01*
X375083Y266283D01*
Y266086D01*
X374886Y265889D01*
X374689D01*
X374886D01*
X375083Y265693D01*
Y265496D01*
X374886Y265299D01*
X374492D01*
X374295Y265496D01*
X376263Y265299D02*
X375476D01*
X376263Y266086D01*
Y266283D01*
X376067Y266480D01*
X375673D01*
X375476Y266283D01*
X300254Y219593D02*
X300057Y219790D01*
X299663D01*
X299467Y219593D01*
Y218806D01*
X299663Y218609D01*
X300057D01*
X300254Y218806D01*
X300647Y219593D02*
X300844Y219790D01*
X301238D01*
X301434Y219593D01*
Y219396D01*
X301238Y219199D01*
X301041D01*
X301238D01*
X301434Y219003D01*
Y218806D01*
X301238Y218609D01*
X300844D01*
X300647Y218806D01*
X302418Y218609D02*
Y219790D01*
X301828Y219199D01*
X302615D01*
X355111Y255103D02*
X355308Y255300D01*
Y255693D01*
X355111Y255890D01*
X354324D01*
X354127Y255693D01*
Y255300D01*
X354324Y255103D01*
X355111Y254709D02*
X355308Y254512D01*
Y254119D01*
X355111Y253922D01*
X354914D01*
X354718Y254119D01*
Y254316D01*
Y254119D01*
X354521Y253922D01*
X354324D01*
X354127Y254119D01*
Y254512D01*
X354324Y254709D01*
X355308Y252741D02*
X355111Y253135D01*
X354718Y253528D01*
X354324D01*
X354127Y253332D01*
Y252938D01*
X354324Y252741D01*
X354521D01*
X354718Y252938D01*
Y253528D01*
X385575Y260565D02*
X385378Y260762D01*
X384984D01*
X384788Y260565D01*
Y259778D01*
X384984Y259581D01*
X385378D01*
X385575Y259778D01*
X385968Y260565D02*
X386165Y260762D01*
X386559D01*
X386755Y260565D01*
Y260368D01*
X386559Y260171D01*
X386362D01*
X386559D01*
X386755Y259974D01*
Y259778D01*
X386559Y259581D01*
X386165D01*
X385968Y259778D01*
X387149Y260762D02*
X387936D01*
Y260565D01*
X387149Y259778D01*
Y259581D01*
X364193Y267046D02*
X364390Y267243D01*
Y267636D01*
X364193Y267833D01*
X363406D01*
X363209Y267636D01*
Y267243D01*
X363406Y267046D01*
X364193Y266652D02*
X364390Y266456D01*
Y266062D01*
X364193Y265865D01*
X363996D01*
X363799Y266062D01*
Y266259D01*
Y266062D01*
X363603Y265865D01*
X363406D01*
X363209Y266062D01*
Y266456D01*
X363406Y266652D01*
X364193Y265472D02*
X364390Y265275D01*
Y264881D01*
X364193Y264685D01*
X363996D01*
X363799Y264881D01*
X363603Y264685D01*
X363406D01*
X363209Y264881D01*
Y265275D01*
X363406Y265472D01*
X363603D01*
X363799Y265275D01*
X363996Y265472D01*
X364193D01*
X363799Y265275D02*
Y264881D01*
X396193Y239346D02*
X396390Y239543D01*
Y239937D01*
X396193Y240133D01*
X395406D01*
X395209Y239937D01*
Y239543D01*
X395406Y239346D01*
X395209Y238362D02*
X396390D01*
X395799Y238953D01*
Y238166D01*
X395209Y237772D02*
Y237378D01*
Y237575D01*
X396390D01*
X396193Y237772D01*
X381607Y218454D02*
X381410Y218257D01*
Y217863D01*
X381607Y217667D01*
X382394D01*
X382591Y217863D01*
Y218257D01*
X382394Y218454D01*
X382591Y219438D02*
X381410D01*
X382001Y218847D01*
Y219634D01*
X381607Y220028D02*
X381410Y220225D01*
Y220618D01*
X381607Y220815D01*
X381804D01*
X382001Y220618D01*
Y220422D01*
Y220618D01*
X382197Y220815D01*
X382394D01*
X382591Y220618D01*
Y220225D01*
X382394Y220028D01*
X205207Y153854D02*
X205010Y153657D01*
Y153263D01*
X205207Y153067D01*
X205994D01*
X206191Y153263D01*
Y153657D01*
X205994Y153854D01*
X206191Y155034D02*
Y154247D01*
X205404Y155034D01*
X205207D01*
X205010Y154838D01*
Y154444D01*
X205207Y154247D01*
X205010Y156215D02*
X205207Y155822D01*
X205601Y155428D01*
X205994D01*
X206191Y155625D01*
Y156018D01*
X205994Y156215D01*
X205797D01*
X205601Y156018D01*
Y155428D01*
M02*
