G04*
G04 #@! TF.GenerationSoftware,Altium Limited,Altium Designer,21.7.1 (17)*
G04*
G04 Layer_Color=8388736*
%FSLAX25Y25*%
%MOIN*%
G70*
G04*
G04 #@! TF.SameCoordinates,891A90FC-BE59-465C-B327-3CD4912ABD0C*
G04*
G04*
G04 #@! TF.FilePolarity,Negative*
G04*
G01*
G75*
%ADD64R,0.04528X0.02559*%
%ADD65R,0.15748X0.24803*%
%ADD66R,0.08268X0.17717*%
%ADD67R,0.03937X0.03937*%
%ADD68R,0.03937X0.06299*%
%ADD69R,0.06299X0.03937*%
%ADD70R,0.07913X0.05906*%
%ADD71R,0.05118X0.12205*%
%ADD72R,0.04882X0.05118*%
%ADD73R,0.01968X0.05906*%
%ADD74R,0.07480X0.07874*%
%ADD75R,0.09449X0.07874*%
%ADD76R,0.08268X0.04724*%
%ADD77R,0.11193X0.08894*%
%ADD78R,0.02756X0.05118*%
%ADD79R,0.07480X0.06378*%
%ADD80R,0.03937X0.04193*%
%ADD81R,0.04193X0.03937*%
%ADD82R,0.05512X0.13780*%
%ADD83R,0.04331X0.03543*%
%ADD84R,0.03150X0.06299*%
%ADD85R,0.06299X0.05118*%
%ADD86R,0.06378X0.07874*%
%ADD87R,0.05512X0.04882*%
%ADD88R,0.04882X0.05512*%
%ADD89R,0.04193X0.04331*%
%ADD90R,0.04331X0.04193*%
%ADD91R,0.05118X0.02756*%
%ADD92R,0.03543X0.02756*%
%ADD93R,0.02756X0.03543*%
%ADD94R,0.02559X0.04528*%
%ADD95R,0.06693X0.05315*%
%ADD96R,0.06693X0.05118*%
%ADD97R,0.06693X0.13386*%
%ADD98R,0.02677X0.05039*%
%ADD99R,0.01575X0.05118*%
%ADD100R,0.05118X0.01575*%
%ADD101R,0.02362X0.06299*%
%ADD102R,0.06299X0.02362*%
%ADD103R,0.04331X0.02362*%
%ADD104R,0.06693X0.16142*%
%ADD105R,0.16142X0.06693*%
%ADD106R,0.07480X0.06693*%
%ADD107C,0.07087*%
%ADD108C,0.06299*%
%ADD109C,0.12205*%
%ADD110C,0.08268*%
%ADD111R,0.04331X0.04331*%
%ADD112C,0.05906*%
%ADD113C,0.10236*%
%ADD114R,0.10236X0.10236*%
%ADD115C,0.03162*%
D64*
X160630Y41732D02*
D03*
X149606D02*
D03*
X175400Y263400D02*
D03*
X164376D02*
D03*
D65*
X159618Y20894D02*
D03*
X210405D02*
D03*
X277335D02*
D03*
X226547D02*
D03*
D66*
X187374Y57902D02*
D03*
X254303D02*
D03*
D67*
X236250Y105127D02*
D03*
X241761D02*
D03*
X247273D02*
D03*
Y116150D02*
D03*
X241761D02*
D03*
X236250D02*
D03*
Y110638D02*
D03*
X247273D02*
D03*
X241761D02*
D03*
D68*
X270158Y71122D02*
D03*
X265158D02*
D03*
X260158D02*
D03*
X255158D02*
D03*
X250158D02*
D03*
X245158D02*
D03*
X240158D02*
D03*
X235158D02*
D03*
X230158D02*
D03*
X225158D02*
D03*
D69*
X213189Y76024D02*
D03*
Y81024D02*
D03*
Y86024D02*
D03*
Y91024D02*
D03*
Y96024D02*
D03*
Y101024D02*
D03*
Y106024D02*
D03*
Y111024D02*
D03*
Y116024D02*
D03*
Y121024D02*
D03*
Y126024D02*
D03*
Y131024D02*
D03*
Y136024D02*
D03*
Y141024D02*
D03*
X282087Y76024D02*
D03*
Y81024D02*
D03*
Y86024D02*
D03*
Y91024D02*
D03*
Y96024D02*
D03*
Y101024D02*
D03*
Y106024D02*
D03*
Y111024D02*
D03*
Y116024D02*
D03*
Y121024D02*
D03*
Y126024D02*
D03*
Y131024D02*
D03*
Y136024D02*
D03*
Y141024D02*
D03*
D70*
X250000Y180400D02*
D03*
Y190400D02*
D03*
Y200400D02*
D03*
Y210400D02*
D03*
Y220400D02*
D03*
D71*
X219882Y59449D02*
D03*
Y40945D02*
D03*
D72*
X356260Y223400D02*
D03*
X363740D02*
D03*
X334540Y278800D02*
D03*
X327060D02*
D03*
D73*
X156739Y268710D02*
D03*
X154180D02*
D03*
X151620D02*
D03*
X149061D02*
D03*
X146502D02*
D03*
D74*
X147093Y279537D02*
D03*
X156148D02*
D03*
D75*
X136857D02*
D03*
X166384D02*
D03*
D76*
X151181Y55610D02*
D03*
Y47539D02*
D03*
D77*
X202000Y80101D02*
D03*
Y62699D02*
D03*
D78*
X149160Y244045D02*
D03*
X152900D02*
D03*
X156640D02*
D03*
X149160Y253100D02*
D03*
X152900D02*
D03*
X156640D02*
D03*
D79*
X313970Y278322D02*
D03*
Y264857D02*
D03*
D80*
X126841Y263149D02*
D03*
Y256948D02*
D03*
X123600Y200100D02*
D03*
Y206300D02*
D03*
X206693Y193356D02*
D03*
Y199557D02*
D03*
X203800Y253700D02*
D03*
Y259900D02*
D03*
X197200Y270100D02*
D03*
Y276300D02*
D03*
X211000Y244100D02*
D03*
Y250300D02*
D03*
X203800Y265300D02*
D03*
Y271500D02*
D03*
X187900Y268800D02*
D03*
Y275000D02*
D03*
X182600Y268800D02*
D03*
Y275000D02*
D03*
X218600Y197300D02*
D03*
Y191100D02*
D03*
X229000Y196700D02*
D03*
Y202900D02*
D03*
X355703Y264158D02*
D03*
Y270359D02*
D03*
X312200Y252700D02*
D03*
Y258900D02*
D03*
X369000Y266800D02*
D03*
Y260599D02*
D03*
X333268Y218489D02*
D03*
Y224690D02*
D03*
X328118Y218489D02*
D03*
Y224690D02*
D03*
X370200Y221300D02*
D03*
Y227500D02*
D03*
X387200Y224900D02*
D03*
Y218700D02*
D03*
X376800Y218700D02*
D03*
Y224900D02*
D03*
X321451Y273213D02*
D03*
Y279414D02*
D03*
X395600Y247700D02*
D03*
Y253900D02*
D03*
D81*
X132648Y268317D02*
D03*
X126447D02*
D03*
X128500Y209200D02*
D03*
X134700D02*
D03*
X128500Y214200D02*
D03*
X134700D02*
D03*
X162100Y226700D02*
D03*
X155900D02*
D03*
X153000Y218400D02*
D03*
X146799D02*
D03*
X246914Y263937D02*
D03*
X253115D02*
D03*
X225700Y217800D02*
D03*
X219500D02*
D03*
X227500Y224600D02*
D03*
X233700D02*
D03*
X211467Y174016D02*
D03*
X217667D02*
D03*
X265000Y264000D02*
D03*
X271200D02*
D03*
X374148Y260772D02*
D03*
X380349D02*
D03*
X391972Y270408D02*
D03*
X385771D02*
D03*
X385821Y265290D02*
D03*
X392021D02*
D03*
X315400Y218400D02*
D03*
X321600D02*
D03*
X356292Y217839D02*
D03*
X362493D02*
D03*
X329964Y272573D02*
D03*
X336165D02*
D03*
D82*
X182874Y75000D02*
D03*
X191142D02*
D03*
D83*
X242193Y272381D02*
D03*
Y281042D02*
D03*
X270933D02*
D03*
Y272381D02*
D03*
D84*
X265420Y269822D02*
D03*
X247703D02*
D03*
X253609D02*
D03*
D85*
X162402Y146457D02*
D03*
Y125984D02*
D03*
X197441Y146457D02*
D03*
Y125984D02*
D03*
D86*
X369732Y277298D02*
D03*
X356268D02*
D03*
X377317D02*
D03*
X390781D02*
D03*
D87*
X199409Y101575D02*
D03*
Y94095D02*
D03*
Y107087D02*
D03*
Y114567D02*
D03*
X205906Y107087D02*
D03*
Y114567D02*
D03*
X175000Y281140D02*
D03*
Y273660D02*
D03*
X264369Y238961D02*
D03*
Y231480D02*
D03*
X258069Y238961D02*
D03*
Y231480D02*
D03*
X270400Y238961D02*
D03*
Y231480D02*
D03*
X213000Y198940D02*
D03*
Y191460D02*
D03*
X224981Y248210D02*
D03*
Y240730D02*
D03*
X218482Y248210D02*
D03*
Y240730D02*
D03*
X231477Y248210D02*
D03*
Y240730D02*
D03*
X176400Y206660D02*
D03*
Y214140D02*
D03*
X179600Y253080D02*
D03*
Y245600D02*
D03*
X205906Y123228D02*
D03*
Y130709D02*
D03*
X199409Y139764D02*
D03*
Y132283D02*
D03*
X205906Y143701D02*
D03*
Y136221D02*
D03*
X395200Y219460D02*
D03*
Y226940D02*
D03*
X312000Y245140D02*
D03*
Y237660D02*
D03*
D88*
X159260Y56800D02*
D03*
X166740D02*
D03*
X236580Y271203D02*
D03*
X229100D02*
D03*
X125219Y245276D02*
D03*
X117739D02*
D03*
X236580Y277699D02*
D03*
X229100D02*
D03*
X208640Y205700D02*
D03*
X201160D02*
D03*
X346648Y218833D02*
D03*
X339167D02*
D03*
X346648Y225615D02*
D03*
X339167D02*
D03*
X299042Y231306D02*
D03*
X306522D02*
D03*
X299000Y224936D02*
D03*
X306481D02*
D03*
D89*
X177900Y57367D02*
D03*
X171700D02*
D03*
X182726Y88386D02*
D03*
X188927D02*
D03*
X125500Y251000D02*
D03*
X119300D02*
D03*
X374148Y265890D02*
D03*
X380349D02*
D03*
X300500Y219200D02*
D03*
X306700D02*
D03*
X385821Y260172D02*
D03*
X392021D02*
D03*
D90*
X205315Y100541D02*
D03*
Y94340D02*
D03*
X128600Y201500D02*
D03*
Y195300D02*
D03*
X155800Y196700D02*
D03*
Y202900D02*
D03*
X354718Y254857D02*
D03*
Y248656D02*
D03*
X363800Y266800D02*
D03*
Y260599D02*
D03*
X395800Y239100D02*
D03*
Y232900D02*
D03*
X382000Y218700D02*
D03*
Y224900D02*
D03*
X205600Y154100D02*
D03*
Y160300D02*
D03*
D91*
X321355Y231800D02*
D03*
X312300Y224320D02*
D03*
Y231800D02*
D03*
X321355Y228060D02*
D03*
Y224320D02*
D03*
D92*
X128022Y273632D02*
D03*
X120148Y277372D02*
D03*
X128022Y281112D02*
D03*
X123622Y211614D02*
D03*
X115748Y215354D02*
D03*
X123622Y219094D02*
D03*
X349600Y271392D02*
D03*
X341726Y275132D02*
D03*
X349600Y278873D02*
D03*
D93*
X218110Y186811D02*
D03*
X214370Y178937D02*
D03*
X210630Y186811D02*
D03*
X231102Y181496D02*
D03*
X227362Y173622D02*
D03*
X223622Y181496D02*
D03*
D94*
X116500Y259688D02*
D03*
Y270712D02*
D03*
X116535Y195276D02*
D03*
Y206299D02*
D03*
D95*
X134916Y194869D02*
D03*
Y203531D02*
D03*
X149484Y194869D02*
D03*
Y203531D02*
D03*
D96*
X192323Y95276D02*
D03*
Y104331D02*
D03*
Y113386D02*
D03*
D97*
X167126Y104331D02*
D03*
D98*
X390191Y233558D02*
D03*
X385191D02*
D03*
X380191D02*
D03*
X375191D02*
D03*
X370191D02*
D03*
X365191D02*
D03*
X360191D02*
D03*
Y254503D02*
D03*
X365191D02*
D03*
X370191D02*
D03*
X375191D02*
D03*
X380191D02*
D03*
X385191D02*
D03*
X390191D02*
D03*
D99*
X183759Y211998D02*
D03*
X185728D02*
D03*
X187696D02*
D03*
X189665D02*
D03*
X191633D02*
D03*
X193602D02*
D03*
X195570D02*
D03*
X197539D02*
D03*
X199507D02*
D03*
X201476D02*
D03*
X205413D02*
D03*
Y245463D02*
D03*
X203444D02*
D03*
X201476D02*
D03*
X199507D02*
D03*
X197539D02*
D03*
X195570D02*
D03*
X193602D02*
D03*
X191633D02*
D03*
X189665D02*
D03*
X187696D02*
D03*
X185728D02*
D03*
X183759D02*
D03*
X203444Y211998D02*
D03*
D100*
X211318Y217904D02*
D03*
Y219872D02*
D03*
Y221841D02*
D03*
Y223810D02*
D03*
Y225778D02*
D03*
Y227747D02*
D03*
Y229715D02*
D03*
Y231683D02*
D03*
Y233652D02*
D03*
Y235620D02*
D03*
Y237589D02*
D03*
Y239558D02*
D03*
X177854D02*
D03*
Y237589D02*
D03*
Y235620D02*
D03*
Y233652D02*
D03*
Y231683D02*
D03*
Y229715D02*
D03*
Y227747D02*
D03*
Y225778D02*
D03*
Y223810D02*
D03*
Y221841D02*
D03*
Y219872D02*
D03*
Y217904D02*
D03*
D101*
X177185Y84842D02*
D03*
X172185D02*
D03*
X167185D02*
D03*
X162185D02*
D03*
X177185Y63583D02*
D03*
X172185D02*
D03*
X167185D02*
D03*
X162185D02*
D03*
X208900Y256370D02*
D03*
X213900D02*
D03*
X218900D02*
D03*
X223900D02*
D03*
X208900Y277630D02*
D03*
X213900D02*
D03*
X218900D02*
D03*
X223900D02*
D03*
D102*
X138189Y224390D02*
D03*
Y229390D02*
D03*
Y234390D02*
D03*
Y239390D02*
D03*
X116929Y224390D02*
D03*
Y229390D02*
D03*
Y234390D02*
D03*
Y239390D02*
D03*
D103*
X144200Y224735D02*
D03*
Y229065D02*
D03*
D104*
X203862Y36244D02*
D03*
X270791D02*
D03*
D105*
X185039Y23622D02*
D03*
X251969D02*
D03*
D106*
X180693Y48465D02*
D03*
X247622D02*
D03*
D107*
X122047Y42323D02*
D03*
Y20669D02*
D03*
X62992D02*
D03*
Y42323D02*
D03*
D108*
X326403Y257613D02*
D03*
X340545Y243471D02*
D03*
Y257613D02*
D03*
D109*
X23622Y41142D02*
D03*
Y21063D02*
D03*
X19094Y265748D02*
D03*
Y245669D02*
D03*
Y213779D02*
D03*
Y193701D02*
D03*
D110*
X23228Y62992D02*
D03*
X23622Y173228D02*
D03*
X173425Y177953D02*
D03*
X193110D02*
D03*
D111*
X279200Y235400D02*
D03*
Y241305D02*
D03*
Y247211D02*
D03*
Y253116D02*
D03*
Y259022D02*
D03*
Y264928D02*
D03*
X303000Y270706D02*
D03*
Y264800D02*
D03*
Y258894D02*
D03*
Y252989D02*
D03*
Y247083D02*
D03*
Y241178D02*
D03*
D112*
X262468Y276712D02*
D03*
X250657D02*
D03*
D113*
X35433Y246457D02*
D03*
X65433D02*
D03*
X105433D02*
D03*
Y276457D02*
D03*
X45433D02*
D03*
X35472Y200748D02*
D03*
X65472D02*
D03*
X105472D02*
D03*
Y230748D02*
D03*
X45472D02*
D03*
D114*
X141732Y106299D02*
D03*
Y145669D02*
D03*
X62992Y86614D02*
D03*
Y165354D02*
D03*
D115*
X108019Y31496D02*
D03*
X172200Y69800D02*
D03*
X238000Y243000D02*
D03*
X210400Y160200D02*
D03*
X185000Y114000D02*
D03*
X390494Y228362D02*
D03*
X144400Y55600D02*
D03*
X186416Y125984D02*
D03*
X342400Y270400D02*
D03*
X185600Y188800D02*
D03*
X307000Y278400D02*
D03*
X316939Y235394D02*
D03*
X324000Y236000D02*
D03*
X139600Y256200D02*
D03*
X318400Y259200D02*
D03*
X367000Y216800D02*
D03*
X169200Y92400D02*
D03*
X163800D02*
D03*
X171400Y77200D02*
D03*
X164000Y77400D02*
D03*
X372200Y216800D02*
D03*
X319600Y241600D02*
D03*
X115400Y219800D02*
D03*
X179400Y97600D02*
D03*
Y103200D02*
D03*
Y108600D02*
D03*
X185000D02*
D03*
X238600Y51000D02*
D03*
X233067D02*
D03*
X229400Y266200D02*
D03*
X253200Y227600D02*
D03*
X170000Y244800D02*
D03*
X200000Y199000D02*
D03*
X171800Y253000D02*
D03*
X169200Y211200D02*
D03*
X222000Y51000D02*
D03*
X227533D02*
D03*
X216200Y52000D02*
D03*
X149200Y248400D02*
D03*
X182600Y279000D02*
D03*
X156600Y248400D02*
D03*
X187900Y279000D02*
D03*
X259200Y190400D02*
D03*
X166000Y240400D02*
D03*
X259200Y200400D02*
D03*
Y210400D02*
D03*
X186600Y251200D02*
D03*
X240600Y216600D02*
D03*
X231200Y186600D02*
D03*
X159600Y51000D02*
D03*
X171600Y52000D02*
D03*
X191200Y120000D02*
D03*
X210200Y146800D02*
D03*
X160600Y235800D02*
D03*
X218600Y204000D02*
D03*
X168200Y271400D02*
D03*
X205400Y89600D02*
D03*
X193600Y132600D02*
D03*
X115600Y251600D02*
D03*
X152900Y257345D02*
D03*
M02*
