G04*
G04 #@! TF.GenerationSoftware,Altium Limited,Altium Designer,21.7.1 (17)*
G04*
G04 Layer_Color=278392*
%FSLAX25Y25*%
%MOIN*%
G70*
G04*
G04 #@! TF.SameCoordinates,891A90FC-BE59-465C-B327-3CD4912ABD0C*
G04*
G04*
G04 #@! TF.FilePolarity,Positive*
G04*
G01*
G75*
%ADD12C,0.00394*%
%ADD19C,0.00787*%
D12*
X336209Y232241D02*
G03*
X330739Y232241I-2735J18301D01*
G01*
X207283Y177953D02*
G03*
X207283Y177953I-24016J0D01*
G01*
X147244Y38976D02*
X162992D01*
Y44488D01*
X147244D02*
X162992D01*
X147244Y38976D02*
Y44488D01*
X153543Y41732D02*
X156693D01*
X155118Y40157D02*
Y43307D01*
X154697Y-6272D02*
Y61839D01*
X215327D01*
X185012Y20894D02*
Y34673D01*
X179107Y27901D02*
X190917Y27863D01*
X154697Y-6272D02*
X215327D01*
Y61839D01*
X94882Y58268D02*
X149213D01*
X94882Y4537D02*
Y58268D01*
X122047Y27559D02*
Y35433D01*
X118110Y31496D02*
X125984D01*
X94882Y4537D02*
X149213D01*
Y58268D01*
X209842Y67884D02*
X285433D01*
X244882Y106073D02*
X250394D01*
X247638Y103317D02*
Y108829D01*
X209842Y67884D02*
Y171034D01*
X285433Y67884D02*
Y171034D01*
X209842D02*
X285433D01*
X330718Y250542D02*
X336230D01*
X333474Y247786D02*
Y253298D01*
X336230Y231250D02*
Y232038D01*
X330718Y228888D02*
Y232040D01*
X336230Y229676D02*
Y231250D01*
Y228888D02*
Y229676D01*
X330718Y228888D02*
X331540Y228066D01*
X335408D02*
X336230Y228888D01*
X334943Y228066D02*
X335408D01*
X331540D02*
X335049D01*
X282256Y-6272D02*
Y61839D01*
X221626Y-6272D02*
X282256D01*
X246037Y27901D02*
X257846Y27863D01*
X251941Y20894D02*
Y34673D01*
X221626Y61839D02*
X282256D01*
X221626Y-6272D02*
Y61839D01*
X245669Y227093D02*
X295276D01*
X245669Y174022D02*
Y227093D01*
Y174022D02*
X295276D01*
Y227093D01*
X270276Y192920D02*
Y206699D01*
X262598Y199731D02*
X276772D01*
X90158Y4537D02*
Y58268D01*
X35827Y4537D02*
X90158D01*
X59055Y31496D02*
X66929D01*
X62992Y27559D02*
Y35433D01*
X35827Y4537D02*
Y58268D01*
X90158D01*
X217126Y50394D02*
X222638D01*
X219882Y47638D02*
Y53150D01*
X206496Y34646D02*
X233268D01*
Y65748D01*
X206496D02*
X233268D01*
X206496Y34646D02*
Y65748D01*
X360000Y222219D02*
Y224581D01*
X358819Y223400D02*
X361181D01*
X353701Y226148D02*
X366378D01*
Y220652D02*
Y226148D01*
X353701Y220652D02*
X366378D01*
X353701D02*
Y226148D01*
X337170Y276044D02*
Y281552D01*
X324501D02*
X337170D01*
X324501Y276044D02*
Y281552D01*
X329619Y278800D02*
X331981D01*
X330800Y277619D02*
Y279981D01*
X324501Y276044D02*
X337170D01*
X7874Y27165D02*
Y35039D01*
X4331Y31102D02*
X11417D01*
X-16267Y7480D02*
Y54724D01*
X32026D01*
X-16267Y7480D02*
X32026D01*
Y54724D01*
X3347Y251772D02*
Y259646D01*
X-197Y255709D02*
X6890D01*
X-20795Y232087D02*
Y279331D01*
X27499D01*
X-20795Y232087D02*
X27499D01*
Y279331D01*
X3347Y199803D02*
Y207677D01*
X-197Y203740D02*
X6890D01*
X-20795Y180118D02*
Y227362D01*
X27499D01*
X-20795Y180118D02*
X27499D01*
Y227362D01*
X18898Y118110D02*
X27953D01*
X23622Y113779D02*
Y122441D01*
X3937Y177627D02*
X43377D01*
X3998Y58601D02*
X42721D01*
X3937Y58661D02*
X3998Y58601D01*
X3937Y58661D02*
Y177627D01*
X43377Y58601D02*
Y177627D01*
X42721Y58601D02*
X43377D01*
X131935Y265167D02*
Y288002D01*
X171306Y265167D02*
Y288002D01*
X131935D02*
X171306D01*
X131935Y265167D02*
X171306D01*
X151620Y275009D02*
Y280521D01*
X147683Y277765D02*
X154770D01*
X273688Y271424D02*
X288255D01*
X273688Y228904D02*
Y271424D01*
Y228904D02*
X288255D01*
Y271424D01*
X293945Y234682D02*
X308512D01*
Y277202D01*
X293945D02*
X308512D01*
X293945Y234682D02*
Y277202D01*
X181299Y177953D02*
X185236D01*
X183268Y175984D02*
Y179921D01*
X146850Y58268D02*
X155512D01*
X146850Y44882D02*
Y58268D01*
Y44882D02*
X155512D01*
Y58268D01*
X150000Y51575D02*
X152362D01*
X151181Y50394D02*
Y52756D01*
X209480Y58014D02*
Y84786D01*
X194520D02*
X209480D01*
X194520Y58014D02*
Y84786D01*
Y58014D02*
X209480D01*
X202000Y69038D02*
Y73369D01*
X199638Y71400D02*
X204362D01*
X152900Y247391D02*
Y249753D01*
X151719Y248572D02*
X154081D01*
X146601Y255659D02*
X159199D01*
Y241486D02*
Y255659D01*
X146601Y241486D02*
X159199D01*
X146601D02*
Y255659D01*
X310033Y261475D02*
X317907D01*
X310033D02*
Y281715D01*
X317907D01*
Y261475D02*
Y281715D01*
X313970Y270408D02*
Y272770D01*
X312789Y271589D02*
X315151D01*
X125660Y260049D02*
X128022D01*
X126841Y258868D02*
Y261230D01*
X124495Y254683D02*
X129183D01*
X124495D02*
Y265399D01*
X129183D01*
Y254683D02*
Y265399D01*
X129548Y267135D02*
Y269498D01*
X128366Y268317D02*
X130729D01*
X124181Y265974D02*
Y270663D01*
X134898D01*
Y265974D02*
Y270663D01*
X124181Y265974D02*
X134898D01*
X131600Y208019D02*
Y210381D01*
X130419Y209200D02*
X132781D01*
X136966Y206854D02*
Y211543D01*
X126250Y206854D02*
X136966D01*
X126250D02*
Y211543D01*
X136966D01*
X122419Y203200D02*
X124781D01*
X123600Y202019D02*
Y204381D01*
X121257Y208566D02*
X125946D01*
Y197850D02*
Y208566D01*
X121257Y197850D02*
X125946D01*
X121257D02*
Y208566D01*
X205512Y196457D02*
X207874D01*
X206693Y195276D02*
Y197638D01*
X204350Y201823D02*
X209039D01*
Y191106D02*
Y201823D01*
X204350Y191106D02*
X209039D01*
X204350D02*
Y201823D01*
X131600Y213019D02*
Y215381D01*
X130419Y214200D02*
X132781D01*
X136966Y211854D02*
Y216543D01*
X126250Y211854D02*
X136966D01*
X126250D02*
Y216543D01*
X136966D01*
X159000Y225519D02*
Y227881D01*
X157819Y226700D02*
X160181D01*
X153634Y224358D02*
Y229047D01*
X164350D01*
Y224358D02*
Y229047D01*
X153634Y224358D02*
X164350D01*
X149900Y217219D02*
Y219581D01*
X148719Y218400D02*
X151081D01*
X144534Y216057D02*
Y220746D01*
X155250D01*
Y216057D02*
Y220746D01*
X144534Y216057D02*
X155250D01*
X202619Y256800D02*
X204981D01*
X203800Y255619D02*
Y257981D01*
X201458Y262166D02*
X206147D01*
Y251450D02*
Y262166D01*
X201458Y251450D02*
X206147D01*
X201458D02*
Y262166D01*
X196019Y273200D02*
X198381D01*
X197200Y272019D02*
Y274381D01*
X194858Y278566D02*
X199547D01*
Y267850D02*
Y278566D01*
X194858Y267850D02*
X199547D01*
X194858D02*
Y278566D01*
X209819Y247200D02*
X212181D01*
X211000Y246019D02*
Y248381D01*
X208658Y252566D02*
X213347D01*
Y241850D02*
Y252566D01*
X208658Y241850D02*
X213347D01*
X208658D02*
Y252566D01*
X202619Y268400D02*
X204981D01*
X203800Y267219D02*
Y269581D01*
X201458Y273766D02*
X206147D01*
Y263050D02*
Y273766D01*
X201458Y263050D02*
X206147D01*
X201458D02*
Y273766D01*
X186719Y271900D02*
X189081D01*
X187900Y270719D02*
Y273081D01*
X185557Y277266D02*
X190246D01*
Y266550D02*
Y277266D01*
X185557Y266550D02*
X190246D01*
X185557D02*
Y277266D01*
X181419Y271900D02*
X183781D01*
X182600Y270719D02*
Y273081D01*
X180257Y277266D02*
X184947D01*
Y266550D02*
Y277266D01*
X180257Y266550D02*
X184947D01*
X180257D02*
Y277266D01*
X217419Y194200D02*
X219781D01*
X218600Y193019D02*
Y195381D01*
X216253Y188834D02*
X220942D01*
X216253D02*
Y199550D01*
X220942D01*
Y188834D02*
Y199550D01*
X250015Y262756D02*
Y265118D01*
X248834Y263937D02*
X251196D01*
X255381Y261590D02*
Y266279D01*
X244664Y261590D02*
X255381D01*
X244664D02*
Y266279D01*
X255381D01*
X227819Y199800D02*
X230181D01*
X229000Y198619D02*
Y200981D01*
X226658Y205166D02*
X231347D01*
Y194450D02*
Y205166D01*
X226658Y194450D02*
X231347D01*
X226658D02*
Y205166D01*
X222600Y216619D02*
Y218981D01*
X221419Y217800D02*
X223781D01*
X217234Y215458D02*
Y220146D01*
X227950D01*
Y215458D02*
Y220146D01*
X217234Y215458D02*
X227950D01*
X230600Y223419D02*
Y225781D01*
X229419Y224600D02*
X231781D01*
X235966Y222253D02*
Y226942D01*
X225250Y222253D02*
X235966D01*
X225250D02*
Y226942D01*
X235966D01*
X214567Y172835D02*
Y175197D01*
X213386Y174016D02*
X215748D01*
X219933Y171669D02*
Y176358D01*
X209216Y171669D02*
X219933D01*
X209216D02*
Y176358D01*
X219933D01*
X268100Y262819D02*
Y265181D01*
X266919Y264000D02*
X269281D01*
X273466Y261653D02*
Y266342D01*
X262750Y261653D02*
X273466D01*
X262750D02*
Y266342D01*
X273466D01*
X377248Y259591D02*
Y261953D01*
X376067Y260772D02*
X378429D01*
X382614Y258425D02*
Y263114D01*
X371898Y258425D02*
X382614D01*
X371898D02*
Y263114D01*
X382614D01*
X354521Y267259D02*
X356884D01*
X355703Y266077D02*
Y268440D01*
X353360Y272625D02*
X358049D01*
Y261908D02*
Y272625D01*
X353360Y261908D02*
X358049D01*
X353360D02*
Y272625D01*
X311019Y255800D02*
X313381D01*
X312200Y254619D02*
Y256981D01*
X309858Y261166D02*
X314546D01*
Y250450D02*
Y261166D01*
X309858Y250450D02*
X314546D01*
X309858D02*
Y261166D01*
X388872Y269227D02*
Y271589D01*
X387691Y270408D02*
X390053D01*
X383506Y268066D02*
Y272755D01*
X394222D01*
Y268066D02*
Y272755D01*
X383506Y268066D02*
X394222D01*
X388921Y264109D02*
Y266471D01*
X387740Y265290D02*
X390102D01*
X394287Y262944D02*
Y267633D01*
X383571Y262944D02*
X394287D01*
X383571D02*
Y267633D01*
X394287D01*
X367819Y263700D02*
X370181D01*
X369000Y262519D02*
Y264881D01*
X366653Y258333D02*
X371342D01*
X366653D02*
Y269050D01*
X371342D01*
Y258333D02*
Y269050D01*
X318500Y217219D02*
Y219581D01*
X317319Y218400D02*
X319681D01*
X323866Y216054D02*
Y220743D01*
X313150Y216054D02*
X323866D01*
X313150D02*
Y220743D01*
X323866D01*
X332087Y221589D02*
X334449D01*
X333268Y220408D02*
Y222770D01*
X330925Y226955D02*
X335614D01*
Y216239D02*
Y226955D01*
X330925Y216239D02*
X335614D01*
X330925D02*
Y226955D01*
X326937Y221589D02*
X329299D01*
X328118Y220408D02*
Y222770D01*
X325776Y226955D02*
X330465D01*
Y216239D02*
Y226955D01*
X325776Y216239D02*
X330465D01*
X325776D02*
Y226955D01*
X369019Y224400D02*
X371381D01*
X370200Y223219D02*
Y225581D01*
X367858Y229766D02*
X372547D01*
Y219050D02*
Y229766D01*
X367858Y219050D02*
X372547D01*
X367858D02*
Y229766D01*
X386019Y221800D02*
X388381D01*
X387200Y220619D02*
Y222981D01*
X384854Y216434D02*
X389543D01*
X384854D02*
Y227150D01*
X389543D01*
Y216434D02*
Y227150D01*
X359393Y216657D02*
Y219020D01*
X358212Y217839D02*
X360574D01*
X364759Y215492D02*
Y220181D01*
X354042Y215492D02*
X364759D01*
X354042D02*
Y220181D01*
X364759D01*
X375619Y221800D02*
X377981D01*
X376800Y220619D02*
Y222981D01*
X374458Y227166D02*
X379147D01*
Y216450D02*
Y227166D01*
X374458Y216450D02*
X379147D01*
X374458D02*
Y227166D01*
X333065Y271392D02*
Y273755D01*
X331884Y272573D02*
X334246D01*
X338431Y270227D02*
Y274916D01*
X327714Y270227D02*
X338431D01*
X327714D02*
Y274916D01*
X338431D01*
X320269Y276314D02*
X322632D01*
X321451Y275132D02*
Y277495D01*
X319108Y281680D02*
X323797D01*
Y270963D02*
Y281680D01*
X319108Y270963D02*
X323797D01*
X319108D02*
Y281680D01*
X394419Y250800D02*
X396781D01*
X395600Y249619D02*
Y251981D01*
X393257Y256166D02*
X397947D01*
Y245450D02*
Y256166D01*
X393257Y245450D02*
X397947D01*
X393257D02*
Y256166D01*
X185433Y75000D02*
X188583D01*
X187008Y73425D02*
Y76575D01*
X179921Y82087D02*
X194095D01*
Y67913D02*
Y82087D01*
X179921Y67913D02*
X194095D01*
X179921D02*
Y82087D01*
X240027Y288031D02*
X273098D01*
Y266771D02*
Y288031D01*
X240027Y266771D02*
X273098D01*
X240027D02*
Y288031D01*
X253413Y277400D02*
X259712D01*
X256563Y274645D02*
Y280156D01*
X200787Y119291D02*
Y153150D01*
X159055Y119291D02*
X200787D01*
X159055Y153150D02*
X200787D01*
X159055Y119291D02*
Y153150D01*
X179921Y132283D02*
Y140157D01*
X175984Y136221D02*
X183858D01*
X352886Y273361D02*
Y281235D01*
X373118D01*
Y273361D02*
Y281235D01*
X352886Y273361D02*
X373118D01*
X361819Y277298D02*
X364181D01*
X363000Y276117D02*
Y278479D01*
X394163Y273361D02*
Y281235D01*
X373931Y273361D02*
X394163D01*
X373931D02*
Y281235D01*
X394163D01*
X382868Y277298D02*
X385230D01*
X384049Y276117D02*
Y278479D01*
X196487Y91535D02*
X202341D01*
X196487D02*
Y104134D01*
X199409Y96653D02*
Y99016D01*
X198228Y97835D02*
X200591D01*
X196487Y104134D02*
X202341D01*
Y91535D02*
Y104134D01*
X169299Y53878D02*
Y59732D01*
X156701Y53878D02*
X169299D01*
X161819Y56800D02*
X164181D01*
X163000Y55619D02*
Y57981D01*
X156701Y53878D02*
Y59732D01*
X169299D01*
X196478Y117126D02*
X202331D01*
Y104528D02*
Y117126D01*
X199409Y109646D02*
Y112008D01*
X198228Y110827D02*
X200591D01*
X196478Y104528D02*
X202331D01*
X196478D02*
Y117126D01*
X202974D02*
X208827D01*
Y104528D02*
Y117126D01*
X205906Y109646D02*
Y112008D01*
X204724Y110827D02*
X207087D01*
X202974Y104528D02*
X208827D01*
X202974D02*
Y117126D01*
X172078Y271101D02*
X177931D01*
X172078D02*
Y283699D01*
X175000Y276219D02*
Y278581D01*
X173819Y277400D02*
X176181D01*
X172078Y283699D02*
X177931D01*
Y271101D02*
Y283699D01*
X261447Y228921D02*
X267300D01*
X261447D02*
Y241520D01*
X264369Y234039D02*
Y236402D01*
X263187Y235221D02*
X265550D01*
X261447Y241520D02*
X267300D01*
Y228921D02*
Y241520D01*
X255147Y228921D02*
X261001D01*
X255147D02*
Y241520D01*
X258069Y234039D02*
Y236402D01*
X256888Y235221D02*
X259250D01*
X255147Y241520D02*
X261001D01*
Y228921D02*
Y241520D01*
X267478Y228921D02*
X273331D01*
X267478D02*
Y241520D01*
X270400Y234039D02*
Y236402D01*
X269219Y235221D02*
X271581D01*
X267478Y241520D02*
X273331D01*
Y228921D02*
Y241520D01*
X226541Y268272D02*
Y274125D01*
X239139D01*
X231659Y271203D02*
X234021D01*
X232840Y270022D02*
Y272384D01*
X239139Y268272D02*
Y274125D01*
X226541Y268272D02*
X239139D01*
X115180Y242344D02*
Y248198D01*
X127778D01*
X120298Y245276D02*
X122660D01*
X121479Y244094D02*
Y246457D01*
X127778Y242344D02*
Y248198D01*
X115180Y242344D02*
X127778D01*
X226541Y274768D02*
Y280621D01*
X239139D01*
X231659Y277699D02*
X234021D01*
X232840Y276518D02*
Y278880D01*
X239139Y274768D02*
Y280621D01*
X226541Y274768D02*
X239139D01*
X210078Y188901D02*
X215932D01*
X210078D02*
Y201499D01*
X213000Y194019D02*
Y196381D01*
X211819Y195200D02*
X214181D01*
X210078Y201499D02*
X215932D01*
Y188901D02*
Y201499D01*
X222059Y238171D02*
X227913D01*
X222059D02*
Y250769D01*
X224981Y243289D02*
Y245651D01*
X223800Y244470D02*
X226163D01*
X222059Y250769D02*
X227913D01*
Y238171D02*
Y250769D01*
X215560Y238171D02*
X221413D01*
X215560D02*
Y250769D01*
X218482Y243289D02*
Y245651D01*
X217301Y244470D02*
X219663D01*
X215560Y250769D02*
X221413D01*
Y238171D02*
Y250769D01*
X228555Y238171D02*
X234409D01*
X228555D02*
Y250769D01*
X231477Y243289D02*
Y245651D01*
X230296Y244470D02*
X232659D01*
X228555Y250769D02*
X234409D01*
Y238171D02*
Y250769D01*
X173468Y216699D02*
X179322D01*
Y204101D02*
Y216699D01*
X176400Y209219D02*
Y211581D01*
X175219Y210400D02*
X177581D01*
X173468Y204101D02*
X179322D01*
X173468D02*
Y216699D01*
X176678Y243041D02*
X182531D01*
X176678D02*
Y255639D01*
X179600Y248159D02*
Y250521D01*
X178419Y249340D02*
X180781D01*
X176678Y255639D02*
X182531D01*
Y243041D02*
Y255639D01*
X198601Y202768D02*
Y208622D01*
X211199D01*
X203719Y205700D02*
X206081D01*
X204900Y204519D02*
Y206881D01*
X211199Y202768D02*
Y208622D01*
X198601Y202768D02*
X211199D01*
X202974Y133268D02*
X208827D01*
Y120669D02*
Y133268D01*
X205906Y125787D02*
Y128150D01*
X204724Y126969D02*
X207087D01*
X202974Y120669D02*
X208827D01*
X202974D02*
Y133268D01*
X196487Y129724D02*
X202341D01*
X196487D02*
Y142323D01*
X199409Y134843D02*
Y137205D01*
X198228Y136024D02*
X200591D01*
X196487Y142323D02*
X202341D01*
Y129724D02*
Y142323D01*
X202984Y133661D02*
X208837D01*
X202984D02*
Y146260D01*
X205906Y138779D02*
Y141142D01*
X204724Y139961D02*
X207087D01*
X202984Y146260D02*
X208837D01*
Y133661D02*
Y146260D01*
X336608Y215902D02*
Y221755D01*
X349206D01*
X341726Y218833D02*
X344088D01*
X342907Y217652D02*
Y220014D01*
X349206Y215902D02*
Y221755D01*
X336608Y215902D02*
X349206D01*
X336608Y222684D02*
Y228537D01*
X349206D01*
X341726Y225615D02*
X344088D01*
X342907Y224434D02*
Y226796D01*
X349206Y222684D02*
Y228537D01*
X336608Y222684D02*
X349206D01*
X392268Y229499D02*
X398122D01*
Y216901D02*
Y229499D01*
X395200Y222019D02*
Y224381D01*
X394019Y223200D02*
X396381D01*
X392268Y216901D02*
X398122D01*
X392268D02*
Y229499D01*
X309081Y228384D02*
Y234237D01*
X296482Y228384D02*
X309081D01*
X301601Y231306D02*
X303963D01*
X302782Y230125D02*
Y232487D01*
X296482Y228384D02*
Y234237D01*
X309081D01*
X309040Y222014D02*
Y227867D01*
X296441Y222014D02*
X309040D01*
X301559Y224936D02*
X303922D01*
X302740Y223755D02*
Y226117D01*
X296441Y222014D02*
Y227867D01*
X309040D01*
X309078Y235101D02*
X314932D01*
X309078D02*
Y247699D01*
X312000Y240219D02*
Y242581D01*
X310819Y241400D02*
X313181D01*
X309078Y247699D02*
X314932D01*
Y235101D02*
Y247699D01*
X169410Y55398D02*
X180194D01*
Y59335D01*
X169410D02*
X180194D01*
X169410Y55398D02*
Y59335D01*
X173619Y57367D02*
X175981D01*
X174800Y56186D02*
Y58548D01*
X207283Y92051D02*
Y102835D01*
X203346D02*
X207283D01*
X203346Y92051D02*
Y102835D01*
Y92051D02*
X207283D01*
X205315Y96260D02*
Y98622D01*
X204134Y97441D02*
X206496D01*
X180433Y90354D02*
X191217D01*
X180433Y86417D02*
Y90354D01*
Y86417D02*
X191217D01*
Y90354D01*
X184646Y88386D02*
X187008D01*
X185827Y87205D02*
Y89567D01*
X117010Y249031D02*
X127794D01*
Y252969D01*
X117010D02*
X127794D01*
X117010Y249031D02*
Y252969D01*
X121219Y251000D02*
X123581D01*
X122400Y249819D02*
Y252181D01*
X130569Y193010D02*
Y203794D01*
X126631D02*
X130569D01*
X126631Y193010D02*
Y203794D01*
Y193010D02*
X130569D01*
X128600Y197219D02*
Y199581D01*
X127419Y198400D02*
X129781D01*
X153832Y194406D02*
Y205190D01*
Y194406D02*
X157768D01*
Y205190D01*
X153832D02*
X157768D01*
X155800Y198619D02*
Y200981D01*
X154619Y199800D02*
X156981D01*
X371855Y267859D02*
X382638D01*
X371855Y263921D02*
Y267859D01*
Y263921D02*
X382638D01*
Y267859D01*
X376067Y265890D02*
X378429D01*
X377248Y264709D02*
Y267071D01*
X298206Y221168D02*
X308990D01*
X298206Y217231D02*
Y221168D01*
Y217231D02*
X308990D01*
Y221168D01*
X302419Y219200D02*
X304781D01*
X303600Y218019D02*
Y220381D01*
X356687Y246367D02*
Y257150D01*
X352750D02*
X356687D01*
X352750Y246367D02*
Y257150D01*
Y246367D02*
X356687D01*
X354718Y250575D02*
Y252938D01*
X353537Y251757D02*
X355899D01*
X383527Y262140D02*
X394311D01*
X383527Y258203D02*
Y262140D01*
Y258203D02*
X394311D01*
Y262140D01*
X387740Y260172D02*
X390102D01*
X388921Y258991D02*
Y261353D01*
X365769Y258310D02*
Y269093D01*
X361831D02*
X365769D01*
X361831Y258310D02*
Y269093D01*
Y258310D02*
X365769D01*
X363800Y262519D02*
Y264881D01*
X362619Y263700D02*
X364981D01*
X397768Y230610D02*
Y241394D01*
X393831D02*
X397768D01*
X393831Y230610D02*
Y241394D01*
Y230610D02*
X397768D01*
X395800Y234819D02*
Y237181D01*
X394619Y236000D02*
X396981D01*
X380031Y216406D02*
Y227190D01*
Y216406D02*
X383968D01*
Y227190D01*
X380031D02*
X383968D01*
X382000Y220619D02*
Y222981D01*
X380819Y221800D02*
X383181D01*
X203631Y151806D02*
Y162590D01*
Y151806D02*
X207569D01*
Y162590D01*
X203631D02*
X207569D01*
X205600Y156019D02*
Y158381D01*
X204419Y157200D02*
X206781D01*
X309741Y221761D02*
X323914D01*
Y234359D01*
X309741D02*
X323914D01*
X309741Y221761D02*
Y234359D01*
X316828Y226879D02*
Y229241D01*
X315647Y228060D02*
X318009D01*
X118180Y283277D02*
X129991D01*
X118180Y271466D02*
Y283277D01*
Y271466D02*
X129991D01*
Y283277D01*
X122904Y277372D02*
X125266D01*
X124085Y276190D02*
Y278553D01*
X113779Y221260D02*
X125591D01*
X113779Y209449D02*
Y221260D01*
Y209449D02*
X125591D01*
Y221260D01*
X118504Y215354D02*
X120866D01*
X119685Y214173D02*
Y216535D01*
X208465Y176969D02*
Y188779D01*
Y176969D02*
X220276D01*
Y188779D01*
X208465D02*
X220276D01*
X214370Y181693D02*
Y184055D01*
X213189Y182874D02*
X215551D01*
X221457Y171653D02*
Y183465D01*
Y171653D02*
X233268D01*
Y183465D01*
X221457D02*
X233268D01*
X227362Y176378D02*
Y178740D01*
X226181Y177559D02*
X228543D01*
X339758Y281038D02*
X351569D01*
X339758Y269227D02*
Y281038D01*
Y269227D02*
X351569D01*
Y281038D01*
X344482Y275132D02*
X346844D01*
X345663Y273951D02*
Y276314D01*
X113744Y257326D02*
Y273074D01*
Y257326D02*
X119256D01*
Y273074D01*
X113744D02*
X119256D01*
X116500Y263625D02*
Y266775D01*
X114925Y265200D02*
X118075D01*
X113779Y192913D02*
Y208661D01*
Y192913D02*
X119291D01*
Y208661D01*
X113779D02*
X119291D01*
X116535Y199213D02*
Y202362D01*
X114961Y200787D02*
X118110D01*
X162014Y260644D02*
X177762D01*
Y266156D01*
X162014D02*
X177762D01*
X162014Y260644D02*
Y266156D01*
X168313Y263400D02*
X171463D01*
X169888Y261825D02*
Y264975D01*
X131570Y192113D02*
Y206287D01*
Y192113D02*
X152830D01*
Y206287D01*
X131570D02*
X152830D01*
X142200Y197625D02*
Y200775D01*
X140625Y199200D02*
X143775D01*
X29882Y240984D02*
X110984D01*
X29882D02*
Y281929D01*
X110984D01*
Y240984D02*
Y281929D01*
X70433Y256732D02*
Y266181D01*
X65709Y261457D02*
X75157D01*
X29921Y195276D02*
X111024D01*
X29921D02*
Y236221D01*
X111024D01*
Y195276D02*
Y236221D01*
X70472Y211024D02*
Y220472D01*
X65748Y215748D02*
X75197D01*
X179724Y101969D02*
Y106693D01*
X177362Y104331D02*
X182087D01*
X165157Y90945D02*
Y117717D01*
X194291D01*
Y90945D02*
Y117717D01*
X165157Y90945D02*
X194291D01*
X357474Y230644D02*
X392907D01*
X357474D02*
Y257416D01*
X392907D01*
Y230644D02*
Y257416D01*
X372829Y244030D02*
X377553D01*
X375191Y241274D02*
Y246392D01*
X174901Y209046D02*
Y236211D01*
Y209046D02*
X214271D01*
X214665Y248416D01*
X174901D02*
X214665D01*
X174901Y235030D02*
Y248416D01*
X194586Y226762D02*
Y230699D01*
X192617Y228731D02*
X196554D01*
X157087Y61417D02*
Y190551D01*
X47638Y61417D02*
X157087D01*
X47638D02*
Y190551D01*
X157087D01*
X102362Y118504D02*
Y133465D01*
X94882Y125984D02*
X110630D01*
X179527Y60433D02*
Y87992D01*
X159843Y60433D02*
Y87992D01*
Y60433D02*
X179527D01*
X169685Y71850D02*
Y76575D01*
X167323Y74213D02*
X172047D01*
X159843Y87992D02*
X179527D01*
X206557Y253221D02*
Y280780D01*
X226242Y253221D02*
Y280780D01*
X206557D02*
X226242D01*
X216400Y264638D02*
Y269362D01*
X214038Y267000D02*
X218762D01*
X206557Y253221D02*
X226242D01*
X113779Y222047D02*
X141339D01*
X113779Y241732D02*
X141339D01*
X113779Y222047D02*
Y241732D01*
X125197Y231890D02*
X129921D01*
X127559Y229528D02*
Y234252D01*
X141339Y222047D02*
Y241732D01*
X141838Y223357D02*
Y230443D01*
Y223357D02*
X146562D01*
Y230443D01*
X141838D02*
X146562D01*
X144200Y225719D02*
Y228081D01*
X143019Y226900D02*
X145381D01*
D19*
X277232Y250164D02*
X284318D01*
X280775Y247014D02*
Y250164D01*
X280775Y247014D02*
X280775Y247014D01*
Y250164D02*
Y253313D01*
X297882Y255942D02*
X304969D01*
X301425D02*
Y259091D01*
X301425Y259091D01*
X301425Y252792D02*
Y255942D01*
M02*
